<svg width="280" height="222" viewBox="0 0 280 222" fill="none" xmlns="http://www.w3.org/2000/svg">
<path d="M62.5039 61.2804C58.0311 67.6548 51.3285 72.5091 43.1751 74.5339C25.2488 78.9784 7.11473 68.0456 2.68793 50.1202C-1.73887 32.1949 9.17718 14.0422 27.1025 9.61539C45.0288 5.17087 63.1629 16.1037 67.5897 34.0291C69.2775 40.8147 68.7433 47.6261 66.47 53.7248L73.1875 64.2023L62.5048 61.2627L62.5039 61.2804Z" fill="white"/>
<path d="M36.7568 41.4305C36.7568 41.2354 36.8455 41.058 36.9697 40.9161C37.0939 40.7919 37.2713 40.7032 37.4842 40.7032C37.6971 40.7032 37.8567 40.7919 37.9987 40.9161C38.1228 41.0403 38.2115 41.2177 38.2115 41.4305C38.2115 41.6434 38.1228 41.8031 37.9987 41.945C37.8745 42.0692 37.6971 42.1579 37.4842 42.1579H36.7746V41.4483L36.7568 41.4305ZM21.4646 29.8283C21.163 29.6509 20.7727 29.7573 20.5953 30.0589C20.4179 30.3605 20.5243 30.7508 20.8259 30.9282L22.7241 32.0281C23.0257 32.2055 23.416 32.0991 23.5934 31.7975C23.7708 31.4959 23.6644 31.1056 23.3628 30.9282L21.4646 29.8283ZM27.4431 24.311C27.2657 24.0094 26.8754 23.903 26.5738 24.0804C26.2722 24.2578 26.1658 24.6481 26.3432 24.9497L27.4431 26.8479C27.6205 27.1495 28.0108 27.2559 28.3124 27.0785C28.614 26.9011 28.7204 26.5108 28.543 26.2092L27.4431 24.311ZM48.6784 30.9459C48.98 30.7685 49.0864 30.3782 48.909 30.0767C48.7316 29.7751 48.3413 29.6686 48.0398 29.846L46.1415 30.9459C45.8399 31.1233 45.7335 31.5136 45.9109 31.8152C46.0883 32.1168 46.4786 32.2233 46.7802 32.0458L48.6784 30.9459ZM43.1611 24.9674C43.3385 24.6658 43.2321 24.2755 42.9305 24.0981C42.6289 23.9207 42.2386 24.0272 42.0612 24.3288L40.9613 26.227C40.7839 26.5286 40.8904 26.9189 41.1919 27.0963C41.4935 27.2737 41.8838 27.1672 42.0612 26.8656L43.1611 24.9674ZM35.3908 22.537C35.3908 22.1822 35.107 21.8983 34.7522 21.8983C34.3974 21.8983 34.1135 22.1822 34.1135 22.537V24.7368C34.1135 25.0916 34.3974 25.3754 34.7522 25.3754C35.107 25.3754 35.3908 25.0916 35.3908 24.7368V22.537ZM34.0248 41.4483C34.0248 40.8983 33.7942 40.4016 33.4394 40.029L33.4039 39.9936C33.0491 39.6565 32.5523 39.4436 32.0379 39.4436C31.5234 39.4436 30.9912 39.6742 30.6186 40.029C30.2638 40.3839 30.0332 40.8983 30.0332 41.4483C30.0332 41.9982 30.2638 42.495 30.6186 42.8675C30.9734 43.2223 31.4879 43.4529 32.0379 43.4529H32.7475V48.6154H31.1154C30.2106 46.1495 29.0575 44.6416 28.0108 43.2933C26.6803 41.5725 25.5626 40.1178 25.5626 37.0664C25.5626 34.5295 26.5916 32.241 28.2592 30.5734C29.9268 28.9058 32.2153 27.8768 34.7522 27.8768C37.289 27.8768 39.5776 28.9058 41.2452 30.5734C42.9128 32.241 43.9417 34.5295 43.9417 37.0664C43.9417 40.1 42.8063 41.5725 41.4935 43.2933C40.4468 44.6593 39.276 46.1495 38.389 48.6154H36.7568V43.4529H37.4665C38.0164 43.4529 38.5131 43.2223 38.8857 42.8675C39.2405 42.5127 39.4711 41.9982 39.4711 41.4483C39.4711 40.8983 39.2405 40.4016 38.8857 40.029C38.5309 39.6742 38.0164 39.4436 37.4665 39.4436C36.9165 39.4436 36.4198 39.6742 36.0472 40.029C35.6924 40.3839 35.4618 40.8983 35.4618 41.4483V42.1579H34.0248V41.4483ZM32.5346 40.9338C32.6588 41.058 32.7475 41.2354 32.7475 41.4483V42.1579H32.0379C31.8427 42.1579 31.6653 42.0692 31.5234 41.945C31.3992 41.8208 31.3105 41.6434 31.3105 41.4305C31.3105 41.2177 31.3992 41.058 31.5234 40.9161C31.6476 40.7919 31.825 40.7032 32.0379 40.7032C32.2508 40.7032 32.3927 40.7741 32.5169 40.8806H32.5346V40.9338ZM34.0248 43.4707H35.4618V48.6332H34.0248V43.4707ZM31.3105 54.7004H38.1938V55.7116H31.3105V54.7004ZM38.1938 53.4053H31.3105V52.3941H38.1938V53.4053ZM38.1938 51.0991H31.3105V49.9105H38.1938V51.0991ZM30.0332 56.3503V56.3857V56.439V56.4744V56.5099V56.5454V56.5809C30.0332 56.5809 30.0687 56.6518 30.0864 56.6873C30.0864 56.6873 30.1219 56.7228 30.1396 56.7405L32.1621 58.763C32.2862 58.8871 32.4459 58.9581 32.6233 58.9581H36.7036C36.881 58.9581 37.0584 58.8871 37.1649 58.763L39.1873 56.7405H39.205V56.7228V56.7051V56.6873V56.6518C39.205 56.6518 39.2405 56.5277 39.2405 56.4567V56.4035V49.4315C40.092 46.9656 41.2274 45.4754 42.2564 44.1448C43.7288 42.2289 44.9884 40.6145 44.9884 37.1374C44.9884 34.2457 43.8175 31.6201 41.9193 29.7396C40.0211 27.8414 37.4132 26.6705 34.5215 26.6705C31.6298 26.6705 29.0043 27.8414 27.1238 29.7396C25.2255 31.6378 24.0547 34.2457 24.0547 37.1374C24.0547 40.6145 25.3142 42.2289 26.7867 44.1448C27.8157 45.4754 28.9688 46.9656 29.8026 49.4315V56.3857L30.0332 56.3503ZM37.289 57.0066L36.5439 57.7517H32.9959L32.2508 57.0066H37.3068H37.289Z" fill="#F8B500"/>
<path d="M212.812 68.4047C207.277 63.1507 203.533 55.9663 202.741 47.778C201.003 29.7577 214.211 13.7613 232.232 12.0231C250.252 10.2849 266.248 23.4936 267.979 41.4997C269.709 59.5058 256.508 75.5164 238.488 77.2546C231.673 77.9129 225.133 76.422 219.558 73.335L208.435 78.3373L212.812 68.4047Z" fill="white"/>
<path d="M237.933 52.634C240.9 52.634 243.687 51.4866 245.785 49.3885C247.883 47.2905 249.03 44.504 249.03 41.5372C249.03 38.5703 247.883 35.7838 245.785 33.6858C243.687 31.5877 240.9 30.4403 237.933 30.4403C234.967 30.4403 232.18 31.5877 230.082 33.6858C227.984 35.7838 226.837 38.5703 226.837 41.5372C226.837 44.504 227.984 47.2905 230.082 49.3885C232.18 51.4866 234.967 52.634 237.933 52.634ZM237.933 32.9482C240.228 32.9482 242.392 33.8333 244.015 35.456C247.375 38.8162 247.375 44.2745 244.015 47.6183C242.392 49.241 240.228 50.1261 237.933 50.1261C235.639 50.1261 233.475 49.241 231.852 47.6183C228.492 44.2581 228.492 38.7998 231.852 35.456C233.475 33.8333 235.639 32.9482 237.933 32.9482Z" fill="#5A97D2"/>
<path d="M237.934 30.7509C235.163 30.7509 232.41 31.7999 230.312 33.9144C226.099 38.1269 226.099 44.9621 230.312 49.1746C232.41 51.2727 235.18 52.3217 237.95 52.3217C240.72 52.3217 243.474 51.2727 245.588 49.1746C249.801 44.9621 249.801 38.1269 245.588 33.9144C243.49 31.8163 240.72 30.7509 237.95 30.7509M237.95 50.4367C235.672 50.4367 233.393 49.568 231.656 47.8305C228.181 44.3556 228.181 38.7006 231.656 35.2421C233.393 33.5046 235.672 32.6359 237.95 32.6359C240.228 32.6359 242.507 33.5046 244.244 35.2421C247.719 38.717 247.719 44.372 244.244 47.8305C242.507 49.568 240.228 50.4367 237.95 50.4367ZM237.95 30.1444C240.999 30.1444 243.867 31.3246 246.014 33.4718C248.162 35.6191 249.342 38.4875 249.342 41.5363C249.342 44.5851 248.162 47.4535 246.014 49.6008C243.867 51.748 240.999 52.9282 237.95 52.9282C234.901 52.9282 232.033 51.748 229.885 49.6008C227.738 47.4535 226.558 44.5851 226.558 41.5363C226.558 38.4875 227.738 35.6191 229.885 33.4718C232.033 31.3246 234.901 30.1444 237.95 30.1444ZM237.95 49.8302C240.163 49.8302 242.244 48.9615 243.818 47.4043C247.047 44.1753 247.047 38.9137 243.818 35.6682C242.261 34.1111 240.163 33.2423 237.95 33.2423C235.737 33.2423 233.655 34.1111 232.082 35.6682C228.853 38.8973 228.853 44.1589 232.082 47.4043C233.639 48.9615 235.737 49.8302 237.95 49.8302Z" fill="#5A97D2"/>
<path d="M223.558 57.1712C223.886 57.1712 224.198 57.04 224.443 56.8106L231.852 49.4017C232.082 49.1722 232.213 48.8608 232.213 48.5166C232.213 48.1724 232.082 47.861 231.852 47.6315C231.623 47.402 231.311 47.2709 230.967 47.2709C230.623 47.2709 230.328 47.402 230.082 47.6315L222.673 55.0403C222.444 55.2698 222.313 55.5812 222.313 55.9254C222.313 56.2696 222.444 56.5647 222.673 56.8106C222.903 57.04 223.214 57.1712 223.558 57.1712Z" fill="#5A97D2"/>
<path d="M230.967 47.5658C230.721 47.5658 230.492 47.6642 230.295 47.8445L222.886 55.2533C222.509 55.6139 222.509 56.2204 222.886 56.581C223.067 56.7613 223.313 56.8596 223.558 56.8596C223.804 56.8596 224.034 56.7613 224.23 56.581L231.639 49.1722C232.016 48.8116 232.016 48.2051 231.639 47.8445C231.459 47.6642 231.213 47.5658 230.967 47.5658ZM230.967 46.9594C231.377 46.9594 231.77 47.1233 232.065 47.4183C232.361 47.7133 232.524 48.1067 232.524 48.5165C232.524 48.9263 232.361 49.3197 232.065 49.6147L224.657 57.0235C224.362 57.3186 223.968 57.4825 223.558 57.4825C223.149 57.4825 222.755 57.3186 222.46 57.0235C222.165 56.7285 222.001 56.3351 222.001 55.9253C222.001 55.5156 222.165 55.1222 222.46 54.8271L229.869 47.4183C230.164 47.1233 230.557 46.9594 230.967 46.9594Z" fill="#5A97D2"/>
<path d="M73.0676 221.244C72.671 221.244 72.3262 220.951 72.2745 220.555L71.5159 214.434C63.4814 213.055 45.6366 198.055 46.5504 167.348C47.6021 132.434 100.654 76.2274 132.567 76.2274C164.481 76.2274 185.653 92.5377 197.843 106.227C219.395 130.417 228.326 163.469 225.998 183.624C224.946 192.762 214.429 205.037 205.878 209.83L207.015 220.382C207.033 220.606 206.964 220.83 206.826 221.003C206.688 221.175 206.464 221.261 206.24 221.261H73.0676V221.244Z" fill="white"/>
<path d="M133.361 76.8489C199.413 76.8489 230.137 147.573 225.999 183.366C225.016 191.9 214.723 204.486 205.809 209.211L206.999 220.279H73.8442L73.0166 213.555C66.1718 212.986 47.1891 198.849 48.1374 167.193C49.1546 133.142 101.137 76.8489 133.361 76.8489ZM133.361 75.2627C117.913 75.2627 97.1717 87.5558 77.8959 108.176C59.0511 128.314 47.0339 150.918 46.5512 167.159C45.6374 197.607 63.0684 212.883 71.5856 214.917L72.258 220.469C72.3614 221.262 73.0338 221.866 73.827 221.866H207.016C207.464 221.866 207.895 221.676 208.189 221.348C208.482 221.021 208.637 220.573 208.585 220.124L207.499 210.09C216.137 205.021 226.516 192.745 227.568 183.555C229.913 163.228 220.93 129.9 199.223 105.538C186.913 91.7282 165.499 75.2799 133.344 75.2799L133.361 75.2627Z" fill="black"/>
<path d="M206.084 210.949L159.188 129.794C169.619 99.2595 172.929 86.0009 172.74 85.1044L164.55 81.0872C162.671 88.932 158.309 96.1388 147.033 129.053L102.24 126.311C108.119 89.432 110.826 82.1561 113.757 81.5872L104.274 86.7596L99.9638 89.3458C99.6879 90.1044 97.1191 90.3285 90.9639 129.156L84.9639 156.604C84.9639 156.604 85.0674 156.535 85.257 156.432C79.7915 182.725 73.1191 215.018 73.1191 215.018L73.5157 220.69L206.998 220.276L206.084 210.949Z" fill="#014299" stroke="#014299" stroke-width="0.956952" stroke-miterlimit="10" stroke-linecap="round"/>
<path d="M201.704 171.708L180.894 164.536C180.894 164.536 177.135 183.708 168.739 187.915C160.342 192.122 140.877 182.312 140.877 182.312C140.877 182.312 146.187 207.932 168.739 214.38C191.256 220.811 206.342 209.846 206.342 209.846L201.704 171.708Z" fill="white"/>
<path d="M63.7051 168.761L72.4982 214.261C72.4982 214.261 78.6361 214.226 86.1533 213.243C114.964 209.468 115.412 185.726 115.412 185.726C115.412 185.726 99.9636 189.243 91.705 181.192C82.3257 172.037 83.0671 160.847 83.0671 160.847C83.0671 160.847 77.9809 160.761 72.4982 163.019C67.0154 165.278 63.7051 168.778 63.7051 168.778V168.761Z" fill="white"/>
<path d="M114.739 79.6399L108.739 77.502L114.722 79.6399H114.739Z" fill="#F5BE2B"/>
<path d="M154.274 76.4161L153.706 73.1058C160.016 69.1748 164.43 61.3817 165.55 54.8127C168.55 54.7093 178.774 49.83 178.637 42.0886C178.481 33.8818 170.619 33.6576 168.861 34.6059C168.878 34.1921 168.999 33.7611 168.912 33.3473C166.464 20.537 158.637 0.916347 132.757 1.19221C111.292 1.41635 100.292 19.8128 100.292 39.7266C100.292 40.3818 100.309 41.0369 100.344 41.6748C100.78 45.8243 101.821 50.2036 103.464 54.8127C106.361 62.761 111.361 69.8472 120.516 73.2265L117.895 84.8471C117.895 84.8471 123.809 93.2954 134.861 93.623C152.102 94.1402 155.999 85.0368 155.999 85.0368L154.274 76.4161Z" fill="#F8D7D5" stroke="black" stroke-width="1.4922" stroke-miterlimit="10"/>
<path d="M152.706 24.5547C152.706 24.5547 157.034 34.1236 158.068 38.0202C159.103 41.9167 159.861 41.9167 161.792 40.2788C163.723 38.6408 168.844 34.6236 168.844 34.6236C168.844 34.6236 166.982 27.2616 165.844 24.5719C164.706 21.8823 155.465 20.5547 155.465 20.5547L152.706 24.5719V24.5547Z" fill="black"/>
<path d="M114.998 6.37436C119.725 3.01308 125.699 1.00539 133.205 1.0138L133.205 1.0138C142.852 1.03091 150.117 3.45757 155.539 7.65805C160.736 11.684 164.295 17.3829 166.615 24.2933L104.59 19.1748C107.106 14.0072 110.506 9.56786 114.998 6.37436Z" fill="#F18C2B" stroke="black" stroke-width="1.29756"/>
<path d="M120.274 73.1414C120.274 73.1414 126.464 75.7793 135.343 75.8827C141.257 75.9517 148.136 73.6931 148.136 73.6931" stroke="black" stroke-width="1.4922" stroke-linecap="round" stroke-linejoin="round"/>
<path d="M109.982 47.1234C109.724 48.7613 110.655 49.8302 112.31 50.0889C113.965 50.3475 115.672 49.6751 115.93 48.0371C116.189 46.3992 114.879 44.5027 113.206 44.244C111.534 43.9854 110.224 45.4854 109.982 47.1234Z" fill="black" stroke="black" stroke-width="0.34061" stroke-miterlimit="10"/>
<path d="M131.861 46.9859C131.603 48.6238 132.534 49.6928 134.189 49.9514C135.844 50.21 137.551 49.5376 137.809 47.8997C138.068 46.2618 136.758 44.3652 135.085 44.1066C133.413 43.848 132.103 45.348 131.861 46.9859Z" fill="black" stroke="black" stroke-width="0.34061" stroke-miterlimit="10"/>
<path d="M122.826 49.0892V53.0547C122.826 53.0547 119.671 52.2272 119.671 55.7961C119.671 59.3651 124.326 58.5375 124.326 58.5375" stroke="black" stroke-width="1.4922" stroke-linecap="round" stroke-linejoin="round"/>
<path d="M162.378 188.935C160.723 188.935 159.102 188.642 157.533 188.09L142.551 182.711C135.12 180.039 131.258 171.832 133.93 164.401L137.913 153.332C138.499 151.711 139.344 150.246 140.447 148.935C140.223 148.694 139.999 148.453 139.758 148.211C135.534 143.884 129.344 138.849 129.275 138.797C126.706 136.711 126.309 132.935 128.378 130.349C129.516 128.935 131.223 128.125 133.051 128.125C134.413 128.125 135.758 128.608 136.827 129.47C137.102 129.694 143.585 134.935 148.344 139.815C149.585 141.09 150.775 142.453 151.913 143.866C153.378 143.918 154.827 144.194 156.206 144.694L171.189 150.09C178.689 152.797 181.551 162.884 179.826 168.366L175.826 179.47C173.792 185.142 168.378 188.935 162.361 188.935H162.378Z" fill="#F8D7D5"/>
<path d="M133.085 129.141C134.189 129.141 135.292 129.503 136.223 130.245C136.499 130.469 142.964 135.71 147.654 140.521C149.137 142.038 150.395 143.521 151.447 144.865C152.93 144.865 154.43 145.124 155.895 145.658L170.878 151.055C177.792 153.538 180.499 162.952 178.878 168.055L174.895 179.124C172.947 184.538 167.844 187.917 162.395 187.917C160.895 187.917 159.378 187.658 157.895 187.124L142.913 181.727C135.999 179.245 132.43 171.624 134.913 164.727L138.895 153.658C139.551 151.831 140.585 150.227 141.844 148.917C141.43 148.452 140.982 147.969 140.516 147.486C136.223 143.09 130.016 138.055 129.947 138.003C127.809 136.279 127.482 133.141 129.206 130.986C130.189 129.762 131.637 129.141 133.085 129.141ZM133.085 127.107C130.947 127.107 128.964 128.055 127.62 129.71C125.189 132.728 125.654 137.141 128.654 139.59C128.723 139.641 134.827 144.59 139.033 148.917C139.051 148.934 139.085 148.969 139.102 148.986C138.189 150.193 137.482 151.538 136.964 152.986L132.982 164.055C130.12 172.003 134.258 180.814 142.223 183.676L157.206 189.072C158.878 189.676 160.62 189.986 162.395 189.986C168.844 189.986 174.637 185.917 176.826 179.848L180.809 168.779C181.792 165.676 181.464 161.503 179.964 157.831C178.24 153.572 175.257 150.486 171.568 149.158L156.585 143.762C155.24 143.279 153.861 142.986 152.447 142.9C151.378 141.59 150.257 140.331 149.102 139.141C144.447 134.365 138.206 129.262 137.499 128.71C136.258 127.693 134.689 127.141 133.085 127.141V127.107Z" fill="black"/>
<path d="M151.189 147.9C151.189 147.9 146.603 151.227 145.017 157.003C143.431 162.762 144.224 166.865 147.241 167.9C150.034 168.848 151.034 167.382 151.034 167.382" stroke="black" stroke-width="1.62195" stroke-linecap="round" stroke-linejoin="round"/>
<path d="M158.223 150.331C158.223 150.331 153.637 153.658 152.051 159.434C150.465 165.21 151.258 169.296 154.275 170.331C157.068 171.279 158.068 169.814 158.068 169.814" stroke="black" stroke-width="1.62195" stroke-linecap="round" stroke-linejoin="round"/>
<path d="M165.55 152.624C165.55 152.624 160.964 155.951 159.378 161.727C157.792 167.486 158.585 171.589 161.602 172.624C164.395 173.572 165.395 172.107 165.395 172.107" stroke="black" stroke-width="1.62195" stroke-linecap="round" stroke-linejoin="round"/>
<path d="M72.5 214.26C72.5 214.26 77.3276 215.933 93.4999 211.433C116.81 204.95 116.655 179.053 116.655 179.053" stroke="black" stroke-width="1.4922" stroke-linecap="round" stroke-linejoin="round"/>
<path d="M83.0856 160.848C73.1546 159.986 63.7236 168.762 63.7236 168.762" stroke="black" stroke-width="1.4922" stroke-linecap="round" stroke-linejoin="round"/>
<path d="M140.758 181.193C140.758 181.193 141.741 202.9 166.74 213.262C188.016 222.072 206.327 209.848 206.327 209.848" stroke="black" stroke-width="1.4922" stroke-linecap="round" stroke-linejoin="round"/>
<path d="M180.879 164.537C180.879 164.537 194.362 170.416 201.689 171.71" stroke="black" stroke-width="1.4922" stroke-linecap="round" stroke-linejoin="round"/>
<path d="M132.693 120.8L117.063 116.717C112.871 115.622 108.585 118.132 107.49 122.324L97.5327 160.442C96.4376 164.633 98.9481 168.919 103.14 170.014L118.771 174.098C122.963 175.193 127.248 172.682 128.343 168.49L138.301 130.373C139.396 126.181 136.885 121.895 132.693 120.8Z" fill="#F5BE2B"/>
<path d="M106.534 186.262C105.534 186.262 104.879 186.262 104.879 186.262C103.568 186.142 102.327 185.969 101.103 185.728C90.7925 183.693 83.6373 172.728 83.4477 163.78C83.2408 154.504 88.2235 146.504 90.9304 144.28C96.1545 139.987 100.327 139.349 102.344 139.349C103.034 139.349 103.413 139.418 103.413 139.418C103.706 139.487 103.965 139.676 104.12 139.935C104.258 140.211 104.275 140.521 104.172 140.797L100.689 149.194C100.689 149.194 100.396 151.194 103.723 152.538C104.327 152.78 105.103 152.952 106.017 153.038C106.103 153.038 125.93 151.349 125.93 151.349C126.068 151.349 126.223 151.331 126.361 151.331C128.93 151.331 131.12 153.331 131.327 155.9C131.447 157.228 131.034 158.521 130.172 159.538C129.689 160.107 129.103 160.556 128.448 160.849C129.154 161.642 129.603 162.642 129.689 163.745C129.81 165.073 129.396 166.366 128.534 167.383C128.051 167.952 127.465 168.4 126.81 168.694C127.516 169.487 127.965 170.487 128.068 171.59C128.189 172.918 127.775 174.211 126.913 175.228C126.43 175.797 125.861 176.228 125.206 176.538C125.896 177.314 126.327 178.28 126.43 179.366C126.568 180.693 126.172 181.987 125.327 183.021C124.482 184.056 123.292 184.693 121.965 184.814L115.792 185.418C114.482 185.952 111.379 186.228 106.551 186.228L106.534 186.262Z" fill="#F8D7D5"/>
<path d="M102.362 140.35C102.931 140.35 103.241 140.401 103.241 140.401L99.7583 148.798C99.7583 148.798 99.0342 151.729 103.362 153.487C104.12 153.798 105.051 153.987 106.069 154.074C106.155 154.074 106.241 154.039 106.327 154.039L116.31 153.194L117.207 153.125L126.051 152.367C126.172 152.367 126.276 152.367 126.396 152.367C128.431 152.367 130.172 153.936 130.344 156.005C130.534 158.194 128.913 160.108 126.724 160.298L125.862 160.367C127.396 160.815 128.586 162.16 128.724 163.849C128.913 166.039 127.293 167.953 125.103 168.143L124.241 168.212C125.776 168.66 126.965 170.005 127.103 171.694C127.293 173.884 125.672 175.798 123.482 175.987L122.62 176.056C124.138 176.487 125.31 177.815 125.482 179.487C125.689 181.677 124.103 183.608 121.913 183.832L115.569 184.453C114.224 185.143 109.224 185.246 106.586 185.246C105.603 185.246 104.948 185.246 104.948 185.246C103.81 185.143 102.603 184.97 101.345 184.729C91.8446 182.867 84.7067 172.522 84.517 163.746C84.3274 154.97 89.0342 147.177 91.6204 145.056C96.7066 140.884 100.707 140.367 102.396 140.367M102.396 138.332C100.241 138.332 95.8101 139.005 90.3446 143.487C87.4998 145.815 82.2756 154.177 82.4825 163.798C82.6894 173.16 90.1549 184.608 100.965 186.729C102.207 186.97 103.5 187.16 104.776 187.28C104.827 187.28 104.862 187.28 104.913 187.28C104.913 187.28 105.586 187.28 106.586 187.28C113.12 187.28 115.241 186.78 116.103 186.453L122.12 185.867C125.413 185.539 127.844 182.591 127.517 179.298C127.431 178.418 127.155 177.591 126.741 176.867C128.362 175.66 129.327 173.677 129.155 171.539C129.086 170.643 128.793 169.798 128.362 169.039C129.982 167.832 130.965 165.849 130.775 163.694C130.707 162.798 130.413 161.953 129.982 161.194C131.603 159.987 132.586 158.005 132.396 155.85C132.138 152.763 129.5 150.35 126.413 150.35C126.241 150.35 126.069 150.35 125.896 150.367L117.051 151.125L116.155 151.194L106.172 152.039C106.172 152.039 106.086 152.039 106.051 152.039C105.276 151.953 104.638 151.815 104.155 151.608C102 150.729 101.793 149.694 101.776 149.332L105.155 141.194C105.396 140.625 105.362 139.987 105.069 139.453C104.776 138.919 104.258 138.539 103.655 138.419C103.534 138.401 103.103 138.315 102.396 138.315V138.332Z" fill="black"/>
<path d="M111.793 162.193L128.086 160.848" stroke="black" stroke-width="1.62195" stroke-linecap="round" stroke-linejoin="round"/>
<path d="M111.62 169.849L126.706 168.952" stroke="black" stroke-width="1.62195" stroke-linecap="round" stroke-linejoin="round"/>
<path d="M111.431 177.486L125.086 176.589" stroke="black" stroke-width="1.62195" stroke-linecap="round" stroke-linejoin="round"/>
<path d="M107.741 37.8495H117.189" stroke="black" stroke-width="1.4922" stroke-miterlimit="10" stroke-linecap="round"/>
<path d="M131.707 38.0195H141.035" stroke="black" stroke-width="1.4922" stroke-miterlimit="10" stroke-linecap="round"/>
<path d="M126.379 67.0383C125.241 63.6418 128.862 62.7107 132.155 65.2797C135.448 67.8487 136.275 71.0555 131.81 71.0555C130.534 71.0555 127.224 69.5728 126.379 67.0383Z" stroke="black" stroke-width="1.4922" stroke-linecap="round" stroke-linejoin="round"/>
<path d="M158.45 19.2578L157.02 22.2339L156.892 22.3523C156.751 22.4824 156.547 22.6707 156.294 22.9032C155.788 23.3682 155.087 24.0099 154.307 24.7166C152.744 26.1331 150.875 27.8001 149.622 28.8322C149.119 29.2461 148.28 29.5828 146.98 29.7786C145.689 29.9729 144.008 30.0192 141.885 29.9072C137.639 29.6833 131.716 28.8322 123.791 27.3506C115.751 25.8475 109.709 26.6802 105.235 27.9728C103.004 28.6176 101.17 29.3747 99.6946 29.9997C99.5944 30.0422 99.4962 30.0838 99.4 30.1246C98.0434 30.7 97.0854 31.1064 96.3731 31.2281C94.9598 31.4696 93.9997 30.7934 93.5512 29.9016C93.0809 28.9662 93.203 27.8875 93.8691 27.2769C94.2984 26.8833 95.2404 26.1819 96.4512 25.3294C97.6492 24.486 99.0752 23.519 100.446 22.6032C101.817 21.6878 103.129 20.8255 104.1 20.1918C104.585 19.875 104.984 19.6155 105.262 19.4352C105.374 19.3628 105.466 19.3032 105.536 19.2578H158.45Z" fill="#F18C2B" stroke="black" stroke-width="1.29756"/>
</svg>
