<svg width="280" height="246" viewBox="0 0 280 246" fill="none" xmlns="http://www.w3.org/2000/svg">
<path d="M17.3322 245.091C17.3322 245.091 8.07172 156.025 17.9484 132.251C18.9477 129.865 21.5127 126.478 25.5266 122.9L25.4933 122.859C25.4933 122.859 26.0097 122.406 26.9923 121.625C36.6525 113.631 53.4579 105.131 76.4424 104.719C76.8755 104.719 77.2752 104.719 77.7082 104.719C78.0414 104.719 78.3745 104.719 78.7076 104.719C79.0407 104.719 79.3738 104.719 79.7069 104.719C80.1233 104.719 83.146 98.1135 83.5791 98.1135C106.547 98.5249 120.746 113.631 130.423 121.625C131.422 122.393 131.922 122.859 131.922 122.859L131.888 122.9C135.919 126.478 138.484 129.851 139.467 132.251C149.343 156.012 139.467 245.091 139.467 245.091" fill="white"/>
<path d="M17.3322 245.091C17.3322 245.091 8.07171 156.025 17.9484 132.251C18.9477 129.865 21.5127 126.478 25.5266 122.9L25.4933 122.859C25.4933 122.859 26.0097 122.406 26.9923 121.625C36.6525 113.631 53.4579 105.131 76.4424 104.719C76.8755 104.719 77.2752 104.719 77.7082 104.719C78.0413 104.719 78.3745 104.719 78.7076 104.719C79.0407 104.719 79.3738 104.719 79.7069 104.719C80.1233 104.719 83.146 98.1135 83.5791 98.1135C106.547 98.5249 120.746 113.631 130.423 121.625C131.422 122.393 131.922 122.859 131.922 122.859L131.888 122.9C135.919 126.478 138.484 129.851 139.467 132.251C149.343 156.012 139.467 245.091 139.467 245.091" stroke="black" stroke-width="1.94869" stroke-miterlimit="10"/>
<path d="M59.1856 103.1L61.4703 89.879C55.6073 86.2335 52.8186 79.7993 50.4666 72.9115C47.6947 72.8107 39.6478 71.9203 39.7822 64.7301C39.9333 57.1032 46.6363 60.2279 48.2659 61.1014C48.2491 60.7151 48.2155 60.3287 48.2155 59.9423C47.7115 42.5716 56.9009 22.8993 80.9074 23.1513C100.832 23.3697 111.046 40.438 111.046 58.9175C111.046 59.5223 111.029 60.1271 110.995 60.7318C113.347 59.6567 118.572 58.0271 118.706 64.7469C118.841 71.8531 110.945 72.8107 108.089 72.9283C104.847 80.3705 99.1517 86.4687 92.2639 90.0302L94.683 103.386C94.683 103.386 89.1896 111.214 78.9418 111.534C62.9487 112.021 59.1856 103.134 59.1856 103.134V103.1Z" fill="#F9D4D4" stroke="black" stroke-width="1.65143" stroke-miterlimit="10"/>
<path d="M29.0958 190.069L66.8779 157.629C66.8779 157.629 67.1299 158.905 66.1051 144.861C65.2651 133.286 59.8389 110.338 59.7549 102.778C59.7549 101.518 59.7717 100.242 58.5957 100.678C52.3463 102.946 35.3788 110.405 27.1134 119.175C26.6934 119.611 26.4582 120.199 26.4078 120.804C26.1054 125.172 24.8791 143.82 25.3831 155.092C25.9542 167.927 29.0789 190.085 29.0789 190.085L29.0958 190.069Z" fill="#F9B900" stroke="black" stroke-width="1.94869" stroke-miterlimit="10" stroke-linecap="round"/>
<path d="M71.1924 188.942C71.1924 188.942 71.1267 229.132 70.8801 230.774C70.6335 232.416 71.1266 235.88 67.1323 237.151C63.1379 238.422 22.1424 238.613 15.6495 238.422C9.1566 238.23 10.1429 234.598 10.1429 232.956C10.1429 231.314 11.3921 201.791 11.3921 201.791C11.3921 201.791 23.3752 217.29 37.4458 215.6C61.7572 212.687 69.9431 194.408 71.1924 188.942Z" fill="#F9B900" stroke="black" stroke-width="1.94869" stroke-miterlimit="10" stroke-linecap="round"/>
<path d="M96.7306 168.752L134.278 190.978C134.278 190.978 136.327 187.651 134.782 171.944C133.404 157.832 130.8 126.719 130.296 120.554C130.229 119.848 129.926 119.193 129.406 118.706C127.407 116.841 121.812 111.953 114.236 107.702C107.566 103.973 99.8049 100.546 95.8739 99.4873C94.5467 99.1345 94.6979 100.277 94.8323 101.638C95.9746 113.061 98.9482 157.479 96.7306 168.752Z" fill="#F9B900" stroke="black" stroke-width="1.94869" stroke-miterlimit="10" stroke-linecap="round"/>
<path d="M143.674 213.574C143.674 213.574 146.733 236.818 144.951 237.88C143.17 238.942 117.355 240.891 107.137 239.829C96.9185 238.767 96.3975 239.292 94.616 237.344C92.8346 235.395 88.2128 187.669 87.7086 182.336C87.7086 182.336 143.17 213.912 143.691 213.562L143.674 213.574Z" fill="#F9B900" stroke="black" stroke-width="1.94869" stroke-miterlimit="10" stroke-linecap="round"/>
<path d="M90.7178 75.125C90.7178 75.125 89.0546 79.4928 81.7804 80.232C70.5416 81.3744 66.8456 73.4618 66.8456 73.4618" stroke="black" stroke-width="1.32115" stroke-linecap="round" stroke-linejoin="round"/>
<path d="M93.1881 58.8511C93.4232 60.3798 92.5665 61.3878 91.0209 61.623C89.4754 61.8582 87.8794 61.2366 87.6442 59.7078C87.409 58.1791 88.6354 56.4151 90.1809 56.1631C91.7265 55.9111 92.9529 57.3223 93.1881 58.8511Z" fill="black" stroke="black" stroke-width="0.366758" stroke-miterlimit="10"/>
<path d="M73.65 58.6608C73.8852 60.1895 73.0284 61.1975 71.4828 61.4327C69.9373 61.6679 68.3413 61.0463 68.1061 59.5175C67.8709 57.9888 69.0973 56.2248 70.6429 55.9728C72.1884 55.7208 73.4148 57.132 73.65 58.6608Z" fill="black" stroke="black" stroke-width="0.366758" stroke-miterlimit="10"/>
<path d="M81.1411 61.4541V65.15C81.1411 65.15 84.0811 64.3772 84.0811 67.7035C84.0811 71.0298 79.7468 70.257 79.7468 70.257" stroke="black" stroke-width="1.02439" stroke-linecap="round" stroke-linejoin="round"/>
<path d="M13.7056 217.486L13.706 217.487C20.0444 225.226 25.0912 229.224 29.5409 231.129C33.9542 233.018 37.8859 232.894 42.1321 232.147C44.1161 231.798 46.6529 230.649 49.4398 228.814C52.2108 226.991 55.1657 224.531 57.9799 221.638C63.6222 215.836 68.6099 208.38 70.4692 200.934L70.4693 200.934C71.4231 197.119 71.9634 194.474 72.2405 192.654C72.425 191.443 72.4863 190.635 72.4868 190.109C72.4715 190.118 72.4559 190.126 72.44 190.134C72.0723 190.328 71.5421 190.591 70.8792 190.876C69.5563 191.446 67.6902 192.112 65.5248 192.488C61.1846 193.24 55.5646 192.83 50.8013 188.067C46.2144 183.48 44.2854 179.382 43.3475 176.469C42.9931 175.369 42.7776 174.423 42.623 173.745C42.6069 173.674 42.5915 173.606 42.5766 173.541C42.4118 173.71 42.226 173.907 42.021 174.129C41.301 174.911 40.3829 175.97 39.3809 177.156C37.3792 179.526 35.0712 182.37 33.4004 184.444C31.9907 186.203 29.1705 185.432 28.8227 183.211L28.8221 183.207C27.2353 172.794 23.2203 141.793 27.3416 119.237C26.9341 119.57 26.3506 120.066 25.627 120.734C24.1228 122.122 22.0132 124.253 19.6189 127.2C14.8353 133.088 8.91282 142.239 4.40987 155.256C-2.16325 180.33 0.565857 201.465 13.7056 217.486ZM72.415 189.372C72.415 189.372 72.4155 189.374 72.4167 189.376C72.4157 189.373 72.4151 189.372 72.415 189.372ZM72.9545 189.685C72.9546 189.685 72.9547 189.685 72.9548 189.685L72.5233 188.974C72.7622 189.368 72.8882 189.575 72.9545 189.685ZM42.805 172.057C41.8978 172.426 35.9844 179.684 32.6413 183.833C31.7677 184.925 30.0037 184.455 29.7853 183.061L42.805 172.057ZM73.2631 189.613C73.2631 189.613 73.2607 189.615 73.2559 189.619C73.2607 189.616 73.2631 189.614 73.2631 189.613ZM43.173 172.959L43.1726 172.959L43.173 172.959Z" fill="white" stroke="black" stroke-width="1.94869" stroke-miterlimit="10" stroke-linecap="round"/>
<path d="M77.3107 145.436C77.3107 145.436 73.1108 146.007 69.6837 149.048C66.2566 152.089 63.9718 155.146 63.9718 155.146C63.9718 155.146 63.0143 154.474 61.4015 154.39C59.7888 154.306 58.5456 155.432 58.5456 155.432C58.5456 155.432 57.1176 154.189 53.7745 155.532C50.4314 156.876 44.4676 166.553 43.3924 169.442C41.0069 175.826 45.3076 185.536 54.1609 190.492C64.123 196.07 74.7403 188.594 76.2691 186.007C77.7978 183.42 77.8818 178.481 77.8818 178.481L77.3107 145.419V145.436Z" fill="#F9D4D4" stroke="black" stroke-width="1.65143" stroke-miterlimit="10"/>
<path d="M82.8899 134.713H102.142C106.419 134.713 109.887 138.18 109.887 142.457V182.743C109.887 187.02 106.419 190.487 102.142 190.487H82.8899C78.6127 190.487 75.1453 187.02 75.1453 182.743V142.457C75.1453 138.18 78.6127 134.713 82.8899 134.713Z" fill="#00449B" stroke="black" stroke-width="1.02439" stroke-miterlimit="10"/>
<path d="M107.064 150.221C107.064 150.221 107.501 160.536 106.04 162.871C103.234 167.34 80.1179 150.994 75.5148 149.851C73.0285 149.23 71.5501 149.079 70.9118 150.238C70.2734 151.397 72.4405 154.841 72.4405 154.841C72.4405 154.841 69.887 153.178 68.8622 155.227C67.8375 157.277 68.8622 158.553 68.8622 158.553L70.139 159.965C70.139 159.965 68.2238 159.326 67.3335 161.107C66.4431 162.888 69.887 165.962 69.887 165.962C69.887 165.962 68.7446 165.71 68.9966 168.381C69.2486 171.052 72.1885 177.839 79.3451 181.787C86.5017 185.752 89.8112 186.004 89.8112 186.004L94.2799 190.977L113.952 174.244L111.264 168.499C111.264 168.499 112.541 163.778 112.541 159.679C112.541 155.58 112.541 152.27 110.491 150.355C108.442 148.44 107.048 150.221 107.048 150.221H107.064Z" fill="#F9D4D4" stroke="black" stroke-width="1.65143" stroke-miterlimit="10"/>
<path d="M110.825 171.096C110.881 171.078 110.941 171.061 111.007 171.046L110.785 170.097C111.944 169.828 122.897 179.505 128.609 184.662C130.02 185.922 132.254 184.998 132.355 183.1L102.553 179.992C99.7138 182.546 95.4299 185.116 92.2212 186.51L92.6134 187.402C92.6128 187.403 92.6122 187.403 92.6116 187.403C91.1854 188.031 90.6182 189.732 91.3733 191.072L91.3753 191.075C92.9848 193.959 95.365 198.133 97.5592 201.801C99.4482 204.949 104.109 212.001 111.146 217.97C118.18 223.936 127.507 228.756 138.778 227.64C144.392 227.085 148.803 225.027 152.213 221.849C155.634 218.661 158.097 214.298 159.721 209.065C162.976 198.578 162.807 184.767 160.391 170.529C158.003 156.461 149.901 143.384 142.33 133.78C138.553 128.988 134.925 125.083 132.242 122.376C130.901 121.024 129.798 119.972 129.031 119.259C128.648 118.903 128.349 118.632 128.146 118.45C128.045 118.36 127.968 118.291 127.917 118.246L127.889 118.222L126.495 117.304C126.55 117.553 126.608 117.82 126.67 118.103C127.103 120.097 127.697 122.921 128.339 126.244C129.623 132.886 131.103 141.543 131.88 149.558L131.88 149.559C133.243 163.658 133.685 176.109 133.328 183.149L133.328 183.152C133.184 185.868 129.98 187.193 127.96 185.389L127.956 185.386C125.103 182.809 120.946 179.11 117.362 176.09C115.568 174.579 113.929 173.249 112.675 172.317C112.044 171.849 111.531 171.496 111.154 171.273C111.011 171.189 110.903 171.132 110.825 171.096ZM110.825 171.096C110.495 171.202 110.315 171.358 110.139 171.595C109.938 171.867 109.773 172.196 109.524 172.693C109.43 172.881 109.323 173.094 109.198 173.337C108.326 175.027 106.878 177.439 103.203 180.718L110.825 171.096Z" fill="white" stroke="black" stroke-width="1.94869" stroke-miterlimit="10" stroke-linecap="round"/>
<path d="M73.8011 156.387C73.8011 156.387 75.9682 158.806 80.8232 160.721L73.8011 156.387Z" fill="#F9D4D4"/>
<path d="M73.8011 156.387C73.8011 156.387 75.9682 158.806 80.8232 160.721" stroke="black" stroke-width="0.990861" stroke-miterlimit="10" stroke-linecap="round"/>
<path d="M70.0725 159.543C70.0725 159.543 72.2397 161.962 77.0947 163.877L70.0725 159.543Z" fill="#F9D4D4"/>
<path d="M70.0725 159.543C70.0725 159.543 72.2397 161.962 77.0947 163.877" stroke="black" stroke-width="0.990861" stroke-miterlimit="10" stroke-linecap="round"/>
<path d="M68.5247 164.721C68.5247 164.721 70.6918 167.14 75.5469 169.055L68.5247 164.721Z" fill="#F9D4D4"/>
<path d="M68.5247 164.721C68.5247 164.721 70.6918 167.14 75.5469 169.055" stroke="black" stroke-width="0.990861" stroke-miterlimit="10" stroke-linecap="round"/>
<path d="M64.1235 154.993C64.1235 154.993 67.3322 160.973 67.2146 164.904C67.0802 169.037 65.7195 171.557 65.7195 171.557" fill="#F9D4D4"/>
<path d="M64.1235 154.993C64.1235 154.993 67.3322 160.973 67.2146 164.904C67.0802 169.037 65.7195 171.557 65.7195 171.557" stroke="black" stroke-width="1.65143" stroke-miterlimit="10" stroke-linecap="round"/>
<path d="M57.5376 155.613C57.5376 155.613 60.7463 161.593 60.6287 165.524C60.4943 169.657 59.1335 172.177 59.1335 172.177" fill="#F9D4D4"/>
<path d="M57.5376 155.613C57.5376 155.613 60.7463 161.593 60.6287 165.524C60.4943 169.657 59.1335 172.177 59.1335 172.177" stroke="black" stroke-width="1.65143" stroke-miterlimit="10" stroke-linecap="round"/>
<path d="M97.5389 38.22C97.5389 38.22 98.0429 42.2519 102.36 45.9142C106.661 49.5765 107.165 49.1061 107.165 49.1061" stroke="black" stroke-width="1.02439" stroke-linecap="round" stroke-linejoin="round"/>
<path d="M93.4393 38.0995C93.4393 38.0995 93.9433 42.1314 98.2608 45.7937C102.578 49.456 103.065 48.9856 103.065 48.9856" stroke="black" stroke-width="1.02439" stroke-linecap="round" stroke-linejoin="round"/>
<path d="M89.3221 38.1204C89.3221 38.1204 89.8261 42.1523 94.1436 45.8145C98.4443 49.4768 98.9482 49.0064 98.9482 49.0064" stroke="black" stroke-width="1.02439" stroke-linecap="round" stroke-linejoin="round"/>
<path d="M85.2244 38.0026C85.2244 38.0026 85.7284 42.0345 90.0459 45.6967C94.3466 49.359 94.8506 48.8886 94.8506 48.8886" stroke="black" stroke-width="1.02439" stroke-linecap="round" stroke-linejoin="round"/>
<path d="M80.9403 37.9702C80.9403 37.9702 81.4443 42.0021 85.7617 45.6644C90.0624 49.3267 90.5664 48.8563 90.5664 48.8563" stroke="black" stroke-width="1.02439" stroke-linecap="round" stroke-linejoin="round"/>
<path d="M76.825 37.8505C76.825 37.8505 77.329 41.8824 81.6465 45.5446C85.9472 49.2069 86.4512 48.7365 86.4512 48.7365" stroke="black" stroke-width="1.02439" stroke-linecap="round" stroke-linejoin="round"/>
<path d="M72.7264 37.8643C72.7264 37.8643 73.2304 41.8961 77.5479 45.5584C81.8486 49.2207 82.3525 48.7504 82.3525 48.7504" stroke="black" stroke-width="1.02439" stroke-linecap="round" stroke-linejoin="round"/>
<path d="M68.6092 37.7327C68.6092 37.7327 69.1132 41.7646 73.4307 45.4269C77.7482 49.0891 78.2354 48.6188 78.2354 48.6188" stroke="black" stroke-width="1.02439" stroke-linecap="round" stroke-linejoin="round"/>
<path d="M49.0713 41.9985C51.3896 35.2115 62.1413 21.4359 80.5536 22.1751C99.789 22.9479 108.676 40.117 109.046 40.8394L109.986 42.7041L48.3657 46.4504L49.0544 41.9985H49.0713Z" fill="#F08400" stroke="black" stroke-width="1.32115" stroke-linejoin="round"/>
<path d="M118.94 50.7334C119.461 50.7334 119.981 50.4814 120.317 50.0111C120.872 49.2215 120.704 48.1295 119.948 47.5583C119.561 47.2727 110.355 40.4857 90.5486 40.2673C63.0478 39.9649 55.5216 46.7856 55.2192 47.0711C54.5305 47.7263 54.4801 48.8351 55.1185 49.5407C55.7568 50.263 56.832 50.2967 57.5208 49.6415C57.5712 49.5911 64.7278 43.4424 90.5151 43.7616C109.247 43.9632 117.865 50.3134 117.949 50.3806C118.251 50.6158 118.604 50.7166 118.94 50.7166V50.7334Z" fill="#F08400" stroke="black" stroke-width="1.32115" stroke-linejoin="round"/>
<path d="M92.1631 89.7058C92.1631 89.7058 86.4176 92.4777 78.1859 92.5785C72.6924 92.6457 66.3086 90.277 66.3086 90.277" stroke="black" stroke-width="1.156" stroke-linecap="round" stroke-linejoin="round"/>
<path d="M206.678 107.165C205.151 100.189 206.035 92.651 209.729 85.8901C217.855 71.0298 236.491 65.574 251.34 73.7119C266.189 81.8498 271.668 100.486 263.53 115.335C255.403 130.195 236.767 135.651 221.918 127.513C216.29 124.441 212.023 119.852 209.317 114.532L198.074 112.564L206.69 107.177L206.678 107.165Z" fill="#0964B6"/>
<path d="M247.705 93.2049C247.444 93.2049 247.227 93.1172 247.054 92.9418C246.881 92.7664 246.795 92.5491 246.795 92.2898V90.5816H245.087C244.827 90.5816 244.61 90.4934 244.435 90.3169C244.259 90.1405 244.172 89.9219 244.172 89.6611C244.172 89.4003 244.259 89.1834 244.435 89.0106C244.61 88.8377 244.827 88.7513 245.087 88.7513H246.795V87.0125C246.795 86.7533 246.883 86.5359 247.06 86.3605C247.236 86.1851 247.455 86.0974 247.715 86.0974C247.976 86.0974 248.193 86.1851 248.366 86.3605C248.539 86.5359 248.625 86.7533 248.625 87.0125V88.7513H250.364C250.623 88.7513 250.841 88.8395 251.016 89.0159C251.191 89.1924 251.279 89.411 251.279 89.6718C251.279 89.9326 251.191 90.1494 251.016 90.3223C250.841 90.4951 250.623 90.5816 250.364 90.5816H248.625V92.2898C248.625 92.5491 248.537 92.7664 248.361 92.9418C248.184 93.1172 247.966 93.2049 247.705 93.2049ZM236.408 106.23C237.883 106.23 239.118 105.732 240.114 104.736C241.111 103.739 241.609 102.504 241.609 101.029C241.609 99.5549 241.111 98.3246 240.114 97.3383C239.118 96.352 237.883 95.8588 236.408 95.8588C234.934 95.8588 233.703 96.352 232.717 97.3383C231.731 98.3246 231.238 99.5549 231.238 101.029C231.238 102.504 231.731 103.739 232.717 104.736C233.703 105.732 234.934 106.23 236.408 106.23ZM236.408 104.4C235.442 104.4 234.644 104.08 234.014 103.439C233.383 102.799 233.068 101.995 233.068 101.029C233.068 100.063 233.383 99.2651 234.014 98.6347C234.644 98.0043 235.442 97.6891 236.408 97.6891C237.374 97.6891 238.177 98.0043 238.818 98.6347C239.459 99.2651 239.779 100.063 239.779 101.029C239.779 101.995 239.459 102.799 238.818 103.439C238.177 104.08 237.374 104.4 236.408 104.4ZM226.052 110.714C225.564 110.714 225.137 110.531 224.771 110.165C224.405 109.799 224.222 109.372 224.222 108.884V93.2354C224.222 92.7677 224.405 92.3457 224.771 91.9695C225.137 91.5933 225.564 91.4052 226.052 91.4052H230.536L232.214 89.3919C232.377 89.1682 232.58 89.0055 232.824 88.9038C233.068 88.8021 233.332 88.7513 233.617 88.7513H241.426C241.685 88.7513 241.903 88.839 242.078 89.0144C242.254 89.1898 242.341 89.4071 242.341 89.6664V91.0391C242.341 91.4204 242.475 91.7445 242.742 92.0115C243.009 92.2784 243.333 92.4118 243.714 92.4118H244.965V93.6625C244.965 94.0438 245.098 94.3679 245.365 94.6348C245.632 94.9017 245.956 95.0352 246.337 95.0352H247.71C247.969 95.0352 248.187 95.1229 248.362 95.2983C248.538 95.4737 248.625 95.691 248.625 95.9503V108.884C248.625 109.372 248.437 109.799 248.061 110.165C247.685 110.531 247.263 110.714 246.795 110.714H226.052Z" fill="#90B9E3"/>
<path d="M150.882 65.849C156.268 70.9602 163.438 74.2332 171.433 74.587C189.029 75.361 203.899 61.7162 204.673 44.1206C205.447 26.5249 191.802 11.6544 174.221 10.8875C156.64 10.1206 141.755 23.7582 140.981 41.3539C140.687 48.0084 142.468 54.2858 145.75 59.5461L141.454 70.6057L150.882 65.849Z" fill="#0964B6"/>
<path d="M175.483 57.9656C175.087 57.9656 174.756 57.8319 174.489 57.5644C174.221 57.297 174.087 56.9656 174.087 56.5703V55.2215C174.087 55.0489 174.118 54.8818 174.18 54.72C174.242 54.5582 174.351 54.3998 174.506 54.2448L183.901 44.8497L187.203 48.1519L177.801 57.5538C177.651 57.7043 177.495 57.8105 177.333 57.8726C177.171 57.9346 177.004 57.9656 176.832 57.9656H175.483ZM158.739 48.1984C158.344 48.1984 158.012 48.0639 157.745 47.795C157.477 47.5259 157.344 47.1926 157.344 46.795C157.344 46.3973 157.477 46.0667 157.745 45.8032C158.012 45.5396 158.344 45.4078 158.739 45.4078H169.902C170.297 45.4078 170.628 45.5423 170.896 45.8113C171.163 46.0803 171.297 46.4136 171.297 46.8113C171.297 47.2089 171.163 47.5395 170.896 47.8031C170.628 48.0667 170.297 48.1984 169.902 48.1984H158.739ZM189.203 46.152L185.901 42.8498L187.25 41.501C187.508 41.2529 187.836 41.1289 188.234 41.1289C188.632 41.1289 188.955 41.2529 189.203 41.501L190.552 42.8498C190.8 43.1075 190.924 43.4354 190.924 43.8337C190.924 44.232 190.8 44.5551 190.552 44.8032L189.203 46.152ZM158.739 40.5242C158.344 40.5242 158.012 40.3898 157.745 40.1208C157.477 39.8518 157.344 39.5184 157.344 39.1208C157.344 38.7231 157.477 38.3925 157.745 38.129C158.012 37.8654 158.344 37.7336 158.739 37.7336H177.808C178.204 37.7336 178.535 37.8681 178.802 38.1371C179.07 38.4061 179.204 38.7394 179.204 39.1371C179.204 39.5347 179.07 39.8654 178.802 40.1289C178.535 40.3925 178.204 40.5242 177.808 40.5242H158.739ZM158.739 32.8501C158.344 32.8501 158.012 32.7156 157.745 32.4466C157.477 32.1776 157.344 31.8442 157.344 31.4466C157.344 31.049 157.477 30.7183 157.745 30.4548C158.012 30.1912 158.344 30.0594 158.739 30.0594H177.808C178.204 30.0594 178.535 30.1939 178.802 30.4629C179.07 30.7319 179.204 31.0653 179.204 31.4629C179.204 31.8606 179.07 32.1912 178.802 32.4547C178.535 32.7183 178.204 32.8501 177.808 32.8501H158.739Z" fill="#F5BE2B"/>
</svg>
