<svg fill="none" height="73" viewBox="0 0 69 73" width="69" xmlns="http://www.w3.org/2000/svg"><path d="m51.1846 63.4173c-7.5496 4.3269-16.4906 5.551-24.9291 3.4129-8.4384-2.1381-15.7112-7.4704-20.2776-14.8673-4.56642-7.3968-6.0677126-16.2772-4.18582-24.7596 1.8819-8.4824 6.99914-15.9005 14.26762-20.68277 7.2685-4.78228 16.1171-6.5530007 24.6714-4.93704 8.5542 1.61597 16.1421 6.49166 21.1559 13.59411 5.0138 7.1025 7.0598 15.8738 5.7045 24.4557-1.3554 8.5819-6.0055 16.3002-12.9654 21.5196" stroke="#0046dc" stroke-miterlimit="10" stroke-width="2"/><path d="m54.0624 54.9999h11v11h-11z" fill="#f6f4f0" transform="matrix(.56679885 .82385622 -.82385622 .56679885 68.731903 -20.713624)"/><path d="m46.4572 55.8521 15.6318 15.5987" stroke="#0046dc" stroke-miterlimit="10" stroke-width="2"/><g fill="#0046dc"><path d="m22 28.74v-7.6h2.51c.5733 0 1.0667.1033 1.48.31.42.2.7433.4867.97.86.2333.3667.35.8033.35 1.31s-.1167.9467-.35 1.32c-.2267.3733-.55.6633-.97.87-.4133.2067-.9067.31-1.48.31h-1.06v2.62zm2.27-6.45h-.82v2.67h.82c.5067 0 .89-.11 1.15-.33.2667-.2267.4-.56.4-1 0-.4333-.1333-.7633-.4-.99-.26-.2333-.6433-.35-1.15-.35z"/><path d="m30.5984 28.9c-.5267 0-.9967-.1167-1.41-.35-.4134-.2333-.74-.5533-.98-.96-.2334-.4133-.35-.8767-.35-1.39s.12-.9733.36-1.38c.24-.4133.5666-.7367.98-.97.4133-.24.88-.36 1.4-.36.5266 0 .9966.12 1.41.36.4133.2333.7366.5533.97.96.24.4067.36.87.36 1.39 0 .5067-.12.9667-.36 1.38-.24.4067-.5667.73-.98.97-.4134.2333-.88.35-1.4.35zm0-1.24c.3933 0 .7166-.1367.97-.41.2533-.2733.38-.6233.38-1.05 0-.4333-.1267-.7867-.38-1.06-.2534-.2733-.5767-.41-.97-.41-.3934 0-.7167.1367-.97.41-.2534.2733-.38.6267-.38 1.06 0 .4267.1266.7767.38 1.05.2533.2733.5766.41.97.41z"/><path d="m35.2153 22.61c-.2333 0-.43-.0767-.59-.23-.1533-.16-.23-.3533-.23-.58 0-.2333.0767-.4233.23-.57.16-.1533.3567-.23.59-.23s.4267.0767.58.23c.16.1467.24.3367.24.57 0 .2267-.08.42-.24.58-.1533.1533-.3467.23-.58.23zm-.69 6.13v-5.09h1.38v5.09z"/><path d="m37.3866 28.74v-5.09h1.34l.02.74c.1334-.2867.3367-.5067.61-.66.28-.16.6-.24.96-.24.5867 0 1.0334.1867 1.34.56.3134.3733.47.9067.47 1.6v3.09h-1.38v-2.83c0-.7933-.3066-1.19-.92-1.19-.3333 0-.5933.1133-.78.34-.1866.22-.28.5333-.28.94v2.74z"/><path d="m44.0483 28.74v-3.96h-1v-1.13h1v-1.38h1.38v1.38h1.21v1.13h-1.21v3.96z"/><path d="m31.0773 47.764c-.8026 0-1.4933-.2146-2.072-.644-.5786-.4386-1.022-1.064-1.33-1.876s-.462-1.7826-.462-2.912c0-.364.014-.7093.042-1.036.028-.336.0747-.6486.14-.938.2334-1.1013.6674-1.9506 1.302-2.548.6347-.6066 1.428-.91 2.38-.91.8027 0 1.4934.2194 2.072.658.5787.4294 1.022 1.05 1.33 1.862s.462 1.7827.462 2.912c0 .364-.014.7094-.042 1.036-.028.3267-.0746.6394-.14.938-.224 1.1014-.658 1.9554-1.302 2.562-.6346.5974-1.428.896-2.38.896zm0-1.778c.784 0 1.302-.5506 1.554-1.652.0654-.2706.112-.5693.14-.896.0374-.336.056-.7046.056-1.106 0-1.204-.1493-2.114-.448-2.73-.2986-.616-.7326-.924-1.302-.924-.7653 0-1.2833.5507-1.554 1.652-.0653.2614-.1166.56-.154.896-.028.3267-.042.6954-.042 1.106 0 1.204.1494 2.114.448 2.73.2987.616.7327.924 1.302.924z"/><path d="m39.451 47.54v-8.386l-2.702 1.204-.322-1.708 3.416-1.526h1.582v10.416z"/></g></svg>