<svg fill="none" height="30" viewBox="0 0 30 30" width="30" xmlns="http://www.w3.org/2000/svg"><path clip-rule="evenodd" d="m7.5 15c0-.2486.09877-.4871.27459-.6629.17581-.1758.41427-.2746.66291-.2746h10.8619l-4.0257-4.0237c-.0871-.08718-.1563-.19066-.2034-.30454-.0472-.11389-.0715-.23595-.0715-.35922s.0243-.24534.0715-.35922c.0471-.11389.1163-.21737.2034-.30453.0872-.08717.1907-.15631.3046-.20348.1139-.04718.2359-.07146.3592-.07146s.2453.02428.3592.07146c.1139.04717.2174.11631.3045.20348l5.625 5.62501c.0874.0871.1566.1905.2039.3044.0472.1139.0716.236.0716.3593 0 .1234-.0244.2455-.0716.3594-.0473.1138-.1165.2173-.2039.3044l-5.625 5.625c-.0871.0872-.1906.1563-.3045.2035-.1139.0471-.2359.0714-.3592.0714s-.2453-.0243-.3592-.0714c-.1139-.0472-.2174-.1163-.3046-.2035-.176-.1761-.2749-.4148-.2749-.6638 0-.1232.0243-.2453.0715-.3592.0471-.1139.1163-.2173.2034-.3045l4.0257-4.0238h-10.8619c-.24864 0-.4871-.0987-.66291-.2746-.17582-.1758-.27459-.4142-.27459-.6629z" fill="#0046dc" fill-rule="evenodd"/></svg>