<svg fill="none" height="300" viewBox="0 0 300 300" width="300" xmlns="http://www.w3.org/2000/svg"><path d="m62.5 250c-9.9456 0-19.4839-3.951-26.5165-10.984-7.0326-7.032-10.9835-16.57-10.9835-26.516v-125c0-9.9456 3.9509-19.4839 10.9835-26.5165s16.5709-10.9835 26.5165-10.9835h175c9.946 0 19.484 3.9509 26.517 10.9835 7.032 7.0326 10.983 16.5709 10.983 26.5165v125c0 9.946-3.951 19.484-10.983 26.516-7.033 7.033-16.571 10.984-26.517 10.984zm-12.5-37.5c0 3.315 1.317 6.495 3.6612 8.839s5.5236 3.661 8.8388 3.661h175c3.315 0 6.495-1.317 8.839-3.661s3.661-5.524 3.661-8.839v-125c0-3.3152-1.317-6.4946-3.661-8.8388s-5.524-3.6612-8.839-3.6612h-175c-3.3152 0-6.4946 1.317-8.8388 3.6612s-3.6612 5.5236-3.6612 8.8388zm27.75-107.813c2.0711-2.586 5.0844-4.244 8.3776-4.61 3.2932-.3654 6.5969.591 9.1849 2.66l46.8755 37.5c2.217 1.776 4.972 2.743 7.812 2.743s5.595-.967 7.812-2.743l46.876-37.5c2.589-2.072 5.895-3.0301 9.191-2.664 3.296.365 6.311 2.025 8.384 4.614 2.072 2.59 3.03 5.896 2.664 9.192-.365 3.296-2.025 6.311-4.615 8.383l-46.874 37.5c-6.652 5.326-14.918 8.227-23.438 8.227s-16.786-2.901-23.438-8.227l-46.8745-37.5c-1.2824-1.025-2.3502-2.293-3.1423-3.732-.7921-1.438-1.293-3.019-1.4741-4.651s-.0388-3.284.4187-4.861 1.2213-3.049 2.2477-4.331z" fill="#0a4fe2"/></svg>