<svg fill="none" height="16" viewBox="0 0 16 16" width="16" xmlns="http://www.w3.org/2000/svg"><path d="m7.99812 5.66567c-1.28535 0-2.33429 1.04896-2.33429 2.33433s1.04894 2.3343 2.33429 2.3343c1.28534 0 2.33428-1.04893 2.33428-2.3343s-1.04894-2.33433-2.33428-2.33433zm7.00108 2.33433c0-.96665.0088-1.92455-.0455-2.88945-.0543-1.12076-.31-2.11543-1.1295-2.93499-.8213-.8213-1.8142-1.07522-2.9349-1.12951-.96667-.054285-1.92455-.04553-2.88943-.04553-.96664 0-1.92451-.008755-2.8894.04553-1.12074.05429-2.11539.30996-2.93493 1.12951-.82129.82131-1.0752 1.81423-1.12949 2.93499-.054285.96665-.04553 1.92455-.04553 2.88945s-.008755 1.92455.04553 2.8895c.05429 1.1207.30995 2.1154 1.12949 2.9349.82129.8213 1.81419 1.0753 2.93493 1.1295.96664.0543 1.92452.0456 2.8894.0456.96663 0 1.92451.0087 2.88943-.0456 1.1207-.0542 2.1154-.3099 2.9349-1.1295.8213-.8213 1.0752-1.8142 1.1295-2.9349.056-.96495.0455-1.92285.0455-2.8895zm-7.00108 3.5917c-1.98756 0-3.59161-1.60411-3.59161-3.5917s1.60405-3.59168 3.59161-3.59168c1.98755 0 3.59158 1.60409 3.59158 3.59168s-1.60403 3.5917-3.59158 3.5917zm3.73868-6.49166c-.464 0-.8388-.37475-.8388-.83882 0-.46406.3748-.83881.8388-.83881.4641 0 .8388.37475.8388.83881.0002.1102-.0214.21934-.0635.32117s-.1039.19436-.1818.27228c-.078.07791-.1705.1397-.2723.1818-.1018.04211-.211.06371-.3212.06357z" fill="#0046dc"/></svg>