<svg fill="none" height="277" viewBox="0 0 277 277" width="277" xmlns="http://www.w3.org/2000/svg"><g fill="#fff" fill-opacity=".15"><path d="m138.5 23.0828c-30.49.3888-59.621 12.6736-81.1821 34.2347s-33.8459 50.6925-34.2347 81.1815c.1425 17.762 4.3826 35.251 12.3901 51.106s19.5663 29.648 33.7765 40.304v.924h1.1542c19.5422 14.975 43.476 23.091 68.096 23.091s48.554-8.116 68.096-23.091h1.154v-.924c14.21-10.656 25.769-24.449 33.776-40.304 8.008-15.855 12.248-33.344 12.391-51.106-.389-30.489-12.674-59.6204-34.235-81.1815s-50.693-33.8459-81.182-34.2347zm-45.3589 195.4002c1.6849-7.716 5.9572-14.624 12.1079-19.579 6.151-4.954 13.811-7.657 21.709-7.659h23.084c7.898.002 15.557 2.705 21.708 7.659 6.151 4.955 10.424 11.863 12.109 19.579-13.748 8.089-29.409 12.354-45.359 12.354-15.951 0-31.611-4.265-45.3589-12.354zm110.1079-14.889c-4.391-10.492-11.783-19.452-21.25-25.756-9.466-6.305-20.584-9.671-31.957-9.676h-23.084c-11.373.005-22.491 3.371-31.9578 9.676-9.4664 6.304-16.859 15.264-21.2491 25.756-8.6486-8.506-15.5362-18.633-20.2693-29.802-4.7331-11.17-7.2189-23.162-7.3153-35.293.2994-24.395 10.1234-47.7067 27.3748-64.9581s40.5637-27.0754 64.9587-27.3748c24.395.2994 47.707 10.1234 64.958 27.3748 17.252 17.2514 27.076 40.5631 27.375 64.9581-.096 12.131-2.582 24.123-7.315 35.293-4.733 11.169-11.621 21.296-20.269 29.802z"/><path d="m138.5 69.2511c-6.102-.1421-12.169.9549-17.834 3.2247-5.666 2.2697-10.812 5.6651-15.127 9.9808-4.316 4.3156-7.7114 9.4617-9.9812 15.1272-2.2698 5.6652-3.3668 11.7322-3.2246 17.8342-.1422 6.101.9548 12.168 3.2246 17.834 2.2698 5.665 5.6652 10.811 9.9812 15.127 4.315 4.316 9.461 7.711 15.127 9.981 5.665 2.27 11.732 3.367 17.834 3.224 6.101.143 12.168-.954 17.834-3.224 5.665-2.27 10.811-5.665 15.127-9.981s7.711-9.462 9.981-15.127c2.27-5.666 3.367-11.733 3.224-17.834.143-6.102-.954-12.169-3.224-17.8342-2.27-5.6655-5.665-10.8116-9.981-15.1272-4.316-4.3157-9.462-7.7111-15.127-9.9808-5.666-2.2698-11.733-3.3668-17.834-3.2247zm0 69.2499c-3.071.149-6.139-.347-9.006-1.454-2.868-1.108-5.473-2.803-7.647-4.977-2.173-2.174-3.868-4.778-4.976-7.646s-1.603-5.936-1.455-9.006c-.148-3.071.347-6.139 1.455-9.006 1.108-2.868 2.803-5.473 4.976-7.6465 2.174-2.1739 4.779-3.869 7.647-4.9765 2.867-1.1075 5.935-1.603 9.006-1.4545 3.07-.1485 6.138.347 9.006 1.4545s5.472 2.8026 7.646 4.9765c2.174 2.1735 3.869 4.7785 4.977 7.6465 1.107 2.867 1.603 5.935 1.454 9.006.149 3.07-.347 6.138-1.454 9.006-1.108 2.868-2.803 5.472-4.977 7.646s-4.778 3.869-7.646 4.977c-2.868 1.107-5.936 1.603-9.006 1.454z"/></g></svg>