<svg fill="none" height="113" viewBox="0 0 280 113" width="280" xmlns="http://www.w3.org/2000/svg"><g fill="#000"><path d="m267.277 64.7037-4.575-6.1118c.54-.2417 1.027-.5452 1.45-.9217 1.193-1.0538 1.789-2.5038 1.789-4.3499 0-1.8181-.605-3.2541-1.811-4.305-1.207-1.0538-2.845-1.5793-4.914-1.5793h-2.061-4.144v17.2677h4.144v-5.4543h1.201l4.077 5.4543zm-10.117-8.905v-4.9091h1.403c1.011 0 1.767.1995 2.265.6013.499.4019.807 1.0032.807 1.8209 0 1.6495-1.064 2.4841-3.072 2.4841h-1.403z"/><path d="m201.502 64.7037h4.138l-6.591-17.2677h-5.129l-6.597 17.2677h4.144l1.282-3.3608h7.468zm-7.344-7.0476 2.324-6.0893 2.326 6.0893z"/><path d="m130.125 19.3667-4.688 8.9415-4.69-8.9415h-4.737v17.2705h4.141v-10.0431-.0309l3.102 5.9067.112.2164h4.142l.112-.2164 3.077-5.8589v.0112 10.015h4.144v-17.2649-.0056z"/><path d="m155.182 36.6371h4.138l-6.591-17.2677h-5.13l-6.597 17.2677h4.144l1.283-3.3608h7.467zm-7.345-7.0504 2.324-6.0894 2.327 6.0894z"/><path d="m130.125 47.436-4.688 8.9388-4.69-8.9388h-4.737v17.2677h4.141v-10.0431-.0281l3.102 5.9067.112.2136h4.142l.112-.2136 3.077-5.8617v.0112 10.015h4.144v-17.262-.0057z"/><path d="m155.182 64.7037h4.138l-6.591-17.2677h-5.13l-6.597 17.2677h4.144l1.283-3.3608h7.467zm-7.345-7.0476 2.324-6.0893 2.327 6.0893z"/><path d="m235.139 23.0563v-3.6896h-11.965v.0084 17.2621h11.965v-3.6924h-7.821v-3.0939h6.614v-3.6895h-6.614v-3.1051z"/><path d="m245.725 51.1256v-3.6896h-11.961v.0085 17.262h11.961v-3.6924h-7.817v-3.0938h6.613v-3.6896h-6.613v-3.1051z"/><path d="m179.618 36.6371-4.576-6.1119c.541-.2416 1.028-.5451 1.451-.9217 1.193-1.0537 1.789-2.5037 1.789-4.3499 0-1.8181-.605-3.254-1.812-4.305-1.206-1.0537-2.844-1.5792-4.914-1.5792h-2.06-4.144v17.2677h4.144v-5.4543h1.201l4.077 5.4543zm-10.12-8.9079v-4.9063h1.403c1.011 0 1.767.1995 2.265.6014.499.4018.807 1.0031.807 1.8209 0 1.6495-1.064 2.484-3.072 2.484z"/><path d="m165.391 47.436h3.894l7.857 10.4983v-10.4983h4.144v17.2677h-3.917l-7.834-10.4758v10.4758h-4.144z"/><path d="m219.215 58.1369h2.716v2.7032c-.708.1518-1.397.2276-2.061.2276-1.674 0-2.987-.4355-3.939-1.3066s-1.426-2.0795-1.426-3.625c0-1.5146.499-2.7257 1.496-3.6362.996-.9104 2.315-1.3628 3.962-1.3628 1.57 0 3.116.3063 4.636.916l1.356-3.5547c-.815-.4074-1.748-.7278-2.8-.9638-1.056-.2332-2.106-.3513-3.148-.3513-2.052 0-3.841.385-5.364 1.1578-1.524.7727-2.691 1.8434-3.497 3.2147-.807 1.3713-1.213 2.9561-1.213 4.7602 0 1.7731.4 3.3102 1.201 4.6112.801 1.3039 1.921 2.2986 3.363 2.9871s3.119 1.0341 5.037 1.0341c2.492 0 4.732-.4468 6.726-1.3404v-8.9078h-7.042v3.4367z"/><path d="m186.525 19.375h4.144v17.2536h-4.144z"/><path d="m199.035 19.3667h3.895l7.857 10.4983v-10.4983h4.144v17.2677h-3.917l-7.835-10.473v10.4758h-4.144z"/><path d="m132.617 80.9261h3.962l.045 1.7507c.285-.6351.68-1.1241 1.176-1.4669.498-.34 1.078-.5114 1.744-.5114.512 0 .958.0843 1.336.2501l-.317 3.8638c-.467-.1967-.966-.2951-1.495-.2951-.784 0-1.378.2614-1.778.784-.4.5227-.599 1.2983-.599 2.3296v5.0215h-4.074z"/><path d="m152.306 93.0345c-1.419 0-2.657-.2473-3.713-.739-1.055-.4918-1.876-1.2027-2.455-2.1356-.583-.933-.871-2.0486-.871-3.3524 0-1.1802.249-2.2424.748-3.181.498-.9385 1.212-1.6804 2.139-2.2255.929-.5452 2.005-.8177 3.225-.8177 1.75 0 3.145.5282 4.178 1.5792 1.033 1.0538 1.551 2.4813 1.551 4.2825 0 .5311-.045 1.0004-.137 1.4078h-7.697c.21.6801.607 1.1859 1.19 1.5118.579.326 1.377.489 2.388.489.65 0 1.305-.0675 1.969-.2052.663-.1348 1.251-.3259 1.766-.5676l.362 3.0686c-.619.2894-1.333.5086-2.14.6575-.809.1518-1.643.2276-2.503.2276zm.994-7.6348c-.061-.6042-.269-1.0819-.621-1.4332-.356-.3484-.812-.5226-1.37-.5226-1.148 0-1.848.6519-2.105 1.9558z"/><path d="m173.972 88.6481c-.868.2417-1.657.3653-2.366.3653-1.57 0-2.802-.4327-3.701-1.2954s-1.347-2.0457-1.347-3.5435c0-1.5005.448-2.6892 1.347-3.5659.899-.8795 2.117-1.3179 3.657-1.3179.739 0 1.495.0955 2.265.2838.549.1349 1.069.3232 1.579.5395l1.338-3.5069c-.677-.4074-1.506-.7334-2.486-.9751-.98-.2416-1.971-.3625-2.965-.3625-1.434 0-2.739.2305-3.917.6941-1.179.4609-2.179 1.1015-2.999 1.9193-.823.8177-1.445 1.7647-1.868 2.8409-.423 1.0763-.633 2.234-.633 3.476 0 1.8322.384 3.417 1.154 4.749.77 1.3348 1.854 2.3492 3.248 3.0461 1.397.6969 3.03 1.0453 4.903 1.0453 1.027 0 2.055-.1293 3.091-.385 1.033-.2585 1.904-.5985 2.615-1.0228l-.476-3.9313c-.759.3878-1.571.7053-2.439.947z"/><path d="m183.829 93.0347c1.251 0 2.265-1.0178 2.265-2.2733 0-1.2556-1.014-2.2734-2.265-2.2734s-2.266 1.0178-2.266 2.2734c0 1.2555 1.015 2.2733 2.266 2.2733z"/><path d="m126.801 84.8292h-3.539v-3.5519h-3.677v3.5519h-3.542v3.6896h3.542v3.5547h3.677v-3.5547h3.539z"/></g><path d="m67.0654 13.0104c-.0168 0-.0364-.0028-.0532-.0028-5.5384 0-10.1584 3.9312-11.2476 9.1663-1.0892-5.2323-5.712-9.1663-11.2476-9.1663-.0196 0-.0364.0028-.0532.0028-.1176.666-.1904 1.346-.1904 2.0457 0 6.3535 5.1184 11.5043 11.4408 11.5324.0196 0 .0364.0028.0532.0028s.0364-.0028.0532-.0028c6.3224-.0309 11.4408-5.1789 11.4408-11.5324-.0056-.6997-.0784-1.3797-.196-2.0457z" fill="#0046dc"/><path d="m94.1865 33.681c-.014-.014-.0224-.0281-.0364-.0393-3.9172-3.9312-9.954-4.4286-14.4116-1.5006 2.9176-4.4735 2.4192-10.532-1.498-14.4632-.014-.0141-.028-.0225-.0392-.0365-.5516.3849-1.0836.8177-1.5764 1.3122-4.4772 4.4933-4.4856 11.7657-.0364 16.273.014.014.0224.0281.0364.0393.014.014.028.0225.0392.0365 4.4912 4.4652 11.7404 4.4567 16.2148-.0365.4928-.4974.9212-1.0313 1.3076-1.5849z" fill="#0046dc"/><path d="m98.798 67.5448c0-.0168.0028-.0365.0028-.0534 0-5.5582-3.9172-10.1948-9.1336-11.2879 5.2136-1.0931 9.1336-5.7324 9.1336-11.2879 0-.0197-.0028-.0365-.0028-.0534-.6636-.118-1.3412-.1911-2.0384-.1911-6.3308 0-11.4632 5.1368-11.4912 11.4818 0 .0197-.0028.0366-.0028.0534 0 .0169.0028.0366.0028.0534.0308 6.3451 5.1604 11.4818 11.4912 11.4818.6972-.0056 1.3748-.0786 2.0384-.1967z" fill="#0046dc"/><path d="m78.2013 94.7629c.014-.0141.028-.0225.0392-.0366 3.9172-3.9312 4.4128-9.9897 1.498-14.4632 4.4576 2.928 10.4944 2.4278 14.4116-1.5006.014-.014.0224-.0281.0364-.0393-.3836-.5536-.8148-1.0875-1.3076-1.5821-4.4772-4.4932-11.7236-4.5017-16.2148-.0365-.014.014-.028.0225-.0392.0365-.014.0141-.0224.0281-.0364.0394-4.4492 4.5073-4.4408 11.7824.0364 16.2729.4928.4917 1.022.9217 1.5764 1.3095z" fill="#0046dc"/><path d="m44.4582 99.391c.0168 0 .0364.0028.0532.0028 5.5384 0 10.1584-3.9313 11.2476-9.1664 1.0892 5.2323 5.712 9.1664 11.2476 9.1664.0196 0 .0364-.0028.0532-.0028.1176-.666.1904-1.346.1904-2.0457 0-6.3535-5.1184-11.5043-11.4408-11.5324-.0196 0-.0364-.0028-.0532-.0028s-.0364.0028-.0532.0028c-6.3224.0309-11.4408 5.1789-11.4408 11.5324.0056.6997.0784 1.3797.196 2.0457z" fill="#0046dc"/><path d="m33.099 75.6685c-4.4604-2.9618-10.5252-2.4728-14.4564 1.4696-.4928.4946-.9212 1.0285-1.3076 1.5821.014.0141.0224.0281.0364.0393 3.9172 3.9313 9.954 4.4287 14.4116 1.5034-2.9176 4.4736-2.4192 10.532 1.498 14.4633.014.014.028.0224.0392.0365.5516-.385 1.0836-.8177 1.5764-1.3123 3.9284-3.9425 4.4156-10.029 1.4644-14.5082 6.5604.5985 13.328-1.6158 18.3512-6.657 5.7484-5.769 7.812-13.8338 6.1964-21.2551-7.3948-1.6186-15.4308.4496-21.1792 6.2186-5.0204 5.044-7.2268 11.8331-6.6304 18.4198zm20.2664-19.4679c1.3244 0 2.3968 1.0762 2.3968 2.4054 0 1.3291-1.0724 2.4054-2.3968 2.4054s-2.3968-1.0763-2.3968-2.4054c0-1.3292 1.0724-2.4054 2.3968-2.4054z" fill="#ffb900"/><path d="m12.7259 44.8566c0 .0169-.0028.0365-.0028.0534 0 5.5583 3.9172 10.1948 9.1336 11.2879-5.2136 1.0931-9.1336 5.7325-9.1336 11.288 0 .0196.0028.0365.0028.0533.6636.1181 1.3412.1911 2.0384.1911 6.3308 0 11.4632-5.1367 11.4912-11.4818 0-.0197.0028-.0365.0028-.0534 0-.0168-.0028-.0365-.0028-.0534-.0308-6.345-5.1604-11.4818-11.4912-11.4818-.6972.0056-1.3776.0787-2.0384.1967z" fill="#0046dc"/><path d="m33.3227 17.6384c-.014.0141-.028.0225-.0392.0366-3.9172 3.9312-4.4128 9.9896-1.4952 14.4632-4.4576-2.928-10.4944-2.4279-14.4116 1.5006-.014.014-.0224.0281-.0364.0393.3836.5536.8148 1.0875 1.3076 1.5821 4.4772 4.4932 11.7236 4.5016 16.2148.0365.014-.0141.028-.0225.0392-.0365.014-.0141.0224-.0281.0364-.0394 4.4492-4.5073 4.4408-11.7825-.0364-16.2729-.4956-.4918-1.0276-.9217-1.5792-1.3095z" fill="#0046dc"/></svg>