<svg fill="none" height="113" viewBox="0 0 280 113" width="280" xmlns="http://www.w3.org/2000/svg"><path clip-rule="evenodd" d="m130.125 19.3667-4.688 8.9415-4.69-8.9415h-4.737v17.2705h4.141v-10.0431-.0309l3.102 5.9067.112.2164h4.142l.112-.2164 3.077-5.8589v.0112 10.015h4.144v-17.2649-.0056zm75.515 45.337h-4.138l-1.285-3.3608h-7.468l-1.282 3.3608h-4.144l6.597-17.2677h5.129zm-9.158-13.1369-2.324 6.0893h4.65zm66.22 7.0251 4.575 6.1118h-4.844l-4.077-5.4543h-1.201v5.4543h-4.144v-17.2677h4.144 2.061c2.069 0 3.707.5255 4.914 1.5793 1.206 1.0509 1.811 2.4869 1.811 4.305 0 1.8461-.596 3.2961-1.789 4.3499-.423.3765-.91.68-1.45.9217zm-5.542-7.7023v4.9063h1.403c2.008 0 3.072-.8346 3.072-2.4841 0-.8177-.308-1.419-.807-1.8209-.498-.4018-1.254-.6013-2.265-.6013zm-97.84-14.2525h-4.138l-1.286-3.3608h-7.467l-1.283 3.3608h-4.144l6.597-17.2677h5.13zm-9.159-13.1398-2.324 6.0894h4.651zm-20.036 23.9387-4.688 8.9388-4.69-8.9388h-4.737v17.2677h4.141v-10.0431-.0281l3.102 5.9067.112.2136h4.142l.112-.2136 3.077-5.8617v.0112 10.015h4.144v-17.262-.0057zm29.195 17.2677h-4.138l-1.286-3.3608h-7.467l-1.283 3.3608h-4.144l6.597-17.2677h5.13zm-9.159-13.1369-2.324 6.0893h4.651zm84.977-28.5105v-3.6896h-11.964v.0084 17.2621h11.964v-3.6924h-7.82v-3.0939h6.613v-3.6895h-6.613v-3.1051zm10.587 24.3797v3.6896h-7.817v3.1051h6.613v3.6896h-6.613v3.0938h7.817v3.6924h-11.961v-17.262-.0085zm-66.108-10.7989-4.575-6.1119c.54-.2416 1.027-.5451 1.45-.9217 1.193-1.0537 1.789-2.5037 1.789-4.3499 0-1.8181-.604-3.254-1.811-4.305-1.207-1.0537-2.845-1.5792-4.914-1.5792h-2.061-4.144v17.2677h4.144v-5.4543h1.201l4.077 5.4543zm-10.119-8.9079v-4.9063h1.403c1.01 0 1.766.1995 2.265.6014.498.4018.806 1.0031.806 1.8209 0 1.6495-1.064 2.484-3.071 2.484zm-.213 19.7068h-3.895v17.2677h4.144v-10.4758l7.835 10.4758h3.917v-17.2677h-4.144v10.4983zm49.932 10.7009h2.714v2.7032c-.709.1518-1.398.2276-2.061.2276-1.675 0-2.988-.4355-3.94-1.3066s-1.425-2.0795-1.425-3.625c0-1.5146.498-2.7257 1.495-3.6362.997-.9104 2.316-1.3628 3.962-1.3628 1.571 0 3.117.3063 4.637.916l1.355-3.5547c-.815-.4074-1.747-.7278-2.8-.9638-1.055-.2332-2.105-.3513-3.147-.3513-2.052 0-3.842.385-5.365 1.1578-1.523.7727-2.691 1.8434-3.497 3.2147s-1.212 2.9561-1.212 4.7602c0 1.7731.4 3.3102 1.201 4.6112.801 1.3039 1.921 2.2986 3.363 2.9871s3.119 1.0341 5.037 1.0341c2.492 0 4.732-.4468 6.725-1.3404v-8.9078h-7.042zm-28.548-38.7619h-4.144v17.2536h4.144zm8.366-.0083h3.895l7.857 10.4983v-10.4983h4.144v17.2677h-3.917l-7.835-10.473v10.4758h-4.144zm-62.457 61.5594h-3.962v11.7263h4.074v-5.0215c0-1.0313.199-1.8069.599-2.3296.401-.5226.994-.784 1.778-.784.53 0 1.028.0984 1.496.2951l.316-3.8638c-.378-.1658-.823-.2501-1.336-.2501-.666 0-1.246.1714-1.744.5114-.496.3428-.89.8318-1.176 1.4669zm15.728 12.1084c-1.42 0-2.657-.2473-3.713-.739-1.056-.4918-1.876-1.2027-2.456-2.1356-.582-.933-.87-2.0486-.87-3.3524 0-1.1802.249-2.2424.747-3.181.499-.9385 1.213-1.6804 2.139-2.2255.93-.5452 2.005-.8177 3.226-.8177 1.75 0 3.144.5282 4.178 1.5792 1.033 1.0538 1.551 2.4813 1.551 4.2825 0 .5311-.045 1.0004-.137 1.4078h-7.698c.21.6801.608 1.1859 1.19 1.5118.58.326 1.378.489 2.389.489.649 0 1.305-.0675 1.968-.2052.664-.1349 1.252-.3259 1.767-.5676l.361 3.0686c-.619.2894-1.333.5086-2.139.6575-.809.1518-1.644.2276-2.503.2276zm.994-7.6348c-.062-.6042-.269-1.0819-.622-1.4332-.355-.3484-.812-.5226-1.369-.5226-1.148 0-1.848.6519-2.106 1.9558zm18.306 3.6137c.709 0 1.498-.1236 2.366-.3653s1.68-.5592 2.439-.947l.476 3.9313c-.711.4243-1.582.7643-2.615 1.0228-1.036.2557-2.064.385-3.091.385-1.873 0-3.506-.3484-4.903-1.0453-1.394-.6969-2.478-1.7113-3.248-3.0461-.77-1.332-1.154-2.9168-1.154-4.749 0-1.242.21-2.3997.633-3.476.423-1.0762 1.045-2.0232 1.868-2.8409.82-.8178 1.82-1.4584 2.999-1.9193 1.178-.4636 2.483-.6941 3.917-.6941.994 0 1.985.1209 2.965.3625.98.2417 1.809.5677 2.486.9751l-1.338 3.5069c-.51-.2163-1.03-.4046-1.579-.5395-.77-.1883-1.526-.2838-2.265-.2838-1.54 0-2.758.4384-3.657 1.3179-.899.8767-1.347 2.0654-1.347 3.5659 0 1.4978.448 2.6808 1.347 3.5435s2.131 1.2954 3.701 1.2954zm12.222 4.0213c1.251 0 2.265-1.0178 2.265-2.2733 0-1.2556-1.014-2.2734-2.265-2.2734s-2.265 1.0178-2.265 2.2734c0 1.2555 1.014 2.2733 2.265 2.2733zm-60.567-8.2055h3.54v3.6896h-3.54v3.5547h-3.676v-3.5547h-3.542v-3.6896h3.542v-3.5519h3.676z" fill="#fff" fill-rule="evenodd"/><g fill="#0046dc"><path d="m67.0654 13.0104c-.0168 0-.0364-.0028-.0532-.0028-5.5384 0-10.1584 3.9312-11.2476 9.1663-1.0892-5.2323-5.712-9.1663-11.2476-9.1663-.0196 0-.0364.0028-.0532.0028-.1176.666-.1904 1.346-.1904 2.0457 0 6.3535 5.1184 11.5043 11.4408 11.5324.0196 0 .0364.0028.0532.0028s.0364-.0028.0532-.0028c6.3224-.0309 11.4408-5.1789 11.4408-11.5324-.0056-.6997-.0784-1.3797-.196-2.0457z"/><path d="m94.1865 33.681c-.014-.014-.0224-.0281-.0364-.0393-3.9172-3.9312-9.954-4.4286-14.4116-1.5006 2.9176-4.4735 2.4192-10.532-1.498-14.4632-.014-.0141-.028-.0225-.0392-.0365-.5516.3849-1.0836.8177-1.5764 1.3122-4.4772 4.4933-4.4856 11.7657-.0364 16.273.014.014.0224.0281.0364.0393.014.014.028.0225.0392.0365 4.4912 4.4652 11.7404 4.4567 16.2148-.0365.4928-.4974.9212-1.0313 1.3076-1.5849z"/><path d="m98.798 67.5448c0-.0168.0028-.0365.0028-.0534 0-5.5582-3.9172-10.1948-9.1336-11.2879 5.2136-1.0931 9.1336-5.7324 9.1336-11.2879 0-.0197-.0028-.0365-.0028-.0534-.6636-.118-1.3412-.1911-2.0384-.1911-6.3308 0-11.4632 5.1368-11.4912 11.4818 0 .0197-.0028.0366-.0028.0534 0 .0169.0028.0366.0028.0534.0308 6.3451 5.1604 11.4818 11.4912 11.4818.6972-.0056 1.3748-.0786 2.0384-.1967z"/><path d="m78.2013 94.7629c.014-.0141.028-.0225.0392-.0366 3.9172-3.9312 4.4128-9.9897 1.498-14.4632 4.4576 2.928 10.4944 2.4278 14.4116-1.5006.014-.014.0224-.0281.0364-.0393-.3836-.5536-.8148-1.0875-1.3076-1.5821-4.4772-4.4932-11.7236-4.5017-16.2148-.0365-.014.014-.028.0225-.0392.0365-.014.0141-.0224.0281-.0364.0394-4.4492 4.5073-4.4408 11.7824.0364 16.2729.4928.4917 1.022.9217 1.5764 1.3095z"/><path d="m44.4582 99.391c.0168 0 .0364.0028.0532.0028 5.5384 0 10.1584-3.9313 11.2476-9.1664 1.0892 5.2323 5.712 9.1664 11.2476 9.1664.0196 0 .0364-.0028.0532-.0028.1176-.666.1904-1.346.1904-2.0457 0-6.3535-5.1184-11.5043-11.4408-11.5324-.0196 0-.0364-.0028-.0532-.0028s-.0364.0028-.0532.0028c-6.3224.0309-11.4408 5.1789-11.4408 11.5324.0056.6997.0784 1.3797.196 2.0457z"/></g><path d="m33.099 75.6685c-4.4604-2.9618-10.5252-2.4728-14.4564 1.4696-.4928.4946-.9212 1.0285-1.3076 1.5821.014.0141.0224.0281.0364.0393 3.9172 3.9313 9.954 4.4287 14.4116 1.5034-2.9176 4.4736-2.4192 10.532 1.498 14.4633.014.014.028.0224.0392.0365.5516-.385 1.0836-.8177 1.5764-1.3123 3.9284-3.9425 4.4156-10.029 1.4644-14.5082 6.5604.5985 13.328-1.6158 18.3512-6.657 5.7484-5.769 7.812-13.8338 6.1964-21.2551-7.3948-1.6186-15.4308.4496-21.1792 6.2186-5.0204 5.044-7.2268 11.8331-6.6304 18.4198zm20.2664-19.4679c1.3244 0 2.3968 1.0762 2.3968 2.4054 0 1.3291-1.0724 2.4054-2.3968 2.4054s-2.3968-1.0763-2.3968-2.4054c0-1.3292 1.0724-2.4054 2.3968-2.4054z" fill="#ffb900"/><path d="m12.7259 44.8566c0 .0169-.0028.0365-.0028.0534 0 5.5583 3.9172 10.1948 9.1336 11.2879-5.2136 1.0931-9.1336 5.7325-9.1336 11.288 0 .0196.0028.0365.0028.0533.6636.1181 1.3412.1911 2.0384.1911 6.3308 0 11.4632-5.1367 11.4912-11.4818 0-.0197.0028-.0365.0028-.0534 0-.0168-.0028-.0365-.0028-.0534-.0308-6.345-5.1604-11.4818-11.4912-11.4818-.6972.0056-1.3776.0787-2.0384.1967z" fill="#0046dc"/><path d="m33.3227 17.6384c-.014.0141-.028.0225-.0392.0366-3.9172 3.9312-4.4128 9.9896-1.4952 14.4632-4.4576-2.928-10.4944-2.4279-14.4116 1.5006-.014.014-.0224.0281-.0364.0393.3836.5536.8148 1.0875 1.3076 1.5821 4.4772 4.4932 11.7236 4.5016 16.2148.0365.014-.0141.028-.0225.0392-.0365.014-.0141.0224-.0281.0364-.0394 4.4492-4.5073 4.4408-11.7825-.0364-16.2729-.4956-.4918-1.0276-.9217-1.5792-1.3095z" fill="#0046dc"/></svg>