<svg fill="none" height="32" viewBox="0 0 32 32" width="32" xmlns="http://www.w3.org/2000/svg"><path d="m6.6665 26.6667c-1.06086 0-2.07828-.4214-2.82842-1.1716-.75015-.7501-1.17158-1.7675-1.17158-2.8284v-13.33333c0-1.06086.42143-2.07828 1.17158-2.82842.75014-.75015 1.76756-1.17158 2.82842-1.17158h18.6667c1.0608 0 2.0783.42143 2.8284 1.17158.7501.75014 1.1716 1.76756 1.1716 2.82842v13.33333c0 1.0609-.4215 2.0783-1.1716 2.8284-.7501.7502-1.7676 1.1716-2.8284 1.1716zm-1.33333-4c0 .3536.14048.6928.39053.9428.25004.2501.58918.3905.9428.3905h18.6667c.3536 0 .6927-.1404.9428-.3905.25-.25.3905-.5892.3905-.9428v-13.33333c0-.35362-.1405-.69276-.3905-.94281-.2501-.25004-.5892-.39052-.9428-.39052h-18.6667c-.35362 0-.69276.14048-.9428.39052-.25005.25005-.39053.58919-.39053.94281zm2.96-11.5c.22092-.2759.54234-.4527.89361-.4917.35128-.0391.70367.063.97972.2837l5 4c.2365.1893.5304.2925.8333.2925.303 0 .5969-.1032.8334-.2925l5-4c.2761-.221.6288-.3233.9804-.2842.3516.039.6732.216.8942.4922.2211.2762.3233.6288.2843.9804s-.2161.6733-.4923.8943l-5 4c-.7094.568-1.5911.8775-2.5.8775-.9088 0-1.7905-.3095-2.5-.8775l-4.99996-4c-.1368-.1094-.25069-.2447-.33518-.3982-.08449-.1534-.13792-.322-.15724-.4961s-.00414-.3503.04466-.5185.13027-.3252.23976-.4619z" fill="#0046dc"/></svg>