<svg fill="none" height="66" viewBox="0 0 64 66" width="64" xmlns="http://www.w3.org/2000/svg"><path clip-rule="evenodd" d="m30.2079.0160416c9.5161.3470184 16.4525 7.6553784 22.5011 14.8333584 6.2121 7.3719 12.6117 15.5638 11.054 24.9866-1.6546 10.0097-9.5218 17.862-18.8688 22.2881-9.3834 4.4434-20.5523 5.5599-29.7305.7254-8.77027-4.6196-12.48642-14.3858-14.34466-23.9415-1.754186-9.0206-.908379-18.3908 4.67556-25.7804 5.855-7.74826 14.8554-13.471045 24.7133-13.1115584z" fill="#fff" fill-rule="evenodd"/><g fill="#0046dc"><path d="m10.2505 39.9999v-10.64h2.422l4.8441 6.496v-6.496h2.576v10.64h-2.4221l-4.844-6.51v6.51z"/><path d="m22.3091 39.9999v-10.64h7.406v2.142h-4.816v2.044h4.242v2.142h-4.242v2.17h5.012v2.142z"/><path d="m33.998 39.9999-3.15-10.64h2.982l1.568 7.084 1.96-6.944h2.408l1.988 6.818 1.5401-6.958h2.968l-3.1501 10.64h-2.562l-2.016-6.832-1.96 6.832z"/><path d="m48.0635 36.3319-.252-7.392h2.772l-.252 7.392zm1.134 3.752c-.4294 0-.7747-.126-1.036-.378-.2614-.252-.392-.574-.392-.966s.1306-.7093.392-.952c.2613-.252.6066-.378 1.036-.378.42 0 .7606.126 1.022.378.2706.2427.406.56.406.952s-.1354.714-.406.966c-.2614.252-.602.378-1.022.378z"/></g></svg>