<svg fill="none" height="20" viewBox="0 0 20 20" width="20" xmlns="http://www.w3.org/2000/svg"><path clip-rule="evenodd" d="m5 9.99994c0-.16576.06585-.32473.18306-.44194s.27618-.18306.44194-.18306h7.2413l-2.6838-2.6825c-.0581-.05811-.1042-.12709-.1357-.20302-.0314-.07592-.04759-.1573-.04759-.23948s.01619-.16355.04759-.23948c.0315-.07592.0776-.14491.1357-.20302s.1271-.1042.203-.13565.1573-.04763.2395-.04763.1636.01618.2395.04763.1449.07754.203.13565l3.75 3.75c.0582.05806.1044.12703.1359.20296s.0477.15733.0477.23954c0 .08226-.0162.16366-.0477.23956s-.0777.1449-.1359.2029l-3.75 3.75c-.0581.0582-.1271.1042-.203.1357-.0759.0314-.1573.0476-.2395.0476s-.1636-.0162-.2395-.0476c-.0759-.0315-.1449-.0775-.203-.1357-.1174-.1173-.18329-.2765-.18329-.4425 0-.0821.01619-.1635.04759-.2394.0315-.076.0776-.1449.1357-.2031l2.6838-2.6825h-7.2413c-.16576 0-.32473-.0658-.44194-.183s-.18306-.2762-.18306-.44196z" fill="#0046dc" fill-rule="evenodd"/></svg>