<svg fill="none" height="16" viewBox="0 0 16 16" width="16" xmlns="http://www.w3.org/2000/svg"><path d="m15.7618 3.29134c-.5566.24667-1.1546.41334-1.7833.48867.6487-.38814 1.134-.99902 1.3653-1.71867-.6094.362-1.2764.6168-1.972.75334-.4677-.49943-1.0872-.83045-1.7624-.94169-.6752-.11123-1.3682.00355-1.9714.32652-.60324.32298-1.08297.83608-1.36472 1.45964s-.34975 1.32269-.19344 1.98886c-1.23487-.062-2.44291-.38297-3.54571-.94206-1.1028-.5591-2.07572-1.34383-2.85562-2.30327-.26667.46-.42.99333-.42 1.56133-.0003.51133.12562 1.01483.36659 1.46582.24096.451.58952.83554 1.01474 1.11951-.49314-.01569-.97541-.14894-1.40666-.38866v.04c-.00005.71716.24802 1.41225.70212 1.96733s1.08626.93595 1.78921 1.078c-.45748.12381-.93711.14205-1.40267.05333.19834.61708.58467 1.15666 1.10492 1.54326.52024.3866 1.14836.6009 1.79642.6127-1.10011.8637-2.45874 1.3321-3.85733 1.33-.24775.0001-.495287-.0144-.741338-.0433 1.419648.9128 3.072228 1.3972 4.759998 1.3953 5.71329 0 8.83669-4.73196 8.83669-8.83596 0-.13333-.0034-.268-.0094-.40133.6076-.43935 1.132-.9834 1.5487-1.60667z" fill="#fff"/></svg>