<svg fill="none" height="32" viewBox="0 0 32 32" width="32" xmlns="http://www.w3.org/2000/svg"><g fill="#ffb900"><path d="m15.7273 3c-3.3622.04288-6.57456 1.39755-8.95216 3.77514-2.37759 2.3776-3.73226 5.58996-3.77514 8.95216.01572 1.9586.48328 3.8872 1.36629 5.6355.883 1.7484 2.15763 3.2693 3.72462 4.4445v.1018h.12727c2.15492 1.6513 4.79422 2.5463 7.50912 2.5463s5.3541-.895 7.5091-2.5463h.1272v-.1018c1.567-1.1752 2.8417-2.6961 3.7247-4.4445.883-1.7483 1.3505-3.6769 1.3662-5.6355-.0428-3.3622-1.3975-6.57456-3.7751-8.95216-2.3776-2.37759-5.59-3.73226-8.9521-3.77514zm-5.0018 21.5473c.1858-.8509.6569-1.6127 1.3352-2.159.6782-.5464 1.5229-.8444 2.3938-.8447h2.5455c.8709.0003 1.7156.2983 2.3939.8447.6783.5463 1.1494 1.3081 1.3352 2.159-1.516.8919-3.2429 1.3623-5.0018 1.3623s-3.4859-.4704-5.0018-1.3623zm12.1418-1.6418c-.4841-1.157-1.2993-2.1451-2.3432-2.8403s-2.2699-1.0664-3.5241-1.067h-2.5455c-1.2541.0006-2.4802.3718-3.524 1.067-1.04392.6952-1.85912 1.6833-2.34323 2.8403-.9537-.9381-1.71321-2.0548-2.23514-3.2865-.52193-1.2316-.79605-2.5541-.80668-3.8917.03302-2.6902 1.11634-5.2608 3.01869-7.16316 1.90236-1.90235 4.47296-2.98567 7.16316-3.01869 2.6901.03302 5.2608 1.11634 7.1631 3.01869 1.9024 1.90236 2.9857 4.47296 3.0187 7.16316-.0106 1.3376-.2848 2.6601-.8067 3.8917-.5219 1.2317-1.2814 2.3484-2.2351 3.2865z"/><path d="m15.6362 8.00037c-.6728-.01567-1.3419.1053-1.9666.35559-.6247.2503-1.1922.62471-1.6681 1.10061-.4759.47589-.8503 1.04333-1.1006 1.66813-.2503.6247-.3713 1.2938-.3556 1.9666-.0157.6728.1053 1.3418.3556 1.9666.2503.6247.6247 1.1922 1.1006 1.6681s1.0434.8503 1.6681 1.1006 1.2938.3713 1.9666.3556c.6728.0157 1.3419-.1053 1.9666-.3556s1.1922-.6247 1.6681-1.1006.8503-1.0434 1.1006-1.6681c.2503-.6248.3713-1.2938.3556-1.9666.0157-.6728-.1053-1.3419-.3556-1.9666-.2503-.6248-.6247-1.19224-1.1006-1.66813-.4759-.4759-1.0434-.85031-1.6681-1.10061-.6247-.25029-1.2938-.37126-1.9666-.35559zm0 7.63633c-.3386.0164-.6769-.0382-.9931-.1604-.3163-.1221-.6035-.309-.8432-.5487s-.4266-.5269-.5488-.8432c-.1221-.3162-.1767-.6545-.1604-.9931-.0163-.3386.0383-.6769.1604-.9932.1222-.3162.3091-.6034.5488-.8431s.5269-.4266.8432-.5488c.3162-.1221.6545-.1767.9931-.1604.3386-.0163.6769.0383.9931.1604.3163.1222.6035.3091.8432.5488s.4266.5269.5488.8431c.1221.3163.1767.6546.1604.9932.0163.3386-.0383.6769-.1604.9931-.1222.3163-.3091.6035-.5488.8432s-.5269.4266-.8432.5487c-.3162.1222-.6545.1768-.9931.1604z"/></g></svg>