<svg fill="none" height="32" viewBox="0 0 32 32" width="32" xmlns="http://www.w3.org/2000/svg"><g fill="#fff"><path d="m15.6365 2.90906c-3.3622.04287-6.57458 1.39755-8.95218 3.77514-2.37759 2.3776-3.73226 5.59-3.77514 8.9521.01572 1.9587.48328 3.8872 1.36629 5.6356.883 1.7483 2.15762 3.2693 3.72462 4.4444v.1019h.12727c2.15494 1.6513 4.79414 2.5462 7.50914 2.5462 2.7149 0 5.3541-.8949 7.509-2.5462h.1273v-.1019c1.567-1.1751 2.8416-2.6961 3.7246-4.4444.883-1.7484 1.3506-3.6769 1.3663-5.6356-.0429-3.3621-1.3975-6.5745-3.7751-8.9521-2.3776-2.37759-5.59-3.73227-8.9521-3.77514zm-5.0019 21.54724c.1858-.8509.657-1.6127 1.3352-2.159.6783-.5463 1.523-.8443 2.3939-.8446h2.5455c.8709.0003 1.7156.2983 2.3939.8446s1.1494 1.3081 1.3352 2.159c-1.516.892-3.2429 1.3623-5.0018 1.3623-1.759 0-3.4859-.4703-5.0019-1.3623zm12.1419-1.6418c-.4842-1.157-1.2994-2.1451-2.3432-2.8403-1.0439-.6951-2.2699-1.0663-3.5241-1.067h-2.5455c-1.2541.0007-2.4802.3719-3.5241 1.067-1.04384.6952-1.85904 1.6833-2.34315 2.8403-.9537-.938-1.71321-2.0547-2.23514-3.2864s-.79605-2.5541-.80668-3.8918c.03302-2.6901 1.11634-5.2607 3.01869-7.1631 1.90238-1.90235 4.47298-2.98568 7.16318-3.01869 2.6901.03301 5.2607 1.11634 7.1631 3.01869 1.9023 1.9024 2.9857 4.473 3.0187 7.1631-.0107 1.3377-.2848 2.6601-.8067 3.8918s-1.2814 2.3484-2.2351 3.2864z"/><path d="m15.6362 8.00013c-.6728-.01567-1.3419.10529-1.9666.35559-.6247.25029-1.1922.62471-1.6681 1.1006-.4759.4759-.8503 1.04338-1.1006 1.66808-.2503.6248-.3713 1.2938-.3556 1.9666-.0157.6729.1053 1.3419.3556 1.9666.2503.6248.6247 1.1923 1.1006 1.6682s1.0434.8503 1.6681 1.1006 1.2938.3712 1.9666.3556c.6728.0156 1.3419-.1053 1.9666-.3556s1.1922-.6247 1.6681-1.1006.8503-1.0434 1.1006-1.6682c.2503-.6247.3713-1.2937.3556-1.9666.0157-.6728-.1053-1.3418-.3556-1.9666-.2503-.6247-.6247-1.19218-1.1006-1.66808-.4759-.47589-1.0434-.85031-1.6681-1.1006-.6247-.2503-1.2938-.37126-1.9666-.35559zm0 7.63637c-.3386.0164-.6769-.0383-.9931-.1604-.3163-.1221-.6035-.3091-.8432-.5488s-.4266-.5269-.5488-.8431c-.1221-.3163-.1767-.6545-.1604-.9932-.0163-.3386.0383-.6769.1604-.9931.1222-.3162.3091-.6034.5488-.8432.2397-.2397.5269-.4266.8432-.5487.3162-.1221.6545-.1768.9931-.1604.3386-.0164.6769.0383.9931.1604.3163.1221.6035.309.8432.5487.2397.2398.4266.527.5488.8432.1221.3162.1767.6545.1604.9931.0163.3387-.0383.6769-.1604.9932-.1222.3162-.3091.6034-.5488.8431s-.5269.4267-.8432.5488c-.3162.1221-.6545.1768-.9931.1604z"/></g></svg>