<svg width="201" height="100" viewBox="0 0 201 100" fill="none" xmlns="http://www.w3.org/2000/svg">
<path d="M12.6799 59.2376C11.7105 59.2376 10.9315 58.4586 10.9315 57.4892V26.7968C10.9315 23.2134 9.23501 23.2134 8.68106 23.2134C7.71164 23.2134 6.93265 22.4344 6.93265 21.465C6.93265 20.4955 7.71164 19.7166 8.68106 19.7166C12.2298 19.7166 14.4283 22.4344 14.4283 26.8141V57.5065C14.4283 58.4413 13.6493 59.2376 12.6799 59.2376Z" fill="#005EAD"/>
<path d="M21.4393 21.24C20.4699 21.24 19.6909 22.019 19.6909 22.9884C19.6909 23.9578 20.4699 24.7368 21.4393 24.7368C22.2529 24.7368 22.98 24.8234 23.6032 24.9792C24.0879 23.854 24.7457 22.8153 25.5247 21.9151C24.3475 21.4823 22.9973 21.24 21.4393 21.24Z" fill="#ED6C00"/>
<path d="M28.6234 23.7327C27.7059 24.6328 27.0827 25.6888 26.6845 26.7448C28.2598 28.4932 28.3291 30.7956 28.3291 31.1937C28.3291 32.6132 28.0867 33.7384 27.3424 35.2445C27.7578 36.0235 28.2425 36.8025 28.7965 37.668L28.8657 37.7719C29.0735 38.1008 29.2639 38.4124 29.437 38.7067C31.2373 35.6946 31.8259 33.7731 31.8259 31.1937C31.8259 28.4932 30.7873 25.6715 28.6234 23.7327Z" fill="#ED6C00"/>
<path d="M62.8819 26.745C63.332 27.9221 63.5224 29.1166 63.5224 30.1033C63.5224 32.2153 63.0204 33.7213 62.2068 35.2447C62.5703 35.9718 63.0377 36.7854 63.6609 37.7721L63.7301 37.876C63.9032 38.153 64.0763 38.4299 64.2495 38.7069C65.7382 36.3007 67.0365 33.8771 67.0365 30.1033C67.0365 28.3376 66.6557 26.5892 65.9633 24.9966C64.5437 25.3255 63.557 25.9833 62.8819 26.745Z" fill="#ED6C00"/>
<path d="M62.2067 42.169C61.7913 41.39 61.3066 40.611 60.7526 39.7454L60.6834 39.6416C60.4756 39.3127 60.2852 39.0011 60.1121 38.7068C58.3118 41.7189 57.7232 43.6404 57.7232 46.2198C57.7232 48.9203 58.7619 51.742 60.9257 53.6808C61.8432 52.7806 62.4664 51.7247 62.8646 50.6687C61.2893 48.9203 61.22 46.6179 61.22 46.2198C61.22 44.8003 61.4797 43.6577 62.2067 42.169Z" fill="#ED6C00"/>
<path d="M46.8346 38.7068C46.6615 38.9838 46.4884 39.2607 46.3152 39.5377L46.1767 39.7454C45.6401 40.5764 45.1727 41.3381 44.7572 42.0997C45.5882 43.6404 46.1075 45.1638 46.1075 47.3104C46.1075 48.6952 45.744 50.4783 44.7572 52.0882C45.3458 53.0576 46.1421 53.9578 47.2327 54.6849C48.7561 52.5729 49.6043 49.9589 49.6043 47.3104C49.6216 43.5366 48.3233 41.113 46.8346 38.7068Z" fill="#ED6C00"/>
<path d="M68.1098 52.6594C67.2962 52.6594 66.5691 52.5728 65.9459 52.417C65.4612 53.5422 64.8034 54.5809 64.0244 55.481C65.2189 55.9138 66.5691 56.1562 68.1271 56.1562C69.0965 56.1562 69.8755 55.3772 69.8755 54.4078C69.8755 53.4383 69.0792 52.6594 68.1098 52.6594Z" fill="#ED6C00"/>
<path d="M26.6672 50.6687C26.2171 49.4916 26.0267 48.2971 26.0267 47.3104C26.0267 45.1984 26.5287 43.6924 27.3423 42.169C26.9788 41.4419 26.5114 40.6283 25.8882 39.6416L25.819 39.5377C25.6459 39.2607 25.4728 38.9838 25.2996 38.7068C23.8109 41.113 22.5126 43.5366 22.5126 47.3104C22.5126 49.0761 22.8934 50.8245 23.5859 52.4171C25.0054 52.0882 25.9921 51.4304 26.6672 50.6687Z" fill="#ED6C00"/>
<path d="M43.0954 55.6717C42.8184 55.3601 42.5414 55.0312 42.2991 54.685C40.793 55.689 38.7676 56.3468 36.0671 56.3468C32.5357 56.3468 30.164 55.2216 28.6061 53.6809C27.7578 54.4426 26.7365 55.0658 25.5247 55.4986C25.5766 55.5678 25.6286 55.6197 25.6805 55.689C27.3943 57.5932 30.5795 59.8609 36.0671 59.8609C40.1006 59.8609 42.8876 58.6319 44.7745 57.2297C44.0994 56.7103 43.5455 56.1737 43.0954 55.6717Z" fill="#ED6C00"/>
<path d="M42.7145 38.7068C42.8877 38.4299 43.0608 38.1529 43.2339 37.8759L43.3724 37.6682C43.909 36.8372 44.3764 36.0756 44.7919 35.3139C43.9609 33.7732 43.4416 32.2498 43.4416 30.1033C43.4416 28.7184 43.8051 26.9353 44.7919 25.3254C44.2033 24.356 43.407 23.4558 42.3164 22.7288C40.793 24.8407 39.9448 27.4547 39.9448 30.1033C39.9275 33.8771 41.2258 36.3006 42.7145 38.7068Z" fill="#ED6C00"/>
<path d="M46.4537 21.742C46.7307 22.0536 47.0077 22.3825 47.25 22.7287C48.7561 21.7247 50.7815 21.0669 53.482 21.0669C57.0134 21.0669 59.3851 22.1921 60.943 23.7328C61.7913 22.9711 62.8126 22.3479 64.0244 21.9151C63.9725 21.8459 63.9205 21.7939 63.8686 21.7247C62.1548 19.8205 58.9696 17.5527 53.482 17.5527C49.4485 17.5527 46.6615 18.7818 44.7746 20.184C45.4497 20.7033 46.0036 21.24 46.4537 21.742Z" fill="#ED6C00"/>
<path d="M31.8259 46.2198C31.8259 43.6577 31.22 41.7189 29.437 38.7068C29.2639 39.0011 29.0735 39.3127 28.8657 39.6416L28.7965 39.7454C28.2598 40.611 27.7578 41.39 27.3424 42.169C28.0694 43.6577 28.3291 44.8003 28.3291 46.2198C28.3291 46.6179 28.2598 48.9376 26.6845 50.6687C27.1 51.7247 27.7232 52.7633 28.6234 53.6808C30.7873 51.7247 31.8259 48.903 31.8259 46.2198Z" fill="#F5A200"/>
<path d="M68.1098 24.7542C69.0792 24.7542 69.8582 23.9752 69.8582 23.0057C69.8582 22.0363 69.0792 21.2573 68.1098 21.2573C66.5691 21.2573 65.2016 21.4997 64.0071 21.9325C64.8034 22.8499 65.4439 23.8886 65.9286 24.9965C66.5691 24.8407 67.2962 24.7542 68.1098 24.7542Z" fill="#F5A200"/>
<path d="M21.4393 52.6594C20.4699 52.6594 19.6909 53.4383 19.6909 54.4078C19.6909 55.3772 20.4699 56.1562 21.4393 56.1562C22.98 56.1562 24.3475 55.9138 25.542 55.481C24.7457 54.5636 24.1052 53.5249 23.6205 52.417C22.98 52.5728 22.2529 52.6594 21.4393 52.6594Z" fill="#F5A200"/>
<path d="M57.7232 31.1937C57.7232 33.7557 58.3291 35.6946 60.1121 38.7067C60.2852 38.4124 60.4756 38.1008 60.6834 37.7719L60.7526 37.668C61.2893 36.8025 61.7913 36.0235 62.2067 35.2445C61.4797 33.7557 61.22 32.6132 61.22 31.1937C61.22 30.7956 61.2893 28.4759 62.8646 26.7448C62.4491 25.6888 61.8259 24.6502 60.9257 23.7327C58.7619 25.6715 57.7232 28.4932 57.7232 31.1937Z" fill="#F5A200"/>
<path d="M44.7746 35.2965C45.1727 36.0582 45.6574 36.8199 46.1941 37.6508L46.3325 37.8586C46.5057 38.1355 46.6788 38.4125 46.8519 38.6895C48.3406 36.2833 49.6389 33.8597 49.6389 30.0859C49.6389 27.4373 48.7907 24.8234 47.2673 22.7114C46.1767 23.4385 45.3804 24.3387 44.7919 25.3081C45.7786 26.918 46.1421 28.701 46.1421 30.0859C46.1248 32.2325 45.6055 33.7559 44.7746 35.2965Z" fill="#F5A200"/>
<path d="M36.0671 21.0669C38.7676 21.0669 40.793 21.7247 42.2991 22.7288C42.5414 22.3825 42.8184 22.0536 43.0954 21.742C43.5455 21.24 44.0994 20.7034 44.7745 20.2013C42.905 18.7992 40.1006 17.5701 36.0671 17.5701C30.5968 17.5701 27.3943 19.8378 25.6805 21.742C25.6286 21.794 25.5766 21.8632 25.5247 21.9324C26.7365 22.3652 27.7578 22.9884 28.6061 23.7501C30.164 22.1921 32.553 21.0669 36.0671 21.0669Z" fill="#F5A200"/>
<path d="M25.8882 37.7721C26.5114 36.7854 26.9788 35.9718 27.3424 35.2447C26.546 33.7213 26.0267 32.2153 26.0267 30.1033C26.0267 29.1166 26.2171 27.9395 26.6672 26.745C25.9748 25.9833 24.9881 25.3255 23.6032 24.9966C22.9107 26.5892 22.5299 28.3376 22.5299 30.1033C22.5299 33.8771 23.8109 36.3007 25.317 38.7069C25.4901 38.4299 25.6632 38.153 25.8363 37.876L25.8882 37.7721Z" fill="#F5A200"/>
<path d="M53.482 56.3468C50.7815 56.3468 48.7561 55.689 47.25 54.6849C47.0077 55.0311 46.7307 55.36 46.4537 55.6716C46.0036 56.1737 45.4497 56.7103 44.7746 57.2123C46.6441 58.6145 49.4485 59.8436 53.482 59.8436C58.9523 59.8436 62.1548 57.5759 63.8686 55.6716C63.9205 55.6197 63.9725 55.5505 64.0244 55.4812C62.8126 55.0485 61.7913 54.4253 60.943 53.6636C59.3851 55.2216 56.9961 56.3468 53.482 56.3468Z" fill="#F5A200"/>
<path d="M63.6609 39.6416C63.0377 40.6283 62.5703 41.4419 62.2068 42.169C63.0031 43.6924 63.5224 45.1984 63.5224 47.3104C63.5224 48.2971 63.332 49.4742 62.8819 50.6687C63.5743 51.4304 64.5611 52.0882 65.9459 52.4171C66.6384 50.8245 67.0192 49.0761 67.0192 47.3104C67.0192 43.5366 65.7382 41.113 64.2321 38.7068C64.059 38.9838 63.8859 39.2607 63.7128 39.5377L63.6609 39.6416Z" fill="#F5A200"/>
<path d="M44.7746 42.0997C44.3764 41.3381 43.8917 40.5764 43.3551 39.7454L43.2166 39.5377C43.0435 39.2607 42.8703 38.9838 42.6972 38.7068C41.2258 41.113 39.9275 43.5366 39.9275 47.3104C39.9275 49.9589 40.7757 52.5729 42.2991 54.6849C43.3897 53.9578 44.186 53.0576 44.7746 52.0882C43.7878 50.4783 43.4243 48.6952 43.4243 47.3104C43.4243 45.1811 43.9436 43.6404 44.7746 42.0997Z" fill="#F5A200"/>
<path d="M62.8819 26.7448C63.5743 25.9832 64.5611 25.3253 65.9459 24.9964C65.4612 23.8712 64.8034 22.8325 64.0244 21.9324C62.8126 22.3651 61.7913 22.9883 60.9431 23.75C61.8432 24.6329 62.4664 25.6889 62.8819 26.7448Z" fill="#D35224"/>
<path d="M46.4537 55.6715C46.7307 55.3599 47.0077 55.031 47.25 54.6848C46.1594 53.9577 45.3631 53.0576 44.7745 52.0881C44.186 53.0576 43.3897 53.9577 42.2991 54.6848C42.5414 55.031 42.8184 55.3599 43.0954 55.6715C43.5455 56.1735 44.0994 56.7102 44.7745 57.2122C45.4497 56.7102 46.0036 56.1735 46.4537 55.6715Z" fill="#D35224"/>
<path d="M62.8819 50.6687C62.4664 51.7247 61.8432 52.7633 60.9431 53.6808C61.7913 54.4425 62.8126 55.0657 64.0244 55.4985C64.8207 54.581 65.4612 53.5423 65.9459 52.4344C64.5437 52.0882 63.557 51.4304 62.8819 50.6687Z" fill="#D35224"/>
<path d="M26.6672 50.6687C25.9748 51.4304 24.988 52.0882 23.6032 52.4171C24.0879 53.5423 24.7457 54.581 25.5247 55.4812C26.7365 55.0484 27.7578 54.4252 28.606 53.6635C27.7059 52.7633 27.0827 51.7247 26.6672 50.6687Z" fill="#D35224"/>
<path d="M46.1941 37.6683C45.6574 36.8373 45.19 36.0756 44.7746 35.314C44.3764 36.0756 43.8917 36.8373 43.3551 37.6683L43.2166 37.876C43.0435 38.153 42.8703 38.4299 42.6972 38.7069C42.8703 38.9839 43.0435 39.2609 43.2166 39.5379L43.3551 39.7456C43.8917 40.5765 44.3591 41.3382 44.7746 42.0999C45.1727 41.3382 45.6574 40.5765 46.1941 39.7456L46.3325 39.5379C46.5057 39.2609 46.6788 38.9839 46.8519 38.7069C46.6788 38.4299 46.5057 38.153 46.3325 37.876L46.1941 37.6683Z" fill="#D35224"/>
<path d="M63.6609 37.772C63.0377 36.7853 62.5703 35.9717 62.2068 35.2446C61.7913 36.0236 61.3066 36.8026 60.7526 37.6682L60.6834 37.772C60.4757 38.1009 60.2852 38.4125 60.1121 38.7068C60.2852 39.0011 60.4757 39.3127 60.6834 39.6416L60.7526 39.7455C61.2893 40.611 61.7913 41.39 62.2068 42.169C62.5703 41.442 63.0377 40.6284 63.6609 39.6416L63.7301 39.5378C63.9032 39.2608 64.0763 38.9838 64.2495 38.7068C64.0763 38.4299 63.9032 38.1529 63.7301 37.8759L63.6609 37.772Z" fill="#D35224"/>
<path d="M26.6672 26.7448C27.0827 25.6888 27.7059 24.6502 28.606 23.7327C27.7578 22.971 26.7365 22.3478 25.5247 21.915C24.7284 22.8325 24.0879 23.8712 23.6032 24.9791C25.0054 25.3253 25.9921 25.9831 26.6672 26.7448Z" fill="#D35224"/>
<path d="M25.8882 39.6416C26.5114 40.6284 26.9788 41.442 27.3424 42.169C27.7578 41.39 28.2425 40.611 28.7965 39.7455L28.8657 39.6416C29.0735 39.3127 29.2639 39.0011 29.437 38.7068C29.2639 38.4125 29.0735 38.1009 28.8657 37.772L28.7965 37.6682C28.2598 36.8026 27.7578 36.0236 27.3424 35.2446C26.9788 35.9717 26.5114 36.7853 25.8882 37.772L25.819 37.8759C25.6459 38.1529 25.4728 38.4299 25.2997 38.7068C25.4728 38.9838 25.6459 39.2608 25.819 39.5378L25.8882 39.6416Z" fill="#D35224"/>
<path d="M43.0954 21.7421C42.8184 22.0537 42.5414 22.3826 42.2991 22.7288C43.3897 23.4559 44.186 24.3561 44.7745 25.3255C45.3631 24.3561 46.1594 23.4559 47.25 22.7288C47.0077 22.3826 46.7307 22.0537 46.4537 21.7421C46.0036 21.2401 45.4497 20.7034 44.7745 20.2014C44.0994 20.7034 43.5455 21.2401 43.0954 21.7421Z" fill="#D35224"/>
<path d="M11.7105 67.27H12.8184C12.8357 67.27 12.8703 67.2873 12.8876 67.3046C12.905 67.322 12.9223 67.3393 12.9223 67.3739V72.5153C12.9223 72.5326 12.905 72.5672 12.8876 72.5845C12.8703 72.6018 12.853 72.6191 12.8184 72.6191H11.7451C11.7278 72.6191 11.6932 72.6018 11.6759 72.5845C11.6586 72.5672 11.6412 72.5499 11.6412 72.5153V68.4991C11.6412 68.4818 11.6412 68.4818 11.6239 68.4645C11.6066 68.4472 11.6066 68.4472 11.5893 68.4645L10.8449 68.6376H10.8103C10.7584 68.6376 10.7411 68.603 10.7411 68.551L10.7238 67.7547C10.7238 67.7028 10.7411 67.6682 10.793 67.6509L11.572 67.3046C11.6413 67.2873 11.6759 67.27 11.7105 67.27Z" fill="#005EAD"/>
<path d="M15.3977 72.2036C15.0688 71.8747 14.8957 71.4246 14.8957 70.8706V69.0184C14.8957 68.4644 15.0688 68.0143 15.3977 67.7027C15.7266 67.3911 16.194 67.218 16.7826 67.218C17.3712 67.218 17.8213 67.3738 18.1675 67.7027C18.5137 68.0316 18.6695 68.4644 18.6695 69.0184V70.8706C18.6695 71.4419 18.4964 71.8747 18.1675 72.2036C17.8386 72.5325 17.3712 72.6883 16.7826 72.6883C16.194 72.6883 15.7266 72.5152 15.3977 72.2036ZM17.2327 71.4246C17.3539 71.3034 17.4058 71.1476 17.4058 70.9399V68.9664C17.4058 68.7587 17.3539 68.6029 17.2327 68.4817C17.1115 68.3605 16.973 68.3086 16.7653 68.3086C16.5749 68.3086 16.4364 68.3605 16.3152 68.4817C16.2114 68.6029 16.1421 68.7587 16.1421 68.9664V70.9399C16.1421 71.1476 16.194 71.3034 16.2979 71.4246C16.4018 71.5458 16.5576 71.5977 16.748 71.5977C16.973 71.5977 17.1115 71.5458 17.2327 71.4246Z" fill="#005EAD"/>
<path d="M20.5045 72.2036C20.1756 71.8747 20.0025 71.4246 20.0025 70.8706V69.0184C20.0025 68.4644 20.1756 68.0143 20.5045 67.7027C20.8334 67.3911 21.3008 67.218 21.8894 67.218C22.4779 67.218 22.928 67.3738 23.2742 67.7027C23.6205 68.0316 23.7763 68.4644 23.7763 69.0184V70.8706C23.7763 71.4419 23.6032 71.8747 23.2742 72.2036C22.928 72.5325 22.4779 72.6883 21.8894 72.6883C21.3008 72.6883 20.8334 72.5152 20.5045 72.2036ZM22.3395 71.4246C22.4606 71.3034 22.5126 71.1476 22.5126 70.9399V68.9664C22.5126 68.7587 22.4606 68.6029 22.3395 68.4817C22.2183 68.3605 22.0798 68.3086 21.8721 68.3086C21.6816 68.3086 21.5431 68.3605 21.422 68.4817C21.3181 68.6029 21.2489 68.7587 21.2489 68.9664V70.9399C21.2489 71.1476 21.3008 71.3034 21.4047 71.4246C21.5085 71.5458 21.6643 71.5977 21.8547 71.5977C22.0625 71.5977 22.2183 71.5458 22.3395 71.4246Z" fill="#005EAD"/>
<path d="M27.6539 72.5499C27.6366 72.5325 27.6193 72.5152 27.6193 72.4806V70.6803C27.6193 70.663 27.6193 70.6456 27.6193 70.6283L26.0613 67.3739C26.044 67.3566 26.044 67.3392 26.044 67.3219C26.044 67.2873 26.0786 67.2527 26.1306 67.2527H27.3077C27.3597 67.2527 27.3943 67.27 27.4116 67.3219L28.2425 69.2435C28.2598 69.2781 28.2771 69.2781 28.2944 69.2435L29.1254 67.3219C29.1427 67.27 29.1773 67.2527 29.2292 67.2527H30.4064C30.441 67.2527 30.4583 67.27 30.4756 67.2873C30.4929 67.3046 30.4929 67.3392 30.4756 67.3739L28.9003 70.6283C28.9003 70.6456 28.9003 70.6456 28.9003 70.6803V72.4806C28.9003 72.4979 28.883 72.5325 28.8657 72.5499C28.8484 72.5672 28.8311 72.5845 28.7965 72.5845H27.7232C27.6886 72.5845 27.6713 72.5672 27.6539 72.5499Z" fill="#005EAD"/>
<path d="M35.5305 68.3258C35.5131 68.3431 35.4958 68.3604 35.4612 68.3604H33.0723C33.055 68.3604 33.0377 68.3777 33.0377 68.395V69.3298C33.0377 69.3471 33.055 69.3644 33.0723 69.3644H34.5957C34.613 69.3644 34.6476 69.3817 34.6649 69.3991C34.6822 69.4164 34.6995 69.4337 34.6995 69.4683V70.3512C34.6995 70.3685 34.6822 70.4031 34.6649 70.4204C34.6476 70.4377 34.6303 70.455 34.5957 70.455H33.0723C33.055 70.455 33.0377 70.4723 33.0377 70.4896V71.4937C33.0377 71.511 33.055 71.5283 33.0723 71.5283H35.4612C35.4785 71.5283 35.5131 71.5456 35.5305 71.5629C35.5478 71.5802 35.5651 71.5975 35.5651 71.6322V72.5323C35.5651 72.5497 35.5478 72.5843 35.5305 72.6016C35.5131 72.6189 35.4958 72.6362 35.4612 72.6362H31.8605C31.8432 72.6362 31.8086 72.6189 31.7913 72.6016C31.774 72.5843 31.7567 72.567 31.7567 72.5323V67.391C31.7567 67.3737 31.774 67.339 31.7913 67.3217C31.8086 67.3044 31.8259 67.2871 31.8605 67.2871H35.4612C35.4785 67.2871 35.5131 67.3044 35.5305 67.3217C35.5478 67.339 35.5651 67.3563 35.5651 67.391V68.2911C35.5651 68.2911 35.5478 68.3085 35.5305 68.3258Z" fill="#005EAD"/>
<path d="M40.3083 72.5152L40.1179 71.8401C40.1006 71.8228 40.1006 71.8055 40.0833 71.8055H38.3522C38.3349 71.8055 38.3175 71.8228 38.3175 71.8401L38.1271 72.5152C38.1098 72.5672 38.0752 72.5845 38.0233 72.5845H36.8634C36.8288 72.5845 36.8115 72.5672 36.7942 72.5499C36.7769 72.5325 36.7769 72.4979 36.7942 72.4633L38.4214 67.3219C38.4387 67.27 38.4733 67.2527 38.5253 67.2527H39.9621C40.014 67.2527 40.0486 67.27 40.0659 67.3219L41.6932 72.4633C41.6932 72.4806 41.6932 72.4806 41.6932 72.4979C41.6932 72.5499 41.6586 72.5672 41.6066 72.5672H40.4468C40.3602 72.6018 40.3256 72.5672 40.3083 72.5152ZM38.6291 70.8361H39.7544C39.789 70.8361 39.789 70.8188 39.789 70.7841L39.2177 68.828C39.2177 68.8107 39.2004 68.7934 39.2004 68.7934C39.1831 68.7934 39.1831 68.8107 39.1831 68.828L38.6118 70.7841C38.5945 70.8188 38.6118 70.8361 38.6291 70.8361Z" fill="#005EAD"/>
<path d="M45.9517 72.5325L45.0515 70.5072C45.0342 70.4898 45.0342 70.4725 44.9996 70.4725H44.4976C44.4803 70.4725 44.463 70.4898 44.463 70.5072V72.4979C44.463 72.5152 44.4456 72.5499 44.4283 72.5672C44.411 72.5845 44.3937 72.6018 44.3591 72.6018H43.2858C43.2685 72.6018 43.2339 72.5845 43.2166 72.5672C43.1992 72.5499 43.1819 72.5325 43.1819 72.4979V67.3565C43.1819 67.3392 43.1992 67.3046 43.2166 67.2873C43.2339 67.27 43.2512 67.2527 43.2858 67.2527H45.5362C45.8651 67.2527 46.1594 67.3219 46.4191 67.4604C46.6788 67.5989 46.8692 67.7893 47.0077 68.049C47.1462 68.2913 47.2154 68.5856 47.2154 68.9145C47.2154 69.2608 47.1288 69.5551 46.973 69.7974C46.7999 70.0398 46.5749 70.2302 46.2806 70.334C46.2633 70.3514 46.246 70.3687 46.2633 70.386L47.2673 72.4806C47.2846 72.4979 47.2846 72.5152 47.2846 72.5325C47.2846 72.5672 47.25 72.6018 47.1981 72.6018H46.0556C46.0036 72.6018 45.969 72.5672 45.9517 72.5325ZM44.463 68.3952V69.4685C44.463 69.4858 44.4803 69.5031 44.4976 69.5031H45.3458C45.5362 69.5031 45.692 69.4512 45.7959 69.3473C45.9171 69.2434 45.969 69.105 45.969 68.9319C45.969 68.7587 45.9171 68.6203 45.7959 68.4991C45.6747 68.3952 45.5189 68.3433 45.3458 68.3433H44.4976C44.4803 68.3433 44.463 68.3606 44.463 68.3952Z" fill="#005EAD"/>
<path d="M49.8467 72.4633C49.5351 72.3248 49.2927 72.1344 49.1196 71.892C48.9465 71.6324 48.8599 71.3554 48.8599 71.0265V70.888C48.8599 70.8707 48.8772 70.8361 48.8945 70.8188C48.9119 70.8014 48.9292 70.7841 48.9638 70.7841H50.0198C50.0371 70.7841 50.0717 70.8014 50.089 70.8188C50.1063 70.8361 50.1236 70.8534 50.1236 70.888V70.9746C50.1236 71.1477 50.2102 71.2862 50.366 71.4073C50.5391 71.5285 50.7641 71.5977 51.0411 71.5977C51.2662 71.5977 51.422 71.5458 51.5431 71.4593C51.647 71.3554 51.6989 71.2515 51.6989 71.1304C51.6989 71.0265 51.6643 70.9399 51.6124 70.888C51.5431 70.8188 51.4566 70.7668 51.3527 70.7322C51.2488 70.6976 51.0757 70.6283 50.8507 70.5591C50.8161 70.5418 50.7814 70.5245 50.7641 70.5245C50.7295 70.5245 50.7122 70.5072 50.6776 70.4898C50.3487 70.386 50.0544 70.2648 49.812 70.1436C49.5697 70.0225 49.3619 69.8493 49.1888 69.6243C49.0157 69.3993 48.9292 69.1396 48.9292 68.8107C48.9292 68.4991 49.0157 68.2221 49.1715 67.9798C49.3446 67.7374 49.5697 67.5643 49.864 67.4431C50.1583 67.3219 50.4872 67.2527 50.868 67.2527C51.2662 67.2527 51.6124 67.3219 51.924 67.4604C52.2356 67.5989 52.4779 67.8066 52.651 68.0663C52.8242 68.326 52.9107 68.6203 52.9107 68.9492V69.053C52.9107 69.0703 52.8934 69.105 52.8761 69.1223C52.8588 69.1396 52.8415 69.1569 52.8068 69.1569H51.7509C51.7336 69.1569 51.6989 69.1396 51.6816 69.1223C51.6643 69.105 51.647 69.0877 51.647 69.053V69.0011C51.647 68.828 51.5604 68.6722 51.4046 68.5337C51.2488 68.3952 51.0411 68.326 50.7815 68.326C50.591 68.326 50.4352 68.3606 50.3141 68.4472C50.2102 68.5337 50.1409 68.6376 50.1409 68.7934C50.1409 68.8972 50.1756 69.0011 50.2448 69.0703C50.3141 69.1396 50.4179 69.2088 50.5737 69.2781C50.7295 69.3473 50.9546 69.4166 51.2662 69.5204C51.6124 69.6416 51.8894 69.7455 52.0971 69.832C52.2875 69.9186 52.4779 70.0744 52.651 70.2821C52.8242 70.4898 52.9107 70.7495 52.9107 71.0957C52.9107 71.4246 52.8241 71.7016 52.6683 71.944C52.4952 72.1863 52.2702 72.3594 51.9586 72.4979C51.6643 72.6191 51.3008 72.6884 50.9026 72.6884C50.5218 72.6537 50.1583 72.5845 49.8467 72.4633Z" fill="#005EAD"/>
<path d="M58.5714 72.4286C58.2598 72.2555 58.0175 72.0305 57.8444 71.7362C57.6713 71.4419 57.5847 71.0957 57.5847 70.6975V69.1742C57.5847 68.7933 57.6713 68.4471 57.8444 68.1528C58.0175 67.8585 58.2598 67.6335 58.5714 67.4604C58.883 67.2873 59.2466 67.218 59.662 67.218C60.0775 67.218 60.441 67.3046 60.7526 67.4604C61.0642 67.6335 61.3066 67.8585 61.4797 68.1528C61.6528 68.4471 61.7393 68.7933 61.7393 69.1742V70.6975C61.7393 71.0957 61.6528 71.4419 61.4797 71.7362C61.3066 72.0305 61.0642 72.2728 60.7526 72.4286C60.441 72.6018 60.0775 72.671 59.662 72.671C59.2466 72.671 58.883 72.6018 58.5714 72.4286ZM60.2506 71.3554C60.4064 71.1996 60.4756 70.9918 60.4756 70.7322V69.1569C60.4756 68.8972 60.4064 68.6895 60.2506 68.5337C60.0948 68.3779 59.9044 68.2913 59.662 68.2913C59.4197 68.2913 59.2292 68.3779 59.0734 68.5337C58.9176 68.6895 58.8484 68.8972 58.8484 69.1569V70.7322C58.8484 70.9918 58.9176 71.1996 59.0734 71.3554C59.2292 71.5112 59.4197 71.5977 59.662 71.5977C59.9044 71.5977 60.0948 71.5285 60.2506 71.3554Z" fill="#005EAD"/>
<path d="M67.2789 68.326C67.2616 68.3433 67.2442 68.3606 67.2096 68.3606H64.8207C64.8034 68.3606 64.7861 68.3779 64.7861 68.3952V69.33C64.7861 69.3473 64.8034 69.3647 64.8207 69.3647H66.3441C66.3614 69.3647 66.396 69.382 66.4133 69.3993C66.4306 69.4166 66.4479 69.4339 66.4479 69.4685V70.3514C66.4479 70.3687 66.4306 70.4033 66.4133 70.4206C66.396 70.4379 66.3787 70.4553 66.3441 70.4553H64.8207C64.8034 70.4553 64.7861 70.4726 64.7861 70.4899V72.5153C64.7861 72.5326 64.7688 72.5672 64.7515 72.5845C64.7342 72.6018 64.7168 72.6191 64.6822 72.6191H63.6089C63.5916 72.6191 63.557 72.6018 63.5397 72.5845C63.5224 72.5672 63.5051 72.5499 63.5051 72.5153V67.3739C63.5051 67.3566 63.5224 67.322 63.5397 67.3046C63.557 67.2873 63.5743 67.27 63.6089 67.27H67.1923C67.2096 67.27 67.2442 67.2873 67.2616 67.3046C67.2789 67.322 67.2962 67.3393 67.2962 67.3739V68.2741C67.3135 68.2914 67.2962 68.3087 67.2789 68.326Z" fill="#005EAD"/>
<path d="M14.2379 79.0068C14.7053 79.2491 14.9303 79.6473 14.9303 80.2185C14.9303 80.7206 14.7572 81.1014 14.411 81.3438C14.0648 81.5861 13.5974 81.7246 13.0261 81.7246H11.0007C10.9834 81.7246 10.9488 81.7073 10.9315 81.69C10.9142 81.6727 10.8969 81.6553 10.8969 81.6207V76.4794C10.8969 76.462 10.9142 76.4274 10.9315 76.4101C10.9488 76.3928 10.9661 76.3755 11.0007 76.3755H12.9569C13.5801 76.3755 14.0475 76.4967 14.3591 76.7217C14.6707 76.9468 14.8265 77.3276 14.8265 77.8469C14.8265 78.3489 14.6187 78.6952 14.2206 78.9202C14.2033 78.9721 14.2033 78.9895 14.2379 79.0068ZM12.1779 77.518V78.4701C12.1779 78.4874 12.1952 78.5047 12.2125 78.5047H12.9569C13.1646 78.5047 13.3204 78.4528 13.4416 78.3663C13.5455 78.2797 13.6147 78.1585 13.6147 77.9854C13.6147 77.8123 13.5628 77.6911 13.4416 77.6046C13.3377 77.518 13.1646 77.4661 12.9569 77.4661H12.2125C12.1779 77.4834 12.1779 77.4834 12.1779 77.518ZM13.4935 80.4955C13.5974 80.409 13.6666 80.2705 13.6666 80.0974C13.6666 79.9242 13.6147 79.7858 13.5108 79.6992C13.407 79.6127 13.2512 79.5607 13.0434 79.5607H12.2298C12.2125 79.5607 12.1952 79.578 12.1952 79.5953V80.5994C12.1952 80.6167 12.2125 80.634 12.2298 80.634H13.0434C13.2339 80.634 13.3897 80.5821 13.4935 80.4955Z" fill="#005EAD"/>
<path d="M19.9332 77.4488C19.9159 77.4661 19.8986 77.4834 19.864 77.4834H17.4751C17.4577 77.4834 17.4404 77.5007 17.4404 77.5181V78.4529C17.4404 78.4702 17.4577 78.4875 17.4751 78.4875H18.9984C19.0157 78.4875 19.0504 78.5048 19.0677 78.5221C19.085 78.5394 19.1023 78.5567 19.1023 78.5913V79.4742C19.1023 79.4915 19.085 79.5261 19.0677 79.5434C19.0504 79.5608 19.0331 79.5781 18.9984 79.5781H17.4751C17.4577 79.5781 17.4404 79.5954 17.4404 79.6127V80.6167C17.4404 80.634 17.4577 80.6514 17.4751 80.6514H19.864C19.8813 80.6514 19.9159 80.6687 19.9332 80.686C19.9505 80.7033 19.9678 80.7206 19.9678 80.7552V81.6554C19.9678 81.6727 19.9505 81.7073 19.9332 81.7246C19.9159 81.7419 19.8986 81.7593 19.864 81.7593H16.2633C16.246 81.7593 16.2114 81.7419 16.194 81.7246C16.1767 81.7073 16.1594 81.69 16.1594 81.6554V76.514C16.1594 76.4967 16.1767 76.4621 16.194 76.4448C16.2114 76.4275 16.2287 76.4102 16.2633 76.4102H19.864C19.8813 76.4102 19.9159 76.4275 19.9332 76.4448C19.9505 76.4621 19.9678 76.4794 19.9678 76.514V77.4142C19.9678 77.4142 19.9505 77.4315 19.9332 77.4488Z" fill="#005EAD"/>
<path d="M21.2489 81.69C21.2315 81.6727 21.2142 81.6553 21.2142 81.6207V76.4794C21.2142 76.462 21.2315 76.4274 21.2489 76.4101C21.2662 76.3928 21.2835 76.3755 21.3181 76.3755H22.3914C22.4087 76.3755 22.4433 76.3928 22.4606 76.4101C22.4779 76.4274 22.4952 76.4447 22.4952 76.4794V81.6207C22.4952 81.638 22.4779 81.6727 22.4606 81.69C22.4433 81.7073 22.426 81.7246 22.3914 81.7246H21.3181C21.2835 81.7246 21.2662 81.7073 21.2489 81.69Z" fill="#005EAD"/>
<path d="M27.1692 76.4274C27.1865 76.4101 27.2039 76.3928 27.2385 76.3928H28.3118C28.3291 76.3928 28.3637 76.4101 28.381 76.4274C28.3983 76.4448 28.4156 76.4621 28.4156 76.4967V81.6381C28.4156 81.6554 28.3983 81.69 28.381 81.7073C28.3637 81.7246 28.3464 81.7419 28.3118 81.7419H27.2731C27.2212 81.7419 27.1865 81.7246 27.1692 81.6727L25.4208 78.7644C25.4035 78.7471 25.4035 78.7471 25.3862 78.7471C25.3689 78.7471 25.3689 78.7644 25.3689 78.7817V81.6381C25.3689 81.6554 25.3516 81.69 25.3343 81.7073C25.317 81.7246 25.2996 81.7419 25.265 81.7419H24.1917C24.1744 81.7419 24.1398 81.7246 24.1225 81.7073C24.1052 81.69 24.0879 81.6727 24.0879 81.6381V76.4967C24.0879 76.4794 24.1052 76.4448 24.1225 76.4274C24.1398 76.4101 24.1571 76.3928 24.1917 76.3928H25.2304C25.2823 76.3928 25.317 76.4101 25.3343 76.4621L27.0827 79.353C27.1 79.3703 27.1 79.3703 27.1173 79.3703C27.1346 79.3703 27.1346 79.353 27.1346 79.3357V76.4794C27.1346 76.4621 27.1519 76.4448 27.1692 76.4274Z" fill="#005EAD"/>
<path d="M30.7007 81.5343C30.3891 81.3785 30.164 81.1362 29.9909 80.8419C29.8178 80.5476 29.7313 80.2014 29.7313 79.8205V78.2626C29.7313 77.8817 29.8178 77.5355 29.9909 77.2412C30.164 76.9469 30.4064 76.7219 30.7007 76.5661C31.0123 76.4103 31.3585 76.3237 31.774 76.3237C32.1721 76.3237 32.5357 76.393 32.8473 76.5488C33.1589 76.7046 33.4012 76.9123 33.5743 77.1893C33.7474 77.4663 33.834 77.7605 33.834 78.0721V78.1068C33.834 78.1241 33.8167 78.1587 33.7994 78.176C33.782 78.1933 33.7647 78.2106 33.7301 78.2106H32.6568C32.6395 78.2106 32.6049 78.1933 32.5876 78.176C32.5703 78.1587 32.553 78.1414 32.553 78.1068C32.553 77.9163 32.4837 77.7432 32.3452 77.6047C32.2067 77.4663 32.0163 77.397 31.774 77.397C31.5489 77.397 31.3585 77.4663 31.2027 77.6221C31.0642 77.7779 30.995 77.9683 30.995 78.2106V79.8379C30.995 80.0802 31.0815 80.2706 31.2373 80.4264C31.3931 80.5822 31.5836 80.6515 31.8259 80.6515C32.0509 80.6515 32.2241 80.5996 32.3625 80.4784C32.501 80.3572 32.5703 80.2014 32.5703 79.9764V79.7686C32.5703 79.7513 32.553 79.734 32.5357 79.734H31.774C31.7567 79.734 31.722 79.7167 31.7047 79.6994C31.6874 79.6821 31.6701 79.6648 31.6701 79.6301V78.7992C31.6701 78.7819 31.6874 78.7473 31.7047 78.73C31.722 78.7126 31.7393 78.6953 31.774 78.6953H33.7128C33.7301 78.6953 33.7647 78.7126 33.782 78.73C33.7994 78.7473 33.8167 78.7646 33.8167 78.7992V79.8379C33.8167 80.2187 33.7301 80.5476 33.557 80.8419C33.3839 81.1362 33.1415 81.3612 32.8473 81.517C32.553 81.6728 32.1894 81.7594 31.774 81.7594C31.3585 81.7767 30.995 81.7075 30.7007 81.5343Z" fill="#005EAD"/>
<path d="M38.179 81.5514C37.8675 81.3956 37.6424 81.1706 37.4693 80.8763C37.2962 80.582 37.2096 80.2531 37.2096 79.8723V78.2277C37.2096 77.8469 37.2962 77.518 37.4693 77.241C37.6424 76.9467 37.8848 76.739 38.179 76.5832C38.4906 76.4274 38.8369 76.3408 39.2523 76.3408C39.6505 76.3408 40.014 76.4101 40.3256 76.5659C40.6372 76.7217 40.8623 76.9294 41.0354 77.1891C41.2085 77.4487 41.295 77.7776 41.295 78.1239C41.295 78.1412 41.2777 78.1758 41.2604 78.1931C41.2431 78.2104 41.2258 78.2104 41.1912 78.2104L40.1179 78.2797C40.0486 78.2797 40.0313 78.245 40.0313 78.1931C40.0313 77.9507 39.9621 77.7603 39.8236 77.6218C39.6851 77.4834 39.4947 77.4141 39.2523 77.4141C39.0273 77.4141 38.8369 77.4833 38.6811 77.6391C38.5426 77.7776 38.4733 77.9681 38.4733 78.2104V79.9415C38.4733 80.1666 38.5426 80.357 38.6811 80.5128C38.8196 80.6513 39.01 80.7205 39.2523 80.7205C39.4774 80.7205 39.6678 80.6513 39.8236 80.5128C39.9621 80.3743 40.0313 80.1839 40.0313 79.9415C40.0313 79.8896 40.0659 79.855 40.1179 79.855L41.1912 79.9069C41.2085 79.9069 41.2431 79.9069 41.2604 79.9242C41.2777 79.9415 41.295 79.9588 41.295 79.9761C41.295 80.3397 41.2085 80.6513 41.0354 80.9282C40.8623 81.2052 40.6199 81.413 40.3256 81.5688C40.014 81.7246 39.6678 81.7938 39.2523 81.7938C38.8369 81.7765 38.4906 81.7072 38.179 81.5514Z" fill="#005EAD"/>
<path d="M42.6799 81.69C42.6626 81.6727 42.6453 81.6553 42.6453 81.6207V76.4794C42.6453 76.462 42.6626 76.4274 42.6799 76.4101C42.6972 76.3928 42.7145 76.3755 42.7492 76.3755H43.8224C43.8398 76.3755 43.8744 76.3928 43.8917 76.4101C43.909 76.4274 43.9263 76.4447 43.9263 76.4794V80.5994C43.9263 80.6167 43.9436 80.634 43.9609 80.634H46.3845C46.4018 80.634 46.4364 80.6513 46.4537 80.6686C46.471 80.6859 46.4883 80.7032 46.4883 80.7379V81.638C46.4883 81.6553 46.471 81.69 46.4537 81.7073C46.4364 81.7246 46.4191 81.7419 46.3845 81.7419H42.7492C42.7145 81.7246 42.6972 81.7073 42.6799 81.69Z" fill="#005EAD"/>
<path d="M48.3406 81.5514C48.029 81.3783 47.7867 81.1533 47.6135 80.859C47.4404 80.5647 47.3539 80.2185 47.3539 79.8203V78.297C47.3539 77.9161 47.4404 77.5699 47.6135 77.2756C47.7867 76.9813 48.029 76.7563 48.3406 76.5832C48.6522 76.4101 49.0157 76.3408 49.4312 76.3408C49.8467 76.3408 50.2102 76.4274 50.5218 76.5832C50.8334 76.7563 51.0758 76.9813 51.2489 77.2756C51.422 77.5699 51.5085 77.9161 51.5085 78.297V79.8203C51.5085 80.2185 51.422 80.5647 51.2489 80.859C51.0758 81.1533 50.8334 81.3956 50.5218 81.5514C50.2102 81.7245 49.8467 81.7938 49.4312 81.7938C49.0157 81.7938 48.6522 81.7245 48.3406 81.5514ZM50.0025 80.4955C50.1583 80.3397 50.2275 80.1319 50.2275 79.8723V78.297C50.2275 78.0373 50.1583 77.8296 50.0025 77.6738C49.8467 77.518 49.6562 77.4314 49.4139 77.4314C49.1715 77.4314 48.9811 77.518 48.8253 77.6738C48.6695 77.8296 48.6003 78.0373 48.6003 78.297V79.8723C48.6003 80.1319 48.6695 80.3397 48.8253 80.4955C48.9811 80.6513 49.1715 80.7378 49.4139 80.7378C49.6562 80.7205 49.864 80.6513 50.0025 80.4955Z" fill="#005EAD"/>
<path d="M53.7936 81.5861C53.482 81.4476 53.2396 81.2572 53.0665 81.0148C52.8934 80.7552 52.8069 80.4782 52.8069 80.1493V80.0108C52.8069 79.9935 52.8242 79.9589 52.8415 79.9416C52.8588 79.9242 52.8761 79.9069 52.9107 79.9069H53.9667C53.984 79.9069 54.0186 79.9242 54.0359 79.9416C54.0532 79.9589 54.0706 79.9762 54.0706 80.0108V80.0974C54.0706 80.2705 54.1571 80.409 54.3129 80.5301C54.486 80.6513 54.7111 80.7206 54.988 80.7206C55.2131 80.7206 55.3689 80.6686 55.4901 80.5821C55.5939 80.4782 55.6459 80.3743 55.6459 80.2532C55.6459 80.1493 55.6112 80.0627 55.5593 80.0108C55.4901 79.9416 55.4035 79.8896 55.2996 79.855C55.1958 79.8204 55.0227 79.7511 54.7976 79.6819C54.763 79.6646 54.7284 79.6473 54.7111 79.6473C54.6764 79.6473 54.6591 79.63 54.6245 79.6127C54.2956 79.5088 54.0013 79.3876 53.759 79.2664C53.5166 79.1453 53.3089 78.9721 53.1358 78.7471C52.9626 78.5221 52.8761 78.2624 52.8761 77.9335C52.8761 77.6219 52.9627 77.3449 53.1185 77.1026C53.2916 76.8602 53.5166 76.6871 53.8109 76.5659C54.1052 76.4447 54.4341 76.3755 54.8149 76.3755C55.2131 76.3755 55.5593 76.4447 55.8709 76.5832C56.1825 76.7217 56.4249 76.9294 56.598 77.1891C56.7711 77.4488 56.8576 77.7431 56.8576 78.072V78.1758C56.8576 78.1931 56.8403 78.2278 56.823 78.2451C56.8057 78.2624 56.7884 78.2797 56.7538 78.2797H55.6978C55.6805 78.2797 55.6459 78.2624 55.6285 78.2451C55.6112 78.2278 55.5939 78.2105 55.5939 78.1758V78.1239C55.5939 77.9508 55.5074 77.795 55.3516 77.6565C55.1958 77.518 54.988 77.4488 54.7284 77.4488C54.538 77.4488 54.3822 77.4834 54.261 77.5699C54.1571 77.6565 54.0879 77.7604 54.0879 77.9162C54.0879 78.02 54.1225 78.1239 54.1917 78.1931C54.261 78.2624 54.3648 78.3316 54.5206 78.4009C54.6764 78.4701 54.9015 78.5394 55.2131 78.6432C55.5593 78.7644 55.8363 78.8683 56.044 78.9548C56.2344 79.0414 56.4249 79.1972 56.598 79.4049C56.7711 79.6126 56.8576 79.8723 56.8576 80.2185C56.8576 80.5474 56.7711 80.8244 56.6153 81.0668C56.4422 81.3091 56.2171 81.4822 55.9055 81.6207C55.6112 81.7419 55.2477 81.8111 54.8496 81.8111C54.4687 81.7765 54.1052 81.7073 53.7936 81.5861Z" fill="#005EAD"/>
<path d="M62.0856 77.4488C62.0683 77.4661 62.0509 77.4834 62.0163 77.4834H59.6274C59.6101 77.4834 59.5928 77.5007 59.5928 77.5181V78.4529C59.5928 78.4702 59.6101 78.4875 59.6274 78.4875H61.1508C61.1681 78.4875 61.2027 78.5048 61.22 78.5221C61.2373 78.5394 61.2546 78.5567 61.2546 78.5913V79.4742C61.2546 79.4915 61.2373 79.5261 61.22 79.5434C61.2027 79.5608 61.1854 79.5781 61.1508 79.5781H59.6274C59.6101 79.5781 59.5928 79.5954 59.5928 79.6127V80.6167C59.5928 80.634 59.6101 80.6514 59.6274 80.6514H62.0163C62.0336 80.6514 62.0683 80.6687 62.0856 80.686C62.1029 80.7033 62.1202 80.7206 62.1202 80.7552V81.6554C62.1202 81.6727 62.1029 81.7073 62.0856 81.7246C62.0683 81.7419 62.0509 81.7593 62.0163 81.7593H58.4156C58.3983 81.7593 58.3637 81.7419 58.3464 81.7246C58.3291 81.7073 58.3118 81.69 58.3118 81.6554V76.514C58.3118 76.4967 58.3291 76.4621 58.3464 76.4448C58.3637 76.4275 58.381 76.4102 58.4156 76.4102H62.0163C62.0336 76.4102 62.0683 76.4275 62.0856 76.4448C62.1029 76.4621 62.1202 76.4794 62.1202 76.514V77.4142C62.1029 77.4142 62.1029 77.4315 62.0856 77.4488Z" fill="#005EAD"/>
<path d="M66.2575 81.6553L65.3573 79.63C65.34 79.6126 65.34 79.5953 65.3054 79.5953H64.8034C64.7861 79.5953 64.7688 79.6126 64.7688 79.63V81.6207C64.7688 81.638 64.7515 81.6727 64.7341 81.69C64.7168 81.7073 64.6995 81.7246 64.6649 81.7246H63.5916C63.5743 81.7246 63.5397 81.7073 63.5224 81.69C63.5051 81.6727 63.4877 81.6553 63.4877 81.6207V76.4794C63.4877 76.462 63.5051 76.4274 63.5224 76.4101C63.5397 76.3928 63.557 76.3755 63.5916 76.3755H65.8421C66.171 76.3755 66.4652 76.4447 66.7249 76.5832C66.9846 76.7217 67.175 76.9121 67.3135 77.1718C67.452 77.4141 67.5212 77.7084 67.5212 78.0373C67.5212 78.3836 67.4347 78.6779 67.2789 78.9202C67.1058 79.1626 66.8807 79.353 66.5864 79.4568C66.5691 79.4742 66.5518 79.4915 66.5691 79.5088L67.5732 81.6034C67.5905 81.6207 67.5905 81.638 67.5905 81.6553C67.5905 81.69 67.5558 81.7246 67.5039 81.7246H66.3614C66.3268 81.7246 66.2921 81.69 66.2575 81.6553ZM64.7861 77.518V78.5913C64.7861 78.6086 64.8034 78.6259 64.8207 78.6259H65.6689C65.8594 78.6259 66.0152 78.574 66.119 78.4701C66.2402 78.3663 66.2921 78.2278 66.2921 78.0547C66.2921 77.8815 66.2402 77.7431 66.119 77.6219C65.9978 77.518 65.8421 77.4661 65.6689 77.4661H64.8207C64.8034 77.4834 64.7861 77.4834 64.7861 77.518Z" fill="#005EAD"/>
<path d="M192.49 28.926H133.459V64.0501H192.49V28.926Z" fill="white"/>
<path d="M133.459 28.926V64.0501H192.49V28.926H133.459ZM157.002 56.2255H154.821C150.96 51.4823 141.716 41.2861 141.716 41.2688L142.011 56.2255H139.379L139.639 35.9024H142.253L154.977 50.0801C154.977 50.0801 154.7 35.937 154.7 35.9024C154.682 35.8677 157.279 35.9024 157.279 35.9024L157.002 56.2255ZM166.09 53.525C165.9 55.8447 165.571 57.4373 164.515 58.6144C163.459 59.7916 161.624 60.3975 159.547 60.761L158.975 59.2203C159.512 58.978 159.876 58.8048 159.962 58.7356C160.222 58.5625 161.295 58.2509 161.676 56.1043C161.901 54.8926 161.936 53.7846 161.97 52.5036C162.005 51.2226 161.97 35.9024 161.97 35.9024H166.159C166.159 37.2872 166.194 52.3478 166.09 53.525ZM187.279 55.0484C185.738 55.9312 183.522 56.6063 181.133 56.7102C179.437 56.7795 177.931 56.589 176.581 56.1563C175.23 55.7235 174.296 55.0657 173.344 54.2174C172.391 53.3692 171.578 52.3478 171.041 51.1534C170.505 49.9589 170.141 48.6433 170.072 47.2238C169.985 45.1465 170.228 43.2422 170.799 41.7708C171.37 40.2994 172.08 39.2088 173.101 38.2567C174.123 37.3046 175.334 36.5948 176.702 36.0582C182.224 33.9289 187.175 36.5429 187.452 36.6814L186.915 39.7454L186.569 39.7627C186.154 39.2261 185.686 38.7587 185.167 38.3778C184.838 38.1182 184.526 37.9104 184.198 37.7546C184.059 37.6854 183.921 37.6335 183.782 37.5815C183.124 37.3046 182.414 37.1661 181.67 37.1661C177.844 37.1661 174.296 41.0264 174.296 45.9601C174.296 50.8937 177.394 54.8926 181.22 54.8926C181.237 54.8926 181.237 54.8926 181.255 54.8926C181.497 54.9099 181.739 54.9099 181.982 54.9099C182.449 54.8926 183.159 54.806 183.644 54.6848C184.128 54.5463 184.596 54.3905 185.046 54.1828C185.513 53.9751 185.929 53.7327 186.344 53.4211C186.742 53.1268 187.106 52.7979 187.4 52.4517L187.798 52.6767C187.642 53.0922 187.469 54.5117 187.279 55.0484Z" fill="#004F99"/>
<path d="M101.399 17.5527H100.655V81.7939H101.399V17.5527Z" fill="#004F99"/>
</svg>
