<svg width="170" height="117" viewBox="0 0 170 117" fill="none" xmlns="http://www.w3.org/2000/svg">
<g clip-path="url(#clip0_3794_7016)">
<path d="M129.255 21.5027C128.78 21.5523 128.307 21.6172 127.835 21.682C121.329 12.2128 108.571 6.49135 94.5988 7.95157C83.9319 9.06633 74.823 14.1336 69.1473 21.1859C64.2588 19.0435 58.5359 18.0945 52.5444 18.7206C38.0287 20.2376 26.9547 30.4842 26.084 42.4338C13.6835 47.3886 5.53328 58.5209 6.78558 70.5039C8.35456 85.517 24.0891 96.1799 41.9258 94.3158C45.3845 93.9544 48.6651 93.1474 51.706 91.971C54.8318 97.3067 59.9672 104.181 67.6957 109.221C67.6957 109.221 64.2071 99.599 64.5111 91.035C65.9543 91.0775 67.4262 91.0243 68.9107 90.8691C77.5498 89.9663 84.8982 85.8179 89.4092 80.0554C94.4917 82.1311 100.364 83.0335 106.494 82.3929C114.352 81.5717 121.272 78.3576 126.32 73.738C129.032 74.0734 131.845 74.1198 134.722 73.8192C151.885 72.0255 164.572 58.8565 163.063 44.4096C161.553 29.9627 146.417 19.7013 129.254 21.495L129.255 21.5027Z" fill="white"/>
<path d="M129.255 21.5027C128.78 21.5523 128.307 21.6172 127.834 21.682C121.329 12.2128 108.571 6.49135 94.5988 7.95157C83.9319 9.06633 74.823 14.1336 69.1473 21.1859C64.2588 19.0435 58.5359 18.0945 52.5444 18.7206C38.0287 20.2376 26.9547 30.4842 26.084 42.4338C13.6835 47.3886 5.53328 58.5209 6.78558 70.5039C8.35456 85.517 24.0891 96.1799 41.9258 94.3158C45.3845 93.9544 48.6651 93.1474 51.706 91.9709C54.8318 97.3067 59.9672 104.181 67.6957 109.221C67.6957 109.221 64.2071 99.599 64.5111 91.035C65.9543 91.0775 67.4262 91.0243 68.9107 90.8691C77.5498 89.9663 84.8982 85.8179 89.4092 80.0554C94.4917 82.1311 100.364 83.0335 106.494 82.3929C114.352 81.5717 121.272 78.3576 126.32 73.738C129.032 74.0734 131.845 74.1198 134.722 73.8192C151.885 72.0255 164.572 58.8565 163.063 44.4096C161.553 29.9627 146.417 19.7013 129.254 21.495L129.255 21.5027Z" stroke="#001450" stroke-width="1.77004" stroke-linecap="round" stroke-linejoin="round"/>
</g>
<path d="M135.022 42.9207C134.733 41.6552 133.499 40.848 131.696 41.2606C129.587 41.7433 127.838 42.8297 126.926 43.3411C126.405 43.6217 125.728 44.0997 125.22 44.4378L123.864 41.8628C124.503 41.656 125.296 41.3331 125.898 41.0541C127.223 40.4078 129.244 39.3602 131.487 38.8468C134.516 38.1534 137.039 39.3919 137.728 42.4022C138.668 46.5053 135.455 49.9243 130.291 51.8729L128.367 49.8113C132.999 48.1861 135.707 45.9117 135.022 42.9207ZM125.381 35.4421C127.714 35.4123 132.15 34.7804 134.187 34.3344L134.343 36.7806C132.065 37.1406 127.816 37.7094 125.524 37.8306L125.381 35.4421Z" fill="#001450"/>
<path d="M111.913 52.6654C112.123 53.583 113.155 53.7015 114.466 53.4015C115.664 53.1272 115.975 52.5042 115.688 51.2496C115.649 51.081 115.598 50.8563 115.519 50.5984C115.015 50.6349 114.478 50.6988 113.953 50.8188C112.493 51.1531 111.728 51.8602 111.913 52.6654ZM115.297 38.6079C115.328 39.1724 115.482 40.1029 115.63 40.8375C115.71 41.2725 115.813 41.7219 115.924 42.2088C117.418 41.8472 119.592 41.2708 121.103 40.7278L121.688 42.9391C120.145 43.4302 117.957 44.0296 116.449 44.4142C116.743 45.5293 117.161 47.0102 117.572 48.3746C120.109 48.5231 122.431 49.371 123.998 50.2738L123.066 52.8323C121.754 52.0092 120.097 51.2258 118.254 50.8395C118.329 51.0786 118.38 51.3033 118.423 51.4906C118.805 53.1573 118.322 54.9232 115.176 55.6432C112.498 56.2562 110.106 55.8775 109.523 53.3307C109.077 51.3831 110.388 49.4474 113.833 48.6587C114.208 48.573 114.587 48.506 114.951 48.462C114.561 47.0142 114.121 45.4396 113.894 44.4471C113.633 43.3048 113.38 42.1999 113.177 41.399C112.929 40.4899 112.689 39.6976 112.469 39.2551L115.297 38.6079Z" fill="#001450"/>
<path d="M89.903 38.7734C90.4668 38.6723 91.1661 38.5091 91.6108 38.3773C92.7631 38.036 94.876 37.3 95.8021 36.9377C96.3015 36.7677 96.7912 36.4907 97.0929 36.2474L99.0815 37.0216C98.8883 37.4087 98.7236 37.7434 98.6457 38.0743C98.3777 39.0993 98.1305 41.0856 97.9119 43.0195C99.5605 42.7949 101.2 42.8369 102.682 43.0136C102.63 42.7651 102.585 42.5367 102.539 42.3083C102.366 41.502 102.126 40.6934 101.886 40.1049L104.624 39.6235C104.945 41.0019 105.215 42.2852 105.348 43.4771C106.341 43.7108 107.206 43.9601 107.912 44.1907L107.572 47.348C106.903 47.0186 106.179 46.7273 105.415 46.448C105.202 48.9959 104.193 51.23 101.903 53.4476L99.2391 52.3238C101.902 50.1054 102.748 47.7657 102.871 45.7285C101.202 45.3653 99.4047 45.238 97.5943 45.5105C97.3757 47.4444 97.1255 49.7175 96.7474 51.0389C96.2982 52.4914 95.4955 53.3449 94.1209 53.7522C92.3419 54.2792 90.6424 53.4414 90.0375 51.3996C89.1091 48.2663 91.2528 45.0364 95.2622 43.6506C95.4329 42.1487 95.6119 40.6004 95.7953 39.5125C94.9987 39.7925 93.2782 40.3682 92.3662 40.7044C91.9679 40.8444 91.2783 41.1146 90.7767 41.3512L89.903 38.7734ZM92.2889 50.3148C92.4865 50.9819 92.9724 51.2118 93.4374 51.074C93.8417 50.9542 94.0648 50.6682 94.2789 50.0551C94.5829 49.1514 94.7514 47.7161 94.9401 46.2748C92.7778 47.2893 91.9115 49.0412 92.2889 50.3148Z" fill="#001450"/>
<path d="M74.1961 56.0995C74.7518 55.8628 75.2879 55.6177 75.5434 55.4838C76.6832 54.918 78.915 53.7891 81.3995 52.5599C82.7947 51.8603 84.2908 51.1694 85.2704 50.732L85.997 52.5226C85.2448 52.8372 84.038 53.316 83.3666 53.7934C81.8468 54.916 81.288 57.2327 81.9504 58.9026C82.8688 61.2179 85.3583 61.1886 87.7939 60.3686L87.8969 62.5526C84.8722 63.5251 81.4703 63.0557 80.2624 60.0106C79.4609 57.99 79.9629 55.9394 80.6332 54.8452C79.3698 55.5088 76.6297 56.9531 75.1411 57.9496L74.1961 56.0995ZM84.5358 54.6938C85.087 55.0598 85.9318 55.7154 86.4155 56.1569L85.5383 57.057C84.8813 56.4244 84.3695 55.9941 83.67 55.5407L84.5358 54.6938ZM85.8514 53.4249C86.397 53.7768 87.2587 54.3932 87.7705 54.8236L86.9184 55.7462C86.239 55.1388 85.7103 54.7476 85.0163 54.3083L85.8514 53.4249Z" fill="#001450"/>
<path d="M67.6444 60.9205L66.7124 49.7118L69.163 49.5081L70.3961 64.3393L67.9456 64.5431L67.8428 63.3071L54.972 64.3773L55.0766 65.6345L52.6047 65.84L51.3698 50.9875L53.8416 50.782L54.7736 61.9906L67.6444 60.9205ZM63.478 54.1648L63.3291 52.3748L61.4752 52.529L61.6241 54.3189L63.478 54.1648ZM63.788 57.8939L63.6374 56.0826L61.7835 56.2368L61.9341 58.048L63.788 57.8939ZM57.7561 56.5716L57.9067 58.3829L59.7606 58.2288L59.61 56.4175L57.7561 56.5716ZM57.4478 52.8638L57.5966 54.6538L59.4505 54.4997L59.3017 52.7097L57.4478 52.8638ZM50.4169 47.2689L69.4887 45.6832L69.6853 48.0485L61.3321 48.7431L61.4738 50.4478L65.3521 50.1253L66.1547 59.7784L56.0115 60.6218L55.2089 50.9687L58.938 50.6586L58.7963 48.9539L50.6136 49.6342L50.4169 47.2689Z" fill="#001450"/>
<path d="M41.79 54.8451L41.5447 54.0603L35.6695 55.8962L35.9148 56.6811L41.79 54.8451ZM42.4907 57.0876L42.2385 56.2803L36.3632 58.1162L36.6155 58.9235L42.4907 57.0876ZM43.6919 51.7155L45.5909 57.7926L34.5805 61.2332L32.6815 55.1562L43.6919 51.7155ZM45.4283 62.0771L44.9658 60.597L43.3961 61.0876L43.8586 62.5676L45.4283 62.0771ZM41.8628 63.1912L41.4003 61.7112L39.8754 62.1877L40.3379 63.6677L41.8628 63.1912ZM38.3421 64.2914L37.8797 62.8114L36.3996 63.2739L36.8621 64.7539L38.3421 64.2914ZM46.8607 58.2327L48.3323 62.9418L35.1018 67.0762L33.6302 62.3671L46.8607 58.2327ZM32.2175 58.0826L31.1734 60.6488C30.0479 60.0405 27.8013 59.3888 26.1363 59.0229L27.1314 56.6936C28.7459 56.9767 31.0094 57.5247 32.2175 58.0826ZM32.7977 64.3502L31.7451 66.9683C30.6645 66.346 28.4487 65.6354 26.8286 65.2556L27.8307 62.9486C29.4228 63.2388 31.626 63.8302 32.7977 64.3502ZM32.415 67.6943L34.9574 68.8197C34.5888 71.421 34.0365 74.3011 33.4843 76.7874L30.628 75.7601C31.2153 73.7797 31.9665 70.5912 32.415 67.6943ZM44.8494 67.1562L40.0057 68.6698C40.8677 69.0651 41.8585 69.3215 42.9251 69.5052C43.7044 68.7694 44.3729 67.9943 44.8494 67.1562ZM46.5467 64.2382L48.5018 64.5872C48.1388 66.4975 47.2671 68.1976 46.0267 69.742C47.6539 69.7505 49.4044 69.5234 51.239 69.1717C50.8466 69.885 50.4878 71.1787 50.3616 71.9565C47.9398 72.3195 45.7015 72.4035 43.6258 72.1414C41.8963 73.6172 39.7996 74.8632 37.5796 75.9507C37.1521 75.3705 36.307 74.4777 35.6833 74.0573C37.4142 73.2948 39.0653 72.4343 40.5257 71.4364C39.211 71.0104 38.0183 70.4231 36.9111 69.6368L35.5881 70.0503L34.9364 67.9648L46.1038 64.4751L46.5467 64.2382Z" fill="#001450"/>
<defs>
<clipPath id="clip0_3794_7016">
<rect width="160.451" height="100.233" fill="white" transform="translate(0 16.6775) rotate(-5.96616)"/>
</clipPath>
</defs>
</svg>
