<svg fill="none" height="427" viewBox="0 0 312 427" width="312" xmlns="http://www.w3.org/2000/svg"><g fill="#fff"><path d="m281.82 0c7.49 10.6372 19 20.44 29.9 25.5153-2.096 2.2028-3.928 4.6391-5.46 7.2603-4.667-2.7543-9.101-5.8799-13.26-9.346v5.7704h-29.66v-5.5619c-4.048 3.4378-8.38 6.5309-12.95 9.2467-1.454-2.4184-3.219-4.6387-5.25-6.6048 11.86-6.416 23.1-17.65903 28.35-26.28zm13.59 35.4572 6.65 1.9864c-3.43 8.5514-8.47 19.3376-12.82 28.1671l-8.82-2.4333c3.08-5.9592 6.65-13.4181 9.38-19.4766h-36v-7.8265h40.12zm-4.63-13.9048c-4.754-4.0074-9.041-8.5315-12.78-13.48762-3.557 4.95062-7.677 9.47652-12.28 13.48762z"/><path d="m284.13 77.1021c-.369 2.635-.603 5.287-.7 7.9456v4.966c5.46-.139 13.59-.4171 19.33-1.0428l.35 8.1343c-5.81.5561-14.08.8342-19.68.9932.14 3.5456.42 9.1776.7 14.4606 7.866 2.219 15.106 6.221 21.15 11.69l-5.28 8.204c-4.493-4.505-9.758-8.178-15.55-10.846.07.994.07 1.808.07 2.503 0 6.049-2.8 11.75-14.35 11.75-9.8 0-17.78-3.198-17.78-12.445 0-7.171 6.09-12.733 18.69-12.733 1.467 0 2.937.07 4.41.209-.28-5.84-.56-12.445-.56-16.1993 0-3.2676-.07-6.7438-.14-9.6638-.09-2.6591-.323-5.3115-.7-7.9456zm-14.56 50.4839c4.41 0 6.3-1.986 6.3-6.465 0-.636 0-1.321-.07-2.225-1.938-.367-3.907-.557-5.88-.566-5.39 0-8.61 1.738-8.61 4.668 0 3.337 3.43 4.588 8.26 4.588z"/><path d="m266.7 164.216c3.29-5.215 9.31-11.055 17-11.055 9.52 0 17 9.316 17 24.334 0 19.258-11.91 28.445-30.11 31.712l-5.18-7.856c15.26-2.373 26-7.379 26-23.837 0-10.498-3.58-16.338-9.32-16.338-8 0-15.19 12.098-15.47 21.066-.131 2.391-.037 4.788.28 7.161l-8.47.626c-.529-3.779-.81-7.587-.84-11.402.175-7.32.843-14.62 2-21.851.28-2.572.49-5.283.56-7.091l9.45.348c-1.282 4.658-2.251 9.396-2.9 14.183z"/><path d="m276.22 223.172c-.501 2.018-.898 4.06-1.19 6.118-.21 1.112-.42 2.92-.77 5.145 4.19-.01 8.376-.288 12.53-.835l-.28 8.135c-4.418.451-8.858.659-13.3.625-.42 2.98-.84 6.188-1.19 9.247h.49c4.609-.009 9.214-.288 13.79-.834l-.28 8.134c-4.022.431-8.065.64-12.11.626h-2.66c-.176 1.649-.27 3.307-.28 4.966 0 5.572 3.43 8.551 10.15 8.551 9.59 0 14.78-4.31 14.78-9.872 0-4.658-2.53-9.038-7-13.21l9.67-2.085c4.55 5.77 6.65 10.567 6.65 16.407 0 10.3-9.31 17.669-24.37 17.669-10.78 0-18.41-4.658-18.41-16.07 0-1.668.21-4.032.49-6.883-4.446-.379-8.85-1.147-13.16-2.294l.49-8.273c4.376 1.457 8.911 2.39 13.51 2.781.35-3.059.77-6.257 1.19-9.316-4.61-.468-9.175-1.305-13.65-2.503l.42-7.857c4.6 1.386 9.344 2.249 14.14 2.573.21-1.987.42-3.894.56-5.423.196-2.011.22-4.034.07-6.049z"/><path d="m288.05 299.161 7.22-6.048c5.395 4.557 10.412 9.539 15 14.898l-7.35 6.257c-4.521-5.441-9.495-10.495-14.87-15.107z"/><path d="m153.72 4.17148c-.501 2.01803-.898 4.06003-1.19 6.11812-.21 1.1124-.42 2.92-.77 5.1448 4.19-.0094 8.376-.2881 12.53-.8343l-.29 8.1343c-4.419.4508-8.859.6597-13.3.6257-.42 2.9796-.84 6.1876-1.19 9.2467h.49c4.612-.0055 9.22-.2808 13.8-.8244l-.28 8.1343c-4.022.4311-8.065.64-12.11.6257h-2.66c-.177 1.6497-.27 3.3071-.28 4.966 0 5.5619 3.43 8.5515 10.15 8.5515 9.59 0 14.78-4.3105 14.78-9.8724 0-4.6581-2.52-9.0381-7-13.2096l9.67-2.0857c4.55 5.7705 6.65 10.5676 6.65 16.4077 0 10.2895-9.31 17.669-24.37 17.669-10.78 0-18.41-4.6581-18.41-16.07 0-1.6686.21-4.0324.49-6.8829-4.449-.3721-8.856-1.1332-13.17-2.2744l.49-8.2733c4.376 1.457 8.911 2.3906 13.51 2.7809.35-3.059.77-6.2571 1.19-9.3162-4.611-.468-9.175-1.305-13.65-2.5028l.42-7.8563c4.6 1.3855 9.344 2.2485 14.14 2.5724.21-1.9864.42-3.8933.56-5.42284.199-2.00698.226-4.02715.08-6.03865z"/><path d="m146 94.2745c4.34-1.321 15.12-4.966 22.75-4.966 10.58 0 17.86 6.4657 17.86 15.7125 0 11.918-10.22 20.38-31.44 21.493l-3.43-8.214c14.42-.348 26.05-4.032 26.05-13.349 0-4.171-2.94-8.1339-9.39-8.1339-8.19 0-20.86 5.5619-26.46 7.9459l-3.5-8.8299c2.33-.2682 5.48-1.1024 7.56-1.6586z"/><path d="m152 169.221c5.6-3.198 11.55-6.187 14.77-8.064 2.258-1.155 4.395-2.529 6.38-4.102l4.76 7.945c-2.1 1.182-4.27 2.434-6.79 3.685-4.24 2.066-12.85 6.118-19.12 10.091-5.67 3.754-9.52 7.648-9.52 12.385 0 4.966 4.76 7.509 14.28 7.509 7.54-.079 15.051-.941 22.41-2.573l-.07 9.932c-7.308 1.157-14.7 1.708-22.1 1.649-13.65 0-24-3.754-24-15.573 0-7.519 4.83-13.011 11.41-17.878-3.15-5.84-6.51-13.14-9.66-20.37l8.68-3.477c2.439 6.46 5.302 12.754 8.57 18.841z"/><path d="m153.72 223.172c-.501 2.018-.898 4.06-1.19 6.118-.21 1.112-.42 2.92-.77 5.145 4.19-.01 8.376-.288 12.53-.835l-.28 8.135c-4.419.451-8.859.659-13.3.625-.42 2.98-.84 6.188-1.19 9.247h.48c4.609-.009 9.214-.288 13.79-.834l-.28 8.134c-4.022.431-8.065.64-12.11.626h-2.66c-.177 1.649-.27 3.307-.28 4.966 0 5.572 3.43 8.551 10.15 8.551 9.59 0 14.78-4.31 14.78-9.872 0-4.658-2.52-9.038-7-13.21l9.67-2.085c4.55 5.77 6.65 10.567 6.65 16.407 0 10.3-9.31 17.669-24.37 17.669-10.78 0-18.41-4.658-18.41-16.07 0-1.668.21-4.032.49-6.883-4.446-.379-8.85-1.147-13.16-2.294l.49-8.273c4.376 1.457 8.911 2.39 13.51 2.781.35-3.059.77-6.257 1.19-9.316-4.611-.468-9.175-1.305-13.65-2.503l.42-7.857c4.6 1.386 9.344 2.249 14.14 2.573.21-1.987.42-3.894.56-5.423.196-2.011.219-4.034.07-6.049z"/><path d="m146 313.275c4.34-1.321 15.12-4.966 22.75-4.966 10.58 0 17.86 6.466 17.86 15.712 0 11.968-10.22 20.381-31.44 21.493l-3.43-8.204c14.42-.357 26.05-4.042 26.05-13.358 0-4.172-2.94-8.135-9.39-8.135-8.19 0-20.86 5.562-26.46 7.996l-3.5-8.83c2.33-.318 5.48-1.132 7.56-1.708z"/><path d="m152 388.222c5.6-3.199 11.55-6.188 14.77-8.065 2.258-1.154 4.395-2.529 6.38-4.102l4.76 7.946c-2.1 1.181-4.27 2.433-6.79 3.684-4.28 2.086-12.89 6.118-19.19 10.081-5.67 3.755-9.52 7.648-9.52 12.385 0 4.966 4.76 7.509 14.28 7.509 7.54-.079 15.051-.941 22.41-2.572l-.07 9.932c-7.285 1.156-14.653 1.711-22.03 1.658-13.65 0-24-3.754-24-15.573 0-7.519 4.83-13.011 11.41-17.878-3.15-5.84-6.51-13.14-9.66-20.37l8.68-3.476c2.439 6.459 5.302 12.753 8.57 18.841z"/><path d="m63 41.0197c-4.9752 3.7343-10.2155 7.1067-15.68 10.0909 4.91 3.3371 11.14 5.6314 18.77 6.8828-2.1121 2.2514-3.8808 4.7979-5.25 7.5583-17.44-3.6153-27.1-12.3058-33-26.9852h-8.84v15.8911c5.18-.6952 10.71-1.5295 16-2.4333l.49 7.7172c-10.64 1.8374-22.05 3.5357-30.49 4.9262l-2-8.0548c2.24-.2781 4.69-.5562 7.42-.9932v-48.7363h18.14v-6.674294h8.61v6.674294h20.38v29.8655zm-44-26.9753v5.1447h30v-5.1447zm0 17.2419h30v-5.4626h-30zm17.5 7.2305c1.3515 2.8774 3.1464 5.5279 5.32 7.8562 4.0242-2.3616 7.886-4.9861 11.56-7.8562z"/><path d="m16.0999 91.2849c0 4.38 0 9.5251.49 14.4611.91 9.803 2.94 16.487 7.28 16.487 3.22 0 5.95-7.946 7.21-13.359l7.0001 8.284c-4.55 11.918-8.8901 15.99-14.4201 15.99-7.49 0-13.99996-6.674-15.88996-24.969-.7-6.257-.77-14.2522-.77-18.4236.01144-2.329-.1759-4.6548-.56-6.9524l10.49996.139c-.4917 2.7559-.7725 5.5449-.84 8.3429zm47.6101 28.5841-9 3.407c-1-10.995-4.69-27.5416-12.19-35.954l8.62-2.8504c6.55 7.8959 11.8 24.8894 12.57 35.3974z"/><path d="m41.58 182.153c6.6975 8.217 15.2341 14.767 24.93 19.129-2.2781 2.143-4.2922 4.546-6 7.161-8.26-4.241-16.39-11.194-22.76-19.119v22.108h-8.91v-21.731c-6.2979 7.625-14.0236 13.966-22.75 18.672-1.77481-2.59-3.81577-4.99-6.09-7.161 9.71672-4.328 18.2784-10.855 25-19.059h-22.69v-8.204h26.53v-8.939h-21.28v-8.204h21.28v-10.319h8.89v10.359h21.92v8.204h-21.92v8.939h27v8.203z"/><path d="m42.7001 257.517c6.4516 7.578 14.5753 13.576 23.74 17.53-2.2026 2.084-4.1525 4.418-5.81 6.952-8.4-4.171-16.6-11.134-22.9-19.06v21.354h-8.82v-21.214c-6.2531 7.76-14.0527 14.154-22.90998 18.781-1.68247-2.536-3.65568-4.869-5.880003-6.952 9.181583-3.93 17.346383-9.876 23.879983-17.391h-21.99998v-7.946h13.25998c-1.203-4.189-2.9689-8.198-5.25-11.918l7.21-2.712h-11.89998v-7.945h23.58998v-7.579h8.82v7.579h24.27v7.945h-11.66l8 2.364c-2.2149 4.228-4.6654 8.329-7.34 12.286h13.62v7.945zm-25.2-22.596c2.45 3.755 5 8.691 5.95 12.097l-6.65 2.573h12.11v-14.67zm20.23 0v14.67h11.77l-5.89-1.987c2.3841-4.027 4.3925-8.262 6-12.653z"/><path d="m7.35004 325.124c3.21996-3.198 8.46996-10.28 12.73996-15.246 4.7601-5.353 9.2401-5.84 14.2801-.993 4.69 4.449 10.15 11.471 14.15 15.891 4.41 4.797 10.36 10.925 16.87 16.686l-7.21 8.204c-4.83-4.589-10.72-11.194-15.13-16.269-4.2-4.966-9.31-11.541-12.53-15.156-2.45-2.642-3.71-2.294-5.74.208-2.66 3.407-7.5601 10.22-10.5001 14.044-1.54 2.295-3.15 4.658-4.33996 6.466l-8.4-8.551c2.09-1.588 4.03427-3.356 5.81-5.284z"/></g></svg>