<svg fill="none" height="325" viewBox="0 0 404 325" width="404" xmlns="http://www.w3.org/2000/svg"><path d="m51.0732 81.4925s51.7978 8.6216 69.6178 18.4197c17.248 9.4808 45.939 28.6218 64.602 49.5908 18.662 20.969 35.035 34.387 60.467 40.702 25.433 6.314 42.43 5.478 42.43 5.478s7.147-18.334 32.987-25.582 40.619-13.335 38.316-3.397c-2.303 9.937-29.056 17.706-25.584 38.511s23.118 26.147 26.259 33.2c3.142 7.052-11.862 3.946-28.482 1.102s-44.339-28.88-44.339-28.88-17.121 19.724-54.306 18.26c-36.826-1.461-89.185-19.131-112.86-28.678-23.6762-9.547-55.6149-32.253-65.2597-59.673-3.3958-9.777-18.0183-38.241-10.9614-38.921 7.0569-.679 15.6885 6.555 15.6885 6.555s-20.1347-26.9021-8.5752-26.6875z" fill="#58a1ef" stroke="#fff" stroke-miterlimit="10" stroke-width="1.64883"/><path d="m160.161 125.503s23.609-5.306 31.028-1.592c7.418 3.715 17.483 29.364 19.152 34.155s-15.159-2.671-17.841-3.218l-2.69-.541z" fill="#0441ad" stroke="#fff" stroke-miterlimit="10" stroke-width="1.64883"/><path d="m254.009 239.453.606-.103c4.872-2.17 9.906-3.956 15.056-5.341 5.315-1.497-6.964-8.998-6.964-8.998s-19.086 6.385-32.158 4.351c0 0 6.928 8.989 12.607 11.878 5.678 2.889 6.536-.834 10.822-1.787" fill="#0441ad"/><g stroke-miterlimit="10" stroke-width="1.64883"><path d="m254.009 239.453.606-.103c4.872-2.17 9.906-3.956 15.056-5.341 5.315-1.497-6.964-8.998-6.964-8.998s-19.086 6.385-32.158 4.351c0 0 6.928 8.989 12.607 11.878 5.678 2.889 6.536-.834 10.822-1.787" stroke="#fff"/><path d="m231.881 185.205s14.076-5.533 18.623-5.854 3.755 7.475 6.325 9.312 1.359 3.676-1.785 3.951c-2.315.118-4.636-.022-6.92-.416 0 0-11.466-5.518-16.243-6.993z" fill="#0441ad" stroke="#fff"/><path d="m89.3653 111.393c-1.7211 2.75-.8999 5.399 1.897 7.149 2.7968 1.749 6.3918 1.861 8.1129-.889 1.7208-2.749.8408-7.188-1.9579-8.962-2.7983-1.773-6.3308-.048-8.052 2.702z" fill="#0441ad" stroke="#0441ad"/><g stroke="#fbd9d7" stroke-linecap="round"><path d="m94.6114 174.267 44.8386-3.689"/><path d="m109.446 181.765 44.837-3.681"/><path d="m124.28 189.263 44.837-3.681"/><path d="m135.302 195.13 44.837-3.681"/><path d="m154.043 200.527 43.281-3.559"/><path d="m171.239 206.033 32.485-2.952"/><path d="m185.394 209.857 32.493-2.95"/><path d="m196.688 215.086 32.492-2.949"/><path d="m203.455 216.86 32.485-2.951"/></g><path d="m153.232 203.817s11.456-.711 16.82 1.867c4.45 2.137 15.629 6.484 17.024 11.131 2.03 6.74 5.959 17.183 1.578 14.814-4.381-2.37-38.763-25.285-35.422-27.812z" fill="#0441ad" stroke="#fff"/><path d="m113.743 148.058s20.952 8.457 35.897 17.235c12.824 7.538 17.16 7.77 9.965 10.217-7.194 2.447-22.61 5.66-31.604-1.242s-18.879-20.394-18.879-20.394-2.946-7.75 4.621-5.816z" fill="#0441ad" stroke="#fff"/></g><path d="m124.792 128.69s5.408 10.23-3.942 23.897c-9.349 13.666-25.7932 7.744-25.7932 7.744" fill="#58a1ef"/><path d="m124.792 128.69s5.408 10.23-3.942 23.897c-9.349 13.666-25.7932 7.744-25.7932 7.744" stroke="#fff" stroke-linecap="round" stroke-miterlimit="10" stroke-width="1.64883"/></svg>