<svg width="520" height="429" viewBox="0 0 520 429" fill="none" xmlns="http://www.w3.org/2000/svg">
<path fill-rule="evenodd" clip-rule="evenodd" d="M33.9476 145.67C33.5643 142.368 33.3677 139.015 33.3677 135.621C33.3677 83.0109 80.595 40.3618 138.853 40.3618C150.907 40.3618 162.488 42.1875 173.277 45.5495C195.654 18.2354 232.024 0.467529 273.089 0.467529C318.77 0.467529 358.642 22.4543 379.904 55.1105C389.378 51.8293 399.535 50.0493 410.101 50.0493C461.819 50.0493 503.746 92.6985 503.746 145.309C503.746 156.147 501.966 166.562 498.689 176.269C512.065 192.231 520 212.125 520 233.694C520 285.089 474.942 326.972 418.587 328.824C401.219 357.746 368.255 377.269 330.448 377.269C296.497 377.269 266.451 361.525 248.098 337.368C228.091 352.09 201.858 361.017 173.135 361.017C118.995 361.017 73.6981 329.301 62.2755 286.839C25.7056 274.108 0 243.968 0 208.815C0 183.702 13.1197 161.147 33.9476 145.67Z" fill="white"/>
<path d="M387.26 344.083C383.485 350.879 385.65 357.16 392.42 361.098C399.164 365.037 407.645 364.959 411.42 358.164C415.195 351.368 412.704 340.788 405.934 336.85C399.189 332.911 391.035 337.313 387.26 344.083Z" fill="white" stroke="#FBF8D3" stroke-width="3.57365" stroke-miterlimit="10"/>
<path d="M388.493 369.334C384.667 370.93 383.56 374.354 385.146 378.344C386.731 382.308 390.38 385.165 394.206 383.544C398.031 381.948 400.396 376.568 398.811 372.603C397.225 368.639 392.318 367.738 388.493 369.334Z" fill="white" stroke="#FBF8D3" stroke-width="3.57365" stroke-miterlimit="10"/>
<path d="M453.299 395.979C441.344 398.733 439.155 400.972 436.462 413.2C433.769 400.972 431.58 398.733 419.626 395.979C431.58 393.224 433.769 390.985 436.462 378.758C439.155 390.985 441.344 393.224 453.299 395.979Z" fill="#E7B400"/>
<path d="M65.1618 138.751H208.385C209.945 138.751 211.203 140.038 211.203 141.634V237.032C211.203 238.628 209.945 239.915 208.385 239.915H65.1618C63.6014 239.915 62.3431 238.628 62.3431 237.032V141.634C62.3431 140.038 63.6014 138.751 65.1618 138.751Z" fill="#65A6DE"/>
<path d="M208.384 139.262C209.667 139.262 210.724 140.343 210.724 141.656V237.054C210.724 238.367 209.667 239.448 208.384 239.448H65.1607C63.8772 239.448 62.8202 238.367 62.8202 237.054V141.656C62.8202 140.343 63.8772 139.262 65.1607 139.262H208.384ZM208.384 138.258H65.1607C63.3487 138.258 61.8639 139.777 61.8639 141.63V237.028C61.8639 238.882 63.3487 240.4 65.1607 240.4H208.384C210.196 240.4 211.681 238.882 211.681 237.028V141.63C211.681 139.777 210.196 138.258 208.384 138.258Z" fill="#65A6DE"/>
<mask id="mask0_3452_7532" style="mask-type:luminance" maskUnits="userSpaceOnUse" x="62" y="139" width="149" height="102">
<path d="M208.387 139.263H65.1637C63.871 139.263 62.8232 140.335 62.8232 141.657V238.291C62.8232 239.613 63.871 240.685 65.1637 240.685H208.387C209.679 240.685 210.727 239.613 210.727 238.291V141.657C210.727 140.335 209.679 139.263 208.387 139.263Z" fill="white"/>
</mask>
<g mask="url(#mask0_3452_7532)">
<path d="M180.326 263.543C183.648 258.781 189.512 252.114 197.012 245.807C201.164 242.332 188.053 240.942 178.212 255.1C163.238 276.645 157.45 234.79 137.971 217.955C127.703 209.074 147.786 177.566 147.132 161.658C146.175 138.594 140.387 158.698 136.134 170.436C117.184 187.76 121.864 209.589 87.7386 207.658C79.031 207.169 74.0732 202.304 71.1287 195.611" stroke="white" stroke-width="2.59216" stroke-linecap="square" stroke-linejoin="round"/>
<path d="M70.1973 193.32C70.0463 192.909 69.9205 192.497 69.7695 192.059C69.4423 192.188 69.0145 192.291 68.5111 192.368" stroke="white" stroke-width="2.59216" stroke-linecap="square" stroke-linejoin="round"/>
<path d="M63.8571 192.599C53.3627 192.548 34.5632 190.179 37.2812 192.393C39.3952 192.445 53.0103 193.191 48.883 197.413C37.5077 204.492 19.7904 192.187 33.1287 192.059C36.8534 190.9 28.4981 189.433 23.0621 188.094" stroke="white" stroke-width="2.59216" stroke-linecap="square" stroke-linejoin="round"/>
</g>
<path d="M166.86 148.864C166.407 148.864 165.904 148.786 165.325 148.658C164.595 148.452 163.966 148.168 163.437 147.808C162.833 147.422 162.254 146.933 161.751 146.367C161.65 146.238 161.55 146.135 161.449 146.006C161.348 146.135 161.248 146.264 161.147 146.367C160.644 146.933 160.065 147.422 159.461 147.808C158.907 148.168 158.278 148.452 157.573 148.658C156.969 148.812 156.491 148.889 156.013 148.889C155.862 148.889 155.711 148.889 155.585 148.889C155.51 148.889 155.384 148.709 155.359 148.632C155.359 148.555 155.434 148.452 155.51 148.426C156.089 148.22 156.667 147.988 157.196 147.679C157.75 147.37 158.278 147.01 158.756 146.624C159.788 145.774 160.644 144.693 161.223 143.509C161.248 143.458 161.499 143.406 161.575 143.406C162.305 144.668 163.135 145.749 164.167 146.598C164.645 146.984 165.174 147.345 165.727 147.654C166.281 147.963 166.835 148.194 167.414 148.4C167.489 148.426 167.59 148.529 167.565 148.606C167.565 148.683 167.464 148.838 167.414 148.838C167.212 148.838 167.061 148.864 166.91 148.864H166.86Z" fill="white"/>
<path d="M161.525 143.534C162.129 144.796 163.01 145.877 164.017 146.7C164.52 147.112 165.049 147.473 165.602 147.782C166.156 148.09 166.735 148.348 167.314 148.554H167.364V148.683H167.314C167.163 148.683 167.037 148.708 166.886 148.708C166.383 148.708 165.879 148.631 165.376 148.502C164.747 148.322 164.118 148.065 163.514 147.679C162.91 147.318 162.356 146.829 161.853 146.263C161.702 146.108 161.576 145.928 161.425 145.748C161.299 145.928 161.148 146.108 160.997 146.263C160.494 146.829 159.94 147.292 159.336 147.679C158.757 148.065 158.103 148.322 157.474 148.502C156.97 148.631 156.467 148.708 155.964 148.708C155.813 148.708 155.687 148.708 155.536 148.708H155.485V148.58H155.536C156.115 148.348 156.693 148.116 157.247 147.807C157.801 147.498 158.329 147.138 158.833 146.726C159.839 145.902 160.72 144.821 161.324 143.56H161.525M161.525 143.225H161.324C161.324 143.225 161.098 143.303 161.022 143.405C160.468 144.564 159.638 145.619 158.606 146.469C158.128 146.855 157.625 147.215 157.071 147.498C156.542 147.782 155.989 148.039 155.41 148.245C155.259 148.296 155.108 148.477 155.133 148.657V148.76C155.183 148.888 155.309 149.017 155.435 149.017C155.662 149.017 155.813 149.043 155.964 149.043C156.442 149.043 156.945 148.966 157.549 148.811C158.304 148.58 158.933 148.296 159.487 147.936C160.116 147.55 160.695 147.061 161.223 146.469C161.274 146.391 161.349 146.34 161.4 146.263C161.45 146.34 161.525 146.417 161.576 146.469C162.104 147.061 162.683 147.55 163.312 147.936C163.866 148.296 164.495 148.58 165.25 148.811C165.879 148.966 166.357 149.043 166.836 149.043C166.987 149.043 167.138 149.043 167.314 149.043C167.465 149.043 167.641 148.914 167.666 148.785V148.683C167.716 148.528 167.641 148.348 167.465 148.296C166.836 148.09 166.282 147.833 165.753 147.55C165.2 147.241 164.671 146.906 164.218 146.52C163.212 145.671 162.356 144.615 161.802 143.457C161.752 143.354 161.626 143.277 161.5 143.277L161.525 143.225Z" fill="white"/>
<path d="M177.33 157.642C176.877 157.642 176.374 157.565 175.795 157.436C175.065 157.204 174.436 156.947 173.907 156.587C173.303 156.201 172.725 155.711 172.221 155.145C172.121 155.042 172.02 154.913 171.919 154.785C171.819 154.913 171.718 155.042 171.617 155.145C171.114 155.711 170.535 156.201 169.931 156.587C169.377 156.947 168.773 157.23 168.044 157.436C167.44 157.591 166.961 157.668 166.483 157.668C166.332 157.668 166.181 157.668 166.055 157.668C165.98 157.668 165.854 157.488 165.829 157.41C165.829 157.333 165.904 157.23 166.005 157.204C166.584 156.998 167.138 156.767 167.691 156.458C168.27 156.149 168.773 155.789 169.252 155.402C170.283 154.553 171.139 153.472 171.718 152.288C171.743 152.236 171.995 152.185 172.07 152.185C172.775 153.446 173.631 154.527 174.662 155.377C175.141 155.763 175.669 156.123 176.223 156.432C176.776 156.741 177.33 156.998 177.909 157.179C177.984 157.204 178.085 157.307 178.06 157.385C178.06 157.462 177.959 157.616 177.884 157.642C177.682 157.642 177.531 157.668 177.38 157.668L177.33 157.642Z" fill="white"/>
<path d="M171.992 152.312C172.596 153.573 173.477 154.654 174.484 155.478C174.987 155.89 175.515 156.25 176.069 156.559C176.623 156.868 177.202 157.126 177.78 157.331H177.831V157.46H177.78C177.629 157.46 177.504 157.486 177.353 157.486C176.849 157.486 176.346 157.409 175.843 157.28C175.213 157.1 174.584 156.842 173.98 156.456C173.376 156.096 172.823 155.607 172.319 155.04C172.168 154.886 172.042 154.706 171.891 154.526C171.766 154.706 171.615 154.886 171.464 155.04C170.96 155.607 170.407 156.07 169.803 156.456C169.224 156.842 168.569 157.1 167.94 157.28C167.437 157.409 166.934 157.486 166.43 157.486C166.279 157.486 166.153 157.486 166.002 157.486H165.952V157.357H166.002C166.581 157.126 167.16 156.894 167.714 156.585C168.267 156.276 168.796 155.916 169.299 155.504C170.306 154.68 171.187 153.599 171.791 152.338H171.992M171.992 152.003H171.791C171.791 152.003 171.564 152.08 171.489 152.183C170.935 153.342 170.105 154.397 169.073 155.246C168.595 155.633 168.091 155.993 167.538 156.276C167.009 156.559 166.455 156.817 165.877 157.023C165.726 157.074 165.575 157.254 165.6 157.434V157.537C165.65 157.666 165.776 157.795 165.902 157.795C166.128 157.795 166.279 157.821 166.43 157.821C166.908 157.821 167.412 157.743 168.016 157.589C168.771 157.357 169.4 157.074 169.954 156.714C170.583 156.328 171.162 155.838 171.69 155.246C171.74 155.169 171.816 155.118 171.866 155.04C171.917 155.118 171.992 155.195 172.042 155.246C172.571 155.838 173.15 156.328 173.779 156.714C174.333 157.074 174.962 157.357 175.717 157.589C176.346 157.743 176.824 157.821 177.302 157.821C177.453 157.821 177.604 157.821 177.78 157.821C177.931 157.821 178.082 157.692 178.133 157.563V157.46C178.183 157.306 178.108 157.125 177.931 157.074C177.302 156.868 176.749 156.611 176.22 156.328C175.666 156.019 175.138 155.684 174.685 155.298C173.678 154.448 172.823 153.393 172.269 152.235C172.219 152.132 172.093 152.054 171.967 152.054L171.992 152.003Z" fill="white"/>
<path d="M198.444 214.147C197.991 214.147 197.513 214.07 196.909 213.941C196.179 213.736 195.575 213.452 195.021 213.092C194.417 212.706 193.864 212.242 193.335 211.65C193.235 211.547 193.134 211.419 193.033 211.29C192.933 211.419 192.832 211.547 192.731 211.65C192.203 212.217 191.649 212.706 191.045 213.092C190.491 213.452 189.862 213.736 189.158 213.941C188.554 214.096 188.076 214.173 187.597 214.173C187.446 214.173 187.295 214.173 187.144 214.173C187.069 214.173 186.943 213.993 186.918 213.916C186.918 213.838 186.993 213.735 187.069 213.71C187.648 213.504 188.201 213.272 188.755 212.963C189.309 212.654 189.837 212.294 190.315 211.908C191.347 211.058 192.203 209.977 192.782 208.793C192.807 208.742 193.058 208.69 193.134 208.69C193.839 209.952 194.694 211.033 195.726 211.908C196.204 212.294 196.733 212.654 197.286 212.963C197.84 213.272 198.394 213.504 198.973 213.71C199.048 213.735 199.149 213.838 199.124 213.916C199.124 213.993 199.023 214.147 198.947 214.147C198.746 214.147 198.595 214.173 198.444 214.173V214.147Z" fill="white"/>
<path d="M193.133 208.818C193.737 210.079 194.618 211.161 195.625 211.984C196.128 212.396 196.657 212.757 197.21 213.065C197.764 213.374 198.343 213.632 198.922 213.838H198.972V213.966H198.922C198.771 213.966 198.645 213.992 198.494 213.992C197.991 213.992 197.487 213.915 196.984 213.786C196.355 213.606 195.726 213.349 195.122 212.963C194.518 212.602 193.964 212.113 193.461 211.547C193.31 211.392 193.184 211.212 193.033 211.032C192.907 211.212 192.756 211.392 192.605 211.547C192.102 212.113 191.548 212.576 190.944 212.963C190.365 213.349 189.711 213.606 189.082 213.786C188.578 213.915 188.075 213.992 187.572 213.992C187.421 213.992 187.295 213.992 187.144 213.992H187.094V213.864H187.144C187.723 213.632 188.302 213.4 188.855 213.091C189.409 212.782 189.937 212.422 190.441 212.01C191.447 211.186 192.328 210.105 192.932 208.844H193.133M193.133 208.509H192.932C192.932 208.509 192.706 208.587 192.63 208.689C192.077 209.848 191.246 210.903 190.214 211.753C189.736 212.139 189.233 212.499 188.679 212.782C188.15 213.066 187.597 213.323 187.018 213.529C186.867 213.58 186.716 213.761 186.741 213.941V214.044C186.792 214.172 186.917 214.301 187.043 214.301C187.27 214.301 187.421 214.327 187.572 214.327C188.05 214.327 188.553 214.25 189.157 214.095C189.912 213.864 190.541 213.58 191.095 213.22C191.724 212.834 192.303 212.345 192.832 211.753C192.882 211.676 192.957 211.624 193.008 211.547C193.058 211.624 193.134 211.701 193.184 211.753C193.712 212.345 194.291 212.834 194.92 213.22C195.474 213.58 196.103 213.864 196.858 214.095C197.487 214.25 197.965 214.327 198.444 214.327C198.595 214.327 198.746 214.327 198.922 214.327C199.073 214.327 199.224 214.198 199.274 214.069V213.966C199.324 213.812 199.249 213.632 199.073 213.58C198.444 213.374 197.89 213.117 197.361 212.834C196.808 212.525 196.279 212.19 195.826 211.804C194.82 210.955 193.964 209.899 193.41 208.741C193.36 208.638 193.234 208.561 193.108 208.561L193.133 208.509Z" fill="white"/>
<path d="M198.847 151.825C198.394 151.825 197.89 151.748 197.311 151.619C196.582 151.387 195.952 151.13 195.424 150.769C194.82 150.383 194.241 149.894 193.738 149.328C193.637 149.225 193.536 149.096 193.436 148.968C193.335 149.096 193.234 149.225 193.134 149.328C192.63 149.894 192.052 150.383 191.448 150.769C190.894 151.13 190.265 151.387 189.56 151.619C188.956 151.773 188.478 151.851 188 151.851C187.849 151.851 187.698 151.851 187.572 151.851C187.496 151.851 187.371 151.67 187.345 151.593C187.345 151.516 187.421 151.413 187.496 151.387C188.075 151.181 188.629 150.95 189.183 150.641C189.736 150.332 190.265 149.971 190.743 149.585C191.775 148.736 192.63 147.655 193.209 146.471C193.234 146.419 193.486 146.368 193.562 146.368C194.291 147.629 195.122 148.71 196.154 149.56C196.632 149.946 197.16 150.306 197.714 150.615C198.268 150.924 198.821 151.181 199.4 151.361C199.476 151.387 199.576 151.49 199.551 151.567C199.551 151.645 199.451 151.799 199.375 151.799C199.174 151.799 199.023 151.825 198.872 151.825H198.847Z" fill="white"/>
<path d="M193.512 146.496C194.116 147.757 194.997 148.838 196.004 149.662C196.507 150.074 197.035 150.434 197.589 150.743C198.143 151.052 198.722 151.309 199.3 151.515H199.351V151.644H199.3C199.149 151.644 199.024 151.67 198.873 151.67C198.369 151.67 197.866 151.592 197.363 151.464C196.733 151.284 196.104 151.026 195.5 150.64C194.896 150.28 194.343 149.791 193.839 149.224C193.688 149.07 193.562 148.89 193.411 148.709C193.286 148.89 193.135 149.07 192.984 149.224C192.48 149.791 191.927 150.254 191.323 150.64C190.744 151.026 190.089 151.284 189.46 151.464C188.957 151.592 188.454 151.67 187.95 151.67C187.799 151.67 187.673 151.67 187.522 151.67H187.472V151.541H187.522C188.101 151.309 188.68 151.078 189.234 150.769C189.787 150.46 190.316 150.099 190.819 149.688C191.826 148.864 192.707 147.783 193.311 146.521H193.512M193.512 146.187H193.311C193.311 146.187 193.084 146.264 193.009 146.367C192.455 147.525 191.625 148.581 190.593 149.43C190.115 149.816 189.611 150.177 189.058 150.46C188.529 150.743 187.975 151 187.397 151.206C187.246 151.258 187.095 151.438 187.12 151.618V151.721C187.17 151.85 187.296 151.979 187.422 151.979C187.648 151.979 187.799 152.004 187.95 152.004C188.428 152.004 188.932 151.927 189.536 151.773C190.291 151.541 190.92 151.258 191.474 150.897C192.103 150.511 192.682 149.996 193.21 149.43C193.26 149.353 193.336 149.301 193.386 149.224C193.437 149.301 193.512 149.379 193.562 149.43C194.091 150.022 194.67 150.511 195.299 150.897C195.853 151.258 196.482 151.541 197.237 151.773C197.866 151.927 198.344 152.004 198.822 152.004C198.973 152.004 199.124 152.004 199.3 152.004C199.451 152.004 199.628 151.876 199.653 151.747V151.644C199.703 151.489 199.628 151.309 199.451 151.258C198.822 151.052 198.269 150.794 197.74 150.511C197.186 150.202 196.658 149.868 196.205 149.482C195.198 148.632 194.343 147.577 193.789 146.418C193.739 146.315 193.613 146.238 193.487 146.238L193.512 146.187Z" fill="white"/>
<path d="M194.594 118.078C193.939 118.078 193.209 117.975 192.354 117.769C191.297 117.46 190.391 117.049 189.585 116.534C188.705 115.967 187.874 115.272 187.119 114.423C186.968 114.243 186.817 114.063 186.666 113.882C186.515 114.063 186.364 114.243 186.213 114.423C185.458 115.247 184.628 115.967 183.747 116.534C182.941 117.049 182.035 117.46 180.978 117.769C180.098 118.001 179.393 118.104 178.713 118.104C178.512 118.104 178.286 118.104 178.059 118.078C177.958 118.078 177.782 117.975 177.757 117.872C177.732 117.744 177.757 117.46 177.883 117.435C178.839 117.1 179.645 116.74 180.425 116.302C181.23 115.864 182.01 115.324 182.715 114.758C184.225 113.496 185.483 111.926 186.289 110.227L186.792 110.098C187.849 111.952 189.082 113.522 190.592 114.783C191.297 115.35 192.052 115.89 192.882 116.328C193.662 116.765 194.493 117.126 195.349 117.435C195.449 117.486 195.6 117.615 195.575 117.744C195.575 117.847 195.449 118.078 195.323 118.104C195.021 118.13 194.795 118.155 194.568 118.155L194.594 118.078Z" fill="#65A6DE"/>
<path d="M186.817 110.307C187.723 112.16 189.006 113.731 190.466 114.941C191.196 115.558 191.976 116.073 192.781 116.511C193.587 116.974 194.417 117.335 195.273 117.618H195.348L195.323 117.798H195.222C195.021 117.824 194.795 117.849 194.593 117.849C193.863 117.849 193.134 117.721 192.404 117.54C191.473 117.257 190.567 116.897 189.686 116.331C188.83 115.79 188 115.095 187.27 114.271C187.043 114.04 186.842 113.782 186.641 113.499C186.439 113.756 186.238 114.014 186.011 114.246C185.282 115.069 184.451 115.764 183.595 116.305C182.74 116.845 181.809 117.232 180.903 117.515C180.173 117.695 179.443 117.824 178.713 117.824C178.512 117.824 178.31 117.824 178.084 117.798H177.983L177.958 117.618H178.034C178.889 117.309 179.72 116.923 180.525 116.485C181.33 116.047 182.111 115.533 182.84 114.915C184.3 113.705 185.584 112.16 186.49 110.281H186.792M186.792 109.792H186.49C186.313 109.792 186.137 109.895 186.062 110.05C185.256 111.749 184.023 113.293 182.538 114.503C181.859 115.069 181.104 115.584 180.299 116.022C179.518 116.459 178.713 116.82 177.883 117.103C177.656 117.18 177.43 117.463 177.48 117.695V117.849C177.555 118.055 177.732 118.21 177.933 118.235C178.235 118.261 178.461 118.287 178.688 118.287C179.393 118.287 180.122 118.184 181.003 117.952C182.085 117.618 183.017 117.206 183.847 116.691C184.753 116.125 185.609 115.404 186.364 114.554C186.464 114.451 186.54 114.349 186.641 114.246C186.741 114.349 186.817 114.451 186.917 114.554C187.698 115.404 188.553 116.15 189.434 116.717C190.239 117.232 191.171 117.643 192.253 117.978C193.159 118.21 193.889 118.313 194.568 118.313C194.795 118.313 195.021 118.313 195.248 118.287C195.449 118.287 195.701 118.107 195.751 117.901V117.746C195.826 117.515 195.701 117.257 195.474 117.18C194.543 116.871 193.738 116.511 192.983 116.073C192.177 115.636 191.422 115.121 190.743 114.554C189.258 113.319 188.025 111.774 187.219 110.101C187.144 109.947 186.968 109.844 186.792 109.844V109.792Z" fill="#65A6DE"/>
<path d="M213.846 205.163C213.393 205.163 212.889 205.085 212.31 204.957C211.581 204.751 210.951 204.467 210.423 204.107C209.819 203.721 209.24 203.258 208.737 202.666C208.636 202.563 208.535 202.434 208.435 202.305C208.334 202.434 208.233 202.563 208.133 202.666C207.604 203.232 207.051 203.721 206.447 204.107C205.893 204.467 205.289 204.725 204.559 204.957C203.955 205.111 203.477 205.188 202.999 205.188C202.848 205.188 202.697 205.188 202.546 205.188C202.47 205.188 202.344 205.008 202.319 204.931C202.319 204.854 202.395 204.751 202.47 204.725C203.049 204.519 203.603 204.287 204.156 203.978C204.71 203.669 205.239 203.309 205.717 202.923C206.749 202.074 207.604 200.992 208.183 199.808C208.208 199.757 208.46 199.705 208.535 199.705C209.265 200.967 210.096 202.048 211.128 202.897C211.606 203.283 212.134 203.644 212.688 203.953C213.242 204.262 213.795 204.519 214.374 204.699C214.45 204.725 214.55 204.828 214.525 204.905C214.525 204.982 214.424 205.137 214.374 205.137C214.173 205.137 214.022 205.163 213.871 205.163H213.846Z" fill="white"/>
<path d="M208.512 199.809C209.116 201.07 209.997 202.151 211.003 202.975C211.507 203.387 212.035 203.747 212.589 204.056C213.142 204.365 213.721 204.623 214.3 204.829H214.35V204.957H214.3C214.149 204.957 214.023 204.983 213.872 204.983C213.369 204.983 212.866 204.906 212.362 204.777C211.733 204.597 211.104 204.339 210.5 203.953C209.896 203.593 209.342 203.104 208.839 202.537C208.688 202.383 208.562 202.203 208.411 202.023C208.285 202.203 208.134 202.383 207.983 202.537C207.48 203.104 206.926 203.567 206.322 203.953C205.744 204.339 205.089 204.597 204.46 204.777C203.957 204.906 203.453 204.983 202.95 204.983C202.799 204.983 202.673 204.983 202.522 204.983H202.472V204.854H202.522C203.101 204.623 203.68 204.391 204.234 204.082C204.787 203.773 205.316 203.413 205.819 203.001C206.826 202.177 207.706 201.096 208.31 199.835H208.512M208.512 199.5H208.31C208.31 199.5 208.084 199.577 208.008 199.68C207.455 200.839 206.624 201.894 205.592 202.743C205.114 203.13 204.611 203.49 204.057 203.773C203.529 204.056 202.975 204.314 202.396 204.52C202.245 204.571 202.094 204.751 202.12 204.931V205.034C202.17 205.163 202.296 205.292 202.422 205.292C202.648 205.292 202.799 205.318 202.95 205.318C203.428 205.318 203.931 205.24 204.535 205.086C205.29 204.854 205.92 204.571 206.473 204.211C207.102 203.825 207.681 203.336 208.21 202.743C208.26 202.666 208.336 202.615 208.386 202.537C208.436 202.615 208.512 202.692 208.562 202.743C209.091 203.336 209.669 203.825 210.299 204.211C210.852 204.571 211.481 204.854 212.236 205.086C212.866 205.24 213.344 205.318 213.822 205.318C213.973 205.318 214.124 205.318 214.3 205.318C214.451 205.318 214.602 205.189 214.652 205.06V204.957C214.703 204.803 214.627 204.623 214.451 204.571C213.822 204.365 213.268 204.108 212.74 203.825C212.186 203.516 211.658 203.181 211.205 202.795C210.198 201.945 209.342 200.89 208.789 199.732C208.738 199.629 208.612 199.551 208.487 199.551L208.512 199.5Z" fill="white"/>
<path d="M166.86 128.939C166.407 128.939 165.904 128.862 165.325 128.733C164.595 128.528 163.966 128.244 163.437 127.884C162.833 127.498 162.254 127.009 161.751 126.442C161.65 126.314 161.55 126.211 161.449 126.082C161.348 126.211 161.248 126.339 161.147 126.442C160.619 127.009 160.065 127.498 159.461 127.884C158.907 128.244 158.278 128.528 157.573 128.733C156.969 128.888 156.491 128.965 156.013 128.965C155.862 128.965 155.711 128.965 155.585 128.965C155.51 128.965 155.384 128.785 155.359 128.708C155.359 128.63 155.434 128.528 155.51 128.502C156.089 128.296 156.667 128.064 157.196 127.755C157.75 127.446 158.278 127.086 158.756 126.7C159.788 125.85 160.644 124.769 161.223 123.585C161.248 123.534 161.499 123.482 161.575 123.482C162.305 124.744 163.135 125.825 164.167 126.674C164.645 127.06 165.174 127.421 165.727 127.73C166.281 128.038 166.835 128.27 167.414 128.476C167.489 128.502 167.59 128.605 167.565 128.682C167.565 128.759 167.464 128.914 167.414 128.914C167.212 128.914 167.061 128.939 166.91 128.939H166.86Z" fill="#65A6DE"/>
<path d="M161.525 123.615C162.129 124.876 163.01 125.957 164.017 126.781C164.52 127.193 165.049 127.553 165.602 127.862C166.156 128.171 166.735 128.428 167.314 128.634H167.364V128.763H167.314C167.163 128.763 167.037 128.789 166.886 128.789C166.383 128.789 165.879 128.711 165.376 128.583C164.747 128.403 164.118 128.145 163.514 127.759C162.91 127.399 162.356 126.91 161.853 126.343C161.702 126.189 161.576 126.009 161.425 125.828C161.299 126.009 161.148 126.189 160.997 126.343C160.494 126.91 159.94 127.373 159.336 127.759C158.757 128.145 158.103 128.403 157.474 128.583C156.97 128.711 156.467 128.789 155.964 128.789C155.813 128.789 155.687 128.789 155.536 128.789H155.485V128.66H155.536C156.115 128.428 156.693 128.197 157.247 127.888C157.801 127.579 158.329 127.218 158.833 126.807C159.839 125.983 160.72 124.902 161.324 123.64H161.525M161.525 123.306H161.324C161.324 123.306 161.098 123.383 161.022 123.486C160.468 124.644 159.638 125.7 158.606 126.549C158.128 126.935 157.625 127.296 157.071 127.579C156.542 127.862 155.989 128.119 155.41 128.325C155.259 128.377 155.108 128.557 155.133 128.737V128.84C155.183 128.969 155.309 129.097 155.435 129.097C155.662 129.097 155.813 129.123 155.964 129.123C156.442 129.123 156.945 129.046 157.549 128.892C158.304 128.66 158.933 128.377 159.487 128.016C160.116 127.63 160.695 127.141 161.223 126.549C161.274 126.472 161.349 126.42 161.4 126.343C161.45 126.42 161.525 126.498 161.576 126.549C162.104 127.141 162.683 127.63 163.312 128.016C163.866 128.377 164.495 128.66 165.25 128.892C165.879 129.046 166.357 129.123 166.836 129.123C166.987 129.123 167.138 129.123 167.314 129.123C167.465 129.123 167.641 128.995 167.666 128.866V128.763C167.716 128.608 167.641 128.428 167.465 128.377C166.836 128.171 166.282 127.913 165.753 127.63C165.2 127.321 164.671 126.987 164.218 126.601C163.212 125.751 162.356 124.696 161.802 123.537C161.752 123.434 161.626 123.357 161.5 123.357L161.525 123.306Z" fill="#65A6DE"/>
<path d="M141.493 267.534C140.914 267.534 140.31 267.456 139.58 267.25C138.674 266.967 137.894 266.633 137.214 266.195C136.459 265.732 135.755 265.114 135.1 264.393C134.975 264.239 134.849 264.084 134.723 263.93C134.597 264.084 134.471 264.239 134.345 264.393C133.716 265.114 132.986 265.706 132.231 266.195C131.552 266.633 130.772 266.993 129.866 267.25C129.111 267.431 128.507 267.534 127.928 267.534C127.752 267.534 127.55 267.534 127.374 267.508C127.274 267.508 127.148 267.431 127.123 267.353C127.123 267.25 127.123 266.993 127.223 266.967C128.029 266.684 128.733 266.375 129.388 265.989C130.092 265.603 130.747 265.165 131.351 264.676C132.634 263.621 133.716 262.257 134.421 260.789C134.446 260.712 134.773 260.686 134.849 260.686C135.755 262.282 136.812 263.621 138.095 264.702C138.699 265.191 139.354 265.654 140.058 266.015C140.713 266.401 141.442 266.71 142.172 266.967C142.273 266.993 142.399 267.122 142.374 267.225C142.374 267.302 142.248 267.534 142.172 267.534C141.921 267.559 141.719 267.559 141.543 267.559L141.493 267.534Z" fill="#65A6DE"/>
<path d="M134.822 260.867C135.602 262.463 136.684 263.802 137.943 264.831C138.572 265.346 139.226 265.784 139.931 266.17C140.61 266.556 141.34 266.865 142.07 267.122H142.146L142.12 267.277H142.045C141.869 267.303 141.693 267.303 141.516 267.303C140.887 267.303 140.258 267.2 139.654 267.045C138.874 266.814 138.069 266.479 137.339 266.016C136.584 265.552 135.904 264.96 135.25 264.239C135.074 264.033 134.898 263.828 134.721 263.596C134.545 263.828 134.369 264.033 134.193 264.239C133.564 264.934 132.859 265.552 132.104 266.016C131.374 266.479 130.569 266.814 129.789 267.045C129.16 267.2 128.53 267.303 127.901 267.303C127.725 267.303 127.549 267.303 127.373 267.277H127.297L127.272 267.122H127.348C128.077 266.839 128.807 266.53 129.487 266.144C130.166 265.758 130.846 265.321 131.475 264.806C132.733 263.776 133.841 262.438 134.596 260.842H134.847M134.847 260.43H134.596C134.445 260.43 134.294 260.507 134.243 260.661C133.539 262.103 132.507 263.441 131.223 264.471C130.644 264.96 129.99 265.398 129.311 265.758C128.656 266.118 127.952 266.427 127.247 266.685C127.046 266.762 126.869 266.994 126.92 267.2V267.328C126.995 267.509 127.121 267.637 127.297 267.663C127.574 267.689 127.75 267.689 127.952 267.689C128.556 267.689 129.185 267.612 129.94 267.406C130.871 267.122 131.676 266.762 132.381 266.324C133.161 265.835 133.891 265.218 134.545 264.497C134.621 264.42 134.696 264.317 134.772 264.239C134.847 264.342 134.923 264.42 134.998 264.523C135.653 265.269 136.382 265.887 137.163 266.376C137.867 266.814 138.647 267.174 139.579 267.457C140.359 267.663 140.988 267.74 141.567 267.74C141.768 267.74 141.944 267.74 142.146 267.714C142.322 267.714 142.548 267.56 142.573 267.38V267.251C142.649 267.045 142.523 266.839 142.347 266.762C141.567 266.479 140.862 266.17 140.208 265.81C139.528 265.424 138.874 264.986 138.27 264.497C136.986 263.441 135.955 262.129 135.25 260.687C135.174 260.558 135.049 260.455 134.898 260.455L134.847 260.43Z" fill="#65A6DE"/>
<path d="M128.959 255.461C128.38 255.461 127.776 255.384 127.046 255.178C126.14 254.895 125.36 254.56 124.68 254.123C123.925 253.659 123.221 253.041 122.566 252.321C122.44 252.166 122.315 252.012 122.189 251.857C122.063 252.012 121.937 252.166 121.811 252.321C121.182 253.041 120.452 253.634 119.697 254.123C119.018 254.56 118.238 254.895 117.332 255.178C116.577 255.358 115.973 255.461 115.394 255.461C115.218 255.461 115.016 255.461 114.84 255.435C114.739 255.435 114.614 255.358 114.588 255.281C114.588 255.178 114.588 254.921 114.689 254.895C115.494 254.612 116.199 254.303 116.853 253.942C117.558 253.556 118.212 253.119 118.816 252.63C120.1 251.548 121.182 250.21 121.887 248.743C121.912 248.665 122.239 248.64 122.315 248.64C123.221 250.236 124.278 251.574 125.561 252.655C126.165 253.144 126.819 253.582 127.524 253.968C128.204 254.354 128.908 254.663 129.638 254.921C129.739 254.946 129.865 255.075 129.839 255.178C129.839 255.255 129.714 255.487 129.638 255.487C129.386 255.513 129.185 255.513 129.009 255.513L128.959 255.461Z" fill="#65A6DE"/>
<path d="M122.316 248.791C123.096 250.387 124.178 251.726 125.436 252.755C126.066 253.27 126.72 253.708 127.425 254.094C128.104 254.48 128.834 254.789 129.564 255.046H129.639L129.614 255.201H129.539C129.362 255.226 129.186 255.226 129.01 255.226C128.381 255.226 127.752 255.123 127.148 254.969C126.368 254.737 125.562 254.403 124.832 253.939C124.077 253.476 123.398 252.884 122.744 252.163C122.567 251.957 122.391 251.726 122.215 251.52C122.039 251.751 121.863 251.957 121.687 252.163C121.057 252.858 120.353 253.476 119.598 253.939C118.868 254.403 118.063 254.737 117.282 254.969C116.653 255.123 116.024 255.226 115.395 255.226C115.219 255.226 115.043 255.226 114.866 255.201H114.791L114.766 255.046H114.841C115.571 254.763 116.301 254.454 116.981 254.068C117.66 253.682 118.339 253.244 118.969 252.73C120.227 251.7 121.334 250.361 122.089 248.765H122.341M122.341 248.354H122.089C121.938 248.354 121.787 248.431 121.737 248.585C121.032 250.027 120 251.365 118.717 252.395C118.138 252.884 117.484 253.322 116.804 253.682C116.15 254.042 115.445 254.351 114.741 254.609C114.539 254.686 114.363 254.918 114.414 255.124V255.252C114.489 255.432 114.615 255.561 114.791 255.587C115.068 255.613 115.244 255.613 115.445 255.613C116.049 255.613 116.678 255.535 117.433 255.329C118.365 255.046 119.17 254.686 119.875 254.248C120.655 253.759 121.385 253.141 122.039 252.421C122.114 252.343 122.19 252.24 122.265 252.163C122.341 252.266 122.416 252.343 122.492 252.446C123.146 253.193 123.876 253.811 124.656 254.3C125.361 254.737 126.141 255.098 127.072 255.381C127.852 255.587 128.482 255.664 129.06 255.664C129.262 255.664 129.438 255.664 129.639 255.638C129.815 255.638 130.042 255.484 130.067 255.304V255.175C130.143 254.969 130.017 254.763 129.841 254.686C129.06 254.403 128.356 254.094 127.701 253.733C127.022 253.347 126.368 252.91 125.764 252.421C124.48 251.365 123.448 250.052 122.744 248.611C122.668 248.482 122.542 248.379 122.391 248.379L122.341 248.354Z" fill="#65A6DE"/>
<path d="M106.41 263.287C105.931 263.287 105.403 263.21 104.749 263.056C103.968 262.824 103.289 262.515 102.71 262.155C102.056 261.743 101.452 261.228 100.898 260.61C100.797 260.481 100.672 260.353 100.571 260.224C100.47 260.353 100.37 260.481 100.244 260.61C99.6901 261.228 99.0861 261.743 98.4318 262.155C97.853 262.541 97.1735 262.824 96.3933 263.056C95.7641 263.21 95.2356 263.287 94.7323 263.287C94.5813 263.287 94.4052 263.287 94.2542 263.287C94.1787 263.287 94.0528 263.21 94.0276 263.133C94.0276 263.056 94.0277 262.824 94.1283 262.798C94.8078 262.566 95.4118 262.283 95.9906 261.974C96.5946 261.64 97.1483 261.254 97.6768 260.842C98.7842 259.915 99.6901 258.783 100.319 257.521C100.344 257.47 100.621 257.418 100.697 257.418C101.477 258.783 102.383 259.941 103.49 260.842C104.019 261.279 104.572 261.64 105.176 261.974C105.755 262.283 106.359 262.567 106.988 262.772C107.064 262.798 107.19 262.901 107.165 263.004C107.165 263.081 107.064 263.261 106.988 263.261C106.762 263.261 106.611 263.287 106.435 263.287H106.41Z" fill="#65A6DE"/>
<path d="M100.696 257.572C101.351 258.937 102.307 260.069 103.364 260.97C103.893 261.408 104.471 261.794 105.075 262.129C105.654 262.463 106.283 262.721 106.913 262.952H106.963L106.938 263.081H106.862C106.711 263.081 106.56 263.107 106.409 263.107C105.881 263.107 105.327 263.004 104.799 262.875C104.119 262.669 103.44 262.386 102.81 262C102.181 261.588 101.577 261.099 101.024 260.481C100.873 260.301 100.722 260.121 100.571 259.915C100.42 260.095 100.269 260.301 100.118 260.481C99.5639 261.099 98.9599 261.588 98.3308 262C97.7016 262.412 97.0221 262.695 96.3426 262.875C95.8141 263.004 95.2604 263.107 94.7319 263.107C94.5809 263.107 94.43 263.107 94.279 263.107H94.2035L94.1783 262.978H94.2286C94.8578 262.746 95.4618 262.463 96.0658 262.129C96.6698 261.794 97.2235 261.433 97.7771 260.97C98.8593 260.095 99.7904 258.937 100.445 257.572H100.646M100.646 257.212H100.445C100.319 257.212 100.193 257.289 100.143 257.418C99.5388 258.653 98.658 259.786 97.5506 260.687C97.0473 261.099 96.4936 261.485 95.8896 261.794C95.336 262.103 94.7319 262.386 94.1028 262.592C93.9266 262.643 93.7756 262.849 93.8259 263.029V263.158C93.8763 263.313 94.0021 263.416 94.1531 263.441C94.3796 263.441 94.5558 263.467 94.7068 263.467C95.2101 263.467 95.7638 263.39 96.3929 263.235C97.1983 263.004 97.8778 262.695 98.4818 262.309C99.1613 261.897 99.7653 261.356 100.344 260.738C100.42 260.661 100.47 260.584 100.545 260.507C100.621 260.584 100.671 260.661 100.747 260.738C101.326 261.382 101.93 261.897 102.609 262.309C103.213 262.695 103.893 263.004 104.673 263.235C105.327 263.39 105.881 263.467 106.384 263.467C106.56 263.467 106.711 263.467 106.887 263.441C107.038 263.441 107.215 263.313 107.265 263.158V263.029C107.34 262.849 107.24 262.669 107.064 262.618C106.384 262.386 105.78 262.129 105.226 261.794C104.622 261.459 104.069 261.099 103.565 260.687C102.483 259.786 101.577 258.653 100.973 257.418C100.923 257.289 100.797 257.212 100.671 257.212H100.646Z" fill="#65A6DE"/>
<path d="M209.794 128.195C209.341 128.195 208.837 128.118 208.258 127.99C207.529 127.784 206.899 127.501 206.371 127.14C205.767 126.754 205.213 126.291 204.685 125.699C204.584 125.57 204.483 125.467 204.383 125.338C204.282 125.467 204.181 125.596 204.081 125.699C203.552 126.265 202.999 126.754 202.395 127.14C201.841 127.501 201.212 127.784 200.507 127.99C199.903 128.144 199.4 128.221 198.947 128.221C198.796 128.221 198.645 128.221 198.494 128.221C198.418 128.221 198.292 128.041 198.267 127.964C198.267 127.887 198.368 127.784 198.443 127.758C199.022 127.552 199.576 127.32 200.13 127.011C200.683 126.702 201.212 126.342 201.69 125.956C202.722 125.106 203.577 124.025 204.156 122.841C204.181 122.79 204.433 122.738 204.509 122.738C205.213 124 206.069 125.081 207.101 125.93C207.579 126.316 208.107 126.677 208.661 126.986C209.215 127.295 209.768 127.526 210.347 127.732C210.423 127.758 210.523 127.861 210.498 127.938C210.498 128.015 210.398 128.17 210.322 128.17C210.121 128.17 209.97 128.195 209.819 128.195H209.794Z" fill="#65A6DE"/>
<path d="M204.458 122.866C205.062 124.127 205.943 125.208 206.95 126.032C207.453 126.444 207.982 126.804 208.535 127.113C209.089 127.422 209.668 127.68 210.247 127.886H210.297V128.014H210.247C210.096 128.014 209.97 128.04 209.819 128.04C209.316 128.04 208.812 127.963 208.309 127.834C207.68 127.654 207.051 127.396 206.447 127.01C205.843 126.65 205.289 126.161 204.786 125.595C204.635 125.44 204.509 125.26 204.358 125.08C204.232 125.26 204.081 125.44 203.93 125.595C203.427 126.161 202.873 126.624 202.269 127.01C201.69 127.396 201.036 127.654 200.407 127.834C199.903 127.963 199.4 128.04 198.897 128.04C198.746 128.04 198.62 128.04 198.469 128.04H198.419V127.911H198.469C199.048 127.68 199.626 127.448 200.18 127.139C200.734 126.83 201.262 126.47 201.766 126.058C202.772 125.234 203.653 124.153 204.257 122.892H204.458M204.458 122.557H204.257C204.257 122.557 204.031 122.634 203.955 122.737C203.401 123.896 202.571 124.951 201.539 125.8C201.061 126.187 200.558 126.547 200.004 126.83C199.475 127.113 198.922 127.371 198.343 127.577C198.192 127.628 198.041 127.808 198.066 127.989V128.092C198.117 128.22 198.242 128.349 198.368 128.349C198.595 128.349 198.746 128.375 198.897 128.375C199.375 128.375 199.878 128.297 200.482 128.143C201.237 127.911 201.866 127.628 202.42 127.268C203.049 126.882 203.628 126.393 204.156 125.8C204.207 125.723 204.282 125.672 204.333 125.595C204.383 125.672 204.458 125.749 204.509 125.8C205.037 126.393 205.616 126.882 206.245 127.268C206.799 127.628 207.428 127.911 208.183 128.143C208.812 128.297 209.29 128.375 209.769 128.375C209.92 128.375 210.071 128.375 210.247 128.375C210.398 128.375 210.549 128.246 210.599 128.117V128.014C210.649 127.86 210.574 127.68 210.398 127.628C209.769 127.422 209.215 127.165 208.686 126.882C208.133 126.573 207.604 126.238 207.151 125.852C206.145 125.003 205.289 123.947 204.735 122.789C204.685 122.686 204.559 122.609 204.433 122.609L204.458 122.557Z" fill="#65A6DE"/>
<path d="M84.993 163.975C69.3142 163.975 56.58 150.95 56.58 134.913C56.58 118.876 69.3394 105.851 84.993 105.851C100.647 105.851 113.406 118.876 113.406 134.913C113.406 141.76 111.04 148.401 106.712 153.627L110.99 161.426C111.116 161.658 111.091 161.967 110.915 162.173C110.789 162.327 110.613 162.405 110.411 162.405C110.336 162.405 110.26 162.405 110.21 162.379L100.722 159.084C96.0411 162.276 90.6052 163.949 84.9679 163.949L84.993 163.975Z" fill="#E7B400"/>
<path d="M84.9942 106.52C100.321 106.52 112.753 119.236 112.753 134.913C112.753 142.043 110.186 148.556 105.933 153.55L110.438 161.761L100.648 158.363C96.1933 161.478 90.8076 163.306 84.9942 163.306C69.6677 163.306 57.2354 150.589 57.2354 134.913C57.2354 119.236 69.6677 106.52 84.9942 106.52ZM84.9942 105.181C68.9631 105.181 55.9268 118.515 55.9268 134.913C55.9268 151.31 68.9631 164.644 84.9942 164.644C90.6566 164.644 96.1178 162.997 100.824 159.83L110.01 163.022C110.136 163.074 110.287 163.1 110.438 163.1C110.815 163.1 111.193 162.919 111.444 162.611C111.797 162.199 111.847 161.581 111.57 161.118L107.518 153.704C111.746 148.401 114.062 141.76 114.062 134.913C114.062 118.515 101.025 105.181 84.9942 105.181Z" fill="#E7B400"/>
<path d="M100.771 142.557L87.8099 119.57C87.2311 118.54 86.1489 117.896 84.9661 117.896C83.7833 117.896 82.7011 118.54 82.1223 119.57L69.1615 142.557C68.5827 143.587 68.5827 144.874 69.1615 145.903C69.7403 146.933 70.8225 147.576 72.0053 147.576H97.952C99.1097 147.576 100.217 146.933 100.796 145.903C101.375 144.874 101.375 143.587 100.796 142.557H100.771ZM84.9661 143.818C83.8336 143.818 82.9276 142.891 82.9276 141.733C82.9276 140.575 83.8336 139.648 84.9661 139.648C86.0986 139.648 87.0046 140.575 87.0046 141.733C87.0046 142.891 86.0986 143.818 84.9661 143.818ZM86.2244 137.177C86.2244 137.872 85.6708 138.464 84.9661 138.464C84.2615 138.464 83.7078 137.898 83.7078 137.177L82.9276 127.781C82.9276 126.623 83.8336 125.696 84.9661 125.696C86.0986 125.696 87.0046 126.623 87.0046 127.781L86.2244 137.177Z" fill="#095CA8"/>
<path d="M194.142 187.401C194.142 175.122 184.428 165.186 172.423 165.186C160.419 165.186 150.705 175.122 150.705 187.401C150.705 198.367 158.481 207.479 168.724 209.281L172.423 215.691L176.123 209.281C186.341 207.479 194.142 198.367 194.142 187.401Z" fill="#095CA8" stroke="#095CA8" stroke-width="1.30866" stroke-miterlimit="10"/>
<path d="M188.83 192.829L189.031 183.485L180.6 187.114C180.424 186.831 180.223 186.574 179.921 186.393C177.505 184.849 173.428 182.995 168.193 183.33C163.411 183.639 160.165 185.389 158.227 186.908C156.944 187.912 157.195 189.946 158.68 190.615C161.801 192.031 167.086 193.163 170.659 193.009C174.032 192.854 177.555 191.645 179.946 190.074C180.273 189.843 180.525 189.56 180.701 189.225C183.369 190.872 188.88 192.829 188.88 192.829H188.83Z" fill="#E7B400"/>
<path d="M335.015 242.346C335.317 242.963 335.015 243.761 334.411 244.07C333.807 244.379 333.228 243.993 332.926 243.375C332.624 242.758 332.8 242.243 333.404 241.934C334.008 241.625 334.738 241.728 335.015 242.346Z" stroke="#D98B37" stroke-width="1.40933" stroke-miterlimit="10"/>
<path d="M393.605 208.985C393.856 209.551 393.605 210.272 393.051 210.529C392.497 210.787 391.994 210.452 391.717 209.912C391.44 209.371 391.591 208.882 392.145 208.625C392.699 208.367 393.328 208.444 393.605 208.985Z" stroke="#D98B37" stroke-width="1.40933" stroke-miterlimit="10"/>
<path d="M371.632 208.985C371.884 209.551 371.632 210.272 371.079 210.529C370.525 210.787 370.022 210.452 369.745 209.912C369.468 209.371 369.619 208.882 370.173 208.625C370.727 208.367 371.356 208.444 371.632 208.985Z" stroke="#D98B37" stroke-width="1.40933" stroke-miterlimit="10"/>
<path d="M360.331 225.43C360.583 225.996 360.331 226.717 359.778 226.974C359.224 227.232 358.721 226.897 358.444 226.357C358.167 225.816 358.318 225.327 358.872 225.07C359.425 224.812 360.055 224.889 360.331 225.43Z" stroke="#D98B37" stroke-width="1.40933" stroke-miterlimit="10"/>
<path d="M445.95 238.613C446.202 239.179 445.95 239.9 445.397 240.157C444.843 240.415 444.34 240.08 444.063 239.539C443.786 238.999 443.937 238.51 444.491 238.252C445.044 237.995 445.673 238.072 445.95 238.613Z" stroke="#D98B37" stroke-width="1.40933" stroke-miterlimit="10"/>
<path d="M426.445 240.181C426.697 240.747 426.445 241.468 425.891 241.725C425.338 241.983 424.834 241.648 424.558 241.108C424.281 240.567 424.432 240.078 424.985 239.821C425.539 239.563 426.168 239.64 426.445 240.181Z" stroke="#D98B37" stroke-width="1.40933" stroke-miterlimit="10"/>
<path d="M349.108 235.907C349.108 235.907 349.183 236.165 349.209 236.319C349.234 236.474 349.133 236.577 349.108 236.705C349.083 236.834 349.032 236.963 348.932 237.066C348.831 237.169 348.73 237.246 348.605 237.297C348.454 237.375 348.277 237.374 348.126 237.323C347.975 237.272 347.824 237.246 347.699 237.117C347.598 237.014 347.472 236.885 347.397 236.731C347.321 236.577 347.321 236.422 347.321 236.293C347.321 236.139 347.321 235.959 347.397 235.856C347.472 235.753 347.623 235.701 347.774 235.624C347.925 235.547 348.076 235.521 348.252 235.495C348.428 235.495 348.579 235.495 348.73 235.573C348.881 235.65 349.007 235.753 349.108 235.907Z" stroke="#D98B37" stroke-width="1.40933" stroke-miterlimit="10"/>
<path d="M411.471 224.017C411.471 224.017 411.547 224.275 411.572 224.429C411.597 224.584 411.496 224.687 411.471 224.815C411.446 224.944 411.396 225.073 411.295 225.176C411.195 225.279 411.094 225.356 410.968 225.407C410.817 225.485 410.641 225.485 410.49 225.433C410.339 225.382 410.188 225.356 410.062 225.227C409.961 225.124 409.836 224.995 409.76 224.841C409.685 224.687 409.685 224.532 409.685 224.403C409.685 224.249 409.685 224.069 409.76 223.966C409.836 223.863 409.986 223.811 410.137 223.734C410.288 223.657 410.439 223.631 410.616 223.605C410.792 223.605 410.943 223.605 411.094 223.683C411.245 223.76 411.371 223.863 411.471 224.017Z" stroke="#D98B37" stroke-width="1.40933" stroke-miterlimit="10" stroke-linecap="round"/>
<path d="M466.762 232.977C466.762 232.977 466.837 233.234 466.862 233.389C466.888 233.543 466.787 233.646 466.762 233.775C466.737 233.904 466.686 234.032 466.586 234.135C466.485 234.238 466.384 234.315 466.258 234.367C466.107 234.444 465.931 234.444 465.78 234.393C465.629 234.341 465.478 234.315 465.352 234.187C465.252 234.084 465.126 233.955 465.05 233.801C464.975 233.646 464.975 233.492 464.975 233.363C464.975 233.208 464.975 233.028 465.05 232.925C465.126 232.822 465.277 232.771 465.428 232.694C465.579 232.616 465.73 232.591 465.906 232.565C466.082 232.565 466.233 232.565 466.384 232.642C466.535 232.719 466.661 232.822 466.762 232.977Z" stroke="#D98B37" stroke-width="1.40933" stroke-miterlimit="10" stroke-linecap="round"/>
<path d="M483.648 243.505C483.648 243.505 483.724 243.762 483.749 243.916C483.774 244.071 483.674 244.174 483.648 244.303C483.623 244.431 483.573 244.56 483.472 244.663C483.372 244.766 483.271 244.843 483.145 244.895C482.994 244.972 482.818 244.972 482.667 244.92C482.516 244.869 482.365 244.843 482.239 244.714C482.138 244.611 482.013 244.483 481.937 244.328C481.862 244.174 481.862 244.019 481.862 243.891C481.862 243.736 481.862 243.556 481.937 243.453C482.013 243.35 482.164 243.299 482.315 243.221C482.466 243.144 482.617 243.119 482.793 243.093C482.969 243.093 483.12 243.093 483.271 243.17C483.422 243.247 483.548 243.35 483.648 243.505Z" stroke="#D98B37" stroke-width="1.40933" stroke-miterlimit="10" stroke-linecap="round"/>
<path d="M322.102 281.882C322.102 281.882 334.031 258.869 349.257 253.257C362.973 248.186 368.711 223.32 383.609 228.391C398.508 233.462 408.298 265.536 427.777 259.203C451.635 251.455 457.272 275.807 464.797 284.173" stroke="#D98B37" stroke-width="1.40933" stroke-miterlimit="10"/>
<path d="M335.492 276.424C335.492 276.424 358.62 254.904 373.015 255.11C387.41 255.316 387.41 273.412 407.015 271.044C426.62 268.675 439.329 286.875 439.48 297.763" stroke="#D98B37" stroke-width="1.40933" stroke-miterlimit="10"/>
<path d="M333.353 242.011C333.353 242.011 342.212 258.074 344.603 270.816C346.994 283.558 346.188 290.302 346.188 290.302" stroke="#D98B37" stroke-width="1.40933" stroke-miterlimit="10"/>
<path d="M324.268 261.237C324.268 261.237 333.102 263.708 335.492 276.424C337.883 289.141 339.066 295.756 339.066 295.756" stroke="#D98B37" stroke-width="1.40933" stroke-miterlimit="10"/>
<path d="M358.846 225.048C358.846 225.048 365.918 246.285 365.188 260.159C364.358 276.428 358.771 291.358 358.771 291.358" stroke="#D98B37" stroke-width="1.40933" stroke-miterlimit="10"/>
<path d="M370.675 209.573C370.675 209.573 377.974 234.619 375.457 249.987C372.94 265.355 366.095 287.724 366.095 287.724" stroke="#D98B37" stroke-width="1.40933" stroke-miterlimit="10"/>
<path d="M371.205 287.392C371.205 287.392 384.493 263.041 389.45 245.253C394.408 227.466 392.546 208.392 392.546 208.392" stroke="#D98B37" stroke-width="1.40933" stroke-miterlimit="10"/>
<path d="M378.832 290.712C378.832 290.712 400.928 265.125 405.886 247.338C410.843 229.551 410.642 224.505 410.642 224.505" stroke="#D98B37" stroke-width="1.40933" stroke-miterlimit="10"/>
<path d="M389.601 290.247C389.601 290.247 415.221 263.322 420.33 253.694C425.438 244.067 425.64 240.669 425.64 240.669" stroke="#D98B37" stroke-width="1.40933" stroke-miterlimit="10"/>
<path d="M397.981 297.455C397.981 297.455 425.79 270.581 434.75 257.761C443.709 244.942 445.043 239.15 445.043 239.15" stroke="#D98B37" stroke-width="1.40933" stroke-miterlimit="10"/>
<path d="M406.741 298.487C406.741 298.487 442.628 269.554 455.061 249.81C462.636 237.789 466.813 233.052 466.813 233.052" stroke="#D98B37" stroke-width="1.40933" stroke-miterlimit="10" stroke-linecap="round"/>
<path d="M417.663 304.846C417.663 304.846 459.842 278.358 472.299 258.588C479.875 246.567 482.14 244.199 482.14 244.199" stroke="#D98B37" stroke-width="1.40933" stroke-miterlimit="10" stroke-linecap="round"/>
<path d="M307.002 288.627C307.002 288.627 324.946 264.481 327.438 253.001C329.929 241.52 339.568 241.52 351.597 235.213C363.627 228.907 362.922 209.987 376.412 206.769C389.901 203.551 405.907 218.559 413.407 228.418C420.931 238.277 427.424 246.025 438.724 241.932C449.999 237.839 462.104 227.105 477.758 239.126C493.411 251.122 491.171 267.596 491.171 267.596" stroke="#D98B37" stroke-width="1.40933" stroke-miterlimit="10"/>
<path d="M348.503 236.32C348.503 236.32 355.248 261.65 354.845 276.94C354.443 292.231 353.084 294.136 353.084 294.136" stroke="#D98B37" stroke-width="1.40933" stroke-miterlimit="10"/>
<path d="M454.355 242.831C454.355 242.831 436.915 248.263 431.202 252.536C425.69 256.68 416.681 264.737 411.194 272.974C405.708 281.212 400.675 286.695 392.194 290.118C385.952 292.615 381.12 293.542 379.006 293.851C378.327 293.954 377.673 293.671 377.245 293.13C375.936 291.38 372.362 287.57 365.316 286.515C356.105 285.15 350.719 283.683 351.952 287.081C353.185 290.479 362.749 291.972 362.497 299.462C362.245 306.953 355.702 309.733 354.947 312.385C354.192 315.036 359.2 313.234 364.812 311.458C369.166 310.068 375.231 303.427 377.673 300.544C378.277 299.849 379.283 299.668 380.063 300.183C382.58 301.805 388.796 304.817 398.309 303.143C410.918 300.93 428.157 292.281 435.883 287.802C443.609 283.323 453.575 273.875 455.664 263.759C456.394 260.181 460.143 249.473 457.677 249.55C457.501 249.55 457.325 249.576 457.149 249.601C455.739 249.859 454.607 248.443 455.085 247.053C455.915 244.659 456.217 242.471 454.33 242.78L454.355 242.831Z" fill="#65A6DE" stroke="white" stroke-width="1.03183" stroke-miterlimit="10"/>
<path d="M416.503 266.31C417.459 265.074 416.604 263.221 415.069 263.221C412.502 263.195 409.356 263.349 408.022 264.276C405.631 265.923 403.316 275.422 402.963 277.198C402.611 278.974 408.072 275.551 408.953 275.242L409.331 275.113C409.683 274.984 409.96 274.779 410.186 274.495L416.503 266.335V266.31Z" fill="#095CA8" stroke="white" stroke-width="1.03183" stroke-miterlimit="10"/>
<path d="M391.59 307.857H391.389C388.998 307.162 387.865 306.956 385.953 306.673C384.594 306.467 386.229 304.743 387.236 303.79C387.664 303.404 388.218 303.224 388.771 303.327C390.029 303.533 392.521 303.842 395.063 303.79C396.749 303.739 397.63 305.798 396.472 307.034C396.12 307.42 395.767 307.754 395.39 307.986C393.578 309.273 393.1 307.986 391.59 307.857Z" fill="#095CA8" stroke="white" stroke-width="1.03183" stroke-miterlimit="10"/>
<path d="M392.621 290.198C394.08 289.245 393.627 286.954 391.916 286.697C391.161 286.568 390.507 286.517 390.079 286.542C388.493 286.645 389.122 289.348 388.317 290.121C387.512 290.893 388.015 291.485 389.122 291.433C389.903 291.408 390.758 291.176 391.211 291.047C391.387 290.996 391.564 290.919 391.74 290.816C391.941 290.687 392.268 290.481 392.646 290.224L392.621 290.198Z" fill="#095CA8" stroke="white" stroke-width="1.03183" stroke-miterlimit="10"/>
<path d="M442.528 255.136C443.232 256.037 443.081 256.989 442.201 257.736C441.32 258.482 440.087 258.688 439.357 257.787C438.627 256.886 438.753 255.29 439.634 254.544C440.514 253.797 441.798 254.235 442.528 255.11V255.136Z" fill="#264495" stroke="#264495" stroke-width="1.03183" stroke-miterlimit="10"/>
<path d="M443.558 277.532L427.955 278.304" stroke="#F0D6D3" stroke-width="1.03183" stroke-miterlimit="10" stroke-linecap="round"/>
<path d="M438.776 280.855L423.172 281.627" stroke="#F0D6D3" stroke-width="1.03183" stroke-miterlimit="10" stroke-linecap="round"/>
<path d="M434.019 284.173L418.416 284.971" stroke="#F0D6D3" stroke-width="1.03183" stroke-miterlimit="10" stroke-linecap="round"/>
<path d="M430.497 286.772L414.868 287.545" stroke="#F0D6D3" stroke-width="1.03183" stroke-miterlimit="10" stroke-linecap="round"/>
<path d="M424.279 289.527L409.205 290.273" stroke="#F0D6D3" stroke-width="1.03183" stroke-miterlimit="10" stroke-linecap="round"/>
<path d="M418.594 292.258L407.269 292.721" stroke="#F0D6D3" stroke-width="1.03183" stroke-miterlimit="10" stroke-linecap="round"/>
<path d="M413.888 294.264L402.563 294.727" stroke="#F0D6D3" stroke-width="1.03183" stroke-miterlimit="10" stroke-linecap="round"/>
<path d="M410.237 296.631L398.913 297.094" stroke="#F0D6D3" stroke-width="1.03183" stroke-miterlimit="10" stroke-linecap="round"/>
<path d="M407.999 297.562L396.674 298.025" stroke="#F0D6D3" stroke-width="1.03183" stroke-miterlimit="10" stroke-linecap="round"/>
<path d="M421.615 294.884C423.074 293.417 421.438 290.894 419.576 291.769C419.375 291.872 419.173 291.975 418.997 292.078C417.563 293.031 413.914 295.09 413.637 296.789C413.234 299.26 412.353 303.121 413.763 302.092C414.593 301.474 418.67 297.896 421.615 294.884Z" fill="#095CA8" stroke="white" stroke-width="1.03183" stroke-miterlimit="10"/>
<path d="M435.783 269.19C435.783 269.19 428.938 273.129 424.206 276.913C420.129 280.156 418.645 280.439 421.237 280.98C423.829 281.521 429.265 281.932 432.058 279.075C434.449 276.63 436.84 272.46 437.469 271.327C437.595 271.095 437.671 270.864 437.696 270.606C437.771 269.86 437.696 268.418 435.783 269.19Z" fill="#095CA8" stroke="white" stroke-width="1.03183" stroke-miterlimit="10"/>
<path d="M431.101 262.861C431.101 262.861 429.692 266.722 433.542 271.098C437.393 275.474 442.779 272.643 442.779 272.643" fill="#65A6DE"/>
<path d="M431.101 262.861C431.101 262.861 429.692 266.722 433.542 271.098C437.393 275.474 442.779 272.643 442.779 272.643" stroke="white" stroke-width="1.03183" stroke-miterlimit="10" stroke-linecap="round"/>
<path d="M373.834 122.893L419.939 100.112C412.64 87.267 400.812 77.5368 386.87 73.0835L373.834 122.919V122.893Z" fill="#F0D6D3"/>
<path d="M376.299 127.064L420.92 105.879C424.317 113.781 425.953 122.173 425.777 130.899C425.601 138.648 423.99 146.138 420.97 153.166L376.324 127.064H376.299Z" fill="#65A6DE"/>
<path d="M420.467 107.143C423.562 114.66 425.047 122.64 424.871 130.877C424.72 138.162 423.26 145.189 420.542 151.831L378.313 127.145L420.492 107.143M421.398 104.646L374.362 126.964L421.423 154.482C424.645 147.3 426.532 139.32 426.708 130.929C426.91 121.559 424.997 112.626 421.398 104.646Z" fill="white"/>
<path d="M369.278 129.229V69.4834C347.887 69.4834 329.188 81.2473 318.995 98.803C313.836 107.71 310.841 118.109 310.841 129.229C310.841 138.599 312.955 147.48 316.73 155.383C326.218 175.281 346.175 189.001 369.278 189.001C390.67 189.001 409.369 177.237 419.561 159.681L369.278 129.255V129.229Z" fill="white" stroke="#65A6DE" stroke-width="1.96299" stroke-miterlimit="10"/>
<path d="M327.931 156.178C334.474 154.093 337.268 150.438 337.268 150.438C337.268 150.438 329.718 146.783 322.923 149.28C316.128 151.777 313.536 157.337 313.536 157.337C313.536 157.337 313.586 157.337 313.611 157.337C313.662 157.388 320.281 166.14 337.318 164.261C337.318 164.261 334.751 158.701 327.956 156.204L327.931 156.178Z" fill="#E7B400" stroke="#E7B400" stroke-width="0.352332" stroke-miterlimit="10"/>
<path d="M254.367 162.28C252.404 161.096 252.178 158.882 253.839 157.312C258.796 152.652 270.348 144.055 287.033 145.496C301.957 146.783 312.452 151.597 317.887 154.712C319.951 155.896 319.926 158.959 317.837 160.143C311.017 164.056 297.024 170.903 283.233 170.594C269.693 170.311 259.325 165.266 254.367 162.28Z" fill="#095CA8" stroke="#095CA8" stroke-width="0.704664" stroke-miterlimit="10"/>
<path d="M277.243 157.463C277.394 157.257 282.704 150.384 286.403 154.271C290.153 158.21 286.68 161.453 283.585 161.891C282.15 162.097 277.62 159.909 277.62 159.909L277.469 158.93L277.243 157.489V157.463Z" fill="#E7B400" stroke="white" stroke-width="0.352332" stroke-miterlimit="10"/>
<path d="M274.201 153.812C274.201 153.812 277.976 155.794 277.85 158.471C277.724 161.148 276.063 163.13 276.063 163.13" fill="#095CA8"/>
<path d="M274.201 153.812C278.454 156.103 278.806 159.346 276.063 163.13" stroke="white" stroke-width="0.352332" stroke-miterlimit="10"/>
<path d="M268.109 155.792C268.059 156.641 267.681 157.259 266.901 157.336C265.92 157.465 264.989 156.59 265.014 155.586C265.014 154.788 265.467 154.17 266.146 153.964C267.203 153.655 268.16 154.659 268.109 155.766V155.792Z" fill="white"/>
<path d="M351.26 123.747C356.142 122.177 358.181 119.448 358.181 119.448C358.181 119.448 352.543 116.745 347.485 118.624C342.426 120.503 340.514 124.648 340.514 124.648C340.514 124.648 340.539 124.648 340.564 124.648C340.589 124.699 345.547 131.186 358.256 129.719C358.256 129.719 356.318 125.574 351.26 123.747Z" fill="#E7B400" stroke="#E7B400" stroke-width="0.352332" stroke-miterlimit="10"/>
<path d="M296.471 128.506C295.011 127.631 294.835 125.983 296.068 124.799C299.743 121.324 308.324 114.889 320.757 115.893C331.88 116.794 339.707 120.346 343.759 122.663C345.294 123.538 345.294 125.803 343.759 126.704C338.675 129.639 328.281 134.761 318.014 134.607C307.746 134.452 300.196 130.694 296.496 128.506H296.471Z" fill="#095CA8" stroke="#095CA8" stroke-width="0.704664" stroke-miterlimit="10"/>
<path d="M313.484 124.85C313.609 124.695 317.535 119.573 320.304 122.43C323.072 125.287 320.53 127.784 318.24 128.119C317.183 128.273 313.786 126.651 313.786 126.651L313.66 125.931L313.484 124.85Z" fill="#E7B400" stroke="white" stroke-width="0.352332" stroke-miterlimit="10"/>
<path d="M311.218 122.123C311.218 122.123 314.036 123.59 313.936 125.572C313.835 127.554 312.627 129.047 312.627 129.047" fill="#095CA8"/>
<path d="M311.218 122.123C311.218 122.123 314.036 123.59 313.936 125.572C313.835 127.554 312.627 129.047 312.627 129.047" stroke="white" stroke-width="0.352332" stroke-miterlimit="10"/>
<path d="M306.689 123.616C306.664 124.259 306.362 124.697 305.783 124.774C305.053 124.877 304.349 124.233 304.374 123.461C304.374 122.869 304.726 122.406 305.229 122.251C306.009 122.02 306.739 122.766 306.689 123.59V123.616Z" fill="white"/>
<path d="M282.856 124.773L283.032 115.687L274.828 119.213C274.677 118.93 274.45 118.698 274.148 118.492C271.808 116.999 267.857 115.172 262.748 115.532C258.092 115.841 254.946 117.54 253.059 119.007C251.826 119.985 252.077 121.967 253.487 122.611C256.507 123.975 261.641 125.082 265.114 124.928C268.385 124.773 271.808 123.615 274.148 122.096C274.475 121.89 274.727 121.607 274.878 121.272C277.47 122.868 282.831 124.773 282.831 124.773H282.856Z" fill="#095CA8" stroke="#095CA8" stroke-width="0.704664" stroke-miterlimit="10"/>
<path d="M298.936 103.436L299.087 95.7648L292.167 98.7508C292.041 98.5191 291.839 98.3131 291.588 98.1587C289.6 96.8974 286.252 95.3528 281.949 95.636C278.023 95.8934 275.355 97.335 273.77 98.5706C272.713 99.3943 272.939 101.067 274.147 101.608C276.714 102.766 281.043 103.693 283.987 103.564C286.756 103.436 289.65 102.457 291.613 101.17C291.89 100.99 292.091 100.759 292.242 100.475C294.432 101.84 298.962 103.436 298.962 103.436H298.936Z" fill="#095CA8" stroke="#095CA8" stroke-width="0.704664" stroke-miterlimit="10"/>
<path d="M369.329 162.59L369.48 154.919L362.559 157.905C362.433 157.674 362.232 157.468 361.98 157.313C359.992 156.052 356.645 154.507 352.342 154.791C348.416 155.048 345.748 156.489 344.163 157.725C343.106 158.549 343.332 160.222 344.54 160.763C347.107 161.921 351.436 162.848 354.38 162.719C357.148 162.59 360.043 161.612 362.006 160.325C362.282 160.145 362.484 159.913 362.635 159.63C364.824 160.994 369.354 162.59 369.354 162.59H369.329Z" fill="#095CA8" stroke="#095CA8" stroke-width="0.704664" stroke-miterlimit="10"/>
<path d="M449.082 181.69L449.233 174.02L442.312 177.006C442.186 176.774 441.985 176.568 441.733 176.413C439.745 175.152 436.423 173.633 432.12 173.917C428.194 174.174 425.551 175.615 423.941 176.851C422.884 177.675 423.11 179.348 424.318 179.889C426.86 181.047 431.214 181.974 434.133 181.845C436.901 181.716 439.795 180.738 441.758 179.451C442.035 179.271 442.237 179.039 442.362 178.756C444.552 180.12 449.057 181.716 449.057 181.716L449.082 181.69Z" fill="#095CA8" stroke="#095CA8" stroke-width="0.603998" stroke-miterlimit="10"/>
<path d="M433.804 198.137L433.93 191.65L428.092 194.173C427.966 193.967 427.815 193.786 427.613 193.658C425.952 192.577 423.134 191.29 419.485 191.547C416.163 191.779 413.923 192.988 412.589 194.018C411.708 194.713 411.884 196.129 412.891 196.592C415.055 197.57 418.704 198.343 421.196 198.24C423.536 198.137 425.977 197.287 427.638 196.206C427.865 196.052 428.041 195.846 428.167 195.614C430.004 196.747 433.83 198.111 433.83 198.111L433.804 198.137Z" fill="#095CA8" stroke="#095CA8" stroke-width="0.603998" stroke-miterlimit="10"/>
<path d="M125.128 376.081C112.695 378.964 110.43 381.281 107.612 393.997C104.793 381.281 102.528 378.964 90.0959 376.081C102.528 373.198 104.793 370.881 107.612 358.165C110.43 370.881 112.695 373.198 125.128 376.081Z" fill="#E7B400"/>
<path d="M161.944 400.016C153.865 401.895 152.38 403.388 150.543 411.677C148.706 403.414 147.246 401.895 139.143 400.016C147.221 398.137 148.706 396.644 150.543 388.355C152.38 396.618 153.84 398.137 161.944 400.016Z" fill="#E7B400"/>
<path d="M483.725 362.591C475.646 364.47 474.161 365.963 472.324 374.252C470.487 365.989 469.027 364.47 460.924 362.591C469.002 360.712 470.487 359.219 472.324 350.93C474.161 359.193 475.621 360.712 483.725 362.591Z" fill="#E7B400"/>
<mask id="mask1_3452_7532" style="mask-type:luminance" maskUnits="userSpaceOnUse" x="146" y="197" width="264" height="232">
<path d="M409.705 197.996H146.362V429H409.705V197.996Z" fill="white"/>
</mask>
<g mask="url(#mask1_3452_7532)">
<path d="M366.493 416.052C370.293 387.401 343.868 357.773 343.868 357.773C333.675 325.699 304.507 302.557 270.105 302.557C236.809 302.557 208.396 324.258 197.373 354.761C196.518 355.894 171.653 388.56 175.403 416.953C176.611 426.065 181.116 434.199 187.483 440.48L182.399 504.499H357.835L352.727 440.3C360.453 433.968 365.335 425.061 366.518 416.077L366.493 416.052Z" fill="white"/>
<mask id="mask2_3452_7532" style="mask-type:luminance" maskUnits="userSpaceOnUse" x="175" y="302" width="192" height="203">
<path d="M366.493 416.052C370.293 387.401 343.868 357.773 343.868 357.773C333.675 325.699 304.507 302.557 270.105 302.557C236.809 302.557 208.396 324.258 197.373 354.761C196.518 355.894 171.653 388.56 175.403 416.953C176.611 426.065 181.116 434.199 187.483 440.48L182.399 504.499H357.835L352.727 440.3C360.453 433.968 365.335 425.061 366.518 416.077L366.493 416.052Z" fill="white"/>
</mask>
<g mask="url(#mask2_3452_7532)">
<path d="M246.119 356.717C252.26 317.127 252.562 304.668 252.612 304.488L246.421 302.223L240.23 299.957C239.953 300.755 238.217 318.105 231.85 359.163L246.144 356.717H246.119Z" fill="#095CA8"/>
<path d="M312.963 360.887C308.282 319.907 309.641 303.046 309.44 302.119L296.58 304.951C296.63 305.183 294.617 316.921 299.197 357.18L312.963 360.887Z" fill="#095CA8"/>
<path d="M319.179 384.26L311.931 354.143H233.034L226.037 386.835C226.037 386.835 239.174 378.417 255.633 375.225C273.476 371.776 296.076 372.394 310.572 383.411C310.572 383.411 314.951 382.767 319.179 384.26Z" fill="#095CA8"/>
</g>
<path d="M366.493 416.052C370.293 387.401 343.868 357.773 343.868 357.773C333.675 325.699 304.507 302.557 270.105 302.557C236.809 302.557 208.396 324.258 197.373 354.761C196.518 355.894 171.653 388.56 175.403 416.953C176.611 426.065 181.116 434.199 187.483 440.48L182.399 504.499H357.835L352.727 440.3C360.453 433.968 365.335 425.061 366.518 416.077L366.493 416.052Z" stroke="#251E1C" stroke-width="2.49149" stroke-miterlimit="10"/>
<path d="M352.702 440.172L357.786 504.139L182.022 504.911L187.534 441.999L186.905 441.201C200.847 453.171 223.673 454.046 240.031 433.067C240.031 433.067 250.727 420.608 252.514 409.333L264.695 371.313L284.903 370.695L288.477 412.062C288.477 412.062 292.63 428.485 309.592 438.833C309.592 438.833 322.678 447.662 352.677 440.172H352.702Z" fill="#095CA8"/>
<path d="M293.609 310.718L291.067 298.594C297.586 294.449 302.166 286.212 303.323 279.262C306.419 279.159 315.378 278.129 315.227 269.943C315.076 261.268 307.602 264.821 305.79 265.799C305.79 265.361 305.84 264.924 305.84 264.46C306.419 244.691 296.176 222.296 269.449 222.579C247.252 222.811 235.902 242.245 235.902 263.302C235.902 263.997 235.902 264.666 235.953 265.361C233.335 264.126 227.522 262.272 227.371 269.943C227.22 278.052 236.003 279.133 239.174 279.262C240.256 285.774 246.523 297.101 257.47 300.19L254.777 311.747C254.777 311.747 260.213 319.933 271.614 320.294C289.432 320.834 293.609 310.744 293.609 310.744V310.718Z" fill="#F0D6D3" stroke="#251E1C" stroke-width="2.49149" stroke-miterlimit="10"/>
<path d="M255.055 299.057C255.055 299.057 262.957 302.146 272.117 302.249C278.233 302.3 281.026 301.116 281.026 301.116" stroke="#251E1C" stroke-width="1.78683" stroke-linecap="round" stroke-linejoin="round"/>
<path d="M255.107 266.854C254.855 268.502 255.761 269.609 257.422 269.866C259.083 270.123 260.769 269.454 261.021 267.781C261.273 266.108 259.964 264.203 258.328 263.945C256.692 263.688 255.384 265.207 255.132 266.854H255.107Z" fill="#251E1C" stroke="#251E1C" stroke-width="0.352332" stroke-miterlimit="10"/>
<path d="M278.56 267.112C278.308 268.759 279.214 269.866 280.875 270.123C282.536 270.381 283.92 269.711 284.172 268.038C284.423 266.365 283.417 264.46 281.781 264.203C280.145 263.945 278.836 265.464 278.585 267.112H278.56Z" fill="#251E1C" stroke="#251E1C" stroke-width="0.352332" stroke-miterlimit="10"/>
<path d="M269.223 268.167V272.363C269.223 272.363 265.977 271.488 265.977 275.246C265.977 279.004 270.783 278.129 270.783 278.129" stroke="#251E1C" stroke-width="1.78683" stroke-linecap="round" stroke-linejoin="round"/>
<path d="M304.885 418.446C303.148 418.446 301.462 418.137 299.826 417.545L284.349 411.856C276.572 408.999 272.521 400.195 275.339 392.241L279.441 380.554C280.02 378.881 280.876 377.337 281.983 375.972C281.782 375.766 281.606 375.56 281.404 375.355C277.076 370.798 270.658 365.47 270.608 365.418C267.865 363.153 267.437 359.009 269.652 356.203C270.885 354.658 272.697 353.783 274.635 353.783C276.094 353.783 277.529 354.298 278.661 355.25C278.938 355.482 285.658 361.042 290.565 366.216C291.823 367.555 293.057 368.971 294.214 370.438C295.724 370.515 297.209 370.798 298.618 371.339L314.096 377.028C321.948 379.911 324.943 390.722 323.131 396.591L319.003 408.329C316.864 414.404 311.202 418.472 304.91 418.472L304.885 418.446Z" fill="#F0D6D3"/>
<path d="M274.611 355.07C275.743 355.07 276.901 355.456 277.857 356.254C278.134 356.486 284.803 362.02 289.66 367.117C291.195 368.713 292.504 370.283 293.586 371.699C295.121 371.699 296.657 371.982 298.192 372.523L313.669 378.212C320.817 380.837 323.61 390.774 321.949 396.179L317.822 407.866C315.808 413.606 310.523 417.159 304.911 417.159C303.376 417.159 301.791 416.901 300.255 416.335L284.778 410.646C277.631 408.02 273.931 399.963 276.498 392.678L280.626 380.992C281.305 379.061 282.362 377.362 283.671 375.972C283.243 375.483 282.79 374.968 282.287 374.454C277.857 369.794 271.44 364.492 271.364 364.414C269.15 362.587 268.822 359.266 270.609 357.001C271.616 355.714 273.126 355.044 274.611 355.044M274.611 352.496C272.295 352.496 270.131 353.551 268.671 355.405C266.029 358.751 266.532 363.694 269.804 366.396C269.854 366.448 276.02 371.571 280.349 376.05C279.493 377.285 278.788 378.649 278.285 380.091L274.158 391.778C271.138 400.401 275.517 409.925 283.922 413.014L299.4 418.703C301.187 419.347 303.024 419.681 304.886 419.681C311.706 419.681 317.847 415.28 320.162 408.69L324.29 397.003C326.253 390.645 323.333 379.01 314.525 375.766L299.047 370.077C297.688 369.588 296.279 369.254 294.845 369.151C293.762 367.812 292.63 366.499 291.472 365.29C286.64 360.218 280.173 354.839 279.443 354.221C278.084 353.088 276.372 352.47 274.636 352.47L274.611 352.496Z" fill="#251E1C"/>
<path d="M293.309 374.891C293.309 374.891 288.578 378.418 286.942 384.518C285.306 390.619 286.136 394.944 289.232 396.025C292.101 397.029 293.158 395.484 293.158 395.484" stroke="#251E1C" stroke-width="2.49149" stroke-linecap="round" stroke-linejoin="round"/>
<path d="M300.581 377.439C300.581 377.439 295.85 380.966 294.214 387.067C292.578 393.168 293.408 397.492 296.504 398.573C299.373 399.577 300.43 398.033 300.43 398.033" stroke="#251E1C" stroke-width="2.49149" stroke-linecap="round" stroke-linejoin="round"/>
<path d="M308.158 379.885C308.158 379.885 303.426 383.412 301.791 389.512C300.155 395.613 300.985 399.938 304.081 401.019C306.95 402.023 308.007 400.478 308.007 400.478" stroke="#251E1C" stroke-width="2.49149" stroke-linecap="round" stroke-linejoin="round"/>
<path d="M224.905 386.449C224.905 386.449 211.793 406.013 202.431 409.642" stroke="#251E1C" stroke-width="2.49149" stroke-linecap="round" stroke-linejoin="round"/>
<path d="M195.739 403.258C195.739 403.258 202.433 400.53 212.676 401.431" stroke="#251E1C" stroke-width="2.49149" stroke-linecap="round" stroke-linejoin="round"/>
<path d="M323.004 396.566C323.004 396.566 333.121 401.431 340.696 402.795" stroke="#251E1C" stroke-width="2.49149" stroke-linecap="round" stroke-linejoin="round"/>
<path d="M245.396 348.122L233.19 347.332C232.427 347.282 231.769 347.875 231.721 348.655L231.239 356.44C231.191 357.22 231.771 357.892 232.534 357.942L244.74 358.732C245.503 358.781 246.161 358.189 246.209 357.408L246.69 349.624C246.739 348.844 246.159 348.171 245.396 348.122Z" fill="#E7B400" stroke="#E7B400" stroke-width="1.38416" stroke-linejoin="round"/>
<path d="M312.286 347.214L300.095 348.228C299.333 348.291 298.766 348.974 298.827 349.754L299.456 357.656C299.518 358.435 300.186 359.016 300.948 358.952L313.138 357.938C313.9 357.875 314.468 357.192 314.406 356.412L313.777 348.51C313.715 347.731 313.048 347.15 312.286 347.214Z" fill="#E7B400" stroke="#E7B400" stroke-width="1.38416" stroke-linejoin="round"/>
<path d="M283.278 342.147L256.932 335.107C255.412 334.701 253.859 335.632 253.462 337.186L240.511 387.894C240.114 389.449 241.024 391.038 242.544 391.444L268.89 398.483C270.41 398.889 271.963 397.959 272.36 396.404L285.311 345.696C285.708 344.142 284.798 342.553 283.278 342.147Z" fill="#E7B400" stroke="#251E1C" stroke-width="2.49149" stroke-miterlimit="10" stroke-linecap="round"/>
<path d="M250.424 410.131C249.393 410.131 248.688 410.131 248.688 410.131C247.304 410.003 246.02 409.822 244.762 409.565C234.016 407.403 226.566 395.716 226.365 386.166C226.164 376.281 231.348 367.761 234.167 365.393C239.603 360.836 243.982 360.141 246.071 360.141C246.8 360.141 247.203 360.219 247.203 360.219C247.555 360.296 247.883 360.527 248.059 360.862C248.235 361.197 248.26 361.609 248.109 361.943L244.51 370.824C244.51 370.824 244.259 372.755 247.555 374.093C248.159 374.351 248.914 374.505 249.871 374.608H250.047L270.407 372.806C270.558 372.806 270.709 372.806 270.86 372.806C273.603 372.806 275.943 374.994 276.195 377.826C276.396 380.091 275.188 382.15 273.351 383.154C274.005 383.978 274.433 385.008 274.534 386.14C274.66 387.608 274.207 389.023 273.301 390.13C272.848 390.697 272.294 391.134 271.69 391.469C272.344 392.292 272.772 393.322 272.873 394.455C272.999 395.922 272.546 397.338 271.64 398.445C271.187 398.985 270.633 399.449 270.029 399.758C270.658 400.555 271.086 401.559 271.187 402.666C271.464 405.678 269.324 408.355 266.38 408.664L260.013 409.308C258.629 409.874 255.407 410.157 250.424 410.157V410.131Z" fill="#F0D6D3"/>
<path d="M246.071 361.403C246.65 361.403 246.977 361.454 246.977 361.454L243.379 370.335C243.379 370.335 242.624 373.424 247.103 375.277C247.883 375.612 248.865 375.792 249.897 375.895C249.972 375.895 250.073 375.869 250.148 375.869L260.467 374.968L261.398 374.891L270.533 374.093C270.533 374.093 270.76 374.093 270.886 374.093C273 374.093 274.786 375.741 274.963 377.929C275.164 380.245 273.478 382.279 271.213 382.459L270.307 382.536C271.892 383 273.125 384.415 273.277 386.217C273.478 388.534 271.792 390.568 269.527 390.748L268.621 390.825C270.206 391.288 271.439 392.704 271.59 394.506C271.792 396.823 270.106 398.856 267.841 399.037L266.935 399.114C268.495 399.577 269.728 400.967 269.879 402.743C270.105 405.06 268.445 407.094 266.205 407.325L259.636 407.995C258.252 408.741 253.093 408.818 250.375 408.818C249.368 408.818 248.689 408.818 248.689 408.818C247.506 408.715 246.273 408.535 244.964 408.278C235.149 406.296 227.775 395.381 227.574 386.114C227.373 376.847 232.23 368.61 234.923 366.371C240.182 361.969 244.31 361.403 246.046 361.403M246.046 358.854C243.756 358.854 239.075 359.575 233.337 364.389C229.738 367.4 224.881 376.642 225.083 386.166C225.309 396.205 233.136 408.509 244.486 410.775C245.795 411.032 247.128 411.238 248.462 411.367C248.513 411.367 248.588 411.367 248.638 411.367C248.638 411.367 249.343 411.367 250.375 411.367C257.019 411.367 259.334 410.852 260.291 410.492L266.456 409.874C268.218 409.694 269.804 408.844 270.911 407.428C272.018 406.038 272.547 404.288 272.371 402.486C272.295 401.611 272.043 400.813 271.691 400.066C273.302 398.702 274.258 396.565 274.082 394.3C274.006 393.399 273.755 392.55 273.377 391.803C274.988 390.439 275.944 388.302 275.768 386.011C275.693 385.136 275.441 384.287 275.063 383.514C275.365 383.257 275.667 382.974 275.919 382.639C277.051 381.249 277.605 379.525 277.454 377.723C277.177 374.248 274.283 371.545 270.886 371.545C270.71 371.545 270.508 371.545 270.332 371.545L261.197 372.343L260.265 372.42L249.947 373.321C249.947 373.321 249.897 373.321 249.846 373.321C248.915 373.218 248.362 373.038 248.034 372.909C246.147 372.137 245.87 371.287 245.82 370.953L249.268 362.432C249.544 361.711 249.519 360.913 249.167 360.244C248.815 359.575 248.185 359.086 247.43 358.957C247.305 358.957 246.826 358.854 246.046 358.854Z" fill="#251E1C"/>
<path d="M255.836 384.493L272.672 383.077" stroke="#251E1C" stroke-width="2.49149" stroke-linecap="round" stroke-linejoin="round"/>
<path d="M255.635 392.576L271.238 391.649" stroke="#251E1C" stroke-width="2.49149" stroke-linecap="round" stroke-linejoin="round"/>
<path d="M255.458 400.658L269.577 399.732" stroke="#251E1C" stroke-width="2.49149" stroke-linecap="round" stroke-linejoin="round"/>
<path d="M261.321 283.689C261.321 283.689 274.357 285.723 281.303 283.689C281.303 283.689 279.743 290.562 270.758 290.614C263.46 290.665 262.151 286.392 262.151 286.392" stroke="#251E1C" stroke-width="1.78683" stroke-linecap="round" stroke-linejoin="round"/>
<path d="M278.511 260.213C278.511 260.213 281.128 257.845 286.514 260.213" stroke="#251E1C" stroke-width="1.78683" stroke-linecap="round" stroke-linejoin="round"/>
<path d="M252.563 259.673C252.563 259.673 255.181 257.304 260.566 259.673" stroke="#251E1C" stroke-width="1.78683" stroke-linecap="round" stroke-linejoin="round"/>
<path d="M294.615 241.807C294.615 241.807 298.39 258.745 298.667 263.276C298.944 267.806 305.99 262.581 305.99 262.581C305.99 262.581 305.109 246.132 300.957 241.087C296.804 236.041 294.615 241.807 294.615 241.807Z" fill="#251E1C"/>
<path d="M246.925 240.958C246.925 240.958 243.15 257.896 242.873 262.427C242.597 266.957 235.55 261.732 235.55 261.732C235.55 261.732 236.003 247.394 240.13 242.322C244.258 237.251 246.925 240.958 246.925 240.958Z" fill="#251E1C"/>
<path d="M303.048 243.43C297.41 228.989 286.589 221.189 269.576 221.369C254.879 221.524 244.862 229.941 239.628 241.705C239.628 241.705 247.958 239.414 262.504 238.925C278.384 238.359 303.048 243.43 303.048 243.43Z" fill="#D98B37" stroke="#D98B37" stroke-width="1.50999" stroke-linejoin="round"/>
<path d="M234.367 249.659C232.907 249.659 231.699 248.45 231.699 246.931C231.699 245.515 232.756 244.331 234.115 244.228C236.078 243.198 246.674 239.08 264.265 238.693C274.583 238.488 283.266 239.183 290.061 240.804C295.094 242.014 297.56 243.378 298.064 243.816C299.196 244.769 299.398 246.467 298.466 247.652C297.611 248.758 296.076 248.964 294.943 248.244C294.566 248.012 286.814 243.687 264.366 244.151C247.026 244.511 237.664 248.552 236.632 249.016C235.953 249.428 235.147 249.659 234.342 249.659H234.367ZM294.742 248.063C294.742 248.063 294.817 248.141 294.968 248.218C294.893 248.166 294.817 248.115 294.742 248.063ZM233.914 244.331C233.914 244.331 233.914 244.331 233.889 244.331C233.889 244.331 233.889 244.331 233.914 244.331Z" fill="#D98B37" stroke="#D98B37" stroke-width="1.50999" stroke-linejoin="round"/>
</g>
</svg>
