<svg fill="none" height="86" viewBox="0 0 1411 86" width="1411" xmlns="http://www.w3.org/2000/svg"><g fill="#fff" fill-opacity=".5"><path d="m0 83.453v-82.26236h17.8596l26.1941 50.00686 26.0858-50.00686h17.2102v82.26236h-15.4783v-59.2072l-21.5398 41.1312h-13.3135l-21.5398-41.2395v59.3155z"/><path d="m99.7169 83.453 32.6881-82.26236h17.427l32.797 82.26236h-17.427l-7.793-21.648h-33.446l-7.794 21.648zm28.7921-34.4203h24.246l-12.123-33.7709z"/><path d="m194.917 83.453v-82.26236h27.06c6.277 0 11.689 1.0824 16.236 3.2472 4.546 2.1648 8.045 5.2316 10.499 9.20036 2.453 3.9688 3.68 8.6953 3.68 14.1795 0 5.0512-1.263 9.489-3.788 13.3135-2.526 3.7523-5.773 6.747-9.742 8.9839l21.648 33.3379h-18.509l-17.318-29.2248c-.578 0-1.119 0-1.624 0h-12.448v29.2248zm24.895-69.8148h-9.201v28.1424h8.66c11.329 0 16.993-4.6904 16.993-14.0712s-5.484-14.0712-16.452-14.0712z"/><path d="m273.56 83.453v-82.26236h16.56v82.26236z"/><path d="m309.816 83.453v-82.26236h14.612l43.837 58.34136v-58.34136h15.046v82.26236h-14.613l-43.837-58.2331v58.2331z"/><path d="m403.046 83.453v-82.26236h54.336v12.88056h-38.858v20.9986h34.421v12.8805h-34.421v22.6222h40.374v12.8805z"/><path d="m499.447 83.453v-82.26236h17.86l26.194 50.00686 26.086-50.00686h17.21v82.26236h-15.478v-59.2072l-21.54 41.1312h-13.314l-21.539-41.2395v59.3155z"/><path d="m599.164 83.453 32.689-82.26236h17.426l32.797 82.26236h-17.427l-7.793-21.648h-33.446l-7.793 21.648zm28.792-34.4203h24.246l-12.123-33.7709z"/><path d="m694.364 83.453v-82.26236h14.612l43.837 58.34136v-58.34136h15.046v82.26236h-14.613l-43.837-58.2331v58.2331z"/><path d="m780.234 83.453 32.688-82.26236h17.427l32.797 82.26236h-17.427l-7.793-21.648h-33.447l-7.793 21.648zm28.792-34.4203h24.245l-12.123-33.7709z"/><path d="m910.519 84.6437c-9.02 0-16.885-1.6958-23.596-5.0873-6.711-3.4637-11.943-8.2984-15.695-14.5042-3.68-6.2057-5.52-13.4939-5.52-21.8644 0-8.5871 1.948-16.1278 5.845-22.6222 3.896-6.4944 9.308-11.5456 16.236-15.1536 6.999-3.608 15.081-5.412 24.245-5.412 4.979 0 9.922.577278 14.829 1.73184 4.979 1.0824 9.453 2.66992 13.422 4.76256l-2.706 13.53c-3.969-1.9483-8.19-3.4276-12.664-4.4378-4.474-1.0103-8.948-1.5154-13.422-1.5154-5.845 0-10.968 1.1906-15.37 3.5719-4.329 2.3813-7.721 5.7007-10.174 9.9581-2.454 4.2574-3.681 9.2365-3.681 14.9371 0 8.7314 2.598 15.6227 7.794 20.6739 5.267 5.0512 12.411 7.5768 21.431 7.5768 2.742 0 5.34-.1804 7.793-.5412 2.526-.3608 5.016-.902 7.469-1.6236v-18.1844h-16.344v-12.5558h31.498v40.6982c-4.691 2.0205-9.706 3.5359-15.046 4.5461-5.34 1.0103-10.788 1.5154-16.344 1.5154z"/><path d="m959.362 83.453v-82.26236h54.338v12.88056h-38.86v20.9986h34.42v12.8805h-34.42v22.6222h40.37v12.8805z"/><path d="m1032.09 83.453v-82.26236h27.06c6.27 0 11.69 1.0824 16.23 3.2472 4.55 2.1648 8.05 5.2316 10.5 9.20036 2.45 3.9688 3.68 8.6953 3.68 14.1795 0 5.0512-1.26 9.489-3.79 13.3135-2.52 3.7523-5.77 6.747-9.74 8.9839l21.65 33.3379h-18.51l-17.32-29.2248c-.58 0-1.12 0-1.62 0h-12.45v29.2248zm24.89-69.8148h-9.2v28.1424h8.66c11.33 0 16.99-4.6904 16.99-14.0712s-5.48-14.0712-16.45-14.0712z"/><path d="m1151.4 73.495v-20.0244h-18.73v-12.5559h18.73v-20.0244h13.42v20.0244h18.73v12.5559h-18.73v20.0244z"/><path d="m1199.69 83.453v-55.0941h14.39l.11 10.9322c1.3-3.8245 3.25-6.7469 5.85-8.7674 2.67-2.0927 5.77-3.139 9.3-3.139 1.16 0 2.31.1083 3.47.3247 1.23.2165 2.2.5052 2.92.866l-1.3 14.1794c-.94-.3608-2.05-.6855-3.35-.9742-1.3-.2886-2.49-.4329-3.58-.4329-4.11 0-7.28 1.4793-9.52 4.4378-2.24 2.8864-3.36 7.0717-3.36 12.5559v25.1116z"/><path d="m1273.72 85.1849c-6.64 0-12.37-1.1546-17.21-3.4637-4.76-2.3813-8.44-5.7728-11.04-10.1746-2.52-4.4017-3.79-9.5972-3.79-15.5865 0-5.7728 1.19-10.8601 3.58-15.2619 2.38-4.4017 5.7-7.8293 9.95-10.2828 4.26-2.5256 9.13-3.7884 14.62-3.7884 5.34 0 9.95 1.1185 13.85 3.3555 3.9 2.2369 6.89 5.412 8.98 9.5251 2.17 4.1131 3.25 8.9478 3.25 14.5042 0 1.804-.11 3.6801-.32 5.6284h-39.29c1.51 9.1644 7.86 13.7465 19.05 13.7465 3.1 0 6.24-.3247 9.41-.9741 3.18-.7216 6.1-1.7319 8.77-3.0308l1.52 11.257c-2.82 1.4432-6.1 2.5617-9.85 3.3554-3.76.7938-7.58 1.1907-11.48 1.1907zm-4.33-47.6256c-3.53 0-6.46 1.1185-8.76 3.3554-2.31 2.237-3.76 5.4481-4.33 9.6334h25.54c0-.7938-.07-1.5154-.22-2.1648-.5-3.4637-1.84-6.1336-4-8.0098-2.09-1.8761-4.84-2.8142-8.23-2.8142z"/><path d="m1350.75 84.6437c-8.8 0-16.52-1.7319-23.16-5.1955-6.57-3.4637-11.66-8.3345-15.27-14.6124-3.6-6.3501-5.41-13.7104-5.41-22.081 0-6.2779 1.08-12.0146 3.25-17.2102 2.16-5.2676 5.23-9.7776 9.2-13.53 4.04-3.82444 8.77-6.783 14.18-8.87564 5.48-2.09264 11.51-3.13896 18.08-3.13896 4.47 0 9.02.613361 13.63 1.84008 4.69 1.15456 8.7 2.74208 12.02 4.76256l-2.71 13.96296c-7.94-3.9688-15.51-5.9532-22.73-5.9532-5.55 0-10.42 1.1546-14.61 3.4637s-7.43 5.5563-9.74 9.7416-3.47 9.0561-3.47 14.6124c0 5.6285 1.16 10.4993 3.47 14.6124s5.55 7.3242 9.74 9.6333c4.26 2.237 9.24 3.3555 14.94 3.3555 3.68 0 7.65-.5773 11.9-1.7319 4.33-1.1545 8.37-2.706 12.13-4.6543l1.73 14.3959c-3.75 2.0927-8.01 3.7163-12.77 4.8708-4.77 1.1546-9.57 1.7319-14.4 1.7319z"/><path d="m1400.92 84.1025c-2.66 0-4.87-.8299-6.6-2.4895-1.73-1.7319-2.6-3.8606-2.6-6.3862 0-2.5978.87-4.7265 2.6-6.3862 1.73-1.6596 3.94-2.4895 6.6-2.4895 2.75 0 4.98.8299 6.72 2.4895 1.73 1.6597 2.59 3.7884 2.59 6.3862 0 2.5256-.86 4.6543-2.59 6.3862-1.74 1.6596-3.97 2.4895-6.72 2.4895z"/></g></svg>