<svg fill="none" height="29" viewBox="0 0 35 29" width="35" xmlns="http://www.w3.org/2000/svg"><path d="m8.04598 13.7665c0-2.4072.70881-4.57 2.12642-6.48829 1.456-1.91829 3.4483-3.42283 5.977-4.51362l-.8046-2.76459c-4.7126 1.01556-8.44825 3.40402-11.20687 7.16537-2.75862 3.76133-4.13793 7.80483-4.13793 12.13033 0 2.7082.670498 5.0026 2.01149 6.8833 1.341 1.8807 3.23755 2.821 5.68966 2.821 2.10728 0 3.88885-.7899 5.34485-2.3696 1.4559-1.5798 2.1839-3.4417 2.1839-5.5857 0-2.0687-.6705-3.7989-2.0115-5.1906s-3.0651-2.0876-5.17242-2.0876zm18.85062 0c0-2.4072.7088-4.57 2.1264-6.48829 1.4559-1.91829 3.4483-3.42283 5.977-4.51362l-.8046-2.76459c-4.7126 1.01556-8.4483 3.40402-11.2069 7.16537-2.7586 3.76133-4.1379 7.80483-4.1379 12.13033 0 2.7082.6705 5.0026 2.0115 6.8833s3.2375 2.821 5.6896 2.821c2.1073 0 3.8889-.7899 5.3449-2.3696 1.4559-1.5798 2.1839-3.4417 2.1839-5.5857 0-2.0687-.6705-3.7989-2.0115-5.1906s-3.0652-2.0876-5.1724-2.0876z" fill="#00b46e"/></svg>