<svg fill="none" height="117" viewBox="0 0 105 117" width="105" xmlns="http://www.w3.org/2000/svg"><g stroke="#0441ad" stroke-linecap="round"><path d="m28.7182 89.5083-16.8331 5.4491c-.3929.1277-.7375.3726-.9874.7021-.25.3294-.3934.7276-.411 1.141-.0176.4135.0914.8224.3125 1.172.2211.3495.5435.623.9242.7837l40.0639 16.8758c.4068.163.8553.189 1.2783.075.4229-.114.7975-.363 1.0676-.709.27-.345.4208-.769.4299-1.208s-.1241-.868-.3796-1.225l-14.4789-19.936c-.2701-.3712-.6592-.6381-1.1022-.7562l-8.728-2.4005c-.3809-.0992-.7822-.0867-1.1562.036z" fill="#ffc420" stroke-miterlimit="10" stroke-width="2"/><path d="m27.8912 104.872s-29.35306-51.8571-26.49563-67.4543c2.07268-11.2463 23.92573-45.00922 65.44533-34.07498 29.0475 7.64558 38.1171 39.12198 36.8471 52.46878-1.27 13.3467-4.8284 25.2052-8.2669 27.9297-3.4385 2.7246-56.4417 24.5088-58.0052 24.7908-1.7012.33-5.7627 3.349-9.5247-3.66z" fill="#ffc420" stroke-miterlimit="10" stroke-width="2"/><path d="m81.4758 12.8846-49.966 96.0734" stroke-miterlimit="10" stroke-width="2"/></g><path d="m18.7739 26.9875 9.1174 77.8835 23.3806-87.0174" fill="#ffc420"/><g stroke="#0441ad" stroke-linecap="round" stroke-width="2"><path d="m18.7739 26.9875 9.1174 77.8835 23.3806-87.0174" stroke-linejoin="bevel"/><g stroke-miterlimit="10"><path d="m33.8756 30.0602-4.4269 50.8604"/><path d="m50.1099 59.4122-20.625 46.6838"/><path d="m81.865 43.575-49.4988 64.735"/><path d="m101.076 44.7751-48.9354 47.4518"/></g></g></svg>