<svg fill="none" height="61" viewBox="0 0 61 61" width="61" xmlns="http://www.w3.org/2000/svg"><path d="m32.2223 23.6786c5.0417-1.018 8.8293-5.4698 8.8216-10.8183-.0012-.6707-.0728-1.3244-.1864-1.9629-.019 0-.0343-.0038-.0514-.002-5.3313-.0095-9.7699 3.7533-10.8108 8.7684-1.0569-5.0207-5.5109-8.7976-10.8422-8.8071-.019 0-.0343.0037-.0514.0018-.1132.6362-.1806 1.2915-.1794 1.9622.0095 5.3466 3.8131 9.812 8.8604 10.85-4.8629 4.0497-7.9559 10.151-7.9437 16.9876.014 7.8235 4.0905 14.7036 10.2291 18.6473 6.1227-3.9237 10.1765-10.7873 10.1625-18.6109-.016-6.8365-3.129-12.947-8.0083-17.0161zm-.5424 26.9908c-.8997.8996-2.3592.897-3.2621-.0058-.9028-.9029-.9054-2.3624-.0058-3.2621.8997-.8996 2.3592-.897 3.2621.0059.9028.9028.9054 2.3624.0058 3.262z" fill="#ffb900"/></svg>