<svg fill="none" height="204" viewBox="0 0 311 204" width="311" xmlns="http://www.w3.org/2000/svg"><g stroke-miterlimit="10"><g stroke="#fff"><g stroke-width="4"><path d="m24.2012 82.9756 2.1191-15.3296c.3559-2.5334 3.5507-4.1874 7.1419-3.6871l56.6179 7.8261c3.5912.4922 6.2118 2.953 5.864 5.4864l-2.1272 15.3295"/><path d="m73.774 68.1624-3.753 25.439"/><path d="m51.9598 66.113-3.7611 25.4391"/></g><path d="m257.476 69.986-56.758-6.7512c-2.506-.2981-4.78 1.4868-5.078 3.9867l-7.671 64.1635c-.298 2.5 1.491 4.768 3.997 5.066l56.758 6.752c2.506.298 4.78-1.487 5.079-3.987l7.67-64.1638c.299-2.4999-1.491-4.7681-3.997-5.0662z" fill="#fff" stroke-width="2"/><path d="m27.4687 162.633s1.3912-27.23-7.2795-46.755c-8.6706-19.5253-22.25079-24.2129-18.57063-30.0704 3.68016-5.8576 42.86783-11.3762 87.20773.2581 44.3397 11.6344 48.6997 25.9953 76.6527 28.9403s89.383-6.777 119.18.436c29.798 7.213 24.823 8.068 23.78 11.36s-28.584 58.091-28.584 58.091z" fill="#fff" stroke-width="2"/></g><path d="m2.07959 97.4741c14.00081-3.7921 51.40091-8.3909 85.84891.6454 44.3315 11.6345 48.6995 25.9955 76.6525 28.9405s89.383-6.777 119.181.444c11.881 2.872 19.945 8.552 23.229 9.964" stroke="#ff9121" stroke-width="3"/><g stroke="#fff"><path d="m222.614 75.5882-19.219-2.2861c-.99-.1176-1.887.5869-2.005 1.5736l-2.909 24.3387c-.118.9866.588 1.8816 1.577 1.9996l19.219 2.286c.989.118 1.887-.587 2.005-1.573l2.909-24.3392c.118-.9867-.588-1.882-1.577-1.9996z" fill="#0441ad" stroke-width="2"/><path d="m249.6 78.7929-19.219-2.286c-.989-.1177-1.886.5868-2.004 1.5735l-2.91 24.3386c-.118.987.589 1.882 1.578 2l19.219 2.286c.989.117 1.886-.587 2.004-1.574l2.91-24.3385c.118-.9867-.588-1.8819-1.578-1.9996z" fill="#0441ad" stroke-width="2"/><path d="m283.608 117.031c-.105.012-.211.012-.316 0-.42-.082-.79-.326-1.03-.68-.239-.354-.328-.788-.248-1.208l22.235-112.84134c.041-.20819.124-.40621.242-.58275s.27-.32813.447-.44613c.176-.118.375-.20009.584-.24159.208-.041497.423-.041588.632-.00027.209.04133.407.12325.584.2411s.329.26932.447.44575c.119.17644.201.37439.242.58256.042.20816.042.42246.001.63065l-22.235 112.80102c-.073.366-.271.696-.56.933-.289.236-.651.366-1.025.366z" fill="#fff"/><path d="m302.146 29.3059c4.338 0 7.854-3.5075 7.854-7.8342s-3.516-7.8342-7.854-7.8342c-4.337 0-7.854 3.5075-7.854 7.8342s3.517 7.8342 7.854 7.8342z" fill="#fff" stroke-width="2"/><path d="m266.178 76.8115c-.17 0-.332 0-.502 0l-73.312-8.875c-.535-.0647-1.051-.2337-1.521-.4976-.469-.2638-.882-.6173-1.214-1.0403-.332-.4229-.578-.907-.723-1.4246-.144-.5176-.186-1.0585-.121-1.592s.234-1.049.499-1.5171c.264-.4682.619-.8798 1.043-1.2113s.909-.5765 1.428-.7209 1.061-.1855 1.596-.1209l73.312 8.875c1.033.13 1.977.6466 2.642 1.4452.664.7987 1 1.8196.938 2.8558-.061 1.0362-.516 2.0103-1.271 2.7248s-1.754 1.116-2.794 1.1231z" fill="#fff" stroke-width="2"/></g><path d="m287.029 169.338c-3.413 6.761-6.721 13.167-6.721 13.167l-254.0607-22.567c.1824-5.198.0609-10.403-.364-15.588z" fill="#ff9121" stroke="#ff9121" stroke-width="3.01"/><path d="m12.8045 171.008c-.453.114-.932.064-1.3516-.141-.4197-.205-.7528-.552-.9402-.979-.1873-.427-.2167-.906-.0829-1.353.1338-.446.4222-.831.8137-1.085 10.3934-6.947 27.7832-17.049 46.3943-21.381 22.356-5.212 21.3287 8.181 19.4118 16.338-.0882.371-.0669.76.0614 1.119s.358.674.6616.906c.3035.232.6679.372 1.0491.402s.763-.051 1.0993-.233c13.5155-7.342 56.618-26.487 84.247-19.363 21.523 5.583 20.067 18.315 16.42 26.536-.18.384-.231.815-.145 1.23.085.415.303.791.62 1.073.317.281.716.454 1.139.491s.847-.063 1.208-.285c7.652-4.679 20.221-14.974 32.523-14.974 12.941 0 15.368 10.488 15.554 14.958.004.355.104.703.289 1.006.186.303.45.55.765.715.315.166.669.243 1.025.224.355-.019.699-.133.995-.331 8.088-5.543 28.794-18.21 46.677-16.855 18.821 1.428 17.042 25.286 15.845 33.58-.044.311-.162.607-.344.863s-.423.465-.702.61c-.279.144-.589.22-.904.221-.315 0-.625-.074-.905-.217-4.392-2.284-14.446-6.568-26.4-5.6-12.99 1.049-36.139 10.666-44.623 14.354-.317.137-.663.189-1.006.151s-.669-.165-.948-.368c-.278-.204-.498-.476-.637-.79-.14-.315-.195-.66-.159-1.002.622-6.334.606-19.098-9.957-18.121-11.825 1.097-40.619 14.175-49.29 18.217-.279.129-.584.191-.891.182s-.607-.09-.877-.236-.503-.352-.679-.603-.291-.54-.335-.843c-1.141-7.665 2.192-29.118-27.8-26.012-26.845 2.783-59.772 12.401-69.7367 15.886-.3544.122-.7362.142-1.1012.056-.3649-.086-.698-.273-.9605-.54-.2626-.267-.4438-.603-.5227-.968-.0789-.366-.0522-.746.077-1.097 2.289-6.334 4.036-17.839-12.7228-18.646-11.0339-.57-22.0933.407-32.8546 2.905z" fill="#fff" stroke="#0441ad" stroke-width="2"/></g></svg>