<svg fill="none" height="150" viewBox="0 0 150 150" width="150" xmlns="http://www.w3.org/2000/svg"><path clip-rule="evenodd" d="m135.158 117.097v-82.709l-59.6873 10.5162-59.6871-10.5162v82.709l59.6871 10.516zm-.495-85.5087 3.337-.5883v88.482l-2.351.415-59.6866 10.516-.4917.085-.4945-.085-59.6871-10.516-2.3477-.415v-88.482l3.334.5883 59.1953 10.4481zm-65.0191 27.1406-48.0339-8.4698v-8.4813l48.0339 8.4699zm0 61.5031-48.0339-8.47v-4.544l48.0339 8.469zm-24.7331-61.0995-21.601-3.8086v21.0752l21.601 3.8086zm-23.3063 18.6991v-24.5399l25.0117 4.4083v24.54zm30.79 5.4259-3.2401-.5713v-24.54l3.2401.5713zm2.5013.4405 3.2401.5713v-24.5399l-3.2401-.5713zm8.9817 1.5831-3.2402-.5713v-24.5399l3.2402.5713zm2.5007.4434 3.2402.5713v-24.5399l-3.2402-.5713zm-41.5281 19.9445-3.2401-.572v-24.5396l3.2401.5713zm2.7742.488 3.2373.572v-24.5402l-3.2373-.5713zm9.2516 1.632-3.2402-.571v-24.5403l3.2402.5713zm2.3594-24.1279v24.5399l30.412 5.36v-24.5395zm13.2107 18.5739c-.3467 0-.6906 0-1.0317-.04-2.6177-.207-6.3808-1.486-8.5267-2.7709-.2327-.1382-.4254-.3345-.5593-.5697-.1338-.2352-.2042-.5012-.2042-.7718s.0704-.5366.2042-.7718c.1339-.2352.3266-.4315.5593-.5697 2.0192-1.1533 4.3115-1.7423 6.6366-1.7054.307 0 .6224 0 .9465.0284 3.0275.1896 5.9189 1.3261 8.2652 3.2487.1924.1564.3436.3574.4406.5855l6.4831-1.8389-.9664 6.6536s-3.854-1.89-5.6532-3.305c-.1547.23-.3687.415-.6196.534-1.885.857-3.9321 1.299-6.0028 1.296zm28.8513-43.5061 48.0337-8.4698v-8.4813l-48.0337 8.4699zm48.0337 53.0331-48.0337 8.47v-4.545l48.0337-8.469zm-25.017-54.062 25.012-4.4083v24.5399l-25.012 4.4084zm-5.7672 25.5575 3.2402-.5713v-24.54l-3.2402.5713zm-2.5013.4405-3.2401.5713v-24.5399l3.2401-.5713zm-8.981 1.5831 3.2402-.5713v-24.5399l-3.2402.5713zm-2.5014.4434-3.2401.5713v-24.5399l3.2401-.5713zm41.5309 19.9445 3.237-.572v-24.5396l-3.237.5713zm-2.777.488-3.237.572v-24.5402l3.237-.5713zm-9.252 1.632 3.241-.571v-24.5403l-3.241.5713zm-3.746-1.002v-21.0753l-27.0008 4.7607v21.0756zm-28.7061-17.7471 30.4121-5.3604v24.5395l-30.4121 5.361z" fill="#dbdbdb" fill-rule="evenodd"/></svg>