<svg fill="none" height="150" viewBox="0 0 150 150" width="150" xmlns="http://www.w3.org/2000/svg"><path clip-rule="evenodd" d="m146.187 38.5518c.275-.8607.217-1.7929-.161-2.6132-.379-.8203-1.051-1.4693-1.884-1.8191l1.03-5.2319c.037-.1936-.003-.3942-.113-.5579s-.281-.2771-.474-.3155c-.194-.0384-.396.0019-.56.112s-.278.2809-.316.475l-1.016 5.2347c-.827.0118-1.626.3072-2.262.8369-.636.5298-1.071 1.2618-1.233 2.0737-.161.812-.039 1.6547.347 2.3874.385.7327 1.01 1.311 1.77 1.6383l-7.826 39.8052c-3.273-.6522-7.24-.9301-11.562-.9868l2.076-17.4058c.008-.0943.008-.1892 0-.2835l1.923.2325c.076.0103.153.015.229.0142.485.0054.954-.1758 1.309-.5062.354-.3305.569-.7847.598-1.2687.029-.4841-.129-.9608-.442-1.3314-.312-.3706-.756-.6068-1.238-.6596l-33.7649-4.0778c-.2464-.0298-.4962-.0108-.7352.056-.239.0667-.4625.1799-.6577.333-.1953.1531-.3584.3432-.4802.5594s-.1999.4543-.2296.7006c-.0298.2463-.0108.4961.0559.7351.0668.239.1799.4625.3331.6578.1531.1952.3432.3584.5594.4802.2161.1218.4542.1998.7006.2296l1.5795.19c-.033.1082-.0558.2193-.0681.3318l-2.6514 22.2322c-4.3387.1474-8.2237.1531-11.2437-.1673-6.4333-.679-10.1559-2.673-14.8153-5.1689-4.1372-2.2161-9.0129-4.8279-17.1804-7.2659l.6749-4.8774c.2184-1.5739-1.2335-3.0456-3.315-3.332l-26.0888-3.6156c-.8965-.138-1.8138.0016-2.6287.3998-.3787.1776-.7091.4437-.9633.7759s-.4247.7206-.4971 1.1326l-.7883 5.6998c-5.51556.4991-9.16516 1.6164-9.88827 2.7677-.81103 1.2846.17015 2.4473 1.85174 4.2735 6.80573-1.4604 22.62353-3.3348 38.08963.7344 10.2898 2.707 16.0276 5.7787 20.6379 8.2467l.0205.011.0158.0085c4.6063 2.4659 8.249 4.416 14.5344 5.0817 5.2601.5628 13.1907.1202 21.6046-.3495l.191-.0107.032-.0018c12.32-.6828 25.057-1.3888 33.172.569 4.167 1.0116 7.365 2.775 9.305 3.8444l.052.0292.182.0992c.936-1.9396 1.568-3.2951 1.667-3.6127.058-.183.142-.3496.221-.5068.577-1.1467.904-1.7967-10.914-4.6769l7.832-39.8393c.758-.0094 1.494-.2563 2.105-.706.61-.4497 1.064-1.0795 1.298-1.8008zm-109.5503 21.6962-.7486 5.1951c-2.9889-.5019-5.8728-.8507-8.6036-1.0521l.7684-5.3226zm-21.0128 4.0296.7486-5.3879c.0432-.187.1296-.3614.2522-.5091s.278-.2647.4539-.3416c.5547-.2615 1.1751-.3504 1.7809-.2552l7.7869 1.0804-.7855 5.4219c-3.4087-.2185-6.8279-.2213-10.237-.0085zm28.8536 3.0002c-2.4522-.6407-4.8477-1.168-7.1894-1.5961l.7665-5.238 6.9192.9585c1.2421.1729 2.2005.967 2.0956 1.7326l-.6465 4.6733c-.6296-.1786-1.2761-.3545-1.9454-.5303zm63.5035 7.5686 1.339-11.238c.03-.2178.144-.4153.316-.5512.173-.1359.392-.1995.611-.1776l8.85 1.0549c.219.0263.419.1383.556.3116.136.1733.199.3937.173.6128l-1.341 11.2409c-.027.2191-.139.4188-.312.5554s-.394.199-.613.1734l-8.85-1.0549c-.221-.0304-.42-.146-.557-.322-.136-.176-.198-.3984-.172-.6195zm-12.4289-1.4802 1.3412-11.2381c.0263-.2191.1384-.4188.3117-.5554s.3936-.199.6128-.1734l8.8612 1.0408c.22.0262.419.1383.556.3116s.199.3936.173.6128l-1.338 11.2409c-.013.1084-.047.2131-.101.3083-.053.0951-.125.1788-.211.2462s-.184.1172-.289.1467c-.105.0294-.215.0378-.324.0247l-8.8528-1.0549c-.1095-.0116-.2156-.0448-.3122-.0977-.0966-.0528-.1817-.1243-.2505-.2103-.0689-.0859-.12-.1846-.1504-.2904-.0305-.1059-.0396-.2166-.027-.326zm38.5519 13.7448c-7.917-1.9227-21.132-1.1882-32.792-.5388l-.022.0012c-8.5331.4731-16.5917.9199-22.0005.3504-6.5643-.6944-10.3155-2.7033-15.0619-5.2451l-.0072-.0039c-4.5372-2.4359-10.2087-5.4673-20.3493-8.1357-13.3592-3.5163-28.4255-2.5522-36.62075-.8961 2.31449 2.4765 4.20395 5.3184 5.59205 8.4108 2.6741 6.0345 3.2725 13.6626 3.3746 18.0495 4.0806-2.1155 8.7539-4.075 13.6115-5.2121 1.4147-.3505 2.8644-.5408 4.3217-.5671 2.3848 0 4.1487.6947 5.2376 2.0644 1.2307 1.5426 1.5143 3.8169.8677 6.9415 4.3246-2.241 8.8077-4.1619 13.4131-5.7477 7.3275-2.5295 13.8015-3.8112 19.2462-3.8112 2.2069-.0234 4.408.2329 6.5505.7628 4.4493 1.157 7.3729 3.1023 8.6519 5.7764 1.0208 2.1127.9953 4.6567-.0681 7.3927.4877-.315 1.018-.669 1.571-1.041 3.5645-2.393 8.4505-5.6711 13.4099-5.6711 3.687 0 5.692 1.7211 6.71 3.1651.899 1.323 1.437 2.857 1.562 4.452 3.741-2.521 12.531-7.7986 20.559-7.7986.451 0 .902.017 1.339.051 1.774.0884 3.476.7266 4.872 1.8266 1.851-3.7322 3.808-7.6965 5.271-10.7024l-.252-.139c-1.852-1.0322-4.966-2.7592-8.987-3.7346zm-23.338 23.361c3.738-2.558 13.28-8.405 21.504-7.781 8.674.66 7.855 11.677 7.305 15.497-.018.145-.071.284-.155.405-.083.12-.195.219-.325.287s-.274.103-.421.103c-.146 0-.291-.035-.421-.103-2.024-1.052-6.655-3.032-12.159-2.586-5.987.484-16.652 4.928-20.56 6.63-.146.063-.306.088-.464.071-.159-.018-.31-.077-.438-.171-.129-.094-.231-.22-.295-.366-.065-.146-.09-.306-.073-.465.289-2.923.281-8.819-4.5825-8.365-5.4474.505-18.7159 6.548-22.7086 8.414-.1282.06-.2688.09-.4105.086-.1416-.004-.2804-.041-.4052-.108-.1247-.068-.2319-.164-.3128-.28-.081-.116-.1335-.25-.1532-.39-.0691-.466-.1025-1.043-.14-1.689-.2474-4.264-.6713-11.572-12.6691-10.326-12.3666 1.284-27.535 5.725-32.1289 7.336-.1634.057-.3395.066-.5079.026-.1683-.04-.3219-.126-.4427-.25s-.2038-.28-.2394-.449c-.0355-.169-.0221-.345.0387-.507 1.0407-2.929 1.8432-8.255-5.8757-8.618-5.0845-.262-10.1807.19-15.13998 1.342-.20765.049-.42611.024-.61717-.071-.19105-.095-.34255-.255-.42802-.45-.08548-.196-.0995-.416-.03959-.62.05991-.205.18994-.383.36733-.501 4.78953-3.21 12.79773-7.8752 21.37293-9.8744 10.3023-2.4047 9.8287 3.7774 8.961 7.5454-.0409.171-.0315.351.0273.516.0587.166.1642.311.3036.418.1395.107.307.172.4823.186.1752.014.3508-.023.5054-.107 6.2301-3.389 26.0973-12.2335 38.8156-8.9271 9.9138 2.5806 9.2417 8.4591 7.5629 12.2531-.0825.178-.1058.377-.0662.568.0396.192.1398.366.2859.496s.3302.21.5251.227.3901-.029.5569-.131c.6605-.405 1.4007-.901 2.2051-1.44 3.4845-2.335 8.171-5.476 12.7794-5.476 5.946 0 7.083 4.854 7.163 6.91.002.164.049.324.136.463.086.139.208.252.354.327.145.076.308.11.471.1.163-.009.321-.063.456-.155z" fill="#dbdbdb" fill-rule="evenodd"/></svg>