<svg fill="none" height="150" viewBox="0 0 150 150" width="150" xmlns="http://www.w3.org/2000/svg"><path clip-rule="evenodd" d="m73.9496 38.3444c-.0239-.0972-.0769-.1847-.152-.2509-.0751-.0661-.1686-.1077-.268-.1191l-4.8-.51c-.8566-2.1431-2.4435-3.9141-4.48-5-4.9-2.65-8.1-.91-8.23-.83-.0725.0371-.1338.0927-.1777.1612-.0439.0686-.0689.1475-.0723.2288l-.0003.0126c-.0058.2226-.0707 2.69 4.2203 5.5474l.29.19c2 1.26 5.38 2.34 7.54 1.84l1.91 3.48c.0394.0711.094.1326.16.18.0982.0621.2142.0902.33.08.0968-.01.1885-.0486.2633-.111.0748-.0623.1294-.1455.1567-.239l.8-2.55 2.27-1.57c.0933-.0516.1672-.1323.2105-.2297.0434-.0975.0537-.2064.0295-.3103zm12.4002 77.9696-1.22-3.25 1.18-4.18c.0187-.063.0172-.131-.0043-.194-.0215-.062-.0619-.117-.1157-.156-.0544-.042-.1212-.065-.19-.065s-.1357.023-.19.065l-4.39 3.39c-2.4509-1.291-4.7373-2.872-6.81-4.71-4.91-4-11.49-4.25-10.08-.3 0 0 1.27 5.63 9 7.35 4.31 1 6.61.09 7.76-.59l4.62 3c.0525.038.1153.059.18.06.0721-.003.1416-.027.2-.07.0423-.046.0705-.104.0811-.166s.0033-.126-.0211-.184zm27.3762-9.669c.1.018.192.067.264.139.071.068.12.156.14.253.019.097.009.197-.03.287l-1.11 2.52.65 2.6c.024.095.02.195-.012.287-.032.093-.091.174-.168.233-.094.066-.206.101-.32.1-.081-.008-.159-.031-.23-.07l-3.45-2c-1.58 1.55-5.07 2.36-7.39 2.36h-.34c-5.3004-.2-6.5104-2.44-6.5104-2.53-.0394-.072-.06-.152-.06-.235 0-.082.0206-.163.06-.235.07-.13 1.89-3.29 7.4504-3.59 2.285-.126 4.543.553 6.38 1.92l4.38-2c.092-.043.195-.057.296-.039zm-11.036 14.069c-.072-.072-.164-.121-.264-.139-.101-.018-.204-.004-.296.039l-4.3704 2c-1.8408-1.357-4.0962-2.032-6.38-1.91-5.56.3-7.38 3.45-7.46 3.59-.0368.071-.0561.15-.0561.23s.0193.159.0561.23c0 .1 1.22 2.34 6.51 2.54h.34c2.33 0 5.81-.81 7.4-2.36l3.4404 2c.071.039.149.062.23.07.114.003.227-.033.32-.1.077-.062.136-.144.169-.238.034-.093.041-.194.021-.292l-.66-2.59 1.12-2.53c.036-.091.044-.192.023-.288-.021-.097-.071-.184-.143-.252zm-13.0919-86.591c.0637.0354.1161.0878.1515.1514.0237.07.0259.1456.0063.2169s-.0601.1351-.1163.1831l-1.37 1.46-.18 1.92c-.006.0719-.0328.1405-.0772.1974-.0444.0568-.1045.0994-.1728.1226-.0815.0248-.1685.0248-.25 0-.0527-.024-.1002-.058-.14-.1l-1.87-2.18c-1.8402.5745-3.8204.5111-5.62-.18l-.23-.08c-3.56-1.42-3.83-3.23-3.83-3.31-.0064-.059.0011-.1187.022-.1742.0208-.0556.0544-.1055.098-.1458.0073-.0043.0218-.0147.0433-.0303.3298-.2384 2.3237-1.6799 5.9567-.6097 1.5872.466 2.9626 1.4702 3.89 2.84l3.48-.33c.0727-.0036.1449.0133.2085.0486zm29.7019 55.0914c1.761-.3319 3.498-.7796 5.2-1.34 7.6-2.77 13.69-15.82 13.69-15.82s-5.37-2.62-15.86.64c-6.22 1.93-10.65 7-13.07 10.47-2.917-1.7922-5.959-4.8042-9.9684-8.7744-6.5061-6.4419-15.5599-15.4064-30.7611-25.7756-26.13-17.83-53.64-4.06-56.54 1.26-3.25001 6 .13 21.41 31.14 37.85 16.72 8.87 49.82 6.2 64.1195 3.41.206.4275.422.9253.658 1.4713 1.478 3.4126 3.772 8.7093 9.522 10.5283 11.11 3.58 21.87-4.6196 21.87-4.6196s-15.05-6.41-19.81-9.19zm-84.9995-35c-.16 1.75-1.92 2.57-3.7 2.41-.3829.0134-.764-.0579-1.116-.2089-.3521-.151-.6665-.3779-.9206-.6646-.2542-.2866-.4419-.6259-.5496-.9935-.1078-.3676-.133-.7545-.0738-1.133.16-1.75 1.45-3.42 3.23-3.26.9011.1579 1.7127.6414 2.2806 1.3586s.8524 1.6181.7994 2.5314zm27.4 17.12c-1 1.63-4.26 6-9.55 2.81-2.6553-1.6621-4.7196-4.1183-5.9-7.02-1.7829 1.6919-4.0752 2.7466-6.52 3-.6861.0906-1.379.1173-2.07.08-.1513.0309-.3078.0264-.4571-.0132-.1493-.0397-.2873-.1134-.4034-.2153-.116-.102-.2068-.2294-.2654-.3724-.0585-.1429-.0831-.2975-.0719-.4515.0113-.1541.058-.3035.1367-.4364.0786-.133.187-.2459.3166-.3299.1296-.0841.2769-.137.4303-.1545.1535-.0176.3089.0006.4542.0532.0089 0 .0253.0005.0488.0011h.0002c.6074.0175 5.9239.1703 8.321-4.1811 3-5.36.56-9.2.45-9.36-.0709-.2099-.0701-.4373.0023-.6467s.2122-.3888.3976-.5101c.1853-.1212.4057-.1776.6266-.16.2208.0175.4296.1078.5935.2568 1.0756 1.8921 1.5171 4.0788 1.26 6.24 1.09.1 8.92.94 11.56 3.86 1.63 1.81 1.56 5.96.6 7.59zm60.3295-17.91c-.503.3037-1.024.5775-1.56.82l.13.07c1.7.54 7 1.49 7 1.49s-2.84 3.42-6.66 3.09c-1.971-.1629-3.09-1.6779-3.817-2.6615-.121-.1638-.231-.3129-.333-.4385-4.37 1.95-14.77 5.25-20.7695 3.64-11.14-2.97-13.36-7.65-12.76-9.81.53-1.92 8.32-8.36 17.9995-4.58 5.646 2.1715 9.21 4.37 11.768 5.9482 1.565.9655 2.753 1.6988 3.812 2.0518.645-1.7656 1.84-3.2769 3.41-4.31 3.09-1.82 5-1.38 5-1.38s-1 4.63-3.22 6.07zm-32.3595-3.09c.57 0 1.08-.43 1-1-.0467-.3011-.2034-.5742-.4399-.7663-.2365-.1922-.5358-.2897-.8401-.2737-.2736.0665-.51.2382-.6579.4778s-.1953.5278-.1321.8022c.0089.1251.0454.2468.1069.3561.0615.1094.1464.2038.2487.2764.1023.0727.2194.1218.3429.1438.1235.0221.2504.0165.3715-.0163zm10.6285 3.2917c.183-.2508.309-.5378.371-.8417h.03c.086-.4349.059-.8843-.078-1.306-.136-.4216-.378-.8016-.7015-1.104-.9116-.6246-2.8848-.4655-3.6885-.4007-.1484.0119-.2569.0207-.3115.0207-.08-.7129-.3847-1.3818-.87-1.91-.0626-.0485-.1408-.0721-.2197-.0662-.079.0059-.1529.0408-.2076.0979-.0547.0572-.0863.1326-.0886.2117-.0024.0791.0247.1563.0759.2166.3704.4046.6229.9031.7298 1.4412s.0642 1.0952-.1235 1.6107c-.1876.5156-.513.9698-.9408 1.3132-.4278.3435-.9416.5631-1.4855.6349-.0842.0147-.1593.0615-.2097.1305-.0503.069-.0719.1549-.0603.2395.0147.0815.0604.1541.1275.2026.0672.0485.1505.0691.2325.0574.2257-.0367.4469-.097.66-.18.7617-.2564 1.4184-.7552 1.87-1.42.5932.8438 1.436 1.4804 2.41 1.82.2924.1035.6036.1431.9127.1162.309-.027.6087-.1199.8788-.2724.2701-.1526.504-.3613.687-.6121z" fill="#dbdbdb" fill-rule="evenodd"/></svg>