<svg fill="none" height="150" viewBox="0 0 150 150" width="150" xmlns="http://www.w3.org/2000/svg" xmlns:xlink="http://www.w3.org/1999/xlink"><clipPath id="a"><path d="m31 13h88.3v123.14h-88.3z"/></clipPath><g clip-path="url(#a)" fill="#dbdbdb"><path d="m108.84 72.3001c-2.327-7.1746-6.855-13.4341-12.9402-17.89-1.8587-1.3533-3.8408-2.5285-5.92-3.51 0-.63 0-1 0-1.06l-5.83-1.3v.19c-.69-.19-1.39-.35-2.1-.5l-.16-.75c1.4296-.9911 2.6524-2.2512 3.6-3.71.9424-1.4597 1.588-3.0908 1.9-4.8 1.4 0 5.43-.51 5.36-4.11 0-3.83-3.41-2.28-4.23-1.83v-.59c.0923-2.6368-.2904-5.2687-1.13-7.77l-1.56-.53c-.0609.1005-.1277.1973-.2.29-.3109.3909-.7568.6513-1.25.73-.4942.0813-1.0009-.0257-1.42-.3-.11-.06-3.4-1.84-13-1.63-7.41.15-11.39 1.8-11.88 2-.6612 2.1685-.9982 4.4229-1 6.69v.91c-1.18-.53-3.8-1.35-3.86 2-.07 3.63 3.93 4.1 5.31 4.17 1.34 3.7 3.67 7 7.92 8.59l-.2.92c-.71.18-1.42.37-2.11.59l-2.56-.91-2.78.69c0 .11-.15 1-.37 2.59-8.0209 4.0925-14.1948 11.0703-17.28 19.53-1.2 1.56-11.65 15.5-10 28 .6039 4.0269 2.4907 7.7509 5.38 10.6199l-2.25 25.39c-.0115.138.0056.277.0504.407.0447.131.1161.251.2096.353.0935.104.2077.187.3351.243.1275.057.2654.087.4049.087h78.9002c.139.001.277-.028.405-.084.127-.055.242-.137.336-.24.094-.102.166-.224.21-.356.045-.131.061-.271.049-.41l-2.25-25.42c3.327-2.79 5.515-6.704 6.15-10.9999 1.7-12.28-8.8-24.66-10.24-26.29zm-32.5802-41.85c.2747-.244.6328-.3729 1-.36.4016.081.7583.3093 1 .64.2375.3223.3446.7222.3 1.12-.0424.1781-.1211.3455-.2313.4918-.1101.1463-.2492.2682-.4087.3582-.1603.0889-.3374.1434-.52.16-.1744.0398-.3555.0398-.53 0-.1675-.0078-.3314-.0522-.48-.13-.1447-.0747-.2711-.1805-.37-.31-.1016-.1331-.1733-.2866-.21-.45-.0406-.1608-.0406-.3292 0-.49.0004-.1934.0406-.3846.118-.5618s.1904-.3365.332-.4682zm-6 4.25c.1095-.2441.2737-.4597.48-.63.2462-.1842.5428-.2889.85-.3v-1.39c-.0007-.0554.0094-.1105.03-.162s.0512-.0984.09-.138c.0601-.0585.136-.0982.2184-.1142.0823-.0159.1676-.0074.2452.0245.0776.0318.1441.0857.1915.155.0473.0692.0734.1508.0749.2347v1.85c.0149.0625.0149.1275 0 .19-.0215.0595-.0597.1116-.11.15-.0538.0388-.1151.0661-.18.08-.0658.015-.1341.015-.2 0-.2323-.0539-.4765-.0144-.68.11-.0933.101-.1648.2201-.21.35-.0351.1344-.0351.2756 0 .41-.025.112-.025.228 0 .34.0418.1063.1067.2019.19.28.4312.2526.9414.3347 1.43.23.1129-.0129.2265.0156.32.08.045.0314.0832.0714.1124.1178s.0488.0981.0576.1522c.0234.0931.0164.1912-.02.28-.0715.0885-.1697.1516-.28.18h-.62c-.547.0219-1.0857-.14-1.53-.46-.1789-.1619-.3219-.3595-.42-.58-.0928-.2214-.1371-.4601-.13-.7-.0054-.2537.0423-.5058.14-.74zm1.49 6.64c5.22.55 6.95-3 7-3.14.0315-.054.0749-.1001.1269-.1347.052-.0347.1112-.057.1731-.0653.0795-.0291.1657-.0341.248-.0143.0822.0197.1569.0632.2145.1251.0577.0619.0957.1395.1095.2229.0138.0835.0027.1691-.032.2463-.6813 1.1818-1.6741 2.1538-2.87 2.81-1.1957.6524-2.55.9572-3.91.88-.3743.0092-.7487-.0109-1.12-.06-3.85-.4-4.77-2.73-4.81-2.82-.0091-.0563-.0091-.1137 0-.17-.0103-.0562-.0103-.1138 0-.17.0215-.057.0557-.1083.1-.15.0402-.039.0878-.0696.14-.09h.17c.0562-.0103.1138-.0103.17 0 .053.0278.1005.0651.14.11.0416.0405.0696.0929.08.15.01.08.86 1.93 4.12 2.27zm-5.53-8.88c-.1013-.1332-.173-.2867-.21-.45-.0406-.1608-.0406-.3292 0-.49.0223-.3835.1947-.7428.48-1 .2758-.2433.6323-.3752 1-.37.4047.086.7619.3218 1 .66.1326.1657.2302.3567.287.5612.0567.2045.0713.4184.043.6288-.0393.1784-.1178.3458-.23.49-.1117.1457-.251.2681-.41.36-.1608.0876-.3377.142-.52.16-.1815.0182-.3648.0012-.54-.05-.1642-.0089-.3245-.0533-.47-.13-.1531-.0929-.283-.2194-.38-.37zm2.46 23.45c1.3842.7196 2.911 1.1227 4.47 1.18 8 .24 9.9-4.26 9.9-4.26l-.53-2.47c.55.13 1.1.29 1.64.45 0 3 .2 9.1 1.16 18.53-.41.1629-.7574.4525-.9912.8267-.2339.3742-.342.8133-.3088 1.2533l.13 1.39h-21l.09-1.48c.0179-.2746-.0195-.5501-.11-.81-.0891-.2529-.2248-.487-.4-.69-.1826-.2042-.4034-.3706-.65-.49 1.43-9.62 2-15.42 2.14-18.18.49-.17 1-.31 1.49-.45l-.47 2.29c.9387 1.2115 2.1295 2.2045 3.49 2.91zm-12.78 14.88 5.31.34.07.07-.37 4.8-5.31-.33-.07 1v-1.08l.3-4.73-1-.06zm30.63 5.27-.09 1-.44-5.75.06-.08 5.37-.4.32 4.82zm30.6202 22.31c-.611 3.9499-2.694 7.5219-5.83 9.9999-.131.102-.234.235-.3.387s-.094.318-.08.483v.45c-8 4.78-20.8302 6-36.7802-10.3599-3.77 3.5799-6.85 7.4199-12.67 11.4699-7.13 5-16.66 3.75-23-1.06v-.42c.0125-.15-.0089-.3-.0626-.44-.0536-.14-.1382-.267-.2474-.37-2.7081-2.605-4.4769-6.033-5.03-9.7499-1.64-12.19 9.56-26.53 9.68-26.67.0618-.0866.1122-.1807.15-.28 2.3752-6.5434 6.7084-12.1964 12.41-16.19.88-.62 1.76-1.18 2.76-1.71-.48 3.22-1.16 8.09-2.2 14.89-.2441-.0126-.4885.0214-.72.1-.2626.0904-.5042.2333-.71.42-.4003.3656-.6469.8696-.69 1.41l-.29 4.73c-.0227.274.0114.5497.1.81.0914.2601.2305.5008.41.71.138.1454.2963.2701.47.37l-2.54 10.94c-1.7647 1.3007-3.4355 2.7243-5 4.26-.1044.1049-.163.247-.163.395s.0586.2901.163.395c.105.1044.247.163.395.163.1481 0 .2901-.0586.395-.163.16-.11 10.23-10.34 21.38-11.34 13-1.22 18.61 2.21 20.31 3.6-3.8 1.51-5.83 3.53-9.62 7.31-1.34 1.33-2.85 2.83-4.75 4.64-.1044.1049-.163.247-.163.395s.0586.2901.163.395c.0524.0558.1161.0998.1868.1291s.1468.0432.2232.0409c.1409-.0013.2763-.0548.38-.15 1.91-1.82 3.43-3.32 4.77-4.66 4-4 5.86-5.82 9.82-7.27 2.7428.0432 5.4311.772 7.82 2.12.086.0466.1823.0706.28.07.0977-.0009.1936-.0261.2791-.0732.0855-.0472.158-.1148.211-.1968.0711-.1297.0899-.2816.0528-.4247-.0372-.1431-.1276-.2666-.2529-.3453-1.4474-.7971-2.9896-1.4085-4.59-1.82l-2-8.15c.1517-.0384.2991-.092.44-.16.3657-.1835.6685-.4717.8697-.8279.2013-.3562.2919-.7642.2603-1.1721l-.39-4.75c-.0177-.2694-.0927-.5319-.22-.77-.1195-.2435-.2861-.461-.49-.64-.2075-.1771-.4492-.3098-.71-.39-.2416-.0791-.4965-.1097-.75-.09-.79-7.61-1.13-12.69-1.21-15.66 1.6217.8278 3.1764 1.7807 4.65 2.85 5.8012 4.2512 10.1012 10.2358 12.2802 17.09.04.1382.112.265.21.37.12.15 11.54 12.89 9.94 24.91z"/><path d="m81.4704 20.13c1.3743.2415 2.6907.7402 3.88 1.47.2496.2067.4452.4709.57.77.1261.2896.1843.6043.17.92h-.15l-.26.84.16.05c.1386-.2641.2236-.553.25-.85l1.61.54c.0695-.1118.1106-.2388.12-.37.0094-.1329-.0111-.2662-.06-.39-2.67-6.71-7.82-10.11-15.27-10.11h-.28c-2.6666-.026-5.2901.673-7.5904 2.0221-2.3002 1.3492-4.1907 3.2978-5.4696 5.6379 3.5076-.9385 7.1192-1.4324 10.75-1.47 3.8803-.1494 7.7646.1662 11.57.94z"/><path d="m56.6597 24.7599c.3501.0109.6963-.0756 1-.25.5-.23 4.63-2 12.3-2.14 9.92-.21 13.35 1.7 13.49 1.76.2449.1609.5395.2284.83.19.2912-.0475.5546-.2006.74-.43.1051-.1187.1835-.2585.23-.41.029-.1553.029-.3147 0-.47-.0207-.1601-.068-.3155-.14-.46-.078-.1396-.1835-.2621-.31-.36-1.0928-.6317-2.2873-1.0682-3.53-1.29-3.2426-.6682-6.55-.9701-9.86-.9h-1.54c-8.27.18-12.72 2.14-13.26 2.36h-.12c-.2931.0489-.5576.2049-.7423.4376-.1848.2328-.2766.5258-.2577.8224.0247.3063.1639.5919.39.8.2082.2072.4866.3286.78.34z"/></g></svg>