<svg width="404" height="323" viewBox="0 0 404 323" fill="none" xmlns="http://www.w3.org/2000/svg">
<g clip-path="url(#clip0_3876_7101)">
<path d="M36.0297 17.5009L176.636 51.8976C177.146 52.0247 177.46 52.5711 177.331 53.1252C177.201 53.6793 176.688 54.0311 176.177 53.904L35.5729 19.497C35.0625 19.3699 34.7484 18.8236 34.8779 18.2695C35.0075 17.7154 35.5209 17.3636 36.0312 17.4907L36.0297 17.5009Z" fill="black"/>
<path d="M24.4657 16.7916L20.7425 15.8797C20.2322 15.7526 19.9181 15.2063 20.0476 14.6522C20.1771 14.0981 20.6905 13.7463 21.2009 13.8734L24.9241 14.7853C25.4345 14.9124 25.7486 15.4587 25.619 16.0128C25.4895 16.5669 24.9761 16.9187 24.4657 16.7916Z" fill="black"/>
<path d="M86.6991 18.1112L82.1764 16.7484C81.669 16.6009 81.3877 16.0282 81.5455 15.4782C81.6938 14.9269 82.231 14.6099 82.7368 14.7676L87.2595 16.1303C87.7669 16.2779 88.0482 16.8506 87.8905 17.4006C87.7421 17.9519 87.2049 18.2689 86.6991 18.1112Z" fill="black"/>
<path d="M177.942 45.6914L122.285 28.8739C121.778 28.7264 121.497 28.1536 121.654 27.6037C121.803 27.0524 122.34 26.7353 122.846 26.893L178.502 43.7105C179.009 43.858 179.291 44.4308 179.133 44.9807C178.985 45.532 178.448 45.8491 177.942 45.6914Z" fill="black"/>
<path d="M115.903 26.9464L94.9139 20.6004C94.4066 20.4529 94.1252 19.8801 94.283 19.3301C94.4313 18.7788 94.9685 18.4618 95.4744 18.6195L116.464 24.9655C116.971 25.113 117.252 25.6858 117.094 26.2357C116.946 26.7871 116.409 27.1041 115.903 26.9464Z" fill="black"/>
<path d="M7.83112 107.856L11.6593 108.054C12.1846 108.079 12.5845 108.565 12.5398 109.131C12.5044 109.699 12.0449 110.142 11.521 110.107L7.69289 109.909C7.16754 109.884 6.76762 109.398 6.8124 108.832C6.84777 108.264 7.30726 107.821 7.83112 107.856Z" fill="black"/>
<path d="M23.0762 108.648L167.635 116.147C168.16 116.172 168.56 116.658 168.515 117.224C168.48 117.792 168.02 118.235 167.497 118.2L22.938 110.701C22.4126 110.676 22.0127 110.19 22.0575 109.623C22.0928 109.056 22.5523 108.612 23.0762 108.648Z" fill="black"/>
<path d="M66.9174 124.698L71.641 124.694C72.1708 124.688 72.5831 125.155 72.5775 125.717C72.5704 126.289 72.1283 126.745 71.6078 126.752L66.8843 126.756C66.3544 126.762 65.9421 126.295 65.9477 125.733C65.9548 125.161 66.397 124.705 66.9174 124.698Z" fill="black"/>
<path d="M108.819 124.624L166.961 124.53C167.491 124.524 167.903 124.991 167.897 125.553C167.89 126.125 167.448 126.581 166.928 126.588L108.786 126.682C108.256 126.688 107.844 126.221 107.85 125.659C107.857 125.087 108.299 124.631 108.819 124.624Z" fill="black"/>
<path d="M80.2247 124.673L102.152 124.634C102.682 124.629 103.094 125.096 103.089 125.657C103.082 126.23 102.639 126.686 102.119 126.692L80.1915 126.732C79.6617 126.737 79.2494 126.27 79.255 125.708C79.2621 125.136 79.7043 124.68 80.2247 124.673Z" fill="black"/>
</g>
<g clip-path="url(#clip1_3876_7101)">
<path d="M276.444 132.654C264.262 132.654 249.047 138.475 235.809 147.273C199.775 171.232 191.41 190.698 183.423 224.24C175.978 255.509 203.673 285.614 203.673 285.614L201.156 321.133H402.467C390.203 185.635 360.18 132.465 276.471 132.627L276.444 132.654Z" fill="#F9D4D4"/>
<path d="M254.652 147.083C254.652 147.083 258.469 152.281 271.193 153.527C283.917 154.745 298.292 149.249 298.292 149.249L272.574 185.581L266.645 185.012L254.625 147.111L254.652 147.083Z" fill="#004199"/>
<path d="M386.088 222.074C371.469 172.477 347.157 142.833 306.819 134.792C301.026 142.671 269.568 183.929 269.568 183.929C269.568 183.929 257.006 142.156 255.463 138.285C201.155 157.533 175.274 216.768 175.274 216.768L140.459 225.485C140.459 225.485 129.224 271.319 161.413 286.371C187.267 298.446 203.646 280.199 203.646 280.199L201.128 321.133H402.467C402.467 321.133 391.529 243.895 386.088 222.047V222.074Z" fill="#D5CDA7"/>
<path d="M327.693 212.869L326.962 211.895C326.962 211.895 327.124 211.814 327.205 211.759C327.395 211.597 327.503 211.353 327.503 211.055C327.503 210.758 327.395 210.541 327.205 210.379C327.016 210.216 326.745 210.135 326.42 210.135H325.418V212.869H326.068V212.003H326.258L326.907 212.869H327.693ZM326.068 211.462V210.676H326.285C326.447 210.676 326.556 210.704 326.637 210.785C326.718 210.839 326.772 210.947 326.772 211.083C326.772 211.353 326.61 211.489 326.285 211.489H326.068V211.462Z" fill="#231815"/>
<path d="M317.216 212.869H317.866L316.81 210.135H315.998L314.942 212.869H315.592L315.809 212.328H317L317.216 212.869ZM316.052 211.759L316.431 210.785L316.81 211.759H316.079H316.052Z" fill="#231815"/>
<path d="M305.818 205.668L305.06 207.076L304.329 205.668H303.571V208.403H304.221V206.805L304.735 207.753V207.78H305.412V207.753L305.9 206.805V208.403H306.576V205.668H305.818Z" fill="#231815"/>
<path d="M309.825 208.403H310.475L309.419 205.668H308.607L307.551 208.403H308.201L308.418 207.861H309.609L309.825 208.403ZM308.661 207.293L309.04 206.318L309.419 207.293H308.688H308.661Z" fill="#231815"/>
<path d="M305.818 210.108L305.06 211.543L304.329 210.108H303.571V212.869H304.221V211.272L304.735 212.192V212.246H305.412V212.192L305.9 211.272V212.869H306.576V210.108H305.818Z" fill="#231815"/>
<path d="M309.825 212.869H310.475L309.419 210.135H308.607L307.551 212.869H308.201L308.418 212.328H309.609L309.825 212.869ZM308.661 211.759L309.04 210.785L309.419 211.759H308.688H308.661Z" fill="#231815"/>
<path d="M322.576 206.237V205.668H320.654V208.403H322.576V207.807H321.331V207.32H322.387V206.724H321.331V206.237H322.576Z" fill="#231815"/>
<path d="M324.255 210.703V210.108H322.36V212.869H324.255V212.273H323.01V211.786H324.065V211.191H323.01V210.703H324.255Z" fill="#231815"/>
<path d="M313.724 208.403L312.993 207.428C312.993 207.428 313.155 207.347 313.236 207.293C313.426 207.13 313.534 206.886 313.534 206.589C313.534 206.291 313.426 206.074 313.236 205.912C313.047 205.749 312.776 205.668 312.451 205.668H311.45V208.403H312.099V207.536H312.289L312.939 208.403H313.724ZM312.099 206.995V206.21H312.316C312.478 206.21 312.587 206.237 312.668 206.318C312.749 206.372 312.803 206.48 312.803 206.616C312.803 206.886 312.641 207.022 312.316 207.022H312.099V206.995Z" fill="#231815"/>
<path d="M311.45 210.108H312.072L313.318 211.786V210.108H313.967V212.842H313.345L312.099 211.191V212.842H311.45V210.108Z" fill="#231815"/>
<path d="M320.031 211.814H320.464V212.247C320.464 212.247 320.248 212.274 320.139 212.274C319.869 212.274 319.652 212.193 319.517 212.058C319.354 211.922 319.3 211.733 319.3 211.489C319.3 211.245 319.381 211.056 319.544 210.921C319.706 210.785 319.923 210.704 320.166 210.704C320.41 210.704 320.654 210.758 320.897 210.839L321.114 210.271C321.114 210.271 320.843 210.163 320.681 210.108C320.518 210.081 320.356 210.054 320.166 210.054C319.841 210.054 319.544 210.108 319.3 210.244C319.056 210.379 318.867 210.542 318.731 210.758C318.596 210.975 318.542 211.218 318.542 211.516C318.542 211.814 318.596 212.031 318.731 212.247C318.867 212.464 319.029 212.599 319.273 212.734C319.49 212.843 319.76 212.897 320.085 212.897C320.491 212.897 320.843 212.816 321.168 212.68V211.272H320.058V211.814H320.031Z" fill="#231815"/>
<path d="M314.806 205.668H315.456V208.403H314.806V205.668Z" fill="#231815"/>
<path d="M316.811 205.668H317.433L318.679 207.347V205.668H319.328V208.403H318.706L317.46 206.751V208.403H316.811V205.668Z" fill="#231815"/>
<path d="M306.225 215.442H306.848V215.712C306.848 215.712 306.956 215.523 307.037 215.469C307.119 215.415 307.2 215.387 307.308 215.387C307.389 215.387 307.471 215.387 307.525 215.415L307.471 216.037C307.471 216.037 307.308 215.983 307.227 215.983C307.092 215.983 307.01 216.037 306.956 216.118C306.902 216.2 306.848 216.335 306.848 216.497V217.283H306.198V215.415L306.225 215.442Z" fill="#231815"/>
<path d="M309.365 217.363C309.149 217.363 308.932 217.336 308.77 217.255C308.607 217.174 308.472 217.066 308.391 216.903C308.31 216.768 308.255 216.578 308.255 216.362C308.255 216.172 308.282 216.01 308.364 215.847C308.445 215.685 308.553 215.577 308.716 215.495C308.851 215.414 309.04 215.36 309.23 215.36C309.501 215.36 309.744 215.441 309.907 215.604C310.069 215.766 310.15 216.01 310.15 216.281C310.15 216.362 310.15 216.443 310.15 216.497H308.932C308.932 216.497 309.04 216.687 309.122 216.741C309.203 216.795 309.338 216.822 309.501 216.822C309.609 216.822 309.717 216.822 309.826 216.795C309.934 216.795 310.015 216.741 310.096 216.714L310.15 217.201C310.15 217.201 309.934 217.282 309.799 217.309C309.663 217.309 309.528 217.336 309.392 217.336L309.365 217.363ZM309.528 216.145C309.528 216.145 309.474 215.983 309.419 215.929C309.365 215.875 309.284 215.847 309.203 215.847C309.013 215.847 308.905 215.956 308.878 216.145H309.528Z" fill="#231815"/>
<path d="M312.803 216.66C312.668 216.687 312.533 216.714 312.424 216.714C312.181 216.714 311.964 216.633 311.829 216.498C311.693 216.362 311.612 216.173 311.612 215.929C311.612 215.685 311.693 215.496 311.829 215.36C311.964 215.225 312.153 215.144 312.424 215.144C312.533 215.144 312.668 215.144 312.776 215.198C312.857 215.198 312.939 215.252 313.02 215.279L313.236 214.711C313.236 214.711 312.993 214.602 312.83 214.548C312.668 214.521 312.505 214.494 312.37 214.494C312.153 214.494 311.937 214.521 311.747 214.602C311.558 214.684 311.395 214.765 311.26 214.9C311.125 215.036 311.016 215.171 310.962 215.36C310.908 215.523 310.854 215.712 310.854 215.902C310.854 216.2 310.908 216.443 311.044 216.66C311.179 216.877 311.341 217.039 311.558 217.147C311.774 217.256 312.045 217.31 312.343 217.31C312.505 217.31 312.668 217.31 312.83 217.256C312.993 217.201 313.128 217.147 313.236 217.093L313.155 216.47C313.155 216.47 312.912 216.579 312.776 216.633L312.803 216.66Z" fill="#231815"/>
<path d="M314.373 217.364C314.568 217.364 314.725 217.206 314.725 217.012C314.725 216.817 314.568 216.66 314.373 216.66C314.179 216.66 314.021 216.817 314.021 217.012C314.021 217.206 314.179 217.364 314.373 217.364Z" fill="#231815"/>
<path d="M305.277 216.064H304.735V215.495H304.14V216.064H303.571V216.632H304.14V217.201H304.735V216.632H305.277V216.064Z" fill="#231815"/>
<path d="M295.775 204.64C294.882 204.64 294.151 205.262 293.988 206.102C293.826 205.262 293.068 204.64 292.201 204.64C292.201 204.748 292.174 204.856 292.174 204.965C292.174 205.966 292.986 206.805 293.988 206.805C294.99 206.805 295.802 205.993 295.802 204.965C295.802 204.856 295.802 204.748 295.775 204.64Z" fill="#005BAC"/>
<path d="M300.079 207.943C299.456 207.32 298.482 207.239 297.778 207.699C298.238 206.995 298.157 206.021 297.534 205.398C297.453 205.452 297.372 205.534 297.291 205.615C296.587 206.319 296.587 207.483 297.291 208.214C297.994 208.918 299.159 208.918 299.89 208.214C299.971 208.133 300.025 208.051 300.106 207.97L300.079 207.943Z" fill="#005BAC"/>
<path d="M300.837 213.303C300.837 212.41 300.215 211.679 299.375 211.516C300.215 211.354 300.837 210.596 300.837 209.73C300.729 209.73 300.621 209.703 300.512 209.703C299.511 209.703 298.671 210.515 298.671 211.516C298.671 212.518 299.484 213.33 300.512 213.33C300.621 213.33 300.729 213.33 300.837 213.303Z" fill="#005BAC"/>
<path d="M297.534 217.634C298.157 217.012 298.238 216.037 297.778 215.333C298.482 215.794 299.457 215.712 300.079 215.09C300.025 215.008 299.944 214.927 299.863 214.846C299.159 214.142 297.995 214.142 297.264 214.846C296.56 215.55 296.56 216.714 297.264 217.445C297.345 217.526 297.426 217.58 297.507 217.662L297.534 217.634Z" fill="#005BAC"/>
<path d="M292.147 218.366C293.04 218.366 293.771 217.743 293.933 216.904C294.096 217.743 294.854 218.366 295.72 218.366C295.72 218.257 295.747 218.149 295.747 218.041C295.747 217.039 294.935 216.2 293.933 216.2C292.932 216.2 292.12 217.012 292.12 218.041C292.12 218.149 292.12 218.257 292.147 218.366Z" fill="#005BAC"/>
<path d="M290.36 214.603C289.656 214.142 288.681 214.197 288.058 214.846C287.977 214.928 287.923 215.009 287.842 215.09C288.464 215.713 289.439 215.794 290.143 215.334C289.683 216.038 289.764 217.012 290.387 217.635C290.468 217.581 290.549 217.499 290.63 217.418C291.253 216.796 291.334 215.821 290.874 215.117C291.93 215.225 293.013 214.873 293.798 214.061C294.718 213.141 295.043 211.868 294.799 210.677C293.608 210.406 292.336 210.758 291.415 211.679C290.603 212.491 290.251 213.547 290.36 214.603ZM293.581 211.516C293.798 211.516 293.96 211.679 293.96 211.895C293.96 212.112 293.798 212.274 293.581 212.274C293.365 212.274 293.202 212.112 293.202 211.895C293.202 211.679 293.365 211.516 293.581 211.516Z" fill="#F8B500"/>
<path d="M287.111 209.703C287.111 210.596 287.734 211.327 288.573 211.489C287.734 211.652 287.111 212.41 287.111 213.276C287.22 213.276 287.328 213.303 287.436 213.303C288.438 213.303 289.277 212.491 289.277 211.489C289.277 210.488 288.465 209.676 287.436 209.676C287.328 209.676 287.22 209.676 287.111 209.703Z" fill="#005BAC"/>
<path d="M290.387 205.371C289.764 205.993 289.683 206.968 290.143 207.672C289.439 207.212 288.464 207.293 287.842 207.916C287.896 207.997 287.977 208.078 288.058 208.159C288.762 208.863 289.926 208.863 290.657 208.159C291.361 207.455 291.361 206.291 290.657 205.56C290.576 205.479 290.495 205.425 290.414 205.344L290.387 205.371Z" fill="#005BAC"/>
<path d="M379.645 206.996C381.621 212.248 394.913 246.332 402.467 321.187C394.724 321.187 348.213 321.187 348.213 321.187L337.493 228.356C337.493 228.356 370.196 223.591 379.645 206.996Z" fill="#F9D4D4" stroke="#231815" stroke-width="2.70725" stroke-miterlimit="10"/>
<path d="M204.187 280.253C204.187 280.253 182.15 299.366 161.44 286.426C131.308 267.583 140.486 225.54 140.486 225.54L172.188 209.188C172.188 209.188 179.47 209.458 181.771 203.827C198.935 221.749 211.443 228.382 211.443 228.382C211.443 228.382 209.656 236.341 207.653 251.475C205.622 266.609 204.214 280.28 204.214 280.28L204.187 280.253Z" fill="#F9D4D4" stroke="#231815" stroke-width="2.70725" stroke-miterlimit="10"/>
<path d="M276.444 132.654C264.289 133.52 249.209 138.745 235.808 147.273C190.895 175.888 175.274 216.768 175.274 216.768L140.459 227.218C140.459 227.218 133.068 270.236 161.413 286.128C183.234 298.365 203.673 281.255 203.673 281.255L201.156 321.16H402.467C386.927 187.882 359.259 126.752 276.471 132.654H276.444Z" stroke="#231815" stroke-width="2.70725" stroke-linecap="round" stroke-linejoin="round"/>
<path d="M305.033 134.82L300.918 119.659C309.663 114.244 319.463 101.547 321.033 92.4781C325.175 92.3427 339.307 85.6017 339.118 74.908C338.901 63.5647 328.018 63.2669 325.608 64.5663C325.636 63.9978 325.798 63.4022 325.69 62.8337C322.306 45.1283 311.477 18.0016 275.714 18.3806C246.042 18.7055 230.828 44.1266 230.828 71.6323C230.828 103.903 246.097 115.544 261.717 121.581L255.491 138.312" fill="#F9D4D4"/>
<path d="M305.033 134.82L300.918 119.659C309.663 114.244 319.463 101.547 321.033 92.4781C325.175 92.3427 339.307 85.6017 339.118 74.908C338.901 63.5647 328.018 63.2669 325.609 64.5663C325.636 63.9978 325.798 63.4022 325.69 62.8337C322.306 45.1283 311.477 18.0016 275.714 18.3806C246.042 18.7055 230.828 44.1266 230.828 71.6323C230.828 103.903 246.097 115.544 261.717 121.581L255.491 138.312" stroke="#231815" stroke-width="2.70725" stroke-linecap="round" stroke-linejoin="round"/>
<path d="M322.268 58.9036L308.93 65.0188C308.604 65.1683 308.461 65.554 308.61 65.8802L308.746 66.1755C308.895 66.5017 309.281 66.6449 309.607 66.4953L322.945 60.3801C323.271 60.2306 323.415 59.8449 323.265 59.5187L323.13 59.2234C322.98 58.8972 322.594 58.754 322.268 58.9036Z" fill="#040000"/>
<path d="M323.531 61.6936L310.193 67.8088C309.866 67.9584 309.723 68.344 309.873 68.6702L310.008 68.9655C310.158 69.2917 310.543 69.4349 310.87 69.2854L324.208 63.1702C324.534 63.0206 324.677 62.635 324.528 62.3088L324.392 62.0135C324.243 61.6873 323.857 61.5441 323.531 61.6936Z" fill="#040000"/>
<path d="M324.821 64.4827L311.483 70.5979C311.157 70.7474 311.013 71.1331 311.163 71.4593L311.298 71.7546C311.448 72.0808 311.833 72.224 312.16 72.0744L325.498 65.9592C325.824 65.8097 325.967 65.424 325.818 65.0978L325.682 64.8025C325.533 64.4763 325.147 64.3331 324.821 64.4827Z" fill="#040000"/>
<path d="M312.504 74.3938C312.694 74.7999 313.181 74.9894 313.587 74.7999L321.845 71.0097C322.142 70.8744 322.332 70.5766 322.332 70.2788V69.0063L312.911 73.3109C312.504 73.5004 312.315 73.9877 312.504 74.3938Z" fill="#040000"/>
<path d="M313.804 77.1822C313.993 77.5883 314.481 77.7778 314.887 77.5883L321.871 74.3938C322.169 74.2584 322.359 73.9606 322.359 73.6628V72.3904L314.21 76.1264C313.804 76.3159 313.614 76.8032 313.804 77.2093V77.1822Z" fill="#040000"/>
<path d="M315.076 79.9711C315.266 80.3772 315.753 80.5667 316.159 80.3772L321.871 77.7512C322.169 77.6158 322.359 77.318 322.359 77.0202V75.7478L315.509 78.8882C315.103 79.0777 314.914 79.565 315.103 79.9711H315.076Z" fill="#040000"/>
<path d="M323.768 51.2743C317.297 30.7804 303.274 17.217 276.309 17.19C255.22 17.1629 233.643 36.4927 232.723 55.1998C232.723 55.1998 235.89 56.2015 239.166 56.2015C239.789 56.2015 247.667 53.9544 247.667 53.9544L252.486 54.8749L258.983 53.2506L264.397 53.7649L274.279 50.4079L284.539 55.1186L293.636 45.8327L301.189 53.6837L307.416 64.1066L315.781 60.4248L325.636 64.5669C325.636 64.5669 326.773 61.1287 326.204 57.8529C325.636 54.5771 323.822 51.3013 323.822 51.3013L323.768 51.2743Z" fill="#040000"/>
<path d="M244.201 76.6138C243.849 78.8609 245.121 80.3499 247.422 80.7289C249.723 81.1079 252.079 80.1603 252.431 77.8863C252.783 75.6122 250.969 72.9861 248.668 72.6342C246.366 72.2822 244.552 74.3398 244.201 76.6138Z" fill="#040000"/>
<path d="M274.44 76.1265C274.088 78.3736 275.361 79.8625 277.662 80.2416C279.963 80.5935 282.318 79.673 282.67 77.3989C283.022 75.1249 281.208 72.4988 278.907 72.1469C276.606 71.7949 274.792 73.8524 274.44 76.1265Z" fill="#040000"/>
<path d="M265.21 89.3652C265.21 89.3652 265.237 84.1672 260.337 84.1672C255.41 84.1672 256.438 89.2839 256.438 89.2839" stroke="#231815" stroke-width="2.70725" stroke-linecap="round" stroke-linejoin="round"/>
<path d="M241.114 63.2131H254.163" stroke="#231815" stroke-width="2.70725" stroke-linecap="round" stroke-linejoin="round"/>
<path d="M274.224 63.4297H287.137" stroke="#231815" stroke-width="2.70725" stroke-linecap="round" stroke-linejoin="round"/>
<path d="M279.14 100.89C269.063 112.783 258.452 107.264 255.14 100.961L279.14 100.89Z" stroke="#040000" stroke-width="2.71" stroke-linecap="round" stroke-linejoin="round"/>
<path d="M238.353 146.055L241.791 170.258L255.436 162.001L252.539 171.395L265.75 183.929" stroke="#231815" stroke-width="2.70725" stroke-linecap="round" stroke-linejoin="round"/>
<path d="M328.423 142.373L318.785 170.258L298.318 160.241L297.723 170.258L274.332 182.386" stroke="#231815" stroke-width="2.70725" stroke-linecap="round" stroke-linejoin="round"/>
<path d="M269.568 183.93L265.75 320.511" stroke="#231815" stroke-width="2.70725" stroke-linecap="round" stroke-linejoin="round"/>
<path d="M215.044 211.516C203.619 258.623 201.156 321.187 201.156 321.187" stroke="#231815" stroke-width="2.70725" stroke-linecap="round" stroke-linejoin="round"/>
<path d="M335.542 211.516L348.185 321.187" stroke="#231815" stroke-width="2.70725" stroke-linecap="round" stroke-linejoin="round"/>
<path d="M175.273 216.795C175.273 216.795 192.816 233.12 195.117 249.661" stroke="#231815" stroke-width="2.70725" stroke-linecap="round" stroke-linejoin="round"/>
<path d="M141.107 229.303C140.647 229.059 140.376 228.87 140.268 228.816C136.749 226.623 134.366 223.482 133.175 219.476L126.596 197.384C125.676 194.244 127.463 190.968 130.576 190.021H130.684C131.876 189.642 133.121 189.669 134.312 190.075L135.341 190.427L135.449 189.344C135.72 186.962 137.344 184.985 139.645 184.308H139.754C140.972 183.929 142.217 183.957 143.409 184.363L144.41 184.715L144.546 183.659C144.843 181.33 146.468 179.381 148.742 178.704H148.85C149.852 178.38 150.935 178.353 151.963 178.596L153.425 178.948L152.911 177.188L151.53 172.532L148.525 162.299C147.605 159.185 149.392 155.882 152.505 154.935H152.613C155.726 153.987 159.029 155.774 159.977 158.887L168.857 189.046C168.938 189.29 169.1 189.479 169.317 189.615C169.533 189.723 169.804 189.75 170.048 189.696C170.346 189.615 170.562 189.398 170.671 189.127L173.161 182.44C173.621 181.195 174.65 180.221 175.923 179.842C176.22 179.76 176.518 179.706 176.816 179.679C176.87 179.679 176.924 179.679 176.978 179.679H177.033C178.143 179.679 179.198 179.977 180.065 180.572C181.472 181.574 182.258 183.117 182.258 184.796L181.31 193.161C181.256 193.648 179.74 203.99 178.467 208.89V208.944C177.736 212.843 176.572 215.902 174.623 219.178L173.621 220.856C171.97 223.347 166.204 228.734 156.268 229.844C147.361 230.846 143.49 229.899 141.27 229.276L141.107 229.303Z" fill="#F9D4D4" stroke="#231815" stroke-width="2.70725" stroke-linecap="round" stroke-linejoin="round"/>
<path d="M127.571 200.633L130.197 208.024C131.199 210.569 134.366 211.868 137.263 210.867C139.483 210.108 140.891 208.268 140.999 206.291L141.378 207.32C142.326 209.892 145.466 211.218 148.39 210.271C150.637 209.54 152.099 207.672 152.207 205.669C152.207 205.669 155.402 207.726 158.461 206.643C161.52 205.56 161.845 202.772 161.033 200.389C160.221 198.007 154.319 180.978 153.371 178.975" stroke="#231815" stroke-width="2.70725" stroke-linecap="round" stroke-linejoin="round"/>
<path d="M147.036 192.322L152.206 206.075" stroke="#231815" stroke-width="2.70725" stroke-linecap="round" stroke-linejoin="round"/>
<path d="M136.586 194.65L141.243 206.644" stroke="#231815" stroke-width="2.70725" stroke-linecap="round" stroke-linejoin="round"/>
</g>
<defs>
<clipPath id="clip0_3876_7101">
<rect width="169.431" height="121.281" fill="white" transform="matrix(-0.989374 -0.145392 -0.145392 0.989374 186.08 25.4016)"/>
</clipPath>
<clipPath id="clip1_3876_7101">
<rect width="278.955" height="305.54" fill="white" transform="translate(125 17)"/>
</clipPath>
</defs>
</svg>
