<svg fill="none" height="37" viewBox="0 0 235 37" width="235" xmlns="http://www.w3.org/2000/svg" xmlns:xlink="http://www.w3.org/1999/xlink"><clipPath id="a"><path d="m0 0h234.06v36.98h-234.06z"/></clipPath><g clip-path="url(#a)"><g fill="#009d85"><path d="m76 36.29v-14.65c0-3.49-.31-4.94-1.23-6-.4939-.4999-1.0875-.89-1.7423-1.145-.6547-.255-1.3559-.3692-2.0577-.335-1.0583-.0087-2.1011.2554-3.0276.7668-.9266.5115-1.7058 1.253-2.2624 2.1532-.7915 1.3785-1.1406 2.9667-1 4.55v14.66h-4.95v-36.29h4.89v13.34c.8968-1.1673 2.058-2.1051 3.3879-2.7361 1.3299-.63112 2.7907-.93746 4.2621-.8939 1.5024-.06299 2.993.2914 4.3062 1.024 1.3133.7325 2.398 1.8145 3.1338 3.126.91 1.88 1.13 3.46 1.13 7.87v14.56z"/><path d="m102.91 36.29c-.46-.9066-.687-1.9137-.66-2.93-1.105 1.1698-2.4407 2.0974-3.9228 2.7239-1.4821.6266-3.0782.9386-4.6872.9161-5.16 0-8.53-3.06-8.53-7.77-.0208-1.6112.4454-3.1912 1.3375-4.533.8922-1.3418 2.1687-2.3829 3.6625-2.987 2.3511-.8533 4.8066-1.3847 7.3-1.58 3.89-.48 4.5-.79 4.5-2.4 0-2.19-2.23-3.59-5.77-3.59-2.9614.037-5.8483.9333-8.31 2.58l-.43-4.76c2.6592-1.4811 5.6563-2.24931 8.7-2.23003 3.85 0 7.17 1.27003 8.87 3.36003 1.4 1.66 1.84 3.37 1.84 6.74v11.04c-.065 1.8579.276 3.7075 1 5.42zm-.91-13.12c-1.31.57-1.49.57-5.11 1-2.76.35-4.12.7-5.16 1.31-.5977.3683-1.088.8875-1.4216 1.5054-.3335.6179-.4985 1.3127-.4784 2.0146 0 2.31 1.53 3.71 4.07 3.71 1.6512-.0312 3.266-.491 4.6859-1.3342 1.4201-.8432 2.5961-2.041 3.4141-3.4758z"/><path d="m124.76 14.2101c-4.72 0-7.12 2.58-7.12 7.57v14.51h-4.9v-25.88h4.77v3.14c.771-1.1962 1.834-2.1764 3.088-2.8483 1.255-.6718 2.659-1.0131 4.082-.99175h1v4.46005z"/><path d="m145.47 36.29v-14.65c0-3.49-.3-4.94-1.22-6-.495-.5012-1.09-.8921-1.747-1.1471-.656-.2551-1.36-.3685-2.063-.3329-1.058-.0068-2.1.2581-3.026.7694-.926.5112-1.706 1.2517-2.264 2.1506-.791 1.3787-1.14 2.9667-1 4.55v14.66h-4.9v-25.88h4.75v3.14c.875-1.2365 2.045-2.2352 3.404-2.9057 1.358-.67047 2.862-.99161 4.376-.93434 1.506-.06417 3 .29424 4.313 1.03464 1.313.7405 2.393 1.8334 3.117 3.1554.92 1.84 1.14 3.46 1.14 7.83v14.56z"/><path d="m159.67 25c.44 5.11 3.28 7.6 8.66 7.6 2.818.0367 5.59-.7186 8-2.18v4.89c-2.588 1.1454-5.391 1.7217-8.22 1.69-8.22 0-13.25-5.11-13.25-13.46 0-8.09 4.94-13.81003 11.94-13.81003 2.342-.04699 4.637.66343 6.544 2.02553 1.906 1.3621 3.321 3.3032 4.036 5.5345.784 2.5015 1.122 5.1213 1 7.74zm7-10.93c-3.85 0-6.51 2.66-7 7h13.73c-.4-4.37-3-7-6.78-7"/><path d="m189.3 37c-2.996.0171-5.946-.7334-8.57-2.18l1.61-4.28c2.182 1.306 4.677 1.9971 7.22 2 3.41 0 5.51-1.35 5.51-3.54 0-1.92-1.14-2.75-5-3.89-1.872-.4288-3.66-1.1655-5.29-2.18-.896-.6088-1.622-1.4363-2.108-2.404-.487-.9678-.718-2.0438-.672-3.126 0-4.55 3.8-7.69004 9.27-7.69004 2.475.01906 4.913.60034 7.13 1.70004l-1.27 4.46c-1.723-1.0645-3.705-1.6384-5.73-1.66-2.75 0-4.5 1.22-4.5 3.15-.017.5196.114 1.0334.377 1.4814.264.448.65.8117 1.113 1.0486.74.4.92.44 4.59 1.62 5 1.58 7 3.67 7 7.43 0 4.94-4.15 8-10.66 8"/><path d="m210.6 37c-3.008.0149-5.969-.7427-8.6-2.2l1.62-4.28c2.179 1.3057 4.67 1.9968 7.21 2 3.42 0 5.52-1.35 5.52-3.54 0-1.92-1.14-2.75-5-3.89-1.873-.4266-3.661-1.1634-5.29-2.18-.883-.6056-1.6-1.4245-2.082-2.3807-.483-.9563-.716-2.0189-.678-3.0893 0-4.55 3.81-7.69 9.27-7.69 2.475.02045 4.912.6017 7.13 1.7l-1.27 4.46c-1.724-1.0635-3.705-1.6374-5.73-1.66-2.75 0-4.5 1.22-4.5 3.15-.02.5201.11 1.0349.374 1.4833.264.4485.652.8117 1.116 1.0467.74.4.91.44 4.59 1.62 5 1.58 7 3.67 7 7.43 0 4.94-4.15 8-10.67 8"/></g><path d="m16.5 5.32996h11.5v-5.000004h-12c-9.49.38-16 8.240004-16 17.870044 0 9.63 6.51 17.49 16 17.85h12v-5h-11.36c-5.5 0-9.86-5.4-10.92-10.48h22.28v-4.77h-22.28c1.05-5.04 5.37-10.39004 10.78-10.47004z" fill="#33ad37"/><path d="m51.6898 15.1c-.0015-.5927-.2288-1.1626-.6356-1.5936-.4069-.431-.9627-.6908-1.5544-.7264h-18v4.6h13.68l-13.09 15.21c-.3257.3157-.5522.7196-.6517 1.1621-.0995.4426-.0677.9045.0916 1.3292s.439.7937.805 1.0617c.3659.268.8021.4234 1.2551.447h17.41v-4.59h-12.9l13.06-15.22c.202-.2267.3536-.4936.445-.7832.0913-.2896.1203-.5952.085-.8968z" fill="#33ad37"/><path d="m227.22 11.19h-1.73v5.56h-1v-5.56h-1.69v-.83h4.42z" fill="#009d85"/><path d="m234.06 16.75h-.93l-.13-2.69c-.05-.87-.1-1.85-.09-2.65-.2.75-.45 1.57-.71 2.38l-1 2.91h-.73l-.87-2.85c-.26-.83-.49-1.67-.65-2.44 0 .8-.07 1.81-.12 2.7l-.14 2.64h-.9l.43-6.4h1.2l.91 2.82c.23.78.42 1.49.58 2.2.16-.69.36-1.42.61-2.21l.93-2.81h1.21z" fill="#009d85"/></g></svg>