<svg width="832" height="112" viewBox="0 0 832 112" fill="none" xmlns="http://www.w3.org/2000/svg">
<path d="M0.66716 5.77222C0.66716 8.71774 3.05497 11.1056 6.00049 11.1056C8.94601 11.1056 11.3338 8.71774 11.3338 5.77222C11.3338 2.8267 8.94601 0.438883 6.00049 0.438883C3.05497 0.438883 0.66716 2.8267 0.66716 5.77222ZM6 79.3861L5 79.3861L4.99999 80.3861H6V79.3861ZM825.999 79.3861V80.3861H826.999V79.3861L825.999 79.3861ZM820.667 5.77222C820.667 8.71774 823.054 11.1056 826 11.1056C828.945 11.1056 831.333 8.71774 831.333 5.77222C831.333 2.8267 828.945 0.438883 826 0.438883C823.054 0.438883 820.667 2.8267 820.667 5.77222ZM5.00049 5.77221L5 79.3861L7 79.3861L7.00049 5.77222L5.00049 5.77221ZM6 80.3861H825.999V78.3861H6V80.3861ZM826.999 79.3861L827 5.77222L825 5.77221L824.999 79.3861L826.999 79.3861Z" fill="#FFB900"/>
<path d="M417 8.05265C414.054 8.05265 411.667 10.4405 411.667 13.386C411.667 16.3315 414.054 18.7193 417 18.7193C419.946 18.7193 422.333 16.3315 422.333 13.386C422.333 10.4405 419.946 8.05265 417 8.05265ZM416 13.386L416 111.386L418 111.386L418 13.386L416 13.386Z" fill="#FFB900"/>
</svg>
