<svg fill="none" height="87" viewBox="0 0 87 87" width="87" xmlns="http://www.w3.org/2000/svg"><g fill="#ffb900"><path d="m54.3423.00280956c-.0168 0-.0364-.00280956-.0532-.00280956-5.5384 0-10.1584 3.93124-11.2476 9.16634-1.0892-5.23229-5.712-9.16634-11.2476-9.16634-.0196 0-.0364.00280956-.0532.00280956-.1176.66597844-.1904 1.34601044-.1904 2.04571044 0 6.35349 5.1184 11.50428 11.4408 11.53238.0196 0 .0364.0028.0532.0028s.0364-.0028.0532-.0028c6.3224-.0309 11.4408-5.17889 11.4408-11.53238-.0056-.6997-.0784-1.379732-.196-2.04571044z"/><path d="m81.4634 20.6735c-.014-.0141-.0224-.0281-.0364-.0394-3.9172-3.9312-9.954-4.4286-14.4116-1.5005 2.9176-4.4736 2.4192-10.53204-1.498-14.46328-.014-.01405-.028-.02248-.0392-.03653-.5516.38497-1.0836.81772-1.5764 1.31229-4.4772 4.49322-4.4856 11.76562-.0364 16.27292.014.014.0224.0281.0364.0393.014.0141.028.0225.0392.0366 4.4912 4.4651 11.7404 4.4567 16.2148-.0366.4928-.4973.9212-1.0313 1.3076-1.5848z"/><path d="m86.0749 54.5371c0-.0168.0028-.0365.0028-.0533 0-5.5583-3.9172-10.1949-9.1336-11.288 5.2136-1.0931 9.1336-5.7324 9.1336-11.2879 0-.0196-.0028-.0365-.0028-.0534-.6636-.118-1.3412-.191-2.0384-.191-6.3308 0-11.4632 5.1367-11.4912 11.4818 0 .0196-.0028.0365-.0028.0534 0 .0168.0028.0365.0028.0533.0308 6.3451 5.1604 11.4818 11.4912 11.4818.6972-.0056 1.3748-.0786 2.0384-.1967z"/><path d="m65.6461 81.9994c.014-.014.028-.0224.0392-.0365 3.9172-3.9312 4.4128-9.9897 1.498-14.4633 4.4576 2.9281 10.4944 2.4279 14.4116-1.5005.014-.0141.0224-.0281.0364-.0394-.3836-.5535-.8148-1.0875-1.3076-1.582-4.4772-4.4933-11.7236-4.5017-16.2148-.0365-.014.014-.028.0224-.0392.0365-.014.014-.0224.0281-.0364.0393-4.4492 4.5073-4.4408 11.7825.0364 16.273.4928.4917 1.022.9217 1.5764 1.3094z"/><path d="m31.7351 86.3833c.0168 0 .0364.0028.0532.0028 5.5384 0 10.1584-3.9313 11.2476-9.1664 1.0892 5.2323 5.712 9.1664 11.2476 9.1664.0196 0 .0364-.0028.0532-.0028.1176-.666.1904-1.346.1904-2.0457 0-6.3535-5.1184-11.5043-11.4408-11.5324-.0196 0-.0364-.0028-.0532-.0028s-.0364.0028-.0532.0028c-6.3224.0309-11.4408 5.1789-11.4408 11.5324.0056.6997.0784 1.3797.196 2.0457z"/></g><path d="m20.3758 62.6609c-4.4604-2.9617-10.52518-2.4728-14.45638 1.4697-.4928.4946-.9212 1.0285-1.3076 1.582.014.0141.0224.0281.0364.0394 3.9172 3.9312 9.95398 4.4286 14.41158 1.5033-2.9176 4.4736-2.4192 10.5321 1.498 14.4633.014.014.028.0225.0392.0365.5516-.3849 1.0836-.8177 1.5764-1.3123 3.9284-3.9424 4.4156-10.029 1.4644-14.5082 6.5604.5986 13.328-1.6157 18.3512-6.657 5.7484-5.769 7.812-13.8338 6.1964-21.2551-7.3948-1.6185-15.4308.4496-21.1792 6.2187-5.0204 5.044-7.2268 11.833-6.6304 18.4197zm20.2664-19.4679c1.3244 0 2.3968 1.0763 2.3968 2.4054s-1.0724 2.4054-2.3968 2.4054-2.3968-1.0763-2.3968-2.4054 1.0724-2.4054 2.3968-2.4054z" fill="#dbdbdb"/><path d="m.0028006 31.8489c0 .0169-.0028006.0366-.0028006.0534 0 5.5583 3.9172 10.1948 9.1336 11.2879-5.2136 1.0931-9.1336 5.7325-9.1336 11.288 0 .0196.0028006.0365.0028006.0534.6635994.118 1.3411994.191 2.0383994.191 6.3308 0 11.4632-5.1367 11.4912-11.4818 0-.0197.0028-.0365.0028-.0534 0-.0168-.0028-.0365-.0028-.0534-.0308-6.345-5.1604-11.4818-11.4912-11.4818-.6972.0056-1.3776.0787-2.0383994.1967z" fill="#ffb900"/><path d="m20.5996 4.63098c-.014.01405-.028.02248-.0392.03653-3.9172 3.93124-4.4128 9.98969-1.4952 14.46329-4.4576-2.9281-10.49441-2.4279-14.41161 1.5005-.014.0141-.0224.0281-.0364.0394.3836.5535.8148 1.0875 1.3076 1.582 4.47721 4.4933 11.72361 4.5017 16.21481.0365.014-.014.028-.0224.0392-.0365.014-.014.0224-.0281.0364-.0393 4.4492-4.5073 4.4408-11.7825-.0364-16.27294-.4956-.49176-1.0276-.92169-1.5792-1.30948z" fill="#ffb900"/></svg>