<svg width="300" height="131" viewBox="0 0 300 131" fill="none" xmlns="http://www.w3.org/2000/svg">
<g clip-path="url(#clip0_3884_7540)">
<path d="M276.882 52.0899L272.307 45.9781C272.847 45.7364 273.335 45.433 273.757 45.0564C274.95 44.0027 275.547 42.5527 275.547 40.7065C275.547 38.8884 274.942 37.4525 273.735 36.4015C272.528 35.3477 270.89 34.8223 268.821 34.8223H266.76H262.616V52.0899H266.76V46.6357H267.961L272.038 52.0899H276.882ZM266.766 43.1849V38.2758H268.169C269.179 38.2758 269.935 38.4753 270.434 38.8772C270.932 39.279 271.24 39.8803 271.24 40.6981C271.24 42.3475 270.176 43.1821 268.169 43.1821H266.766V43.1849Z" fill="black"/>
<path d="M211.108 52.0899H215.246L208.655 34.8223H203.526L196.929 52.0899H201.073L202.355 48.7291H209.823L211.108 52.0899ZM203.763 45.0424L206.087 38.953L208.414 45.0424H203.763Z" fill="black"/>
<path d="M139.73 6.75281L135.043 15.6943L130.353 6.75281H125.615V24.0233H129.756V13.9802V13.9493L132.859 19.856L132.971 20.0724H137.112L137.224 19.856L140.301 13.9971V14.0083V24.0233H144.445V6.75843V6.75281H139.73Z" fill="black"/>
<path d="M164.788 24.0233H168.926L162.335 6.75562H157.205L150.608 24.0233H154.752L156.035 20.6625H163.502L164.788 24.0233ZM157.443 16.9729L159.767 10.8836L162.094 16.9729H157.443Z" fill="black"/>
<path d="M139.73 34.8223L135.043 43.761L130.353 34.8223H125.615V52.0899H129.756V42.0469V42.0188L132.859 47.9255L132.971 48.139H137.112L137.224 47.9255L140.301 42.0637V42.075V52.0899H144.445V34.8279V34.8223H139.73Z" fill="black"/>
<path d="M164.788 52.0899H168.926L162.335 34.8223H157.205L150.608 52.0899H154.752L156.035 48.7291H163.502L164.788 52.0899ZM157.443 45.0424L159.767 38.953L162.094 45.0424H157.443Z" fill="black"/>
<path d="M244.744 10.4424V6.75281H232.779V6.76124V24.0233H244.744V20.3309H236.923V17.2371H243.537V13.5475H236.923V10.4424H244.744Z" fill="black"/>
<path d="M255.331 38.5118V34.8223H243.369V34.8307V52.0927H255.331V48.4004H247.513V45.3065H254.127V41.6169H247.513V38.5118H255.331Z" fill="black"/>
<path d="M189.223 24.0233L184.648 17.9115C185.188 17.6698 185.675 17.3663 186.098 16.9898C187.291 15.936 187.887 14.486 187.887 12.6398C187.887 10.8217 187.283 9.38581 186.076 8.33486C184.869 7.28109 183.231 6.75562 181.162 6.75562H179.101H174.957V24.0233H179.101V18.569H180.302L184.379 24.0233H189.223ZM179.104 15.1155V10.2092H180.507C181.517 10.2092 182.273 10.4087 182.772 10.8105C183.27 11.2123 183.578 11.8137 183.578 12.6314C183.578 14.2809 182.514 15.1155 180.507 15.1155H179.104Z" fill="black"/>
<path d="M174.996 34.8223H178.891L186.748 45.3206V34.8223H190.892V52.0899H186.975L179.14 41.6141V52.0899H174.996V34.8223Z" fill="black"/>
<path d="M228.82 45.5229H231.536V48.2261C230.828 48.3778 230.139 48.4537 229.475 48.4537C227.801 48.4537 226.488 48.0182 225.536 47.1471C224.584 46.2759 224.11 45.0676 224.11 43.5221C224.11 42.0075 224.609 40.7964 225.606 39.8859C226.602 38.9755 227.921 38.5231 229.568 38.5231C231.138 38.5231 232.684 38.8293 234.204 39.4391L235.56 35.8844C234.745 35.477 233.812 35.1566 232.76 34.9206C231.704 34.6874 230.654 34.5693 229.612 34.5693C227.56 34.5693 225.771 34.9543 224.248 35.7271C222.724 36.4998 221.557 37.5705 220.75 38.9417C219.944 40.313 219.538 41.8979 219.538 43.702C219.538 45.4751 219.938 47.0122 220.739 48.3132C221.54 49.6171 222.66 50.6118 224.102 51.3003C225.544 51.9887 227.221 52.3344 229.139 52.3344C231.631 52.3344 233.871 51.8876 235.865 50.994V42.0862H228.823V45.5229H228.82Z" fill="black"/>
<path d="M196.131 6.76123H200.275V24.0148H196.131V6.76123Z" fill="black"/>
<path d="M208.641 6.75281H212.535L220.392 17.2511V6.75281H224.536V24.0205H220.619L212.785 13.5475V24.0233H208.641V6.75281Z" fill="black"/>
<path d="M142.222 68.3122H146.184L146.228 70.0629C146.514 69.4278 146.909 68.9388 147.404 68.596C147.903 68.256 148.482 68.0846 149.149 68.0846C149.661 68.0846 150.106 68.1689 150.484 68.3347L150.168 72.1985C149.7 72.0018 149.202 71.9034 148.673 71.9034C147.889 71.9034 147.295 72.1648 146.895 72.6874C146.494 73.2101 146.296 73.9857 146.296 75.017V80.0385H142.222V68.3122Z" fill="black"/>
<path d="M161.911 80.4208C160.492 80.4208 159.254 80.1735 158.198 79.6817C157.143 79.19 156.322 78.479 155.743 77.5461C155.16 76.6132 154.872 75.4976 154.872 74.1937C154.872 73.0135 155.121 71.9513 155.62 71.0128C156.118 70.0742 156.832 69.3324 157.759 68.7872C158.688 68.2421 159.764 67.9695 160.984 67.9695C162.734 67.9695 164.129 68.4978 165.162 69.5487C166.195 70.6025 166.713 72.03 166.713 73.8312C166.713 74.3623 166.668 74.8316 166.576 75.2391H158.879C159.089 75.9191 159.486 76.4249 160.069 76.7508C160.648 77.0768 161.446 77.2398 162.457 77.2398C163.107 77.2398 163.762 77.1724 164.426 77.0347C165.089 76.8998 165.677 76.7087 166.192 76.467L166.554 79.5356C165.935 79.825 165.221 80.0442 164.414 80.1931C163.605 80.3449 162.771 80.4208 161.911 80.4208ZM162.905 72.7859C162.844 72.1817 162.636 71.704 162.284 71.3528C161.928 71.0043 161.472 70.8301 160.914 70.8301C159.766 70.8301 159.066 71.482 158.809 72.7859H162.905Z" fill="black"/>
<path d="M183.578 76.0342C182.71 76.2759 181.921 76.3995 181.212 76.3995C179.642 76.3995 178.41 75.9668 177.511 75.1041C176.612 74.2414 176.164 73.0584 176.164 71.5606C176.164 70.0601 176.612 68.8714 177.511 67.9947C178.41 67.1152 179.628 66.6768 181.168 66.6768C181.907 66.6768 182.663 66.7723 183.433 66.9606C183.982 67.0955 184.502 67.2838 185.012 67.5001L186.35 63.9932C185.673 63.5858 184.844 63.2598 183.864 63.0181C182.884 62.7765 181.893 62.6556 180.899 62.6556C179.465 62.6556 178.16 62.8861 176.982 63.3497C175.803 63.8106 174.803 64.4513 173.983 65.269C173.16 66.0867 172.538 67.0337 172.115 68.1099C171.692 69.1862 171.482 70.3439 171.482 71.5859C171.482 73.4181 171.866 75.0029 172.636 76.3349C173.406 77.6697 174.49 78.6841 175.884 79.381C177.281 80.0779 178.914 80.4263 180.787 80.4263C181.814 80.4263 182.842 80.297 183.878 80.0413C184.911 79.7828 185.782 79.4428 186.493 79.0185L186.017 75.0872C185.258 75.475 184.446 75.7926 183.578 76.0342Z" fill="black"/>
<path d="M193.434 80.4207C194.685 80.4207 195.699 79.4029 195.699 78.1473C195.699 76.8918 194.685 75.874 193.434 75.874C192.183 75.874 191.169 76.8918 191.169 78.1473C191.169 79.4029 192.183 80.4207 193.434 80.4207Z" fill="black"/>
<path d="M136.406 72.2153H132.867V68.6635H129.19V72.2153H125.648V75.9049H129.19V79.4596H132.867V75.9049H136.406V72.2153Z" fill="black"/>
<path d="M76.6719 0.396486C76.6551 0.396486 76.6355 0.393677 76.6187 0.393677C71.0803 0.393677 66.4603 4.32492 65.3711 9.56001C64.2819 4.32773 59.6591 0.393677 54.1235 0.393677C54.1039 0.393677 54.0871 0.396486 54.0703 0.396486C53.9527 1.06246 53.8799 1.74249 53.8799 2.44219C53.8799 8.79568 58.9983 13.9465 65.3207 13.9746C65.3403 13.9746 65.3571 13.9774 65.3739 13.9774C65.3907 13.9774 65.4103 13.9746 65.4271 13.9746C71.7495 13.9437 76.8679 8.79568 76.8679 2.44219C76.8623 1.74249 76.7895 1.06246 76.6719 0.396486Z" fill="#0046DC"/>
<path d="M103.792 21.0671C103.778 21.0531 103.77 21.039 103.756 21.0278C99.8389 17.0966 93.8021 16.5992 89.3445 19.5272C92.2621 15.0537 91.7637 8.99524 87.8465 5.064C87.8325 5.04995 87.8185 5.04152 87.8073 5.02747C87.2557 5.41244 86.7237 5.84519 86.2309 6.33975C81.7537 10.833 81.7453 18.1054 86.1945 22.6127C86.2085 22.6267 86.2169 22.6408 86.2309 22.652C86.2449 22.6661 86.2589 22.6745 86.2701 22.6885C90.7613 27.1537 98.0105 27.1453 102.485 22.652C102.978 22.1546 103.406 21.6207 103.792 21.0671Z" fill="#0046DC"/>
<path d="M108.403 54.9308C108.403 54.914 108.406 54.8943 108.406 54.8774C108.406 49.3192 104.489 44.6826 99.2727 43.5895C104.486 42.4964 108.406 37.857 108.406 32.3016C108.406 32.2819 108.403 32.2651 108.403 32.2482C107.74 32.1302 107.062 32.0571 106.365 32.0571C100.034 32.0571 94.9019 37.1939 94.8739 43.5389C94.8739 43.5586 94.8711 43.5755 94.8711 43.5923C94.8711 43.6092 94.8739 43.6289 94.8739 43.6457C94.9047 49.9908 100.034 55.1275 106.365 55.1275C107.062 55.1219 107.74 55.0488 108.403 54.9308Z" fill="#0046DC"/>
<path d="M87.8073 82.1488C87.8213 82.1348 87.8353 82.1264 87.8465 82.1123C91.7637 78.1811 92.2593 72.1226 89.3445 67.6491C93.8021 70.5771 99.8389 70.0769 103.756 66.1485C103.77 66.1344 103.778 66.1204 103.792 66.1091C103.409 65.5556 102.978 65.0217 102.485 64.5271C98.0077 60.0338 90.7613 60.0254 86.2701 64.4906C86.2561 64.5046 86.2421 64.513 86.2309 64.5271C86.2169 64.5411 86.2085 64.5552 86.1945 64.5664C81.7453 69.0737 81.7537 76.3489 86.2309 80.8394C86.7237 81.3311 87.2529 81.7611 87.8073 82.1488Z" fill="#0046DC"/>
<path d="M54.0642 86.777C54.081 86.777 54.1006 86.7798 54.1174 86.7798C59.6558 86.7798 64.2758 82.8485 65.365 77.6134C66.4542 82.8457 71.077 86.7798 76.6126 86.7798C76.6322 86.7798 76.649 86.777 76.6658 86.777C76.7834 86.111 76.8562 85.4309 76.8562 84.7312C76.8562 78.3778 71.7378 73.227 65.4154 73.1989C65.3958 73.1989 65.379 73.196 65.3622 73.196C65.3454 73.196 65.3258 73.1989 65.309 73.1989C58.9866 73.2298 53.8682 78.3778 53.8682 84.7312C53.8738 85.4309 53.9466 86.111 54.0642 86.777Z" fill="#0046DC"/>
<path d="M42.7044 63.0546C38.244 60.0928 32.1792 60.5818 28.248 64.5243C27.7552 65.0188 27.3268 65.5527 26.9404 66.1063C26.9544 66.1204 26.9628 66.1344 26.9768 66.1456C30.894 70.0769 36.9308 70.5743 41.3884 67.649C38.4708 72.1226 38.9692 78.181 42.8864 82.1123C42.9004 82.1263 42.9144 82.1347 42.9256 82.1488C43.4772 81.7638 44.0092 81.3311 44.502 80.8365C48.4304 76.894 48.9176 70.8075 45.9664 66.3283C52.5268 66.9268 59.2944 64.7125 64.3176 59.6713C70.066 53.9023 72.1296 45.8375 70.514 38.4162C63.1192 36.7976 55.0832 38.8658 49.3348 44.6348C44.3144 49.6788 42.108 56.4679 42.7044 63.0546ZM62.9708 43.5867C64.2952 43.5867 65.3676 44.6629 65.3676 45.9921C65.3676 47.3212 64.2952 48.3975 62.9708 48.3975C61.6464 48.3975 60.574 47.3212 60.574 45.9921C60.574 44.6629 61.6464 43.5867 62.9708 43.5867Z" fill="#FFB900"/>
<path d="M22.3319 32.2426C22.3319 32.2595 22.3291 32.2791 22.3291 32.296C22.3291 37.8543 26.2463 42.4908 31.4627 43.5839C26.2491 44.677 22.3291 49.3164 22.3291 54.8718C22.3291 54.8915 22.3319 54.9084 22.3319 54.9252C22.9955 55.0433 23.6731 55.1163 24.3703 55.1163C30.7011 55.1163 35.8335 49.9796 35.8615 43.6345C35.8615 43.6148 35.8643 43.598 35.8643 43.5811C35.8643 43.5642 35.8615 43.5446 35.8615 43.5277C35.8307 37.1826 30.7011 32.0459 24.3703 32.0459C23.6731 32.0515 22.9927 32.1246 22.3319 32.2426Z" fill="#0046DC"/>
<path d="M42.9287 5.02466C42.9147 5.03871 42.9007 5.04714 42.8895 5.06119C38.9723 8.99243 38.4767 15.0509 41.3943 19.5244C36.9367 16.5964 30.8999 17.0966 26.9827 21.025C26.9687 21.0391 26.9603 21.0531 26.9463 21.0643C27.3299 21.6179 27.7611 22.1518 28.2539 22.6464C32.7311 27.1396 39.9775 27.1481 44.4687 22.6829C44.4827 22.6689 44.4967 22.6604 44.5079 22.6464C44.5219 22.6323 44.5303 22.6183 44.5443 22.6071C48.9935 18.0998 48.9851 10.8246 44.5079 6.33414C44.0123 5.84238 43.4803 5.41244 42.9287 5.02466Z" fill="#0046DC"/>
</g>
<path d="M289.297 112.846C288.837 113.546 288.317 114.446 288.077 114.886C288.057 114.926 288.037 114.946 288.017 114.986H292.037C292.657 114.986 293.317 114.886 293.777 114.746L295.817 116.006C295.597 116.386 295.317 116.946 295.157 117.446C294.617 119.226 293.477 121.886 291.677 124.126C289.777 126.446 287.357 128.286 283.597 129.766L281.237 127.646C285.337 126.426 287.557 124.686 289.297 122.706C290.657 121.146 291.817 118.746 292.137 117.246H286.517C285.177 118.986 283.437 120.746 281.477 122.086L279.237 120.426C282.737 118.286 284.477 115.706 285.477 113.986C285.777 113.486 286.197 112.566 286.377 111.886L289.297 112.846Z" fill="black"/>
<path d="M267.936 116.566C268.316 117.426 269.296 120.026 269.576 120.946L267.176 121.786C266.936 120.806 266.056 118.386 265.556 117.346L267.936 116.566ZM275.316 118.026C275.076 118.666 274.956 119.086 274.836 119.486C274.316 121.506 273.476 123.586 272.116 125.346C270.256 127.746 267.756 129.426 265.416 130.306L263.316 128.166C265.516 127.586 268.296 126.066 269.956 123.986C271.316 122.286 272.276 119.626 272.516 117.126L275.316 118.026ZM263.296 117.626C263.796 118.646 264.756 121.066 265.156 122.186L262.716 123.106C262.376 122.026 261.376 119.366 260.896 118.486L263.296 117.626Z" fill="black"/>
<path d="M241.737 127.646C241.977 127.146 241.997 126.806 241.997 126.346V115.506C241.997 114.746 241.897 113.806 241.777 113.226H244.917C244.797 114.006 244.717 114.726 244.717 115.506V125.906C247.977 124.966 252.437 122.406 254.997 119.286L256.417 121.546C253.677 124.826 249.537 127.206 244.817 128.746C244.537 128.846 244.097 128.986 243.637 129.286L241.737 127.646Z" fill="black"/>
<path d="M234.517 114.886C234.357 115.106 233.997 115.726 233.817 116.126C233.137 117.686 232.017 119.826 230.677 121.626C232.657 123.346 235.077 125.906 236.257 127.346L233.977 129.326C232.677 127.526 230.817 125.486 228.937 123.666C226.817 125.906 224.157 127.986 221.417 129.286L219.357 127.126C222.577 125.926 225.677 123.486 227.557 121.386C228.877 119.886 230.097 117.906 230.537 116.486H223.757C222.917 116.486 221.817 116.606 221.397 116.626V113.786C221.937 113.866 223.157 113.926 223.757 113.926H230.817C231.677 113.926 232.477 113.806 232.877 113.666L234.517 114.886Z" fill="black"/>
<path d="M202.687 113.106C203.247 113.186 204.087 113.206 204.767 113.206H212.467C213.087 113.206 214.067 113.186 214.627 113.106V115.686C214.087 115.646 213.147 115.626 212.427 115.626H204.767C204.127 115.626 203.267 115.646 202.687 115.686V113.106ZM216.307 118.906C216.167 119.166 216.007 119.526 215.927 119.746C215.327 121.686 214.467 123.626 212.967 125.286C210.947 127.526 208.387 128.886 205.827 129.606L203.847 127.346C206.847 126.726 209.247 125.406 210.767 123.846C211.847 122.746 212.467 121.506 212.827 120.386H203.167C202.687 120.386 201.687 120.406 200.847 120.486V117.886C201.687 117.946 202.547 118.006 203.167 118.006H213.067C213.707 118.006 214.247 117.926 214.527 117.806L216.307 118.906Z" fill="black"/>
<path d="M194.307 113.786C194.307 114.406 194.827 114.926 195.467 114.926C196.087 114.926 196.607 114.406 196.607 113.786C196.607 113.146 196.087 112.626 195.467 112.626C194.827 112.626 194.307 113.146 194.307 113.786ZM193.067 113.786C193.067 112.466 194.147 111.386 195.467 111.386C196.767 111.386 197.847 112.466 197.847 113.786C197.847 115.086 196.767 116.166 195.467 116.166C195.387 116.166 195.287 116.166 195.207 116.146C195.147 116.366 195.107 116.566 195.047 116.746C194.587 118.706 193.727 121.806 192.047 124.026C190.247 126.426 187.567 128.406 184.007 129.566L181.827 127.166C185.787 126.246 188.047 124.506 189.667 122.466C190.987 120.806 191.747 118.546 192.007 116.826H182.707C181.787 116.826 180.827 116.866 180.327 116.906V114.086C180.907 114.166 182.047 114.246 182.707 114.246H191.967C192.247 114.246 192.687 114.226 193.107 114.166C193.087 114.046 193.067 113.926 193.067 113.786Z" fill="black"/>
<path d="M161.259 119.186C161.979 119.246 163.439 119.306 164.479 119.306H175.219C176.159 119.306 177.039 119.226 177.559 119.186V122.326C177.079 122.306 176.059 122.226 175.219 122.226H164.479C163.339 122.226 161.999 122.266 161.259 122.326V119.186Z" fill="black"/>
<path d="M147.419 115.746C147.499 116.206 147.619 116.746 147.739 117.266C147.879 117.746 148.059 118.426 148.279 119.206C150.819 118.726 153.619 118.186 154.399 118.006C154.759 117.946 155.139 117.826 155.419 117.686L157.019 118.826C156.179 120.586 154.159 123.586 152.759 125.086L150.559 123.986C151.579 123.066 152.979 121.366 153.519 120.386C153.039 120.466 151.039 120.886 148.879 121.326C149.639 124.086 150.499 127.166 150.799 128.206C150.919 128.546 151.179 129.446 151.339 129.846L148.619 130.526C148.559 129.986 148.419 129.326 148.259 128.766C147.959 127.686 147.139 124.566 146.419 121.846C144.739 122.206 143.279 122.506 142.679 122.646L142.059 120.246C142.699 120.186 143.239 120.126 143.899 120.006C144.179 119.966 144.899 119.846 145.819 119.666C145.619 118.886 145.439 118.246 145.299 117.806C145.159 117.286 144.959 116.806 144.739 116.386L147.419 115.746Z" fill="black"/>
<path d="M135.015 113.086C135.575 113.926 136.375 115.266 136.835 116.186L135.095 116.926C134.515 115.666 134.055 114.806 133.335 113.786L135.015 113.086ZM137.755 112.126C138.375 112.926 139.155 114.226 139.635 115.106L137.935 115.866C137.295 114.606 136.795 113.826 136.055 112.826L137.755 112.126ZM126.315 112.706C127.635 113.426 129.835 114.826 130.875 115.566L129.395 117.766C128.275 116.986 126.195 115.646 124.875 114.906L126.315 112.706ZM122.615 126.906C124.855 126.526 127.255 125.846 129.415 124.646C132.815 122.746 135.615 120.006 137.195 117.146L138.735 119.866C136.895 122.646 134.055 125.166 130.795 127.066C128.755 128.206 125.875 129.206 124.115 129.526L122.615 126.906ZM123.235 117.266C124.595 117.986 126.795 119.366 127.815 120.086L126.355 122.326C125.215 121.526 123.135 120.186 121.795 119.466L123.235 117.266Z" fill="black"/>
<path d="M102.646 119.186C103.366 119.246 104.826 119.306 105.866 119.306H116.606C117.546 119.306 118.426 119.226 118.946 119.186V122.326C118.466 122.306 117.446 122.226 116.606 122.226H105.866C104.726 122.226 103.386 122.266 102.646 122.326V119.186Z" fill="black"/>
<path d="M92.3453 112.106C92.2853 112.586 92.2253 113.326 92.2253 113.946V114.986H94.6253C95.2453 114.986 95.8053 114.926 96.2853 114.786L97.9453 116.406C97.4253 116.906 96.8253 117.586 96.3853 118.066C95.3653 119.226 93.8453 120.726 92.1853 121.986C92.1853 123.586 92.1653 125.766 92.1653 127.026C92.1653 127.826 92.2453 128.966 92.3053 129.586H89.4253C89.5053 129.026 89.5853 127.826 89.5853 127.026V123.606C87.7453 124.586 85.6053 125.406 83.4453 126.066L81.9053 123.706C85.7653 122.846 88.3253 121.466 90.0653 120.366C91.6053 119.366 92.8453 118.206 93.4253 117.386H86.1853C85.4653 117.386 84.2053 117.406 83.5853 117.466V114.846C84.3453 114.966 85.4453 114.986 86.1453 114.986H89.6053V113.946C89.6053 113.326 89.5653 112.606 89.4853 112.106H92.3453ZM98.2253 126.266C96.4853 124.886 95.1853 124.046 93.4453 123.086L95.1053 121.166C96.9453 122.166 97.9853 122.746 99.9053 124.066L98.2253 126.266Z" fill="black"/>
<path d="M79.8655 115.846C79.5855 116.166 79.3455 116.426 79.1855 116.686C77.7455 119.026 75.1855 122.226 72.3655 124.506C73.5055 125.646 74.6855 126.946 75.4655 127.886L73.1255 129.746C72.2855 128.626 70.6055 126.746 69.3055 125.426C68.1455 124.246 66.1055 122.446 64.9055 121.586L67.0255 119.886C67.8255 120.486 69.1455 121.566 70.4055 122.666C72.6655 120.866 74.5455 118.546 75.4855 116.906H64.9055C64.1055 116.906 63.0255 117.006 62.6055 117.046V114.246C63.1255 114.326 64.2255 114.426 64.9055 114.426H76.0055C76.7655 114.426 77.4455 114.346 77.8655 114.206L79.8655 115.846Z" fill="black"/>
<path d="M45.6255 113.246C47.0255 114.186 49.6255 116.266 50.7855 117.486L48.7455 119.566C47.7055 118.446 45.2055 116.266 43.7455 115.246L45.6255 113.246ZM43.1255 126.566C46.2455 126.126 48.8455 125.106 50.7855 123.946C54.2055 121.926 56.8055 118.866 58.0655 116.166L59.6255 118.986C58.1055 121.686 55.4455 124.446 52.2255 126.386C50.2055 127.606 47.6255 128.726 44.8055 129.206L43.1255 126.566Z" fill="black"/>
<path d="M36.8655 112.926C36.8255 113.486 36.7855 114.126 36.7855 114.926V118.886C36.7855 123.186 35.9455 125.046 34.4655 126.686C33.1455 128.126 31.0655 129.106 29.6055 129.566L27.5255 127.366C29.5055 126.906 31.1255 126.146 32.3255 124.846C33.7055 123.346 33.9655 121.846 33.9655 118.726V114.926C33.9655 114.126 33.9255 113.486 33.8455 112.926H36.8655ZM27.5855 113.086C27.5455 113.546 27.5255 113.986 27.5255 114.626V121.386C27.5255 121.886 27.5455 122.666 27.5855 123.126H24.6855C24.7055 122.746 24.7855 121.966 24.7855 121.366V114.626C24.7855 114.246 24.7655 113.546 24.7055 113.086H27.5855Z" fill="black"/>
<path d="M19.8655 115.846C19.5855 116.166 19.3455 116.426 19.1855 116.686C17.7455 119.026 15.1855 122.226 12.3655 124.506C13.5055 125.646 14.6855 126.946 15.4655 127.886L13.1255 129.746C12.2855 128.626 10.6055 126.746 9.30547 125.426C8.14547 124.246 6.10547 122.446 4.90547 121.586L7.02547 119.886C7.82547 120.486 9.14547 121.566 10.4055 122.666C12.6655 120.866 14.5455 118.546 15.4855 116.906H4.90547C4.10547 116.906 3.02547 117.006 2.60547 117.046V114.246C3.12547 114.326 4.22547 114.426 4.90547 114.426H16.0055C16.7655 114.426 17.4455 114.346 17.8655 114.206L19.8655 115.846Z" fill="black"/>
<defs>
<clipPath id="clip0_3884_7540">
<rect width="256" height="87" fill="white" transform="translate(21.6055 0.386108)"/>
</clipPath>
</defs>
</svg>
