<svg width="644" height="554" viewBox="0 0 644 554" fill="none" xmlns="http://www.w3.org/2000/svg">
<rect x="172.561" y="0.912842" width="298.518" height="45.095" rx="22.5475" fill="white"/>
<path d="M433.932 22.3285L435.868 22.7086C435.419 25.0069 434.624 27.3224 433.639 28.7566C433.259 28.4456 432.429 27.9099 431.945 27.6853C432.913 26.4066 433.587 24.3502 433.932 22.3285ZM441.916 20.1858H438.46V29.2405C438.46 30.2427 438.304 30.8302 437.682 31.1586C437.095 31.4869 436.265 31.556 435.142 31.556C435.056 30.9858 434.762 30.0699 434.451 29.4997C435.177 29.5342 435.902 29.5342 436.144 29.517C436.369 29.517 436.455 29.4651 436.455 29.2405V20.1858H434.762C434.313 21.1362 433.811 21.9829 433.276 22.6568C433.103 22.5013 432.809 22.3112 432.498 22.1038V22.2075H430.649V22.7086C431.116 23.0888 432.533 24.5922 432.861 24.9723L431.686 26.5794C431.479 26.1301 431.064 25.4562 430.649 24.8341V31.5733H428.662V25.3698C428.109 26.7003 427.452 27.9272 426.779 28.7912C426.588 28.2037 426.156 27.357 425.828 26.8386C426.796 25.7154 427.746 23.8837 428.386 22.2075H426.191V20.2894H428.662V18.285C427.936 18.4232 427.228 18.5442 426.554 18.6306C426.45 18.164 426.208 17.4728 425.984 17.0581C427.884 16.7298 430.01 16.2286 431.34 15.6238L432.706 17.1963C432.083 17.4382 431.392 17.6629 430.649 17.853V20.2894H432.446C433.259 18.9416 433.863 17.2136 434.243 15.4856L436.248 15.9003C436.058 16.7125 435.816 17.5074 435.539 18.2677H441.916V20.1858ZM438.892 22.7432L440.672 22.2248C441.397 24.0738 442.037 26.4411 442.279 28.0309L440.361 28.6357C440.188 27.0459 439.566 24.5922 438.892 22.7432Z" fill="black"/>
<path d="M420.419 16.4013L422.096 15.6928C422.769 16.8506 424.031 18.1639 425.068 18.9242C424.601 19.2698 423.979 19.961 423.651 20.4276C422.562 19.4599 421.214 17.7837 420.419 16.4013ZM424.446 23.7972L422.769 24.6784C422.648 24.3328 422.441 23.9008 422.199 23.4516C419.953 23.6416 417.637 23.8144 415.909 23.9354L415.564 22.0864C416.099 22.0692 416.721 22.0519 417.395 22.0173C417.827 20.9287 418.259 19.529 418.501 18.4749L420.558 18.9588C420.143 19.9437 419.694 21.0151 419.262 21.9482L421.249 21.8618C421.007 21.4816 420.748 21.1188 420.506 20.7904L422.061 20.0301C422.977 21.1706 424.014 22.7258 424.446 23.7972ZM417.689 24.7994L418.985 23.7108C420.108 24.2119 421.301 25.1104 421.923 25.8189L420.575 27.0804C419.987 26.2855 418.778 25.3524 417.689 24.7994ZM417.309 15.7101L419.244 16.194C418.605 17.922 417.499 19.5808 416.341 20.6349C415.978 20.2893 415.201 19.6845 414.752 19.3908C415.875 18.5268 416.808 17.1444 417.309 15.7101ZM409.308 25.5252L410.967 25.8016C410.794 27.4432 410.432 29.154 409.93 30.2599C409.585 30.0352 408.842 29.6896 408.444 29.5341C408.928 28.5319 409.17 26.9767 409.308 25.5252ZM413.87 24.2637L413.006 24.3674V31.5732H411.226V24.5575L408.894 24.7994L408.617 23.0196L409.844 22.9504C410.103 22.6221 410.362 22.2592 410.622 21.8791C410.155 21.1015 409.343 20.1684 408.652 19.4426L409.654 18.0775C409.792 18.1984 409.913 18.3194 410.051 18.4404C410.535 17.49 411.019 16.3495 411.313 15.4509L413.075 16.1076C412.471 17.2826 411.745 18.6132 411.14 19.5981C411.33 19.8228 411.52 20.0647 411.676 20.2893C412.28 19.3216 412.833 18.354 413.231 17.5072L414.89 18.2848C413.939 19.7364 412.782 21.4471 411.693 22.8122L413.214 22.7085C413.024 22.3111 412.833 21.9482 412.643 21.6026L414.095 20.9978C414.786 22.1728 415.495 23.6762 415.719 24.6612L414.181 25.3696C414.112 25.0413 414.008 24.6784 413.87 24.2637ZM413.058 25.9572L414.527 25.5079C414.873 26.3546 415.218 27.4087 415.443 28.2381C415.616 27.6679 415.736 27.0631 415.823 26.5101L417.464 26.7866C417.292 28.1863 416.86 29.8279 416.203 30.882L414.596 30.1735C414.855 29.8106 415.08 29.3268 415.27 28.7738L413.991 29.2058C413.853 28.3418 413.438 26.994 413.058 25.9572ZM421.491 26.9421L423.046 26.1645C423.962 27.3914 424.808 28.9812 425.068 30.1216L423.357 30.9684C423.253 30.4327 423.011 29.7415 422.683 29.0503C422.493 31.0548 421.992 31.5732 420.851 31.5732H419.486C417.914 31.5732 417.603 31.0202 417.603 29.344V26.13H419.469V29.3268C419.469 29.7933 419.521 29.8452 419.815 29.8452H420.609C420.92 29.8452 420.99 29.6551 421.024 28.1863C421.352 28.4801 422.096 28.7565 422.614 28.8948C422.286 28.2208 421.905 27.5296 421.491 26.9421Z" fill="black"/>
<path d="M406.889 24.0046C406.889 27.6507 404.66 30.2254 400.306 30.8993L399.01 28.843C399.666 28.7739 400.15 28.6702 400.617 28.5665C402.828 28.0481 404.556 26.4583 404.556 23.9355C404.556 21.5508 403.26 19.771 400.928 19.3735C400.686 20.8423 400.392 22.4321 399.891 24.0564C398.854 27.547 397.368 29.6897 395.484 29.6897C393.566 29.6897 391.977 27.5815 391.977 24.6612C391.977 20.6695 395.433 17.2654 399.908 17.2654C404.194 17.2654 406.889 20.2375 406.889 24.0046ZM394.188 24.4366C394.188 26.1819 394.88 27.0286 395.554 27.0286C396.279 27.0286 396.953 25.9399 397.662 23.6071C398.059 22.3284 398.387 20.8596 398.578 19.4254C395.726 20.0129 394.188 22.5358 394.188 24.4366Z" fill="black"/>
<path d="M388.002 18.3712C387.864 18.5613 387.553 19.097 387.397 19.4426C386.81 20.7904 385.842 22.6394 384.684 24.1946C386.395 25.6807 388.486 27.8925 389.505 29.1367L387.535 30.8474C386.412 29.2922 384.805 27.5296 383.181 25.9571C381.349 27.8925 379.051 29.6896 376.684 30.8128L374.904 28.9466C377.686 27.9098 380.364 25.8016 381.989 23.9872C383.129 22.6912 384.183 20.9805 384.563 19.7536H378.705C377.98 19.7536 377.029 19.8573 376.666 19.8746V17.4208C377.133 17.4899 378.187 17.5418 378.705 17.5418H384.805C385.548 17.5418 386.239 17.4381 386.585 17.3171L388.002 18.3712Z" fill="black"/>
<path d="M369.063 16.0903C369.495 16.7297 370.117 17.8183 370.446 18.4577L369.046 19.0452C368.7 18.3367 368.165 17.3172 367.698 16.6433L369.063 16.0903ZM371.102 15.3127C371.569 15.9521 372.208 17.058 372.502 17.6628L371.137 18.2503C370.774 17.5246 370.221 16.5223 369.737 15.8657L371.102 15.3127ZM361.616 16.8334C361.529 17.3518 361.477 18.1467 361.477 18.6305V21.8964C363.516 21.3953 365.918 20.635 367.456 19.9783C368.078 19.7364 368.666 19.4599 369.34 19.0452L370.273 21.2398C369.599 21.5163 368.821 21.8446 368.251 22.0519C366.506 22.7431 363.724 23.6071 361.477 24.1601V27.3569C361.477 28.0999 361.823 28.29 362.601 28.4455C363.119 28.5147 363.827 28.5492 364.605 28.5492C366.402 28.5492 369.201 28.3246 370.618 27.9444V30.4673C368.994 30.7092 366.368 30.8302 364.467 30.8302C363.344 30.8302 362.307 30.7611 361.564 30.6401C360.06 30.3636 359.196 29.5342 359.196 28.0481V18.6305C359.196 18.2503 359.145 17.3518 359.058 16.8334H361.616Z" fill="black"/>
<path d="M340.621 22.0864C341.243 22.1383 342.504 22.1901 343.403 22.1901H352.682C353.494 22.1901 354.255 22.121 354.704 22.0864V24.7994C354.289 24.7821 353.408 24.713 352.682 24.713H343.403C342.418 24.713 341.26 24.7475 340.621 24.7994V22.0864Z" fill="black"/>
<path d="M334.676 22.4494C334.676 26.7348 333.639 29.3441 329.475 31.1758L327.626 29.4305C330.961 28.2728 332.43 26.7867 332.43 22.5358V21.8792H328.334V24.2292C328.334 24.9896 328.386 25.698 328.403 26.0436H325.984C326.036 25.698 326.088 25.0068 326.088 24.2292V21.8792H324.619C323.755 21.8792 323.133 21.9137 322.753 21.9483V19.5982C323.047 19.65 323.755 19.7537 324.619 19.7537H326.088V18.043C326.088 17.5419 326.036 17.0062 325.984 16.4878H328.438C328.386 16.8161 328.334 17.3691 328.334 18.043V19.7537H332.43V17.9393C332.43 17.2481 332.378 16.6779 332.326 16.3323H334.797C334.745 16.6779 334.676 17.2481 334.676 17.9393V19.7537H335.955C336.871 19.7537 337.389 19.7192 337.856 19.6328V21.931C337.475 21.8964 336.871 21.8792 335.955 21.8792H334.676V22.4494Z" fill="black"/>
<path d="M317.914 16.3496C317.862 16.7298 317.845 17.1445 317.828 17.5246C317.828 17.8875 317.828 18.7861 317.828 19.7365C318.796 19.6674 319.711 19.5637 320.42 19.4254L320.403 21.6718C319.711 21.7582 318.813 21.8274 317.845 21.8792C317.845 22.173 317.845 22.4322 317.845 22.605C317.845 26.6831 317.534 29.1887 314.078 31.3832L312.091 29.8107C312.748 29.517 313.612 28.964 314.095 28.4283C315.426 27.0459 315.702 25.508 315.702 22.5877C315.702 22.4149 315.702 22.2075 315.702 21.9656C315.046 21.9829 314.406 22.0002 313.767 22.0002C313.024 22.0002 311.953 21.9483 311.106 21.9138V19.7192C311.953 19.8402 312.799 19.9093 313.715 19.9093C314.337 19.9093 315.011 19.892 315.668 19.8747C315.651 18.907 315.633 18.0085 315.599 17.5419C315.564 17.1099 315.478 16.6261 315.409 16.3496H317.914ZM309.326 16.6434C309.171 17.0581 308.998 17.6802 308.911 18.043C308.479 19.9611 307.875 23.5899 308.341 25.7327C308.566 25.197 308.877 24.3675 309.171 23.7282L310.242 24.4194C309.741 25.9054 309.274 27.6507 309.067 28.6357C308.998 28.8949 308.963 29.2751 308.963 29.4824C308.963 29.6552 308.98 29.949 308.998 30.1909L307.08 30.381C306.7 29.3442 306.095 26.925 306.095 24.7823C306.095 21.9483 306.44 19.2872 306.648 17.8875C306.734 17.4037 306.751 16.8162 306.769 16.3842L309.326 16.6434Z" fill="black"/>
<path d="M297.317 23.8144H294.31V26.1127H297.317V23.8144ZM299.2 27.9098H294.31V29.1194H292.461V22.0173H299.2V27.9098ZM303.002 18.3367V29.1885C303.002 30.3117 302.76 30.8993 302.034 31.2276C301.309 31.5559 300.203 31.5904 298.647 31.5904C298.578 31.0029 298.267 30.0698 297.974 29.5168C298.993 29.586 300.151 29.5687 300.496 29.5514C300.825 29.5514 300.928 29.465 300.928 29.154V20.3412H290.768V31.5732H288.711V18.3367H293.481C293.844 17.4036 294.189 16.3149 294.397 15.4509L297.006 15.8138C296.643 16.6778 296.211 17.5764 295.796 18.3367H303.002Z" fill="black"/>
<path d="M278.395 19.097V20.6695H279.345C280.002 20.1684 280.624 19.65 281.212 19.097H278.395ZM282.162 26.6484V25.5424H276.218V26.6484H282.162ZM276.218 29.3786H282.162V28.2036H276.218V29.3786ZM286.292 22.4839H280.071C279.397 22.9677 278.741 23.417 278.032 23.8663H284.322V31.5386H282.162V31.0893H276.218V31.6077H274.161V25.9572C273.297 26.3373 272.399 26.7175 271.518 27.0458C271.276 26.5965 270.654 25.7671 270.273 25.3524C272.537 24.6439 274.697 23.6589 276.684 22.4839H270.809V20.6695H276.356V19.097H272.295V17.3172H276.356V15.4509H278.395V17.3172H282.145V18.1639C282.801 17.4554 283.389 16.7296 283.925 15.9693L285.687 16.8679C284.702 18.233 283.544 19.5117 282.283 20.6695H286.292V22.4839Z" fill="black"/>
<path d="M256.588 15.5029L258.488 16.0904C258.108 17.1272 257.642 18.1986 257.123 19.2354V31.5906H255.136V22.5532C254.721 23.1407 254.289 23.6764 253.857 24.1429C253.685 23.6591 253.132 22.5013 252.803 22.0175C254.307 20.4277 255.741 17.974 256.588 15.5029ZM259.784 26.7349L261.685 27.3225C261.029 28.5839 260.113 30.0009 259.214 30.934C258.817 30.6056 258.125 30.1564 257.676 29.9145C258.506 29.0677 259.352 27.7372 259.784 26.7349ZM267.422 25.629L264.45 25.7845V31.5906H262.411V25.8709L258.091 26.0783L257.797 24.1429L261.029 24.0565C261.201 23.8837 261.374 23.7282 261.547 23.5381C260.717 22.7605 259.404 21.8101 258.35 21.1189L259.542 19.7884C259.836 19.9612 260.147 20.1512 260.458 20.3586C260.838 19.8402 261.236 19.2354 261.599 18.6479C260.683 18.7343 259.767 18.8207 258.903 18.8898C258.834 18.406 258.592 17.6629 258.367 17.2136C261.478 16.9544 265.003 16.436 267.197 15.7967L268.545 17.4383C267.232 17.8012 265.694 18.0776 264.104 18.3196L264.173 18.3541C263.396 19.3391 262.532 20.445 261.806 21.2744C262.221 21.5682 262.584 21.862 262.895 22.1212C263.845 21.0498 264.761 19.9093 265.435 18.9244L267.318 19.7884C266.178 21.2053 264.813 22.7087 263.517 23.9874C264.485 23.9529 265.487 23.9183 266.489 23.8837C266.23 23.4345 265.936 23.0024 265.66 22.605L267.37 21.9311C268.303 23.1407 269.288 24.7996 269.703 25.9228L267.854 26.7177C267.75 26.4066 267.612 26.0265 267.422 25.629ZM265.297 27.4434L266.973 26.6485C267.802 27.6335 268.805 28.9986 269.202 29.9145L267.405 30.8303C267.059 29.8972 266.126 28.4802 265.297 27.4434Z" fill="black"/>
<path d="M241.468 17.5246H238.755V18.3713H241.468V17.5246ZM238.755 20.5486H241.468V19.6501H238.755V20.5486ZM243.403 21.9483H238.755V31.5905H236.75V16.1077H243.403V21.9483ZM246.496 20.5832H249.296V19.6501H246.496V20.5832ZM249.296 17.5246H246.496V18.3713H249.296V17.5246ZM251.318 16.1077V29.4133C251.318 30.3637 251.162 30.8821 250.609 31.2104C250.056 31.5387 249.296 31.5905 248.224 31.5905C248.19 31.1585 248 30.5019 247.81 29.9835C247.602 30.2773 247.395 30.571 247.274 30.8129C245.84 30.3982 244.768 29.6725 244.008 28.6357C243.403 29.4478 242.349 30.2081 240.552 30.7957C240.31 30.4155 239.774 29.7934 239.36 29.4651C241.295 28.9467 242.211 28.2037 242.626 27.4433H239.671V25.94H242.937V25.0414H239.913V23.6072H241.261C241.105 23.227 240.915 22.8296 240.69 22.484L242.263 22.052C242.608 22.5013 242.937 23.1233 243.092 23.6072H244.889C245.097 23.0888 245.339 22.4667 245.477 22.0347L247.36 22.5185C247.101 22.8987 246.842 23.2789 246.617 23.6072H248.121V25.0414H244.768V25.94H248.294V27.4433H245.079C245.771 28.3765 246.911 29.0504 248.38 29.3269C248.276 29.4305 248.155 29.5515 248.052 29.6897C248.466 29.707 248.864 29.707 249.019 29.6897C249.227 29.6897 249.296 29.6033 249.296 29.396V22.0001H244.544V16.1077H251.318Z" fill="black"/>
<path d="M228.836 19.9437H224.706C224.948 20.393 225.173 20.9114 225.294 21.2743L225 21.3261H228.231C228.439 20.9114 228.646 20.4103 228.836 19.9437ZM234.418 27.6506H229.406C230.875 28.5492 232.88 29.2231 234.884 29.5341C234.418 29.9834 233.813 30.8474 233.502 31.4004C231.376 30.8647 229.285 29.8279 227.696 28.48V31.5904H225.674V28.5837C224.067 29.8452 221.941 30.8474 219.885 31.3831C219.591 30.882 219.004 30.0871 218.572 29.6724C220.507 29.2749 222.546 28.5492 224.032 27.6506H219.073V25.9572H225.674V25.1968H220.697V23.7108H225.674V22.9332H219.833V21.3261H223.116C222.978 20.8941 222.754 20.3757 222.529 19.9783L222.736 19.9437H219.125V18.2676H221.44C221.198 17.6109 220.749 16.7815 220.369 16.1248L222.131 15.52C222.633 16.2631 223.203 17.2826 223.445 17.9565L222.598 18.2676H224.17V15.4509H226.089V18.2676H227.367V15.4509H229.303V18.2676H230.841L230.218 18.0775C230.633 17.369 231.065 16.3322 231.307 15.5719L233.467 16.0903C232.983 16.8852 232.517 17.6628 232.119 18.2676H234.366V19.9437H231.117C230.841 20.4448 230.564 20.9114 230.305 21.3261H233.692V22.9332H227.696V23.7108H232.88V25.1968H227.696V25.9572H234.418V27.6506Z" fill="black"/>
<path d="M211.85 18.8379H209.69C209.448 19.2008 209.189 19.5637 208.929 19.9093H211.28C211.47 19.581 211.677 19.2181 211.85 18.8379ZM214.649 22.6741V21.5163H212.627V22.6741H214.649ZM214.649 25.3698V24.1774H212.627V25.3698H214.649ZM208.86 24.1774V25.3698H210.778V24.1774H208.86ZM210.778 22.6741V21.5163H208.86V22.6741H210.778ZM207.029 26.9768V22.0693C206.89 22.2075 206.752 22.3285 206.614 22.4494C206.303 22.052 205.543 21.2053 205.111 20.8251C206.752 19.581 208.29 17.5419 209.171 15.4856L211.193 16.125C211.038 16.4533 210.882 16.7816 210.709 17.1099H212.904L213.319 16.989L214.632 17.9394C214.286 18.5614 213.889 19.2526 213.457 19.9093H216.567V26.9768H207.029ZM206.372 17.1963L205.162 18.8898C204.575 18.3022 203.262 17.5246 202.242 17.0754L203.383 15.5202C204.385 15.9349 205.715 16.6261 206.372 17.1963ZM205.456 21.6891L204.264 23.3998C203.659 22.8296 202.38 22.1038 201.361 21.6718L202.467 20.1166C203.469 20.4795 204.8 21.1362 205.456 21.6891ZM204.558 24.644L206.182 25.8536C205.404 27.7198 204.506 29.707 203.607 31.4005L201.758 30.1909C202.57 28.8603 203.694 26.683 204.558 24.644ZM206.821 31.6078L205.318 30.4674C206.199 29.7416 206.821 28.5493 207.098 27.3742L208.739 27.9618C208.394 29.275 207.841 30.692 206.821 31.6078ZM209.154 27.8408L210.796 27.5643C211.107 28.6875 211.314 30.1218 211.314 31.0722L209.534 31.3659C209.586 30.4328 209.413 28.964 209.154 27.8408ZM211.418 27.8926L213.008 27.4434C213.595 28.5147 214.096 29.9317 214.286 30.8821L212.593 31.3832C212.455 30.4501 211.953 28.9813 211.418 27.8926ZM213.906 28.0309L215.496 27.2187C216.377 28.2382 217.241 29.6379 217.639 30.6056L215.945 31.556C215.6 30.5883 214.753 29.1022 213.906 28.0309Z" fill="black"/>
<g clip-path="url(#clip0_3756_11875)">
<path d="M164.053 81.554H160.581V85.0255H164.053V81.554Z" fill="#F5AC3C"/>
<path d="M168.519 118.415H166.815V120.119H168.519V118.415Z" fill="#F5AC3C"/>
<path d="M174.21 102.655H171.408V105.456H174.21V102.655Z" fill="#F5AC3C"/>
<path d="M141.621 71.9404H139.31V74.2515H141.621V71.9404Z" fill="#F5AC3C"/>
<path d="M136.538 108.015H134.105V110.448H136.538V108.015Z" fill="#F5AC3C"/>
<path d="M147.704 96.9885H143.932V100.761H147.704V96.9885Z" fill="#F5AC3C"/>
<path d="M162.945 62.6375H161.688V63.895H162.945V62.6375Z" fill="#3171B7"/>
<path d="M157.478 62.5986H156.138V63.9338H157.478V62.5986Z" fill="#3171B7"/>
<path d="M173.501 67.386H172.122V68.7649H173.501V67.386Z" fill="#3171B7"/>
<path d="M168.519 67.2212H166.815V68.9254H168.519V67.2212Z" fill="#3171B7"/>
<path d="M163.29 67.1045H161.338V69.0515H163.29V67.1045Z" fill="#3171B7"/>
<path d="M157.828 67.051H155.784V69.1H157.828V67.051Z" fill="#3171B7"/>
<path d="M178.584 72.3481H177.079V73.8484H178.584V72.3481Z" fill="#3171B7"/>
<path d="M173.782 72.1248H171.835V74.0717H173.782V72.1248Z" fill="#3171B7"/>
<path d="M168.825 71.9404H166.514V74.2515H168.825V71.9404Z" fill="#3171B7"/>
<path d="M163.582 71.8286H161.042V74.3631H163.582V71.8286Z" fill="#3171B7"/>
<path d="M158.139 71.7703H155.483V74.4261H158.139V71.7703Z" fill="#3171B7"/>
<path d="M183.411 77.4268H182.032V78.8057H183.411V77.4268Z" fill="#3171B7"/>
<path d="M178.802 77.1453H176.855V79.0922H178.802V77.1453Z" fill="#3171B7"/>
<path d="M174.025 76.9023H171.593V79.3348H174.025V76.9023Z" fill="#3171B7"/>
<path d="M169.068 76.718H166.266V79.5195H169.068V76.718Z" fill="#3171B7"/>
<path d="M163.844 76.582H160.785V79.6506H163.844V76.582Z" fill="#3171B7"/>
<path d="M158.401 76.5237H155.216V79.7136H158.401V76.5237Z" fill="#3171B7"/>
<path d="M183.575 82.4424H181.871V84.1466H183.575V82.4424Z" fill="#3171B7"/>
<path d="M178.987 82.1365H176.676V84.4476H178.987V82.1365Z" fill="#3171B7"/>
<path d="M174.21 81.8887H171.408V84.6902H174.21V81.8887Z" fill="#3171B7"/>
<path d="M169.276 81.6897H166.067V84.899H169.276V81.6897Z" fill="#3171B7"/>
<path d="M158.614 81.4858H155.001V85.0982H158.614V81.4858Z" fill="#3171B7"/>
<path d="M187.62 87.8413H186.362V89.0988H187.62V87.8413Z" fill="#3171B7"/>
<path d="M183.697 87.4917H181.745V89.4435H183.697V87.4917Z" fill="#3171B7"/>
<path d="M179.099 87.2004H176.56V89.7349H179.099V87.2004Z" fill="#3171B7"/>
<path d="M174.341 86.9336H171.277V90.0021H174.341V86.9336Z" fill="#3171B7"/>
<path d="M169.403 86.7344H165.931V90.201H169.403V86.7344Z" fill="#3171B7"/>
<path d="M164.203 86.5837H160.431V90.3563H164.203V86.5837Z" fill="#3171B7"/>
<path d="M158.755 86.5208H154.861V90.4195H158.755V86.5208Z" fill="#3171B7"/>
<path d="M187.659 92.9783H186.324V94.3135H187.659V92.9783Z" fill="#3171B7"/>
<path d="M183.745 92.6189H181.696V94.6678H183.745V92.6189Z" fill="#3171B7"/>
<path d="M179.157 92.313H176.501V94.9737H179.157V92.313Z" fill="#3171B7"/>
<path d="M174.404 92.0508H171.219V95.2407H174.404V92.0508Z" fill="#3171B7"/>
<path d="M169.476 91.8372H165.863V95.4495H169.476V91.8372Z" fill="#3171B7"/>
<path d="M164.261 91.6963H160.367V95.5902H164.261V91.6963Z" fill="#3171B7"/>
<path d="M162.945 123.45H161.688V124.707H162.945V123.45Z" fill="#3171B7"/>
<path d="M157.478 123.411H156.138V124.747H157.478V123.411Z" fill="#3171B7"/>
<path d="M173.506 118.58H172.122V119.959H173.506V118.58Z" fill="#3171B7"/>
<path d="M163.29 118.299H161.338V120.246H163.29V118.299Z" fill="#3171B7"/>
<path d="M157.828 118.245H155.784V120.294H157.828V118.245Z" fill="#3171B7"/>
<path d="M178.584 113.501H177.079V115.002H178.584V113.501Z" fill="#3171B7"/>
<path d="M173.782 113.273H171.835V115.22H173.782V113.273Z" fill="#3171B7"/>
<path d="M168.825 113.094H166.514V115.405H168.825V113.094Z" fill="#3171B7"/>
<path d="M163.582 112.982H161.042V115.517H163.582V112.982Z" fill="#3171B7"/>
<path d="M158.139 112.919H155.483V115.575H158.139V112.919Z" fill="#3171B7"/>
<path d="M183.411 108.54H182.032V109.918H183.411V108.54Z" fill="#3171B7"/>
<path d="M178.802 108.258H176.855V110.205H178.802V108.258Z" fill="#3171B7"/>
<path d="M174.025 108.015H171.593V110.448H174.025V108.015Z" fill="#3171B7"/>
<path d="M169.072 107.831H166.271V110.632H169.072V107.831Z" fill="#3171B7"/>
<path d="M163.844 107.695H160.785V110.763H163.844V107.695Z" fill="#3171B7"/>
<path d="M158.401 107.636H155.216V110.826H158.401V107.636Z" fill="#3171B7"/>
<path d="M183.575 103.203H181.871V104.908H183.575V103.203Z" fill="#3171B7"/>
<path d="M178.987 102.897H176.676V105.209H178.987V102.897Z" fill="#3171B7"/>
<path d="M169.276 102.451H166.067V105.66H169.276V102.451Z" fill="#3171B7"/>
<path d="M164.053 102.315H160.581V105.787H164.053V102.315Z" fill="#3171B7"/>
<path d="M158.614 102.247H155.001V105.859H158.614V102.247Z" fill="#3171B7"/>
<path d="M187.62 98.2461H186.362V99.5036H187.62V98.2461Z" fill="#3171B7"/>
<path d="M183.697 97.9016H181.745V99.8534H183.697V97.9016Z" fill="#3171B7"/>
<path d="M179.099 97.6104H176.56V100.145H179.099V97.6104Z" fill="#3171B7"/>
<path d="M174.341 97.3433H171.277V100.412H174.341V97.3433Z" fill="#3171B7"/>
<path d="M169.408 97.144H165.936V100.611H169.408V97.144Z" fill="#3171B7"/>
<path d="M164.203 96.9885H160.431V100.761H164.203V96.9885Z" fill="#3171B7"/>
<path d="M158.755 96.9255H154.861V100.824H158.755V96.9255Z" fill="#3171B7"/>
<path d="M158.813 91.6626H154.798V95.6779H158.813V91.6626Z" fill="#3171B7"/>
<path d="M146.447 62.6375H145.189V63.895H146.447V62.6375Z" fill="#3171B7"/>
<path d="M151.996 62.5986H150.656V63.9338H151.996V62.5986Z" fill="#3171B7"/>
<path d="M136.013 67.386H134.634V68.7649H136.013V67.386Z" fill="#3171B7"/>
<path d="M141.315 67.2209H139.611V68.9252H141.315V67.2209Z" fill="#3171B7"/>
<path d="M146.797 67.1045H144.845V69.0515H146.797V67.1045Z" fill="#3171B7"/>
<path d="M152.346 67.051H150.302V69.1H152.346V67.051Z" fill="#3171B7"/>
<path d="M131.055 72.3484H129.55V73.8487H131.055V72.3484Z" fill="#3171B7"/>
<path d="M136.295 72.1248H134.348V74.0717H136.295V72.1248Z" fill="#3171B7"/>
<path d="M147.088 71.8286H144.548V74.3631H147.088V71.8286Z" fill="#3171B7"/>
<path d="M152.652 71.7703H149.996V74.4261H152.652V71.7703Z" fill="#3171B7"/>
<path d="M126.104 77.4268H124.725V78.8057H126.104V77.4268Z" fill="#3171B7"/>
<path d="M131.279 77.1453H129.332V79.0922H131.279V77.1453Z" fill="#3171B7"/>
<path d="M136.538 76.9023H134.105V79.3348H136.538V76.9023Z" fill="#3171B7"/>
<path d="M141.864 76.718H139.062V79.5195H141.864V76.718Z" fill="#3171B7"/>
<path d="M147.35 76.5818H144.292V79.6503H147.35V76.5818Z" fill="#3171B7"/>
<path d="M152.919 76.5237H149.734V79.7136H152.919V76.5237Z" fill="#3171B7"/>
<path d="M126.268 82.4424H124.564V84.1466H126.268V82.4424Z" fill="#3171B7"/>
<path d="M131.458 82.1362H129.147V84.4473H131.458V82.1362Z" fill="#3171B7"/>
<path d="M136.722 81.8887H133.92V84.6902H136.722V81.8887Z" fill="#3171B7"/>
<path d="M142.067 81.6897H138.858V84.899H142.067V81.6897Z" fill="#3171B7"/>
<path d="M147.554 81.554H144.082V85.0255H147.554V81.554Z" fill="#3171B7"/>
<path d="M153.133 81.4858H149.521V85.0982H153.133V81.4858Z" fill="#3171B7"/>
<path d="M121.772 87.8413H120.515V89.0988H121.772V87.8413Z" fill="#3171B7"/>
<path d="M126.39 87.4917H124.438V89.4435H126.39V87.4917Z" fill="#3171B7"/>
<path d="M131.575 87.2004H129.036V89.7349H131.575V87.2004Z" fill="#3171B7"/>
<path d="M136.852 86.9336H133.789V90.0021H136.852V86.9336Z" fill="#3171B7"/>
<path d="M142.199 86.7344H138.728V90.201H142.199V86.7344Z" fill="#3171B7"/>
<path d="M147.704 86.5837H143.932V90.3563H147.704V86.5837Z" fill="#3171B7"/>
<path d="M153.274 86.5208H149.38V90.4195H153.274V86.5208Z" fill="#3171B7"/>
<path d="M121.811 92.9783H120.476V94.3135H121.811V92.9783Z" fill="#3171B7"/>
<path d="M126.439 92.6189H124.39V94.6678H126.439V92.6189Z" fill="#3171B7"/>
<path d="M131.628 92.3132H128.972V94.9739H131.628V92.3132Z" fill="#3171B7"/>
<path d="M136.917 92.0508H133.731V95.2407H136.917V92.0508Z" fill="#3171B7"/>
<path d="M142.272 91.8372H138.659V95.4495H142.272V91.8372Z" fill="#3171B7"/>
<path d="M147.767 91.6963H143.874V95.5902H147.767V91.6963Z" fill="#3171B7"/>
<path d="M146.447 123.45H145.189V124.707H146.447V123.45Z" fill="#3171B7"/>
<path d="M151.996 123.411H150.656V124.746H151.996V123.411Z" fill="#3171B7"/>
<path d="M136.018 118.58H134.634V119.959H136.018V118.58Z" fill="#3171B7"/>
<path d="M141.315 118.415H139.611V120.119H141.315V118.415Z" fill="#3171B7"/>
<path d="M146.797 118.299H144.845V120.246H146.797V118.299Z" fill="#3171B7"/>
<path d="M152.346 118.245H150.302V120.294H152.346V118.245Z" fill="#3171B7"/>
<path d="M131.055 113.501H129.55V115.002H131.055V113.501Z" fill="#3171B7"/>
<path d="M136.295 113.273H134.348V115.22H136.295V113.273Z" fill="#3171B7"/>
<path d="M141.621 113.094H139.31V115.405H141.621V113.094Z" fill="#3171B7"/>
<path d="M147.088 112.982H144.548V115.517H147.088V112.982Z" fill="#3171B7"/>
<path d="M152.652 112.919H149.996V115.575H152.652V112.919Z" fill="#3171B7"/>
<path d="M126.104 108.54H124.725V109.918H126.104V108.54Z" fill="#3171B7"/>
<path d="M131.279 108.258H129.332V110.205H131.279V108.258Z" fill="#3171B7"/>
<path d="M141.864 107.831H139.062V110.632H141.864V107.831Z" fill="#3171B7"/>
<path d="M147.35 107.695H144.292V110.763H147.35V107.695Z" fill="#3171B7"/>
<path d="M152.919 107.636H149.734V110.826H152.919V107.636Z" fill="#3171B7"/>
<path d="M126.268 103.203H124.564V104.908H126.268V103.203Z" fill="#3171B7"/>
<path d="M131.458 102.897H129.147V105.209H131.458V102.897Z" fill="#3171B7"/>
<path d="M136.722 102.655H133.92V105.456H136.722V102.655Z" fill="#3171B7"/>
<path d="M142.067 102.451H138.858V105.66H142.067V102.451Z" fill="#3171B7"/>
<path d="M147.554 102.315H144.082V105.787H147.554V102.315Z" fill="#3171B7"/>
<path d="M153.133 102.247H149.521V105.859H153.133V102.247Z" fill="#3171B7"/>
<path d="M121.772 98.2461H120.515V99.5036H121.772V98.2461Z" fill="#3171B7"/>
<path d="M126.39 97.9016H124.438V99.8534H126.39V97.9016Z" fill="#3171B7"/>
<path d="M131.575 97.6104H129.036V100.145H131.575V97.6104Z" fill="#3171B7"/>
<path d="M136.852 97.3433H133.789V100.412H136.852V97.3433Z" fill="#3171B7"/>
<path d="M142.199 97.144H138.728V100.611H142.199V97.144Z" fill="#3171B7"/>
<path d="M153.274 96.9255H149.38V100.824H153.274V96.9255Z" fill="#3171B7"/>
<path d="M149.316 95.6826H153.331V91.6673H149.316V95.6826Z" fill="#3171B7"/>
<path d="M274.068 101.373H278.312L274.301 95.6873C276.481 94.8474 277.816 93.0946 277.816 91.0408C277.816 88.5355 275.986 85.8408 271.99 85.8408H261.43V101.378H265.086V96.2408H270.427L274.068 101.373ZM265.086 89.0162H271.252C273.039 89.0162 274.024 89.7348 274.024 91.0408C274.024 92.3469 273.053 93.0655 271.252 93.0655H265.086V89.0162Z" fill="black"/>
<path d="M289.776 85.8408H286.12V101.373H289.776V85.8408Z" fill="black"/>
<path d="M326.947 88.9919H338.979V85.8457H323.262V101.373H338.979V98.1976H326.947V95.197H336.896V92.0216H326.947V91.808V88.9919Z" fill="black"/>
<path d="M252.025 101.373H256.152L245.641 85.3262L235.129 101.373H239.28L240.994 98.6734H250.336L252.025 101.373ZM248.384 95.6145H242.897L243.189 95.1581L245.641 91.2739L248.384 95.6145Z" fill="black"/>
<path d="M312.163 85.5147V85.5826V89.5154V94.9048L299 85V90.3845V101.042H302.506V91.9965L315.668 101.688V96.4051V89.5154V85.5826V85.5147H312.163Z" fill="black"/>
<path d="M226.967 101.373H230.788L225.122 85.3262L218.101 96.0127L211.08 85.3262L205.419 101.373H209.24L212.114 92.7451L218.101 102.019L224.092 92.7451L226.967 101.373Z" fill="black"/>
<path d="M476.664 92.9297H468.662V96.1002H472.988C472.318 97.6394 470.337 98.5279 467.57 98.5279C463.763 98.5279 461.205 96.5858 461.205 93.6435C461.205 90.1234 464.642 88.8659 467.856 88.8659C470.114 88.7956 472.35 89.3286 474.333 90.4098L474.785 90.6478V87.2005L474.615 87.118C472.26 85.9187 469.444 85.6614 467.497 85.6614C461.719 85.6614 457.685 88.9435 457.685 93.6386C457.685 98.4939 461.666 101.728 467.594 101.728C472.882 101.728 476.659 98.6444 476.78 94.2261C476.779 93.8784 476.753 93.5312 476.703 93.1871L476.664 92.9297Z" fill="black"/>
<path d="M519.154 95.7892C521.334 94.9492 522.669 93.2013 522.669 91.1427C522.669 88.6422 520.844 85.9475 516.843 85.9475H506.283V101.484H509.939V96.3427H515.255L518.945 101.48H523.189L519.154 95.7892ZM509.929 89.1229H516.095C517.882 89.1229 518.868 89.8414 518.868 91.1427C518.868 92.4439 517.897 93.1673 516.095 93.1673H509.929V89.1229Z" fill="black"/>
<path d="M487.38 89.094H499.417V85.9478H483.695V101.48H499.417V98.3045H487.38V95.299H497.329V92.1237H487.38V91.91V89.094Z" fill="black"/>
<path d="M403.35 101.441H407.472L396.965 85.4185L386.453 101.441H390.575L392.289 98.7414H401.636L403.35 101.441ZM399.703 95.702H394.222L394.508 95.2456L396.936 91.3613L399.703 95.702Z" fill="black"/>
<path d="M378.287 101.417H382.108L376.447 85.3699L369.426 96.0564L362.405 85.3699L356.739 101.417H360.56L363.435 92.7888L369.426 102.062L375.413 92.7888L378.287 101.417Z" fill="black"/>
<path d="M425.213 85.8797V85.9525V89.8853V95.2747L412.05 85.3699V90.7544V101.412H415.556V92.3663L428.718 102.058V96.7749V89.8853V85.9525V85.8797H425.213Z" fill="black"/>
<path d="M450.193 101.329H454.32L443.809 85.2825L433.297 101.329H437.424L439.133 98.6297H448.479L450.193 101.329ZM446.547 95.6145H441.065L441.357 95.1581L443.784 91.2739L446.547 95.6145Z" fill="black"/>
</g>
<g style="mix-blend-mode:multiply">
<circle cx="175.264" cy="379.564" r="172.064" fill="url(#paint0_linear_3756_11875)"/>
</g>
<path d="M3.20057 379.564C3.20057 284.536 80.2362 207.5 175.264 207.5C270.293 207.5 347.328 284.536 347.328 379.564" stroke="#FFB900" stroke-width="2.16"/>
<g style="mix-blend-mode:multiply">
<circle cx="468.716" cy="379.564" r="172.064" fill="url(#paint1_linear_3756_11875)"/>
</g>
<g style="mix-blend-mode:multiply">
<path d="M640.779 379.564C640.779 474.592 563.744 551.628 468.716 551.628C373.687 551.628 296.652 474.592 296.652 379.564" stroke="#0046DC" stroke-width="2.16"/>
</g>
<rect x="63.4277" y="303" width="211.185" height="45.095" rx="22.5475" fill="white"/>
<path d="M244.309 320.458C244.17 320.648 243.859 321.184 243.704 321.53C243.116 322.878 242.149 324.727 240.991 326.282C242.702 327.768 244.793 329.98 245.812 331.224L243.842 332.935C242.719 331.379 241.112 329.617 239.488 328.044C237.656 329.98 235.358 331.777 232.99 332.9L231.21 331.034C233.993 329.997 236.671 327.889 238.295 326.074C239.436 324.778 240.49 323.068 240.87 321.841H235.012C234.286 321.841 233.336 321.944 232.973 321.962V319.508C233.44 319.577 234.494 319.629 235.012 319.629H241.112C241.855 319.629 242.546 319.525 242.892 319.404L244.309 320.458Z" fill="black"/>
<path d="M225.37 318.178C225.802 318.817 226.424 319.906 226.752 320.545L225.353 321.132C225.007 320.424 224.471 319.404 224.005 318.73L225.37 318.178ZM227.409 317.4C227.875 318.039 228.515 319.145 228.809 319.75L227.443 320.338C227.081 319.612 226.528 318.61 226.044 317.953L227.409 317.4ZM217.922 318.921C217.836 319.439 217.784 320.234 217.784 320.718V323.984C219.823 323.482 222.225 322.722 223.763 322.066C224.385 321.824 224.972 321.547 225.646 321.132L226.579 323.327C225.906 323.603 225.128 323.932 224.558 324.139C222.812 324.83 220.03 325.694 217.784 326.247V329.444C217.784 330.187 218.13 330.377 218.907 330.533C219.426 330.602 220.134 330.636 220.912 330.636C222.709 330.636 225.508 330.412 226.925 330.032V332.554C225.301 332.796 222.674 332.917 220.773 332.917C219.65 332.917 218.613 332.848 217.87 332.727C216.367 332.451 215.503 331.621 215.503 330.135V320.718C215.503 320.338 215.451 319.439 215.365 318.921H217.922Z" fill="black"/>
<path d="M196.927 324.174C197.549 324.225 198.811 324.277 199.709 324.277H208.989C209.801 324.277 210.561 324.208 211.01 324.174V326.887C210.596 326.869 209.714 326.8 208.989 326.8H199.709C198.724 326.8 197.567 326.835 196.927 326.887V324.174Z" fill="black"/>
<path d="M190.983 324.537C190.983 328.822 189.946 331.431 185.781 333.263L183.933 331.518C187.268 330.36 188.736 328.874 188.736 324.623V323.966H184.641V326.316C184.641 327.077 184.693 327.785 184.71 328.131H182.291C182.343 327.785 182.395 327.094 182.395 326.316V323.966H180.926C180.062 323.966 179.44 324.001 179.06 324.035V321.685C179.353 321.737 180.062 321.841 180.926 321.841H182.395V320.13C182.395 319.629 182.343 319.093 182.291 318.575H184.745C184.693 318.903 184.641 319.456 184.641 320.13V321.841H188.736V320.026C188.736 319.335 188.685 318.765 188.633 318.419H191.104C191.052 318.765 190.983 319.335 190.983 320.026V321.841H192.261C193.177 321.841 193.696 321.806 194.162 321.72V324.018C193.782 323.984 193.177 323.966 192.261 323.966H190.983V324.537Z" fill="black"/>
<path d="M174.221 318.437C174.17 318.817 174.152 319.232 174.135 319.612C174.135 319.975 174.135 320.873 174.135 321.824C175.103 321.755 176.018 321.651 176.727 321.513L176.71 323.759C176.018 323.845 175.12 323.915 174.152 323.966C174.152 324.26 174.152 324.519 174.152 324.692C174.152 328.77 173.841 331.276 170.385 333.47L168.398 331.898C169.055 331.604 169.919 331.051 170.402 330.515C171.733 329.133 172.01 327.595 172.01 324.675C172.01 324.502 172.01 324.295 172.01 324.053C171.353 324.07 170.714 324.087 170.074 324.087C169.331 324.087 168.26 324.035 167.413 324.001V321.806C168.26 321.927 169.106 321.996 170.022 321.996C170.644 321.996 171.318 321.979 171.975 321.962C171.958 320.994 171.94 320.096 171.906 319.629C171.871 319.197 171.785 318.713 171.716 318.437H174.221ZM165.633 318.731C165.478 319.145 165.305 319.767 165.218 320.13C164.786 322.048 164.182 325.677 164.648 327.82C164.873 327.284 165.184 326.455 165.478 325.815L166.549 326.507C166.048 327.993 165.581 329.738 165.374 330.723C165.305 330.982 165.27 331.362 165.27 331.57C165.27 331.742 165.288 332.036 165.305 332.278L163.387 332.468C163.007 331.431 162.402 329.012 162.402 326.869C162.402 324.035 162.747 321.374 162.955 319.975C163.041 319.491 163.058 318.903 163.076 318.471L165.633 318.731Z" fill="black"/>
<path d="M153.624 325.902H150.617V328.2H153.624V325.902ZM155.507 329.997H150.617V331.207H148.768V324.104H155.507V329.997ZM159.309 320.424V331.276C159.309 332.399 159.067 332.986 158.341 333.315C157.615 333.643 156.509 333.678 154.954 333.678C154.885 333.09 154.574 332.157 154.28 331.604C155.3 331.673 156.457 331.656 156.803 331.639C157.131 331.639 157.235 331.552 157.235 331.241V322.428H147.074V333.66H145.018V320.424H149.787C150.15 319.491 150.496 318.402 150.703 317.538L153.312 317.901C152.95 318.765 152.518 319.664 152.103 320.424H159.309Z" fill="black"/>
<path d="M134.702 321.184V322.757H135.652C136.309 322.256 136.931 321.737 137.518 321.184H134.702ZM138.469 328.736V327.63H132.524V328.736H138.469ZM132.524 331.466H138.469V330.291H132.524V331.466ZM142.599 324.571H136.378C135.704 325.055 135.047 325.504 134.339 325.953H140.629V333.626H138.469V333.176H132.524V333.695H130.468V328.044C129.604 328.424 128.706 328.805 127.824 329.133C127.582 328.684 126.96 327.854 126.58 327.44C128.844 326.731 131.004 325.746 132.991 324.571H127.116V322.757H132.663V321.184H128.602V319.404H132.663V317.538H134.702V319.404H138.451V320.251C139.108 319.543 139.696 318.817 140.231 318.056L141.994 318.955C141.009 320.32 139.851 321.599 138.59 322.757H142.599V324.571Z" fill="black"/>
<path d="M119.703 322.031H115.573C115.815 322.48 116.039 322.999 116.16 323.361L115.867 323.413H119.098C119.305 322.999 119.513 322.497 119.703 322.031ZM125.284 329.738H120.273C121.742 330.636 123.746 331.31 125.751 331.621C125.284 332.071 124.679 332.935 124.368 333.488C122.243 332.952 120.152 331.915 118.562 330.567V333.678H116.541V330.671C114.934 331.932 112.808 332.935 110.752 333.47C110.458 332.969 109.87 332.174 109.438 331.76C111.374 331.362 113.413 330.636 114.899 329.738H109.94V328.044H116.541V327.284H111.564V325.798H116.541V325.02H110.7V323.413H113.983C113.845 322.981 113.62 322.463 113.396 322.065L113.603 322.031H109.991V320.355H112.307C112.065 319.698 111.616 318.869 111.236 318.212L112.998 317.607C113.499 318.35 114.07 319.37 114.311 320.044L113.465 320.355H115.037V317.538H116.955V320.355H118.234V317.538H120.169V320.355H121.707L121.085 320.165C121.5 319.456 121.932 318.419 122.174 317.659L124.334 318.177C123.85 318.972 123.383 319.75 122.986 320.355H125.232V322.031H121.984C121.707 322.532 121.431 322.999 121.172 323.413H124.558V325.02H118.562V325.798H123.746V327.284H118.562V328.044H125.284V329.738Z" fill="black"/>
<path d="M102.717 320.925H100.557C100.315 321.288 100.055 321.651 99.7962 321.996H102.146C102.336 321.668 102.544 321.305 102.717 320.925ZM105.516 324.761V323.603H103.494V324.761H105.516ZM105.516 327.457V326.265H103.494V327.457H105.516ZM99.7271 326.265V327.457H101.645V326.265H99.7271ZM101.645 324.761V323.603H99.7271V324.761H101.645ZM97.8954 329.064V324.156C97.7571 324.295 97.6189 324.416 97.4807 324.537C97.1696 324.139 96.4093 323.292 95.9773 322.912C97.6189 321.668 99.1568 319.629 100.038 317.573L102.06 318.212C101.904 318.54 101.749 318.869 101.576 319.197H103.771L104.185 319.076L105.499 320.027C105.153 320.649 104.756 321.34 104.324 321.996H107.434V329.064H97.8954ZM97.2387 319.283L96.0291 320.977C95.4416 320.389 94.1283 319.612 93.1088 319.163L94.2493 317.607C95.2515 318.022 96.5821 318.713 97.2387 319.283ZM96.3229 323.776L95.1306 325.487C94.5258 324.917 93.2471 324.191 92.2275 323.759L93.3335 322.204C94.3357 322.567 95.6663 323.223 96.3229 323.776ZM95.4243 326.731L97.0487 327.941C96.2711 329.807 95.3725 331.794 94.4739 333.488L92.625 332.278C93.4371 330.947 94.5603 328.77 95.4243 326.731ZM97.688 333.695L96.1847 332.555C97.0659 331.829 97.688 330.636 97.9645 329.461L99.6061 330.049C99.2605 331.362 98.7075 332.779 97.688 333.695ZM100.021 329.928L101.662 329.651C101.973 330.775 102.181 332.209 102.181 333.159L100.401 333.453C100.453 332.52 100.28 331.051 100.021 329.928ZM102.284 329.98L103.874 329.531C104.462 330.602 104.963 332.019 105.153 332.969L103.46 333.47C103.321 332.537 102.82 331.068 102.284 329.98ZM104.773 330.118L106.363 329.306C107.244 330.325 108.108 331.725 108.505 332.693L106.812 333.643C106.466 332.675 105.62 331.189 104.773 330.118Z" fill="black"/>
<path d="M273.751 406.562L269.986 401.542C270.431 401.343 270.832 401.094 271.18 400.784C272.161 399.919 272.652 398.728 272.652 397.211C272.652 395.717 272.154 394.538 271.161 393.675C270.168 392.809 268.821 392.377 267.118 392.377H265.422H262.012V406.562H265.422V402.082H266.411L269.765 406.562H273.751ZM265.427 399.247V395.214H266.581C267.413 395.214 268.035 395.378 268.445 395.708C268.855 396.038 269.109 396.532 269.109 397.204C269.109 398.559 268.233 399.245 266.581 399.245H265.427V399.247Z" fill="black"/>
<path d="M219.628 406.562H223.033L217.61 392.377H213.389L207.96 406.562H211.37L212.426 403.801H218.57L219.628 406.562ZM213.585 400.773L215.497 395.771L217.411 400.773H213.585Z" fill="black"/>
<path d="M160.894 369.319L157.037 376.664L153.178 369.319H149.279V383.506H152.687V375.256V375.231L155.24 380.083L155.332 380.261H158.74L158.832 380.083L161.364 375.27V375.279V383.506H164.774V369.323V369.319H160.894Z" fill="black"/>
<path d="M181.513 383.506H184.918L179.494 369.321H175.273L169.845 383.506H173.255L174.31 380.745H180.455L181.513 383.506ZM175.469 377.714L177.382 372.712L179.296 377.714H175.469Z" fill="black"/>
<path d="M160.894 392.377L157.037 399.72L153.178 392.377H149.279V406.563H152.687V398.312V398.289L155.24 403.142L155.332 403.317H158.74L158.832 403.142L161.364 398.326V398.335V406.563H164.774V392.382V392.377H160.894Z" fill="black"/>
<path d="M181.513 406.563H184.918L179.494 392.377H175.273L169.845 406.563H173.255L174.31 403.802H180.455L181.513 406.563ZM175.469 400.773L177.382 395.771L179.296 400.773H175.469Z" fill="black"/>
<path d="M247.305 372.35V369.319H237.46V369.326V383.506H247.305V380.473H240.87V377.931H246.312V374.901H240.87V372.35H247.305Z" fill="black"/>
<path d="M256.017 395.408V392.377H246.174V392.384V406.565H256.017V403.532H249.584V400.99H255.026V397.959H249.584V395.408H256.017Z" fill="black"/>
<path d="M201.619 383.506L197.855 378.485C198.299 378.287 198.7 378.038 199.048 377.728C200.029 376.863 200.52 375.671 200.52 374.155C200.52 372.661 200.023 371.482 199.03 370.618C198.037 369.753 196.689 369.321 194.986 369.321H193.29H189.88V383.506H193.29V379.026H194.279L197.633 383.506H201.619ZM193.293 376.189V372.158H194.447C195.279 372.158 195.901 372.322 196.311 372.652C196.721 372.982 196.974 373.476 196.974 374.148C196.974 375.503 196.099 376.189 194.447 376.189H193.293Z" fill="black"/>
<path d="M189.913 392.377H193.118L199.583 401.002V392.377H202.993V406.563H199.77L193.323 397.957V406.563H189.913V392.377V392.377Z" fill="black"/>
<path d="M234.202 401.168H236.437V403.388C235.854 403.513 235.287 403.575 234.741 403.575C233.364 403.575 232.283 403.218 231.5 402.502C230.716 401.786 230.327 400.794 230.327 399.524C230.327 398.28 230.737 397.285 231.557 396.537C232.377 395.789 233.463 395.418 234.817 395.418C236.11 395.418 237.382 395.669 238.633 396.17L239.748 393.25C239.077 392.915 238.31 392.652 237.444 392.458C236.575 392.267 235.711 392.17 234.854 392.17C233.165 392.17 231.693 392.486 230.44 393.121C229.186 393.756 228.226 394.635 227.562 395.762C226.899 396.888 226.564 398.19 226.564 399.672C226.564 401.129 226.894 402.391 227.553 403.46C228.212 404.531 229.133 405.348 230.32 405.914C231.507 406.479 232.887 406.763 234.465 406.763C236.515 406.763 238.359 406.396 239.999 405.662V398.345H234.204V401.168H234.202Z" fill="black"/>
<path d="M207.303 369.326H210.713V383.499H207.303V369.326Z" fill="black"/>
<path d="M217.598 369.319H220.803L227.268 377.943V369.319H230.678V383.504H227.455L221.008 374.901V383.506H217.598V369.319Z" fill="black"/>
<path d="M162.944 419.889H166.205L166.241 421.327C166.476 420.805 166.801 420.404 167.209 420.122C167.619 419.843 168.096 419.702 168.644 419.702C169.066 419.702 169.432 419.771 169.743 419.907L169.483 423.081C169.098 422.92 168.688 422.839 168.253 422.839C167.608 422.839 167.119 423.054 166.79 423.483C166.46 423.912 166.297 424.55 166.297 425.397V429.522H162.944V419.889Z" fill="black"/>
<path d="M179.146 429.836C177.978 429.836 176.96 429.633 176.091 429.229C175.223 428.825 174.547 428.241 174.071 427.474C173.591 426.708 173.354 425.791 173.354 424.72C173.354 423.751 173.559 422.878 173.969 422.107C174.379 421.336 174.967 420.727 175.729 420.279C176.494 419.831 177.379 419.607 178.384 419.607C179.824 419.607 180.971 420.041 181.821 420.905C182.671 421.77 183.098 422.943 183.098 424.422C183.098 424.859 183.061 425.244 182.985 425.579H176.651C176.824 426.138 177.151 426.553 177.63 426.821C178.107 427.089 178.764 427.223 179.596 427.223C180.13 427.223 180.669 427.167 181.215 427.054C181.761 426.943 182.245 426.786 182.669 426.588L182.966 429.109C182.457 429.346 181.87 429.526 181.206 429.649C180.54 429.773 179.854 429.836 179.146 429.836ZM179.964 423.564C179.913 423.067 179.743 422.675 179.453 422.386C179.16 422.1 178.785 421.957 178.326 421.957C177.381 421.957 176.805 422.493 176.593 423.564H179.964V423.564Z" fill="black"/>
<path d="M196.974 426.233C196.26 426.431 195.61 426.533 195.027 426.533C193.735 426.533 192.721 426.177 191.981 425.469C191.242 424.76 190.873 423.788 190.873 422.558C190.873 421.325 191.242 420.349 191.981 419.628C192.721 418.906 193.723 418.546 194.991 418.546C195.599 418.546 196.221 418.624 196.854 418.779C197.306 418.89 197.735 419.044 198.154 419.222L199.255 416.341C198.698 416.007 198.016 415.739 197.209 415.54C196.403 415.342 195.587 415.242 194.769 415.242C193.59 415.242 192.516 415.432 191.546 415.813C190.576 416.191 189.754 416.718 189.078 417.389C188.401 418.061 187.89 418.839 187.542 419.723C187.194 420.607 187.021 421.558 187.021 422.579C187.021 424.084 187.337 425.386 187.97 426.48C188.604 427.576 189.495 428.41 190.643 428.982C191.793 429.554 193.136 429.841 194.677 429.841C195.523 429.841 196.368 429.735 197.221 429.524C198.071 429.312 198.788 429.033 199.373 428.684L198.981 425.455C198.357 425.773 197.689 426.034 196.974 426.233Z" fill="black"/>
<path d="M205.085 429.836C206.114 429.836 206.949 429 206.949 427.968C206.949 426.937 206.114 426.101 205.085 426.101C204.055 426.101 203.221 426.937 203.221 427.968C203.221 429 204.055 429.836 205.085 429.836Z" fill="black"/>
<path d="M158.159 423.095H155.246V420.177H152.221V423.095H149.307V426.126H152.221V429.046H155.246V426.126H158.159V423.095Z" fill="black"/>
<path d="M109.005 364.097C108.991 364.097 108.975 364.095 108.961 364.095C104.404 364.095 100.602 367.324 99.7061 371.625C98.8099 367.327 95.0059 364.095 90.4509 364.095C90.4348 364.095 90.421 364.097 90.4072 364.097C90.3104 364.644 90.2505 365.203 90.2505 365.778C90.2505 370.997 94.4622 375.228 99.6646 375.251C99.6808 375.251 99.6946 375.254 99.7084 375.254C99.7222 375.254 99.7384 375.251 99.7522 375.251C104.955 375.226 109.166 370.997 109.166 365.778C109.162 365.203 109.102 364.644 109.005 364.097Z" fill="#0046DC"/>
<path d="M131.321 381.078C131.31 381.066 131.303 381.055 131.291 381.046C128.068 377.816 123.101 377.408 119.433 379.813C121.833 376.138 121.423 371.161 118.2 367.932C118.188 367.92 118.177 367.913 118.168 367.902C117.714 368.218 117.276 368.573 116.871 368.98C113.186 372.671 113.179 378.645 116.841 382.348C116.852 382.359 116.859 382.371 116.871 382.38C116.882 382.391 116.894 382.398 116.903 382.41C120.598 386.078 126.563 386.071 130.245 382.38C130.651 381.971 131.003 381.533 131.321 381.078Z" fill="#0046DC"/>
<path d="M135.116 408.896C135.116 408.882 135.118 408.866 135.118 408.852C135.118 404.286 131.895 400.478 127.603 399.58C131.893 398.682 135.118 394.87 135.118 390.307C135.118 390.291 135.116 390.277 135.116 390.263C134.57 390.166 134.013 390.106 133.439 390.106C128.23 390.106 124.006 394.326 123.983 399.538C123.983 399.554 123.981 399.568 123.981 399.582C123.981 399.596 123.983 399.612 123.983 399.626C124.009 404.838 128.23 409.058 133.439 409.058C134.013 409.053 134.57 408.993 135.116 408.896Z" fill="#0046DC"/>
<path d="M118.168 431.256C118.179 431.244 118.191 431.237 118.2 431.226C121.423 427.996 121.831 423.019 119.433 419.344C123.101 421.75 128.068 421.339 131.291 418.112C131.303 418.1 131.31 418.088 131.321 418.079C131.006 417.624 130.651 417.186 130.245 416.78C126.561 413.088 120.598 413.082 116.903 416.75C116.891 416.761 116.88 416.768 116.871 416.78C116.859 416.791 116.852 416.803 116.841 416.812C113.179 420.515 113.186 426.491 116.871 430.18C117.276 430.584 117.711 430.937 118.168 431.256Z" fill="#0046DC"/>
<path d="M90.403 435.057C90.4168 435.057 90.4329 435.06 90.4468 435.06C95.0041 435.06 98.8057 431.83 99.7019 427.53C100.598 431.828 104.402 435.06 108.957 435.06C108.973 435.06 108.987 435.057 109.001 435.057C109.098 434.51 109.158 433.952 109.158 433.377C109.158 428.158 104.946 423.926 99.7434 423.903C99.7273 423.903 99.7134 423.901 99.6996 423.901C99.6858 423.901 99.6697 423.903 99.6558 423.903C94.4534 423.929 90.2417 428.158 90.2417 433.377C90.2463 433.952 90.3062 434.51 90.403 435.057Z" fill="#0046DC"/>
<path d="M81.056 415.57C77.3857 413.137 72.3953 413.539 69.1604 416.777C68.7549 417.184 68.4024 417.622 68.0845 418.077C68.096 418.088 68.1029 418.1 68.1144 418.109C71.3377 421.339 76.3051 421.747 79.9731 419.344C77.5723 423.019 77.9825 427.996 81.2058 431.226C81.2173 431.237 81.2288 431.244 81.238 431.256C81.6919 430.939 82.1297 430.584 82.5352 430.178C85.7677 426.939 86.1686 421.939 83.7402 418.259C89.1384 418.751 94.7072 416.932 98.8406 412.791C103.571 408.052 105.269 401.426 103.939 395.33C97.8545 394 91.242 395.699 86.5119 400.438C82.3808 404.582 80.5652 410.159 81.056 415.57ZM97.7323 399.577C98.8221 399.577 99.7046 400.462 99.7046 401.553C99.7046 402.645 98.8221 403.529 97.7323 403.529C96.6426 403.529 95.7601 402.645 95.7601 401.553C95.7601 400.462 96.6426 399.577 97.7323 399.577Z" fill="#FFB900"/>
<path d="M64.2914 390.258C64.2914 390.272 64.2891 390.288 64.2891 390.302C64.2891 394.868 67.5124 398.677 71.8047 399.575C67.5147 400.473 64.2891 404.284 64.2891 408.848C64.2891 408.864 64.2914 408.878 64.2914 408.892C64.8374 408.989 65.395 409.049 65.9687 409.049C71.178 409.049 75.4013 404.829 75.4243 399.617C75.4243 399.6 75.4266 399.587 75.4266 399.573C75.4266 399.559 75.4243 399.543 75.4243 399.529C75.3989 394.316 71.178 390.097 65.9687 390.097C65.395 390.101 64.8351 390.161 64.2914 390.258Z" fill="#0046DC"/>
<path d="M81.2396 367.899C81.2281 367.911 81.2166 367.918 81.2073 367.929C77.9841 371.159 77.5762 376.136 79.977 379.811C76.309 377.405 71.3416 377.816 68.1183 381.043C68.1068 381.055 68.0999 381.067 68.0884 381.076C68.404 381.53 68.7588 381.969 69.1643 382.375C72.8484 386.067 78.8112 386.073 82.5068 382.405C82.5183 382.394 82.5298 382.387 82.5391 382.375C82.5506 382.364 82.5575 382.352 82.569 382.343C86.2301 378.64 86.2232 372.664 82.5391 368.975C82.1313 368.571 81.6935 368.218 81.2396 367.899Z" fill="#0046DC"/>
<rect x="360.135" y="303" width="228.465" height="45.095" rx="22.5475" fill="white"/>
<path d="M558.296 320.458C558.158 320.648 557.847 321.184 557.691 321.53C557.104 322.878 556.136 324.727 554.978 326.282C556.689 327.768 558.78 329.98 559.799 331.224L557.829 332.935C556.706 331.379 555.099 329.617 553.475 328.044C551.643 329.98 549.345 331.777 546.978 332.9L545.198 331.034C547.98 329.997 550.658 327.889 552.283 326.074C553.423 324.778 554.477 323.068 554.857 321.841H548.999C548.274 321.841 547.323 321.944 546.96 321.962V319.508C547.427 319.577 548.481 319.629 548.999 319.629H555.099C555.842 319.629 556.533 319.525 556.879 319.404L558.296 320.458Z" fill="black"/>
<path d="M539.357 318.178C539.789 318.817 540.411 319.906 540.74 320.545L539.34 321.132C538.994 320.424 538.459 319.404 537.992 318.73L539.357 318.178ZM541.396 317.4C541.863 318.039 542.502 319.145 542.796 319.75L541.431 320.338C541.068 319.612 540.515 318.61 540.031 317.953L541.396 317.4ZM531.91 318.921C531.823 319.439 531.771 320.234 531.771 320.718V323.984C533.81 323.482 536.212 322.722 537.75 322.066C538.372 321.824 538.96 321.547 539.634 321.132L540.567 323.327C539.893 323.603 539.115 323.932 538.545 324.139C536.8 324.83 534.018 325.694 531.771 326.247V329.444C531.771 330.187 532.117 330.377 532.894 330.533C533.413 330.602 534.121 330.636 534.899 330.636C536.696 330.636 539.495 330.412 540.912 330.032V332.554C539.288 332.796 536.661 332.917 534.761 332.917C533.637 332.917 532.601 332.848 531.858 332.727C530.354 332.451 529.49 331.621 529.49 330.135V320.718C529.49 320.338 529.438 319.439 529.352 318.921H531.91Z" fill="black"/>
<path d="M510.914 324.174C511.536 324.225 512.798 324.277 513.696 324.277H522.976C523.788 324.277 524.548 324.208 524.997 324.174V326.887C524.583 326.869 523.701 326.8 522.976 326.8H513.696C512.711 326.8 511.553 326.835 510.914 326.887V324.174Z" fill="black"/>
<path d="M504.97 324.537C504.97 328.822 503.933 331.431 499.768 333.263L497.919 331.518C501.254 330.36 502.723 328.874 502.723 324.623V323.966H498.628V326.316C498.628 327.077 498.68 327.785 498.697 328.131H496.278C496.33 327.785 496.381 327.094 496.381 326.316V323.966H494.913C494.049 323.966 493.427 324.001 493.046 324.035V321.685C493.34 321.737 494.049 321.841 494.913 321.841H496.381V320.13C496.381 319.629 496.33 319.093 496.278 318.575H498.732C498.68 318.903 498.628 319.456 498.628 320.13V321.841H502.723V320.026C502.723 319.335 502.671 318.765 502.62 318.419H505.091C505.039 318.765 504.97 319.335 504.97 320.026V321.841H506.248C507.164 321.841 507.683 321.806 508.149 321.72V324.018C507.769 323.984 507.164 323.966 506.248 323.966H504.97V324.537Z" fill="black"/>
<path d="M488.208 318.437C488.156 318.817 488.139 319.232 488.122 319.612C488.122 319.975 488.122 320.873 488.122 321.824C489.089 321.755 490.005 321.651 490.714 321.513L490.697 323.759C490.005 323.845 489.107 323.915 488.139 323.966C488.139 324.26 488.139 324.519 488.139 324.692C488.139 328.77 487.828 331.276 484.372 333.47L482.385 331.898C483.041 331.604 483.905 331.051 484.389 330.515C485.72 329.133 485.996 327.595 485.996 324.675C485.996 324.502 485.996 324.295 485.996 324.053C485.34 324.07 484.7 324.087 484.061 324.087C483.318 324.087 482.247 324.035 481.4 324.001V321.806C482.247 321.927 483.093 321.996 484.009 321.996C484.631 321.996 485.305 321.979 485.962 321.962C485.945 320.994 485.927 320.096 485.893 319.629C485.858 319.197 485.772 318.713 485.703 318.437H488.208ZM479.62 318.731C479.465 319.145 479.292 319.767 479.205 320.13C478.773 322.048 478.169 325.677 478.635 327.82C478.86 327.284 479.171 326.455 479.465 325.815L480.536 326.507C480.035 327.993 479.568 329.738 479.361 330.723C479.292 330.982 479.257 331.362 479.257 331.57C479.257 331.742 479.274 332.036 479.292 332.278L477.374 332.468C476.993 331.431 476.389 329.012 476.389 326.869C476.389 324.035 476.734 321.374 476.942 319.975C477.028 319.491 477.045 318.903 477.063 318.471L479.62 318.731Z" fill="black"/>
<path d="M467.61 325.902H464.604V328.2H467.61V325.902ZM469.494 329.997H464.604V331.207H462.755V324.104H469.494V329.997ZM473.295 320.424V331.276C473.295 332.399 473.054 332.986 472.328 333.315C471.602 333.643 470.496 333.678 468.941 333.678C468.872 333.09 468.561 332.157 468.267 331.604C469.286 331.673 470.444 331.656 470.79 331.639C471.118 331.639 471.222 331.552 471.222 331.241V322.428H461.061V333.66H459.005V320.424H463.774C464.137 319.491 464.483 318.402 464.69 317.538L467.299 317.901C466.936 318.765 466.504 319.664 466.09 320.424H473.295Z" fill="black"/>
<path d="M452.283 328.425H445.457V331.241H452.283V328.425ZM443.435 333.695V326.61H454.391V333.695H452.283V333.056H445.457V333.695H443.435ZM445.354 323.085H452.335C450.9 321.962 449.622 320.718 448.792 319.577C447.98 320.735 446.771 321.962 445.354 323.085ZM447.635 317.555H449.76C451.609 320.199 454.408 322.394 457.156 323.5C456.655 324.035 456.188 324.709 455.825 325.349C454.944 324.899 454.045 324.329 453.181 323.707V324.899H444.576V323.69C443.729 324.312 442.813 324.882 441.898 325.383C441.621 324.882 441.051 324.139 440.602 323.707C443.574 322.273 446.339 319.664 447.635 317.555Z" fill="black"/>
<path d="M424.151 327.647L425.845 327.941C425.672 329.565 425.309 331.293 424.808 332.399C424.445 332.174 423.685 331.811 423.235 331.656C423.736 330.636 424.013 329.098 424.151 327.647ZM428.955 326.524L427.97 326.593V333.695H426.156V326.731L423.598 326.904L423.425 325.107L424.704 325.055C424.963 324.727 425.24 324.364 425.499 323.984C424.998 323.241 424.151 322.307 423.425 321.616L424.393 320.199C424.531 320.32 424.67 320.441 424.808 320.562C425.292 319.612 425.776 318.454 426.069 317.555L427.884 318.195C427.262 319.387 426.553 320.718 425.931 321.685C426.156 321.927 426.363 322.186 426.536 322.411C427.158 321.443 427.711 320.441 428.126 319.577L429.871 320.303C428.903 321.824 427.694 323.586 426.57 324.986L428.316 324.917C428.126 324.502 427.918 324.087 427.711 323.724L429.162 323.085C429.854 324.243 430.545 325.746 430.752 326.731L429.197 327.457C429.145 327.18 429.059 326.869 428.955 326.524ZM428.005 328.027L429.525 327.543C429.992 328.563 430.441 329.911 430.648 330.792L429.024 331.362C428.886 330.481 428.437 329.081 428.005 328.027ZM433.154 328.805V331.362H436.455V328.805H433.154ZM436.455 320.251H433.154V322.653H436.455V320.251ZM436.455 326.956V324.485H433.154V326.956H436.455ZM438.528 331.362H439.686V333.211H429.577V331.362H431.167V318.402H438.528V331.362Z" fill="black"/>
<path d="M416.41 322.031H412.28C412.522 322.48 412.746 322.999 412.867 323.361L412.574 323.413H415.805C416.012 322.999 416.22 322.497 416.41 322.031ZM421.991 329.738H416.98C418.449 330.636 420.453 331.31 422.458 331.621C421.991 332.071 421.386 332.935 421.075 333.488C418.95 332.952 416.859 331.915 415.269 330.567V333.678H413.248V330.671C411.641 331.932 409.515 332.935 407.459 333.47C407.165 332.969 406.578 332.174 406.146 331.76C408.081 331.362 410.12 330.636 411.606 329.738H406.647V328.044H413.248V327.284H408.271V325.798H413.248V325.02H407.407V323.413H410.69C410.552 322.981 410.327 322.463 410.103 322.065L410.31 322.031H406.698V320.355H409.014C408.772 319.698 408.323 318.869 407.943 318.212L409.705 317.607C410.206 318.35 410.777 319.37 411.018 320.044L410.172 320.355H411.744V317.538H413.662V320.355H414.941V317.538H416.876V320.355H418.414L417.792 320.165C418.207 319.456 418.639 318.419 418.881 317.659L421.041 318.177C420.557 318.972 420.09 319.75 419.693 320.355H421.939V322.031H418.691C418.414 322.532 418.138 322.999 417.879 323.413H421.266V325.02H415.269V325.798H420.453V327.284H415.269V328.044H421.991V329.738Z" fill="black"/>
<path d="M399.424 320.925H397.264C397.022 321.288 396.762 321.651 396.503 321.996H398.853C399.043 321.668 399.251 321.305 399.424 320.925ZM402.223 324.761V323.603H400.201V324.761H402.223ZM402.223 327.457V326.265H400.201V327.457H402.223ZM396.434 326.265V327.457H398.352V326.265H396.434ZM398.352 324.761V323.603H396.434V324.761H398.352ZM394.602 329.064V324.156C394.464 324.295 394.326 324.416 394.188 324.537C393.877 324.139 393.116 323.292 392.684 322.912C394.326 321.668 395.864 319.629 396.745 317.573L398.767 318.212C398.611 318.54 398.456 318.869 398.283 319.197H400.478L400.892 319.076L402.206 320.027C401.86 320.649 401.463 321.34 401.031 321.996H404.141V329.064H394.602ZM393.946 319.283L392.736 320.977C392.149 320.389 390.835 319.612 389.816 319.163L390.956 317.607C391.959 318.022 393.289 318.713 393.946 319.283ZM393.03 323.776L391.838 325.487C391.233 324.917 389.954 324.191 388.935 323.759L390.04 322.204C391.043 322.567 392.373 323.223 393.03 323.776ZM392.131 326.731L393.756 327.941C392.978 329.807 392.08 331.794 391.181 333.488L389.332 332.278C390.144 330.947 391.267 328.77 392.131 326.731ZM394.395 333.695L392.892 332.555C393.773 331.829 394.395 330.636 394.672 329.461L396.313 330.049C395.968 331.362 395.415 332.779 394.395 333.695ZM396.728 329.928L398.369 329.651C398.68 330.775 398.888 332.209 398.888 333.159L397.108 333.453C397.16 332.52 396.987 331.051 396.728 329.928ZM398.992 329.98L400.581 329.531C401.169 330.602 401.67 332.019 401.86 332.969L400.167 333.47C400.028 332.537 399.527 331.068 398.992 329.98ZM401.48 330.118L403.07 329.306C403.951 330.325 404.815 331.725 405.212 332.693L403.519 333.643C403.173 332.675 402.327 331.189 401.48 330.118Z" fill="black"/>
<path d="M579.569 410.825H582.538V416.412H589.065V410.825H592.034V424.839H589.065V418.809H582.538V424.839H579.569V410.825Z" fill="black"/>
<path d="M562.085 410.825H566.768C567.85 410.825 568.778 411.01 569.553 411.378C570.339 411.747 570.942 412.276 571.36 412.964C571.79 413.64 572.005 414.451 572.005 415.398C572.005 416.246 571.79 416.996 571.36 417.648C570.942 418.287 570.407 418.803 569.755 419.196L573.388 424.839H570.087L567.211 419.934C567.149 419.934 567.082 419.934 567.008 419.934H564.906V424.839H562.085V410.825ZM566.307 417.721C568.176 417.721 569.11 416.941 569.11 415.38C569.11 413.831 568.2 413.056 566.381 413.056H564.906V417.721H566.307Z" fill="black"/>
<path d="M549.678 410.825H559.008V413.13H552.444V416.56H558.271V418.864H552.444V422.534H559.285V424.839H549.678V410.825Z" fill="black"/>
<path d="M546.78 423.99C545.968 424.335 545.102 424.599 544.18 424.783C543.27 424.955 542.342 425.041 541.396 425.041C539.847 425.041 538.495 424.753 537.339 424.175C536.196 423.585 535.305 422.761 534.665 421.704C534.039 420.647 533.725 419.405 533.725 417.979C533.725 416.517 534.057 415.232 534.721 414.126C535.397 413.019 536.331 412.159 537.523 411.544C538.716 410.93 540.105 410.622 541.691 410.622C542.527 410.622 543.369 410.721 544.217 410.917C545.065 411.102 545.827 411.372 546.503 411.729L546.024 414.126C545.335 413.806 544.61 413.566 543.848 413.407C543.098 413.234 542.348 413.148 541.598 413.148C540.615 413.148 539.755 413.345 539.017 413.738C538.292 414.132 537.726 414.685 537.321 415.398C536.915 416.099 536.712 416.922 536.712 417.869C536.712 419.319 537.142 420.462 538.003 421.298C538.863 422.134 540.056 422.552 541.58 422.552C542.416 422.552 543.239 422.442 544.051 422.22V419.252H541.34V417.039H546.78V423.99Z" fill="black"/>
<path d="M524.643 410.825H527.759L533.327 424.839H530.193L528.921 421.225H523.315L522.043 424.839H519.093L524.643 410.825ZM528.109 418.938L526.118 413.314L524.127 418.938H528.109Z" fill="black"/>
<path d="M504.608 410.825H507.208L514.344 420.506V410.825H517.036V424.839H514.436L507.318 415.195V424.839H504.608V410.825Z" fill="black"/>
<path d="M493.852 410.825H496.968L502.536 424.839H499.402L498.13 421.225H492.524L491.252 424.839H488.302L493.852 410.825ZM497.318 418.938L495.327 413.314L493.336 418.938H497.318Z" fill="black"/>
<path d="M471.278 410.825H474.468L478.801 419.233L483.134 410.825H486.232V424.839H483.466V414.955L479.926 421.778H477.565L474.044 414.937V424.839H471.278V410.825Z" fill="black"/>
<path d="M540.027 388.825H549.357V391.13H542.793V394.56H548.619V396.864H542.793V400.534H549.633V402.839H540.027V388.825Z" fill="black"/>
<path d="M524.325 388.825H526.925L534.061 398.506V388.825H536.753V402.839H534.153L527.036 393.195V402.839H524.325V388.825Z" fill="black"/>
<path d="M518.077 388.825H521.045V402.839H518.077V388.825Z" fill="black"/>
<path d="M504.608 388.825H509.291C510.373 388.825 511.301 389.01 512.076 389.378C512.862 389.747 513.465 390.276 513.883 390.964C514.313 391.64 514.528 392.451 514.528 393.398C514.528 394.246 514.313 394.996 513.883 395.648C513.465 396.287 512.93 396.803 512.278 397.196L515.911 402.839H512.61L509.734 397.934C509.672 397.934 509.605 397.934 509.531 397.934H507.429V402.839H504.608V388.825ZM508.83 395.721C510.699 395.721 511.633 394.941 511.633 393.38C511.633 391.831 510.723 391.056 508.904 391.056H507.429V395.721H508.83Z" fill="black"/>
<path d="M493.852 388.825H496.968L502.536 402.839H499.402L498.13 399.225H492.524L491.252 402.839H488.302L493.852 388.825ZM497.318 396.938L495.327 391.314L493.336 396.938H497.318Z" fill="black"/>
<path d="M471.278 388.825H474.468L478.801 397.233L483.134 388.825H486.232V402.839H483.466V392.955L479.926 399.778H477.565L474.044 392.937V402.839H471.278V388.825Z" fill="black"/>
<g clip-path="url(#clip1_3756_11875)">
<path d="M373.45 431.758C382.576 431.758 389.974 424.373 389.974 415.262C389.974 406.152 382.576 398.767 373.45 398.767C364.324 398.767 356.926 406.152 356.926 415.262C356.926 424.373 364.324 431.758 373.45 431.758Z" fill="#A7B1F2"/>
<path d="M394.374 429.354C409.177 429.354 421.177 417.374 421.177 402.596C421.177 387.818 409.177 375.838 394.374 375.838C379.57 375.838 367.57 387.818 367.57 402.596C367.57 417.374 379.57 429.354 394.374 429.354Z" fill="#0016E5"/>
<path d="M373.45 448.114C376.933 448.114 379.757 445.295 379.757 441.818C379.757 438.341 376.933 435.522 373.45 435.522C369.967 435.522 367.143 438.341 367.143 441.818C367.143 445.295 369.967 448.114 373.45 448.114Z" fill="#A7B1F2"/>
<path d="M384.454 384.727C390.132 384.727 394.734 380.132 394.734 374.465C394.734 368.797 390.132 364.202 384.454 364.202C378.777 364.202 374.174 368.797 374.174 374.465C374.174 380.132 378.777 384.727 384.454 384.727Z" fill="#A7B1F2"/>
<path d="M421.737 416.569C430.863 416.569 438.261 409.184 438.261 400.073C438.261 390.963 430.863 383.578 421.737 383.578C412.611 383.578 405.213 390.963 405.213 400.073C405.213 409.184 412.611 416.569 421.737 416.569Z" fill="#5770EA"/>
<path d="M438.972 387.192C441.146 387.192 442.908 385.434 442.908 383.264C442.908 381.094 441.146 379.335 438.972 379.335C436.799 379.335 435.037 381.094 435.037 383.264C435.037 385.434 436.799 387.192 438.972 387.192Z" fill="#5770EA"/>
<path d="M365.602 444.748C367.775 444.748 369.537 442.989 369.537 440.819C369.537 438.649 367.775 436.89 365.602 436.89C363.428 436.89 361.667 438.649 361.667 440.819C361.667 442.989 363.428 444.748 365.602 444.748Z" fill="#5770EA"/>
</g>
<path d="M322 140.9V161.6" stroke="#001450" stroke-width="1.8"/>
<path d="M1.6001 213.8V213.8C1.6001 185.468 24.5679 162.5 52.9001 162.5H591.1C619.432 162.5 642.4 185.468 642.4 213.8V213.8" stroke="#001450" stroke-width="1.8"/>
<defs>
<linearGradient id="paint0_linear_3756_11875" x1="175.264" y1="207.5" x2="175.264" y2="551.628" gradientUnits="userSpaceOnUse">
<stop stop-color="#FFF1CC"/>
<stop offset="1" stop-color="#FFF1CC" stop-opacity="0"/>
</linearGradient>
<linearGradient id="paint1_linear_3756_11875" x1="468.716" y1="207.5" x2="468.716" y2="551.628" gradientUnits="userSpaceOnUse">
<stop stop-color="#CCDCFF" stop-opacity="0"/>
<stop offset="1" stop-color="#CCDCFF"/>
</linearGradient>
<clipPath id="clip0_3756_11875">
<rect width="403.2" height="63.3298" fill="white" transform="translate(120.22 62.0078)"/>
</clipPath>
<clipPath id="clip1_3756_11875">
<rect width="86.4315" height="84.1266" fill="white" transform="translate(356.7 364.095)"/>
</clipPath>
</defs>
</svg>
