<svg width="644" height="551" viewBox="0 0 644 551" fill="none" xmlns="http://www.w3.org/2000/svg">
<rect x="172.561" y="0.152832" width="298.518" height="45.095" rx="22.5475" fill="white"/>
<path d="M433.932 21.5685L435.868 21.9486C435.419 24.2469 434.624 26.5624 433.639 27.9966C433.259 27.6856 432.429 27.1499 431.945 26.9253C432.913 25.6465 433.587 23.5902 433.932 21.5685ZM441.916 19.4257H438.46V28.4805C438.46 29.4827 438.304 30.0702 437.682 30.3985C437.095 30.7269 436.265 30.796 435.142 30.796C435.056 30.2257 434.762 29.3099 434.451 28.7397C435.177 28.7742 435.902 28.7742 436.144 28.7569C436.369 28.7569 436.455 28.7051 436.455 28.4805V19.4257H434.762C434.313 20.3761 433.811 21.2229 433.276 21.8968C433.103 21.7413 432.809 21.5512 432.498 21.3438V21.4475H430.649V21.9486C431.116 22.3288 432.533 23.8321 432.861 24.2123L431.686 25.8193C431.479 25.3701 431.064 24.6961 430.649 24.0741V30.8133H428.662V24.6097C428.109 25.9403 427.452 27.1672 426.779 28.0312C426.588 27.4437 426.156 26.5969 425.828 26.0785C426.796 24.9553 427.746 23.1237 428.386 21.4475H426.191V19.5294H428.662V17.5249C427.936 17.6632 427.228 17.7841 426.554 17.8705C426.45 17.404 426.208 16.7128 425.984 16.2981C427.884 15.9697 430.01 15.4686 431.34 14.8638L432.706 16.4363C432.083 16.6782 431.392 16.9029 430.649 17.0929V19.5294H432.446C433.259 18.1816 433.863 16.4536 434.243 14.7256L436.248 15.1403C436.058 15.9525 435.816 16.7473 435.539 17.5077H441.916V19.4257ZM438.892 21.9832L440.672 21.4648C441.397 23.3137 442.037 25.6811 442.279 27.2709L440.361 27.8757C440.188 26.2859 439.566 23.8321 438.892 21.9832Z" fill="black"/>
<path d="M420.419 15.6413L422.096 14.9328C422.769 16.0906 424.031 17.4039 425.068 18.1642C424.601 18.5098 423.979 19.201 423.651 19.6676C422.562 18.6999 421.214 17.0237 420.419 15.6413ZM424.446 23.0372L422.769 23.9184C422.648 23.5728 422.441 23.1408 422.199 22.6916C419.953 22.8816 417.637 23.0544 415.909 23.1754L415.564 21.3264C416.099 21.3092 416.721 21.2919 417.395 21.2573C417.827 20.1687 418.259 18.769 418.501 17.7149L420.558 18.1988C420.143 19.1837 419.694 20.2551 419.262 21.1882L421.249 21.1018C421.007 20.7216 420.748 20.3588 420.506 20.0304L422.061 19.2701C422.977 20.4106 424.014 21.9658 424.446 23.0372ZM417.689 24.0394L418.985 22.9508C420.108 23.4519 421.301 24.3504 421.923 25.0589L420.575 26.3204C419.987 25.5255 418.778 24.5924 417.689 24.0394ZM417.309 14.9501L419.244 15.434C418.605 17.162 417.499 18.8208 416.341 19.8749C415.978 19.5293 415.201 18.9245 414.752 18.6308C415.875 17.7668 416.808 16.3844 417.309 14.9501ZM409.308 24.7652L410.967 25.0416C410.794 26.6832 410.432 28.394 409.93 29.4999C409.585 29.2752 408.842 28.9296 408.444 28.7741C408.928 27.7719 409.17 26.2167 409.308 24.7652ZM413.87 23.5037L413.006 23.6074V30.8132H411.226V23.7975L408.894 24.0394L408.617 22.2596L409.844 22.1904C410.103 21.8621 410.362 21.4992 410.622 21.1191C410.155 20.3415 409.343 19.4084 408.652 18.6826L409.654 17.3175C409.792 17.4384 409.913 17.5594 410.051 17.6804C410.535 16.73 411.019 15.5895 411.313 14.6909L413.075 15.3476C412.471 16.5226 411.745 17.8532 411.14 18.8381C411.33 19.0628 411.52 19.3047 411.676 19.5293C412.28 18.5616 412.833 17.594 413.231 16.7472L414.89 17.5248C413.939 18.9764 412.782 20.6871 411.693 22.0522L413.214 21.9485C413.024 21.5511 412.833 21.1882 412.643 20.8426L414.095 20.2378C414.786 21.4128 415.495 22.9162 415.719 23.9012L414.181 24.6096C414.112 24.2813 414.008 23.9184 413.87 23.5037ZM413.058 25.1972L414.527 24.7479C414.873 25.5946 415.218 26.6487 415.443 27.4781C415.616 26.9079 415.736 26.3031 415.823 25.7501L417.464 26.0266C417.292 27.4263 416.86 29.0679 416.203 30.122L414.596 29.4135C414.855 29.0506 415.08 28.5668 415.27 28.0138L413.991 28.4458C413.853 27.5818 413.438 26.234 413.058 25.1972ZM421.491 26.1821L423.046 25.4045C423.962 26.6314 424.808 28.2212 425.068 29.3616L423.357 30.2084C423.253 29.6727 423.011 28.9815 422.683 28.2903C422.493 30.2948 421.992 30.8132 420.851 30.8132H419.486C417.914 30.8132 417.603 30.2602 417.603 28.584V25.37H419.469V28.5668C419.469 29.0333 419.521 29.0852 419.815 29.0852H420.609C420.92 29.0852 420.99 28.8951 421.024 27.4263C421.352 27.72 422.096 27.9965 422.614 28.1348C422.286 27.4608 421.905 26.7696 421.491 26.1821Z" fill="black"/>
<path d="M406.889 23.2446C406.889 26.8907 404.66 29.4654 400.306 30.1393L399.01 28.083C399.666 28.0139 400.15 27.9102 400.617 27.8065C402.828 27.2881 404.556 25.6983 404.556 23.1755C404.556 20.7908 403.26 19.011 400.928 18.6135C400.686 20.0823 400.392 21.6721 399.891 23.2964C398.854 26.787 397.368 28.9297 395.484 28.9297C393.566 28.9297 391.977 26.8215 391.977 23.9012C391.977 19.9095 395.433 16.5054 399.908 16.5054C404.194 16.5054 406.889 19.4775 406.889 23.2446ZM394.188 23.6766C394.188 25.4219 394.88 26.2686 395.554 26.2686C396.279 26.2686 396.953 25.1799 397.662 22.8471C398.059 21.5684 398.387 20.0996 398.578 18.6654C395.726 19.2529 394.188 21.7758 394.188 23.6766Z" fill="black"/>
<path d="M388.002 17.6112C387.864 17.8013 387.553 18.337 387.397 18.6826C386.81 20.0304 385.842 21.8794 384.684 23.4346C386.395 24.9206 388.486 27.1325 389.505 28.3766L387.535 30.0874C386.412 28.5322 384.805 26.7696 383.181 25.1971C381.349 27.1325 379.051 28.9296 376.684 30.0528L374.904 28.1866C377.686 27.1498 380.364 25.0416 381.989 23.2272C383.129 21.9312 384.183 20.2205 384.563 18.9936H378.705C377.98 18.9936 377.029 19.0973 376.666 19.1146V16.6608C377.133 16.7299 378.187 16.7818 378.705 16.7818H384.805C385.548 16.7818 386.239 16.6781 386.585 16.5571L388.002 17.6112Z" fill="black"/>
<path d="M369.063 15.3303C369.495 15.9697 370.117 17.0583 370.446 17.6977L369.046 18.2852C368.7 17.5767 368.165 16.5572 367.698 15.8833L369.063 15.3303ZM371.102 14.5527C371.569 15.1921 372.208 16.298 372.502 16.9028L371.137 17.4903C370.774 16.7646 370.221 15.7623 369.737 15.1057L371.102 14.5527ZM361.616 16.0734C361.529 16.5918 361.477 17.3867 361.477 17.8705V21.1364C363.516 20.6353 365.918 19.875 367.456 19.2183C368.078 18.9764 368.666 18.6999 369.34 18.2852L370.273 20.4798C369.599 20.7563 368.821 21.0846 368.251 21.2919C366.506 21.9831 363.724 22.8471 361.477 23.4001V26.5969C361.477 27.3399 361.823 27.53 362.601 27.6855C363.119 27.7547 363.827 27.7892 364.605 27.7892C366.402 27.7892 369.201 27.5646 370.618 27.1844V29.7073C368.994 29.9492 366.368 30.0702 364.467 30.0702C363.344 30.0702 362.307 30.0011 361.564 29.8801C360.06 29.6036 359.196 28.7742 359.196 27.2881V17.8705C359.196 17.4903 359.145 16.5918 359.058 16.0734H361.616Z" fill="black"/>
<path d="M340.621 21.3264C341.243 21.3783 342.504 21.4301 343.403 21.4301H352.682C353.494 21.4301 354.255 21.361 354.704 21.3264V24.0394C354.289 24.0221 353.408 23.953 352.682 23.953H343.403C342.418 23.953 341.26 23.9875 340.621 24.0394V21.3264Z" fill="black"/>
<path d="M334.676 21.6894C334.676 25.9748 333.639 28.5841 329.475 30.4158L327.626 28.6705C330.961 27.5127 332.43 26.0267 332.43 21.7758V21.1191H328.334V23.4692C328.334 24.2295 328.386 24.938 328.403 25.2836H325.984C326.036 24.938 326.088 24.2468 326.088 23.4692V21.1191H324.619C323.755 21.1191 323.133 21.1537 322.753 21.1883V18.8382C323.047 18.89 323.755 18.9937 324.619 18.9937H326.088V17.283C326.088 16.7819 326.036 16.2462 325.984 15.7278H328.438C328.386 16.0561 328.334 16.6091 328.334 17.283V18.9937H332.43V17.1793C332.43 16.4881 332.378 15.9179 332.326 15.5723H334.797C334.745 15.9179 334.676 16.4881 334.676 17.1793V18.9937H335.955C336.871 18.9937 337.389 18.9591 337.856 18.8727V21.171C337.475 21.1364 336.871 21.1191 335.955 21.1191H334.676V21.6894Z" fill="black"/>
<path d="M317.914 15.5896C317.862 15.9698 317.845 16.3845 317.828 16.7646C317.828 17.1275 317.828 18.0261 317.828 18.9765C318.796 18.9074 319.711 18.8037 320.42 18.6654L320.403 20.9118C319.711 20.9982 318.813 21.0674 317.845 21.1192C317.845 21.413 317.845 21.6722 317.845 21.845C317.845 25.923 317.534 28.4286 314.078 30.6232L312.091 29.0507C312.748 28.757 313.612 28.204 314.095 27.6683C315.426 26.2859 315.702 24.748 315.702 21.8277C315.702 21.6549 315.702 21.4475 315.702 21.2056C315.046 21.2229 314.406 21.2402 313.767 21.2402C313.024 21.2402 311.953 21.1883 311.106 21.1538V18.9592C311.953 19.0802 312.799 19.1493 313.715 19.1493C314.337 19.1493 315.011 19.132 315.668 19.1147C315.651 18.147 315.633 17.2485 315.599 16.7819C315.564 16.3499 315.478 15.8661 315.409 15.5896H317.914ZM309.326 15.8834C309.171 16.2981 308.998 16.9202 308.911 17.283C308.479 19.2011 307.875 22.8299 308.341 24.9726C308.566 24.437 308.877 23.6075 309.171 22.9682L310.242 23.6594C309.741 25.1454 309.274 26.8907 309.067 27.8757C308.998 28.1349 308.963 28.515 308.963 28.7224C308.963 28.8952 308.98 29.189 308.998 29.4309L307.08 29.621C306.7 28.5842 306.095 26.165 306.095 24.0222C306.095 21.1883 306.44 18.5272 306.648 17.1275C306.734 16.6437 306.751 16.0562 306.769 15.6242L309.326 15.8834Z" fill="black"/>
<path d="M297.317 23.0544H294.31V25.3527H297.317V23.0544ZM299.2 27.1498H294.31V28.3594H292.461V21.2573H299.2V27.1498ZM303.002 17.5767V28.4285C303.002 29.5517 302.76 30.1392 302.034 30.4676C301.309 30.7959 300.203 30.8304 298.647 30.8304C298.578 30.2429 298.267 29.3098 297.974 28.7568C298.993 28.826 300.151 28.8087 300.496 28.7914C300.825 28.7914 300.928 28.705 300.928 28.394V19.5812H290.768V30.8132H288.711V17.5767H293.481C293.844 16.6436 294.189 15.5549 294.397 14.6909L297.006 15.0538C296.643 15.9178 296.211 16.8164 295.796 17.5767H303.002Z" fill="black"/>
<path d="M278.395 18.337V19.9095H279.345C280.002 19.4084 280.624 18.89 281.212 18.337H278.395ZM282.162 25.8884V24.7824H276.218V25.8884H282.162ZM276.218 28.6186H282.162V27.4436H276.218V28.6186ZM286.292 21.7239H280.071C279.397 22.2077 278.741 22.657 278.032 23.1063H284.322V30.7786H282.162V30.3293H276.218V30.8477H274.161V25.1972C273.297 25.5773 272.399 25.9575 271.518 26.2858C271.276 25.8365 270.654 25.0071 270.273 24.5924C272.537 23.8839 274.697 22.8989 276.684 21.7239H270.809V19.9095H276.356V18.337H272.295V16.5572H276.356V14.6909H278.395V16.5572H282.145V17.4039C282.801 16.6954 283.389 15.9696 283.925 15.2093L285.687 16.1079C284.702 17.473 283.544 18.7517 282.283 19.9095H286.292V21.7239Z" fill="black"/>
<path d="M256.588 14.7429L258.488 15.3304C258.108 16.3672 257.642 17.4386 257.123 18.4754V30.8306H255.136V21.7932C254.721 22.3807 254.289 22.9164 253.857 23.3829C253.685 22.8991 253.132 21.7413 252.803 21.2575C254.307 19.6677 255.741 17.214 256.588 14.7429ZM259.784 25.9749L261.685 26.5624C261.029 27.8239 260.113 29.2408 259.214 30.174C258.817 29.8456 258.125 29.3964 257.676 29.1544C258.506 28.3077 259.352 26.9772 259.784 25.9749ZM267.422 24.869L264.45 25.0245V30.8306H262.411V25.1109L258.091 25.3183L257.797 23.3829L261.029 23.2965C261.201 23.1237 261.374 22.9682 261.547 22.7781C260.717 22.0005 259.404 21.0501 258.35 20.3589L259.542 19.0284C259.836 19.2012 260.147 19.3912 260.458 19.5986C260.838 19.0802 261.236 18.4754 261.599 17.8879C260.683 17.9743 259.767 18.0607 258.903 18.1298C258.834 17.646 258.592 16.9029 258.367 16.4536C261.478 16.1944 265.003 15.676 267.197 15.0367L268.545 16.6783C267.232 17.0412 265.694 17.3176 264.104 17.5596L264.173 17.5941C263.396 18.5791 262.532 19.685 261.806 20.5144C262.221 20.8082 262.584 21.102 262.895 21.3612C263.845 20.2898 264.761 19.1493 265.435 18.1644L267.318 19.0284C266.178 20.4453 264.813 21.9487 263.517 23.2274C264.485 23.1928 265.487 23.1583 266.489 23.1237C266.23 22.6744 265.936 22.2424 265.66 21.845L267.37 21.1711C268.303 22.3807 269.288 24.0396 269.703 25.1628L267.854 25.9576C267.75 25.6466 267.612 25.2664 267.422 24.869ZM265.297 26.6834L266.973 25.8885C267.802 26.8735 268.805 28.2386 269.202 29.1544L267.405 30.0703C267.059 29.1372 266.126 27.7202 265.297 26.6834Z" fill="black"/>
<path d="M241.468 16.7646H238.755V17.6113H241.468V16.7646ZM238.755 19.7886H241.468V18.8901H238.755V19.7886ZM243.403 21.1883H238.755V30.8305H236.75V15.3477H243.403V21.1883ZM246.496 19.8232H249.296V18.8901H246.496V19.8232ZM249.296 16.7646H246.496V17.6113H249.296V16.7646ZM251.318 15.3477V28.6533C251.318 29.6037 251.162 30.1221 250.609 30.4504C250.056 30.7787 249.296 30.8305 248.224 30.8305C248.19 30.3985 248 29.7419 247.81 29.2235C247.602 29.5173 247.395 29.811 247.274 30.0529C245.84 29.6382 244.768 28.9125 244.008 27.8757C243.403 28.6878 242.349 29.4481 240.552 30.0357C240.31 29.6555 239.774 29.0334 239.36 28.7051C241.295 28.1867 242.211 27.4437 242.626 26.6833H239.671V25.18H242.937V24.2814H239.913V22.8472H241.261C241.105 22.467 240.915 22.0696 240.69 21.724L242.263 21.292C242.608 21.7413 242.937 22.3633 243.092 22.8472H244.889C245.097 22.3288 245.339 21.7067 245.477 21.2747L247.36 21.7585C247.101 22.1387 246.842 22.5189 246.617 22.8472H248.121V24.2814H244.768V25.18H248.294V26.6833H245.079C245.771 27.6165 246.911 28.2904 248.38 28.5669C248.276 28.6705 248.155 28.7915 248.052 28.9297C248.466 28.947 248.864 28.947 249.019 28.9297C249.227 28.9297 249.296 28.8433 249.296 28.636V21.2401H244.544V15.3477H251.318Z" fill="black"/>
<path d="M228.836 19.1837H224.706C224.948 19.633 225.173 20.1514 225.294 20.5143L225 20.5661H228.231C228.439 20.1514 228.646 19.6503 228.836 19.1837ZM234.418 26.8906H229.406C230.875 27.7892 232.88 28.4631 234.884 28.7741C234.418 29.2234 233.813 30.0874 233.502 30.6404C231.376 30.1047 229.285 29.0679 227.696 27.72V30.8304H225.674V27.8237C224.067 29.0852 221.941 30.0874 219.885 30.6231C219.591 30.122 219.004 29.3271 218.572 28.9124C220.507 28.5149 222.546 27.7892 224.032 26.8906H219.073V25.1972H225.674V24.4368H220.697V22.9508H225.674V22.1732H219.833V20.5661H223.116C222.978 20.1341 222.754 19.6157 222.529 19.2183L222.736 19.1837H219.125V17.5076H221.44C221.198 16.8509 220.749 16.0215 220.369 15.3648L222.131 14.76C222.633 15.5031 223.203 16.5226 223.445 17.1965L222.598 17.5076H224.17V14.6909H226.089V17.5076H227.367V14.6909H229.303V17.5076H230.841L230.218 17.3175C230.633 16.609 231.065 15.5722 231.307 14.8119L233.467 15.3303C232.983 16.1252 232.517 16.9028 232.119 17.5076H234.366V19.1837H231.117C230.841 19.6848 230.564 20.1514 230.305 20.5661H233.692V22.1732H227.696V22.9508H232.88V24.4368H227.696V25.1972H234.418V26.8906Z" fill="black"/>
<path d="M211.85 18.0779H209.69C209.448 18.4408 209.189 18.8037 208.929 19.1493H211.28C211.47 18.8209 211.677 18.4581 211.85 18.0779ZM214.649 21.9141V20.7563H212.627V21.9141H214.649ZM214.649 24.6097V23.4174H212.627V24.6097H214.649ZM208.86 23.4174V24.6097H210.778V23.4174H208.86ZM210.778 21.9141V20.7563H208.86V21.9141H210.778ZM207.029 26.2168V21.3093C206.89 21.4475 206.752 21.5685 206.614 21.6894C206.303 21.292 205.543 20.4453 205.111 20.0651C206.752 18.8209 208.29 16.7819 209.171 14.7256L211.193 15.3649C211.038 15.6933 210.882 16.0216 210.709 16.3499H212.904L213.319 16.2289L214.632 17.1793C214.286 17.8014 213.889 18.4926 213.457 19.1493H216.567V26.2168H207.029ZM206.372 16.4363L205.162 18.1297C204.575 17.5422 203.262 16.7646 202.242 16.3153L203.383 14.7601C204.385 15.1749 205.715 15.8661 206.372 16.4363ZM205.456 20.9291L204.264 22.6398C203.659 22.0696 202.38 21.3438 201.361 20.9118L202.467 19.3566C203.469 19.7195 204.8 20.3761 205.456 20.9291ZM204.558 23.884L206.182 25.0936C205.404 26.9598 204.506 28.947 203.607 30.6405L201.758 29.4309C202.57 28.1003 203.694 25.923 204.558 23.884ZM206.821 30.8478L205.318 29.7073C206.199 28.9816 206.821 27.7893 207.098 26.6142L208.739 27.2017C208.394 28.515 207.841 29.932 206.821 30.8478ZM209.154 27.0808L210.796 26.8043C211.107 27.9275 211.314 29.3617 211.314 30.3121L209.534 30.6059C209.586 29.6728 209.413 28.204 209.154 27.0808ZM211.418 27.1326L213.008 26.6833C213.595 27.7547 214.096 29.1717 214.286 30.1221L212.593 30.6232C212.455 29.6901 211.953 28.2213 211.418 27.1326ZM213.906 27.2709L215.496 26.4587C216.377 27.4782 217.241 28.8779 217.639 29.8456L215.945 30.796C215.6 29.8283 214.753 28.3422 213.906 27.2709Z" fill="black"/>
<g clip-path="url(#clip0_3756_11875)">
<path d="M164.053 76.314H160.581V79.7855H164.053V76.314Z" fill="#F5AC3C"/>
<path d="M168.519 113.175H166.815V114.879H168.519V113.175Z" fill="#F5AC3C"/>
<path d="M174.21 97.4148H171.408V100.216H174.21V97.4148Z" fill="#F5AC3C"/>
<path d="M141.621 66.7004H139.31V69.0116H141.621V66.7004Z" fill="#F5AC3C"/>
<path d="M136.538 102.775H134.105V105.208H136.538V102.775Z" fill="#F5AC3C"/>
<path d="M147.704 91.7485H143.932V95.5211H147.704V91.7485Z" fill="#F5AC3C"/>
<path d="M162.945 57.3975H161.688V58.655H162.945V57.3975Z" fill="#3171B7"/>
<path d="M157.478 57.3586H156.138V58.6938H157.478V57.3586Z" fill="#3171B7"/>
<path d="M173.501 62.146H172.122V63.5249H173.501V62.146Z" fill="#3171B7"/>
<path d="M168.519 61.9812H166.815V63.6854H168.519V61.9812Z" fill="#3171B7"/>
<path d="M163.29 61.8645H161.338V63.8115H163.29V61.8645Z" fill="#3171B7"/>
<path d="M157.828 61.811H155.784V63.86H157.828V61.811Z" fill="#3171B7"/>
<path d="M178.584 67.1084H177.079V68.6087H178.584V67.1084Z" fill="#3171B7"/>
<path d="M173.782 66.8848H171.835V68.8317H173.782V66.8848Z" fill="#3171B7"/>
<path d="M168.825 66.7004H166.514V69.0116H168.825V66.7004Z" fill="#3171B7"/>
<path d="M163.582 66.5886H161.042V69.1231H163.582V66.5886Z" fill="#3171B7"/>
<path d="M158.139 66.5303H155.483V69.1861H158.139V66.5303Z" fill="#3171B7"/>
<path d="M183.411 72.1868H182.032V73.5657H183.411V72.1868Z" fill="#3171B7"/>
<path d="M178.802 71.9053H176.855V73.8522H178.802V71.9053Z" fill="#3171B7"/>
<path d="M174.025 71.6624H171.593V74.0949H174.025V71.6624Z" fill="#3171B7"/>
<path d="M169.068 71.478H166.266V74.2795H169.068V71.478Z" fill="#3171B7"/>
<path d="M163.844 71.342H160.785V74.4106H163.844V71.342Z" fill="#3171B7"/>
<path d="M158.401 71.2837H155.216V74.4736H158.401V71.2837Z" fill="#3171B7"/>
<path d="M183.575 77.2024H181.871V78.9066H183.575V77.2024Z" fill="#3171B7"/>
<path d="M178.987 76.8965H176.676V79.2076H178.987V76.8965Z" fill="#3171B7"/>
<path d="M174.21 76.6487H171.408V79.4502H174.21V76.6487Z" fill="#3171B7"/>
<path d="M169.276 76.4497H166.067V79.659H169.276V76.4497Z" fill="#3171B7"/>
<path d="M158.614 76.2458H155.001V79.8582H158.614V76.2458Z" fill="#3171B7"/>
<path d="M187.62 82.6013H186.362V83.8588H187.62V82.6013Z" fill="#3171B7"/>
<path d="M183.697 82.2517H181.745V84.2035H183.697V82.2517Z" fill="#3171B7"/>
<path d="M179.099 81.9604H176.56V84.4949H179.099V81.9604Z" fill="#3171B7"/>
<path d="M174.341 81.6936H171.277V84.7621H174.341V81.6936Z" fill="#3171B7"/>
<path d="M169.403 81.4941H165.931V84.9608H169.403V81.4941Z" fill="#3171B7"/>
<path d="M164.203 81.3438H160.431V85.1163H164.203V81.3438Z" fill="#3171B7"/>
<path d="M158.755 81.2808H154.861V85.1796H158.755V81.2808Z" fill="#3171B7"/>
<path d="M187.659 87.7383H186.324V89.0735H187.659V87.7383Z" fill="#3171B7"/>
<path d="M183.745 87.3789H181.696V89.4278H183.745V87.3789Z" fill="#3171B7"/>
<path d="M179.157 87.073H176.501V89.7337H179.157V87.073Z" fill="#3171B7"/>
<path d="M174.404 86.8108H171.219V90.0007H174.404V86.8108Z" fill="#3171B7"/>
<path d="M169.476 86.5972H165.863V90.2095H169.476V86.5972Z" fill="#3171B7"/>
<path d="M164.261 86.4563H160.367V90.3502H164.261V86.4563Z" fill="#3171B7"/>
<path d="M162.945 118.21H161.688V119.467H162.945V118.21Z" fill="#3171B7"/>
<path d="M157.478 118.171H156.138V119.507H157.478V118.171Z" fill="#3171B7"/>
<path d="M173.506 113.34H172.122V114.719H173.506V113.34Z" fill="#3171B7"/>
<path d="M163.29 113.059H161.338V115.006H163.29V113.059Z" fill="#3171B7"/>
<path d="M157.828 113.005H155.784V115.054H157.828V113.005Z" fill="#3171B7"/>
<path d="M178.584 108.261H177.079V109.762H178.584V108.261Z" fill="#3171B7"/>
<path d="M173.782 108.033H171.835V109.98H173.782V108.033Z" fill="#3171B7"/>
<path d="M168.825 107.854H166.514V110.165H168.825V107.854Z" fill="#3171B7"/>
<path d="M163.582 107.742H161.042V110.277H163.582V107.742Z" fill="#3171B7"/>
<path d="M158.139 107.679H155.483V110.335H158.139V107.679Z" fill="#3171B7"/>
<path d="M183.411 103.299H182.032V104.678H183.411V103.299Z" fill="#3171B7"/>
<path d="M178.802 103.018H176.855V104.965H178.802V103.018Z" fill="#3171B7"/>
<path d="M174.025 102.775H171.593V105.208H174.025V102.775Z" fill="#3171B7"/>
<path d="M169.072 102.591H166.271V105.392H169.072V102.591Z" fill="#3171B7"/>
<path d="M163.844 102.455H160.785V105.523H163.844V102.455Z" fill="#3171B7"/>
<path d="M158.401 102.396H155.216V105.586H158.401V102.396Z" fill="#3171B7"/>
<path d="M183.575 97.9634H181.871V99.6676H183.575V97.9634Z" fill="#3171B7"/>
<path d="M178.987 97.6577H176.676V99.9688H178.987V97.6577Z" fill="#3171B7"/>
<path d="M169.276 97.2109H166.067V100.42H169.276V97.2109Z" fill="#3171B7"/>
<path d="M164.053 97.0752H160.581V100.547H164.053V97.0752Z" fill="#3171B7"/>
<path d="M158.614 97.0071H155.001V100.619H158.614V97.0071Z" fill="#3171B7"/>
<path d="M187.62 93.0061H186.362V94.2636H187.62V93.0061Z" fill="#3171B7"/>
<path d="M183.697 92.6616H181.745V94.6134H183.697V92.6616Z" fill="#3171B7"/>
<path d="M179.099 92.3704H176.56V94.9048H179.099V92.3704Z" fill="#3171B7"/>
<path d="M174.341 92.1033H171.277V95.1718H174.341V92.1033Z" fill="#3171B7"/>
<path d="M169.408 91.9041H165.936V95.3707H169.408V91.9041Z" fill="#3171B7"/>
<path d="M164.203 91.7485H160.431V95.5211H164.203V91.7485Z" fill="#3171B7"/>
<path d="M158.755 91.6855H154.861V95.5843H158.755V91.6855Z" fill="#3171B7"/>
<path d="M158.813 86.4226H154.798V90.4379H158.813V86.4226Z" fill="#3171B7"/>
<path d="M146.447 57.3975H145.189V58.655H146.447V57.3975Z" fill="#3171B7"/>
<path d="M151.996 57.3586H150.656V58.6938H151.996V57.3586Z" fill="#3171B7"/>
<path d="M136.013 62.146H134.634V63.5249H136.013V62.146Z" fill="#3171B7"/>
<path d="M141.315 61.981H139.611V63.6852H141.315V61.981Z" fill="#3171B7"/>
<path d="M146.797 61.8645H144.845V63.8115H146.797V61.8645Z" fill="#3171B7"/>
<path d="M152.346 61.811H150.302V63.86H152.346V61.811Z" fill="#3171B7"/>
<path d="M131.055 67.1084H129.55V68.6087H131.055V67.1084Z" fill="#3171B7"/>
<path d="M136.295 66.8848H134.348V68.8317H136.295V66.8848Z" fill="#3171B7"/>
<path d="M147.088 66.5886H144.548V69.1231H147.088V66.5886Z" fill="#3171B7"/>
<path d="M152.652 66.5303H149.996V69.1861H152.652V66.5303Z" fill="#3171B7"/>
<path d="M126.104 72.1868H124.725V73.5657H126.104V72.1868Z" fill="#3171B7"/>
<path d="M131.279 71.9053H129.332V73.8522H131.279V71.9053Z" fill="#3171B7"/>
<path d="M136.538 71.6624H134.105V74.0949H136.538V71.6624Z" fill="#3171B7"/>
<path d="M141.864 71.478H139.062V74.2795H141.864V71.478Z" fill="#3171B7"/>
<path d="M147.35 71.3418H144.292V74.4103H147.35V71.3418Z" fill="#3171B7"/>
<path d="M152.919 71.2837H149.734V74.4736H152.919V71.2837Z" fill="#3171B7"/>
<path d="M126.268 77.2024H124.564V78.9066H126.268V77.2024Z" fill="#3171B7"/>
<path d="M131.458 76.8962H129.147V79.2074H131.458V76.8962Z" fill="#3171B7"/>
<path d="M136.722 76.6487H133.92V79.4502H136.722V76.6487Z" fill="#3171B7"/>
<path d="M142.067 76.4497H138.858V79.659H142.067V76.4497Z" fill="#3171B7"/>
<path d="M147.554 76.314H144.082V79.7855H147.554V76.314Z" fill="#3171B7"/>
<path d="M153.133 76.2458H149.521V79.8582H153.133V76.2458Z" fill="#3171B7"/>
<path d="M121.772 82.6013H120.515V83.8588H121.772V82.6013Z" fill="#3171B7"/>
<path d="M126.39 82.2517H124.438V84.2035H126.39V82.2517Z" fill="#3171B7"/>
<path d="M131.575 81.9604H129.036V84.4949H131.575V81.9604Z" fill="#3171B7"/>
<path d="M136.852 81.6936H133.789V84.7621H136.852V81.6936Z" fill="#3171B7"/>
<path d="M142.199 81.4941H138.728V84.9608H142.199V81.4941Z" fill="#3171B7"/>
<path d="M147.704 81.3438H143.932V85.1163H147.704V81.3438Z" fill="#3171B7"/>
<path d="M153.274 81.2808H149.38V85.1796H153.274V81.2808Z" fill="#3171B7"/>
<path d="M121.811 87.7383H120.476V89.0735H121.811V87.7383Z" fill="#3171B7"/>
<path d="M126.439 87.3789H124.39V89.4278H126.439V87.3789Z" fill="#3171B7"/>
<path d="M131.628 87.0732H128.972V89.7339H131.628V87.0732Z" fill="#3171B7"/>
<path d="M136.917 86.8108H133.731V90.0007H136.917V86.8108Z" fill="#3171B7"/>
<path d="M142.272 86.5972H138.659V90.2095H142.272V86.5972Z" fill="#3171B7"/>
<path d="M147.767 86.4563H143.874V90.3502H147.767V86.4563Z" fill="#3171B7"/>
<path d="M146.447 118.21H145.189V119.467H146.447V118.21Z" fill="#3171B7"/>
<path d="M151.996 118.171H150.656V119.506H151.996V118.171Z" fill="#3171B7"/>
<path d="M136.018 113.34H134.634V114.719H136.018V113.34Z" fill="#3171B7"/>
<path d="M141.315 113.175H139.611V114.879H141.315V113.175Z" fill="#3171B7"/>
<path d="M146.797 113.059H144.845V115.006H146.797V113.059Z" fill="#3171B7"/>
<path d="M152.346 113.005H150.302V115.054H152.346V113.005Z" fill="#3171B7"/>
<path d="M131.055 108.261H129.55V109.762H131.055V108.261Z" fill="#3171B7"/>
<path d="M136.295 108.033H134.348V109.98H136.295V108.033Z" fill="#3171B7"/>
<path d="M141.621 107.854H139.31V110.165H141.621V107.854Z" fill="#3171B7"/>
<path d="M147.088 107.742H144.548V110.277H147.088V107.742Z" fill="#3171B7"/>
<path d="M152.652 107.679H149.996V110.335H152.652V107.679Z" fill="#3171B7"/>
<path d="M126.104 103.299H124.725V104.678H126.104V103.299Z" fill="#3171B7"/>
<path d="M131.279 103.018H129.332V104.965H131.279V103.018Z" fill="#3171B7"/>
<path d="M141.864 102.591H139.062V105.392H141.864V102.591Z" fill="#3171B7"/>
<path d="M147.35 102.455H144.292V105.523H147.35V102.455Z" fill="#3171B7"/>
<path d="M152.919 102.396H149.734V105.586H152.919V102.396Z" fill="#3171B7"/>
<path d="M126.268 97.9634H124.564V99.6676H126.268V97.9634Z" fill="#3171B7"/>
<path d="M131.458 97.6575H129.147V99.9686H131.458V97.6575Z" fill="#3171B7"/>
<path d="M136.722 97.4148H133.92V100.216H136.722V97.4148Z" fill="#3171B7"/>
<path d="M142.067 97.2109H138.858V100.42H142.067V97.2109Z" fill="#3171B7"/>
<path d="M147.554 97.0752H144.082V100.547H147.554V97.0752Z" fill="#3171B7"/>
<path d="M153.133 97.0071H149.521V100.619H153.133V97.0071Z" fill="#3171B7"/>
<path d="M121.772 93.0061H120.515V94.2636H121.772V93.0061Z" fill="#3171B7"/>
<path d="M126.39 92.6616H124.438V94.6134H126.39V92.6616Z" fill="#3171B7"/>
<path d="M131.575 92.3704H129.036V94.9048H131.575V92.3704Z" fill="#3171B7"/>
<path d="M136.852 92.1033H133.789V95.1718H136.852V92.1033Z" fill="#3171B7"/>
<path d="M142.199 91.9041H138.728V95.3707H142.199V91.9041Z" fill="#3171B7"/>
<path d="M153.274 91.6855H149.38V95.5843H153.274V91.6855Z" fill="#3171B7"/>
<path d="M149.316 90.4424H153.331V86.4271H149.316V90.4424Z" fill="#3171B7"/>
<path d="M274.068 96.1329H278.312L274.301 90.4474C276.481 89.6074 277.816 87.8546 277.816 85.8008C277.816 83.2955 275.986 80.6008 271.99 80.6008H261.43V96.1377H265.086V91.0009H270.427L274.068 96.1329ZM265.086 83.7762H271.252C273.039 83.7762 274.024 84.4948 274.024 85.8008C274.024 87.1069 273.053 87.8255 271.252 87.8255H265.086V83.7762Z" fill="black"/>
<path d="M289.776 80.6008H286.12V96.1329H289.776V80.6008Z" fill="black"/>
<path d="M326.947 83.7519H338.979V80.6057H323.262V96.1329H338.979V92.9576H326.947V89.957H336.896V86.7816H326.947V86.568V83.7519Z" fill="black"/>
<path d="M252.025 96.1329H256.152L245.641 80.0862L235.129 96.1329H239.28L240.994 93.4334H250.336L252.025 96.1329ZM248.384 90.3745H242.897L243.189 89.9181L245.641 86.0339L248.384 90.3745Z" fill="black"/>
<path d="M311.696 80.606V80.6739V84.6067V89.9961L298.534 80.0913V85.4758V96.1332H302.039V87.0878L315.202 96.7789V91.4964V84.6067V80.6739V80.606H311.696Z" fill="black"/>
<path d="M226.967 96.1329H230.788L225.122 80.0862L218.101 90.7727L211.08 80.0862L205.419 96.1329H209.24L212.114 87.5051L218.101 96.7787L224.092 87.5051L226.967 96.1329Z" fill="black"/>
<path d="M476.664 87.6898H468.662V90.8603H472.988C472.318 92.3994 470.337 93.2879 467.57 93.2879C463.763 93.2879 461.205 91.3458 461.205 88.4035C461.205 84.8834 464.642 83.6259 467.856 83.6259C470.114 83.5556 472.35 84.0886 474.333 85.1699L474.785 85.4078V81.9605L474.615 81.878C472.26 80.6787 469.444 80.4214 467.497 80.4214C461.719 80.4214 457.685 83.7036 457.685 88.3986C457.685 93.2539 461.666 96.4875 467.594 96.4875C472.882 96.4875 476.659 93.4044 476.78 88.9861C476.779 88.6384 476.753 88.2912 476.703 87.9471L476.664 87.6898Z" fill="black"/>
<path d="M519.154 90.5492C521.334 89.7092 522.669 87.9613 522.669 85.9027C522.669 83.4022 520.844 80.7075 516.843 80.7075H506.283V96.2444H509.939V91.1027H515.255L518.945 96.2396H523.189L519.154 90.5492ZM509.929 83.8829H516.095C517.882 83.8829 518.868 84.6015 518.868 85.9027C518.868 87.2039 517.897 87.9273 516.095 87.9273H509.929V83.8829Z" fill="black"/>
<path d="M487.38 83.854H499.417V80.7078H483.695V96.2398H499.417V93.0645H487.38V90.0591H497.329V86.8837H487.38V86.6701V83.854Z" fill="black"/>
<path d="M403.35 96.2009H407.472L396.965 80.1785L386.453 96.2009H390.575L392.289 93.5014H401.636L403.35 96.2009ZM399.703 90.462H394.222L394.508 90.0056L396.936 86.1213L399.703 90.462Z" fill="black"/>
<path d="M378.287 96.1766H382.108L376.447 80.1299L369.426 90.8164L362.405 80.1299L356.739 96.1766H360.56L363.435 87.5488L369.426 96.8224L375.413 87.5488L378.287 96.1766Z" fill="black"/>
<path d="M425.213 80.6397V80.7125V84.6453V90.0347L412.05 80.1299V85.5144V96.1718H415.556V87.1264L428.718 96.8175V91.535V84.6453V80.7125V80.6397H425.213Z" fill="black"/>
<path d="M450.193 96.0892H454.32L443.809 80.0425L433.297 96.0892H437.424L439.133 93.3897H448.479L450.193 96.0892ZM446.547 90.3745H441.065L441.357 89.9181L443.784 86.0339L446.547 90.3745Z" fill="black"/>
</g>
<g style="mix-blend-mode:multiply">
<circle cx="175.264" cy="376.564" r="172.064" fill="url(#paint0_linear_3756_11875)"/>
</g>
<path d="M3.20057 376.564C3.20057 281.536 80.2362 204.5 175.264 204.5C270.293 204.5 347.328 281.536 347.328 376.564" stroke="#FFB900" stroke-width="2.16"/>
<g style="mix-blend-mode:multiply">
<circle cx="468.716" cy="376.564" r="172.064" fill="url(#paint1_linear_3756_11875)"/>
</g>
<g style="mix-blend-mode:multiply">
<path d="M640.779 376.564C640.779 471.592 563.744 548.628 468.716 548.628C373.687 548.628 296.652 471.592 296.652 376.564" stroke="#0046DC" stroke-width="2.16"/>
</g>
<rect x="63.4277" y="299.54" width="211.185" height="45.095" rx="22.5475" fill="white"/>
<path d="M244.309 316.998C244.17 317.188 243.859 317.724 243.704 318.07C243.116 319.418 242.149 321.267 240.991 322.822C242.702 324.308 244.793 326.52 245.812 327.764L243.842 329.475C242.719 327.919 241.112 326.157 239.488 324.584C237.656 326.52 235.358 328.317 232.99 329.44L231.21 327.574C233.993 326.537 236.671 324.429 238.295 322.614C239.436 321.318 240.49 319.608 240.87 318.381H235.012C234.286 318.381 233.336 318.484 232.973 318.502V316.048C233.44 316.117 234.494 316.169 235.012 316.169H241.112C241.855 316.169 242.546 316.065 242.892 315.944L244.309 316.998Z" fill="black"/>
<path d="M225.37 314.718C225.802 315.357 226.424 316.446 226.752 317.085L225.353 317.672C225.007 316.964 224.471 315.944 224.005 315.271L225.37 314.718ZM227.409 313.94C227.875 314.579 228.515 315.685 228.809 316.29L227.443 316.878C227.081 316.152 226.528 315.15 226.044 314.493L227.409 313.94ZM217.922 315.461C217.836 315.979 217.784 316.774 217.784 317.258V320.524C219.823 320.023 222.225 319.262 223.763 318.606C224.385 318.364 224.972 318.087 225.646 317.672L226.579 319.867C225.906 320.143 225.128 320.472 224.558 320.679C222.812 321.37 220.03 322.234 217.784 322.787V325.984C217.784 326.727 218.13 326.917 218.907 327.073C219.426 327.142 220.134 327.176 220.912 327.176C222.709 327.176 225.508 326.952 226.925 326.572V329.095C225.301 329.336 222.674 329.457 220.773 329.457C219.65 329.457 218.613 329.388 217.87 329.267C216.367 328.991 215.503 328.161 215.503 326.675V317.258C215.503 316.878 215.451 315.979 215.365 315.461H217.922Z" fill="black"/>
<path d="M196.927 320.714C197.549 320.765 198.811 320.817 199.709 320.817H208.989C209.801 320.817 210.561 320.748 211.01 320.714V323.427C210.596 323.409 209.714 323.34 208.989 323.34H199.709C198.724 323.34 197.567 323.375 196.927 323.427V320.714Z" fill="black"/>
<path d="M190.983 321.077C190.983 325.362 189.946 327.971 185.781 329.803L183.933 328.058C187.268 326.9 188.736 325.414 188.736 321.163V320.506H184.641V322.856C184.641 323.617 184.693 324.325 184.71 324.671H182.291C182.343 324.325 182.395 323.634 182.395 322.856V320.506H180.926C180.062 320.506 179.44 320.541 179.06 320.575V318.225C179.353 318.277 180.062 318.381 180.926 318.381H182.395V316.67C182.395 316.169 182.343 315.633 182.291 315.115H184.745C184.693 315.443 184.641 315.996 184.641 316.67V318.381H188.736V316.567C188.736 315.875 188.685 315.305 188.633 314.959H191.104C191.052 315.305 190.983 315.875 190.983 316.567V318.381H192.261C193.177 318.381 193.696 318.346 194.162 318.26V320.558C193.782 320.524 193.177 320.506 192.261 320.506H190.983V321.077Z" fill="black"/>
<path d="M174.221 314.977C174.17 315.357 174.152 315.772 174.135 316.152C174.135 316.515 174.135 317.413 174.135 318.364C175.103 318.295 176.018 318.191 176.727 318.053L176.71 320.299C176.018 320.385 175.12 320.455 174.152 320.506C174.152 320.8 174.152 321.059 174.152 321.232C174.152 325.31 173.841 327.816 170.385 330.01L168.398 328.438C169.055 328.144 169.919 327.591 170.402 327.056C171.733 325.673 172.01 324.135 172.01 321.215C172.01 321.042 172.01 320.835 172.01 320.593C171.353 320.61 170.714 320.627 170.074 320.627C169.331 320.627 168.26 320.576 167.413 320.541V318.346C168.26 318.467 169.106 318.536 170.022 318.536C170.644 318.536 171.318 318.519 171.975 318.502C171.958 317.534 171.94 316.636 171.906 316.169C171.871 315.737 171.785 315.253 171.716 314.977H174.221ZM165.633 315.271C165.478 315.685 165.305 316.307 165.218 316.67C164.786 318.588 164.182 322.217 164.648 324.36C164.873 323.824 165.184 322.995 165.478 322.355L166.549 323.047C166.048 324.533 165.581 326.278 165.374 327.263C165.305 327.522 165.27 327.902 165.27 328.11C165.27 328.282 165.288 328.576 165.305 328.818L163.387 329.008C163.007 327.971 162.402 325.552 162.402 323.409C162.402 320.576 162.747 317.914 162.955 316.515C163.041 316.031 163.058 315.443 163.076 315.011L165.633 315.271Z" fill="black"/>
<path d="M153.624 322.442H150.617V324.74H153.624V322.442ZM155.507 326.537H150.617V327.747H148.768V320.645H155.507V326.537ZM159.309 316.964V327.816C159.309 328.939 159.067 329.526 158.341 329.855C157.615 330.183 156.509 330.218 154.954 330.218C154.885 329.63 154.574 328.697 154.28 328.144C155.3 328.213 156.457 328.196 156.803 328.179C157.131 328.179 157.235 328.092 157.235 327.781V318.968H147.074V330.2H145.018V316.964H149.787C150.15 316.031 150.496 314.942 150.703 314.078L153.312 314.441C152.95 315.305 152.518 316.204 152.103 316.964H159.309Z" fill="black"/>
<path d="M134.702 317.724V319.297H135.652C136.309 318.796 136.931 318.277 137.518 317.724H134.702ZM138.469 325.276V324.17H132.524V325.276H138.469ZM132.524 328.006H138.469V326.831H132.524V328.006ZM142.599 321.111H136.378C135.704 321.595 135.047 322.044 134.339 322.493H140.629V330.166H138.469V329.717H132.524V330.235H130.468V324.584C129.604 324.965 128.706 325.345 127.824 325.673C127.582 325.224 126.96 324.394 126.58 323.98C128.844 323.271 131.004 322.286 132.991 321.111H127.116V319.297H132.663V317.724H128.602V315.944H132.663V314.078H134.702V315.944H138.451V316.791C139.108 316.083 139.696 315.357 140.231 314.597L141.994 315.495C141.009 316.86 139.851 318.139 138.59 319.297H142.599V321.111Z" fill="black"/>
<path d="M119.703 318.571H115.573C115.815 319.02 116.039 319.539 116.16 319.901L115.867 319.953H119.098C119.305 319.539 119.513 319.037 119.703 318.571ZM125.284 326.278H120.273C121.742 327.176 123.746 327.85 125.751 328.161C125.284 328.611 124.679 329.475 124.368 330.028C122.243 329.492 120.152 328.455 118.562 327.107V330.218H116.541V327.211C114.934 328.472 112.808 329.475 110.752 330.01C110.458 329.509 109.87 328.714 109.438 328.3C111.374 327.902 113.413 327.176 114.899 326.278H109.94V324.584H116.541V323.824H111.564V322.338H116.541V321.56H110.7V319.953H113.983C113.845 319.521 113.62 319.003 113.396 318.605L113.603 318.571H109.991V316.895H112.307C112.065 316.238 111.616 315.409 111.236 314.752L112.998 314.147C113.499 314.89 114.07 315.91 114.311 316.584L113.465 316.895H115.037V314.078H116.955V316.895H118.234V314.078H120.169V316.895H121.707L121.085 316.705C121.5 315.996 121.932 314.959 122.174 314.199L124.334 314.717C123.85 315.512 123.383 316.29 122.986 316.895H125.232V318.571H121.984C121.707 319.072 121.431 319.539 121.172 319.953H124.558V321.56H118.562V322.338H123.746V323.824H118.562V324.584H125.284V326.278Z" fill="black"/>
<path d="M102.717 317.465H100.557C100.315 317.828 100.055 318.191 99.7962 318.536H102.146C102.336 318.208 102.544 317.845 102.717 317.465ZM105.516 321.301V320.144H103.494V321.301H105.516ZM105.516 323.997V322.805H103.494V323.997H105.516ZM99.7271 322.805V323.997H101.645V322.805H99.7271ZM101.645 321.301V320.144H99.7271V321.301H101.645ZM97.8954 325.604V320.696C97.7571 320.835 97.6189 320.956 97.4807 321.077C97.1696 320.679 96.4093 319.832 95.9773 319.452C97.6189 318.208 99.1568 316.169 100.038 314.113L102.06 314.752C101.904 315.08 101.749 315.409 101.576 315.737H103.771L104.185 315.616L105.499 316.567C105.153 317.189 104.756 317.88 104.324 318.536H107.434V325.604H97.8954ZM97.2387 315.824L96.0291 317.517C95.4416 316.929 94.1283 316.152 93.1088 315.703L94.2493 314.147C95.2515 314.562 96.5821 315.253 97.2387 315.824ZM96.3229 320.316L95.1306 322.027C94.5258 321.457 93.2471 320.731 92.2275 320.299L93.3335 318.744C94.3357 319.107 95.6663 319.763 96.3229 320.316ZM95.4243 323.271L97.0487 324.481C96.2711 326.347 95.3725 328.334 94.4739 330.028L92.625 328.818C93.4371 327.488 94.5603 325.31 95.4243 323.271ZM97.688 330.235L96.1847 329.095C97.0659 328.369 97.688 327.176 97.9645 326.001L99.6061 326.589C99.2605 327.902 98.7075 329.319 97.688 330.235ZM100.021 326.468L101.662 326.192C101.973 327.315 102.181 328.749 102.181 329.699L100.401 329.993C100.453 329.06 100.28 327.591 100.021 326.468ZM102.284 326.52L103.874 326.071C104.462 327.142 104.963 328.559 105.153 329.509L103.46 330.01C103.321 329.077 102.82 327.608 102.284 326.52ZM104.773 326.658L106.363 325.846C107.244 326.865 108.108 328.265 108.505 329.233L106.812 330.183C106.466 329.216 105.62 327.729 104.773 326.658Z" fill="black"/>
<path d="M273.751 420.828L269.986 415.807C270.431 415.609 270.832 415.359 271.18 415.05C272.161 414.184 272.652 412.993 272.652 411.477C272.652 409.983 272.154 408.803 271.161 407.94C270.168 407.074 268.821 406.643 267.118 406.643H265.422H262.012V420.828H265.422V416.347H266.411L269.765 420.828H273.751ZM265.427 413.513V409.48H266.581C267.413 409.48 268.035 409.644 268.445 409.974C268.855 410.304 269.109 410.798 269.109 411.47C269.109 412.825 268.233 413.51 266.581 413.51H265.427V413.513Z" fill="black"/>
<path d="M219.628 420.828H223.033L217.61 406.643H213.389L207.96 420.828H211.37L212.426 418.067H218.57L219.628 420.828ZM213.585 415.038L215.497 410.036L217.411 415.038H213.585Z" fill="black"/>
<path d="M160.894 383.584L157.037 390.93L153.178 383.584H149.279V397.772H152.687V389.522V389.496L155.24 394.349L155.332 394.526H158.74L158.832 394.349L161.364 389.536V389.545V397.772H164.774V383.589V383.584H160.894Z" fill="black"/>
<path d="M181.513 397.772H184.918L179.494 383.587H175.273L169.845 397.772H173.255L174.31 395.011H180.455L181.513 397.772ZM175.469 391.98L177.382 386.978L179.296 391.98H175.469Z" fill="black"/>
<path d="M160.894 406.643L157.037 413.986L153.178 406.643H149.279V420.828H152.687V412.578V412.555L155.24 417.407L155.332 417.583H158.74L158.832 417.407L161.364 412.592V412.601V420.828H164.774V406.648V406.643H160.894Z" fill="black"/>
<path d="M181.513 420.828H184.918L179.494 406.643H175.273L169.845 420.828H173.255L174.31 418.067H180.455L181.513 420.828ZM175.469 415.039L177.382 410.036L179.296 415.039H175.469Z" fill="black"/>
<path d="M247.305 386.615V383.584H237.46V383.591V397.772H247.305V394.739H240.87V392.197H246.312V389.166H240.87V386.615H247.305Z" fill="black"/>
<path d="M256.017 409.674V406.643H246.174V406.65V420.83H256.017V417.797H249.584V415.256H255.026V412.225H249.584V409.674H256.017Z" fill="black"/>
<path d="M201.619 397.772L197.855 392.751C198.299 392.552 198.7 392.303 199.048 391.994C200.029 391.128 200.52 389.937 200.52 388.42C200.52 386.927 200.023 385.747 199.03 384.884C198.037 384.018 196.689 383.587 194.986 383.587H193.29H189.88V397.772H193.29V393.291H194.279L197.633 397.772H201.619ZM193.293 390.454V386.424H194.447C195.279 386.424 195.901 386.588 196.311 386.918C196.721 387.248 196.974 387.742 196.974 388.414C196.974 389.769 196.099 390.454 194.447 390.454H193.293Z" fill="black"/>
<path d="M189.913 406.643H193.118L199.583 415.267V406.643H202.993V420.828H199.77L193.323 412.222V420.828H189.913V406.643Z" fill="black"/>
<path d="M234.202 415.433H236.437V417.654C235.854 417.779 235.287 417.841 234.741 417.841C233.364 417.841 232.283 417.483 231.5 416.768C230.716 416.052 230.327 415.059 230.327 413.79C230.327 412.546 230.737 411.551 231.557 410.803C232.377 410.055 233.463 409.683 234.817 409.683C236.11 409.683 237.382 409.935 238.633 410.436L239.748 407.516C239.077 407.181 238.31 406.918 237.444 406.724C236.575 406.532 235.711 406.435 234.854 406.435C233.165 406.435 231.693 406.752 230.44 407.386C229.186 408.021 228.226 408.901 227.562 410.027C226.899 411.154 226.564 412.456 226.564 413.938C226.564 415.394 226.894 416.657 227.553 417.726C228.212 418.797 229.133 419.614 230.32 420.179C231.507 420.745 232.887 421.029 234.465 421.029C236.515 421.029 238.359 420.662 239.999 419.928V412.61H234.204V415.433H234.202Z" fill="black"/>
<path d="M207.303 383.591H210.713V397.765H207.303V383.591Z" fill="black"/>
<path d="M217.598 383.584H220.803L227.268 392.209V383.584H230.678V397.77H227.455L221.008 389.166V397.772H217.598V383.584Z" fill="black"/>
<path d="M162.944 434.155H166.205L166.241 435.593C166.476 435.071 166.801 434.669 167.209 434.388C167.619 434.108 168.096 433.968 168.644 433.968C169.066 433.968 169.432 434.037 169.743 434.173L169.483 437.347C169.098 437.185 168.688 437.105 168.253 437.105C167.608 437.105 167.119 437.319 166.79 437.749C166.46 438.178 166.297 438.815 166.297 439.662V443.787H162.944V434.155Z" fill="black"/>
<path d="M179.146 444.101C177.978 444.101 176.96 443.898 176.091 443.494C175.223 443.09 174.547 442.506 174.071 441.74C173.591 440.973 173.354 440.057 173.354 438.986C173.354 438.016 173.559 437.144 173.969 436.373C174.379 435.602 174.967 434.992 175.729 434.545C176.494 434.097 177.379 433.873 178.384 433.873C179.824 433.873 180.971 434.307 181.821 435.17C182.671 436.036 183.098 437.208 183.098 438.688C183.098 439.124 183.061 439.51 182.985 439.845H176.651C176.824 440.403 177.151 440.819 177.63 441.087C178.107 441.354 178.764 441.488 179.596 441.488C180.13 441.488 180.669 441.433 181.215 441.32C181.761 441.209 182.245 441.052 182.669 440.853L182.966 443.374C182.457 443.612 181.87 443.792 181.206 443.914C180.54 444.039 179.854 444.101 179.146 444.101ZM179.964 437.829C179.913 437.333 179.743 436.941 179.453 436.652C179.16 436.366 178.785 436.223 178.326 436.223C177.381 436.223 176.805 436.758 176.593 437.829H179.964Z" fill="black"/>
<path d="M196.974 440.498C196.26 440.697 195.61 440.798 195.027 440.798C193.735 440.798 192.721 440.443 191.981 439.734C191.242 439.026 190.873 438.054 190.873 436.823C190.873 435.591 191.242 434.614 191.981 433.894C192.721 433.171 193.723 432.811 194.991 432.811C195.599 432.811 196.221 432.89 196.854 433.045C197.306 433.155 197.735 433.31 198.154 433.488L199.255 430.607C198.698 430.272 198.016 430.004 197.209 429.806C196.403 429.607 195.587 429.508 194.769 429.508C193.59 429.508 192.516 429.697 191.546 430.078C190.576 430.457 189.754 430.983 189.078 431.655C188.401 432.327 187.89 433.105 187.542 433.989C187.194 434.873 187.021 435.824 187.021 436.844C187.021 438.349 187.337 439.651 187.97 440.745C188.604 441.842 189.495 442.675 190.643 443.248C191.793 443.82 193.136 444.106 194.677 444.106C195.523 444.106 196.368 444 197.221 443.79C198.071 443.578 198.788 443.298 199.373 442.95L198.981 439.72C198.357 440.039 197.689 440.3 196.974 440.498Z" fill="black"/>
<path d="M205.085 444.101C206.114 444.101 206.949 443.265 206.949 442.234C206.949 441.203 206.114 440.366 205.085 440.366C204.055 440.366 203.221 441.203 203.221 442.234C203.221 443.265 204.055 444.101 205.085 444.101Z" fill="black"/>
<path d="M158.159 437.361H155.246V434.443H152.221V437.361H149.307V440.392H152.221V443.312H155.246V440.392H158.159V437.361Z" fill="black"/>
<path d="M109.005 378.363C108.991 378.363 108.975 378.361 108.961 378.361C104.404 378.361 100.602 381.59 99.7061 385.891C98.8099 381.592 95.0059 378.361 90.4509 378.361C90.4348 378.361 90.421 378.363 90.4072 378.363C90.3104 378.91 90.2505 379.469 90.2505 380.043C90.2505 385.263 94.4622 389.494 99.6646 389.517C99.6808 389.517 99.6946 389.519 99.7084 389.519C99.7222 389.519 99.7384 389.517 99.7522 389.517C104.955 389.492 109.166 385.263 109.166 380.043C109.162 379.469 109.102 378.91 109.005 378.363Z" fill="#0046DC"/>
<path d="M131.321 395.344C131.31 395.332 131.303 395.32 131.291 395.311C128.068 392.082 123.101 391.673 119.433 394.079C121.833 390.404 121.423 385.427 118.2 382.197C118.188 382.186 118.177 382.179 118.168 382.167C117.714 382.483 117.276 382.839 116.871 383.245C113.186 386.936 113.179 392.911 116.841 396.613C116.852 396.625 116.859 396.636 116.871 396.645C116.882 396.657 116.894 396.664 116.903 396.676C120.598 400.344 126.563 400.337 130.245 396.645C130.651 396.237 131.003 395.798 131.321 395.344Z" fill="#0046DC"/>
<path d="M135.116 423.162C135.116 423.148 135.118 423.132 135.118 423.118C135.118 418.552 131.895 414.743 127.603 413.845C131.893 412.947 135.118 409.136 135.118 404.572C135.118 404.556 135.116 404.542 135.116 404.529C134.57 404.432 134.013 404.372 133.439 404.372C128.23 404.372 124.006 408.591 123.983 413.804C123.983 413.82 123.981 413.834 123.981 413.848C123.981 413.861 123.983 413.878 123.983 413.891C124.009 419.104 128.23 423.324 133.439 423.324C134.013 423.319 134.57 423.259 135.116 423.162Z" fill="#0046DC"/>
<path d="M118.168 445.521C118.179 445.51 118.191 445.503 118.2 445.491C121.423 442.262 121.831 437.285 119.433 433.61C123.101 436.015 128.068 435.604 131.291 432.377C131.303 432.366 131.31 432.354 131.321 432.345C131.006 431.89 130.651 431.451 130.245 431.045C126.561 427.354 120.598 427.347 116.903 431.015C116.891 431.027 116.88 431.034 116.871 431.045C116.859 431.057 116.852 431.068 116.841 431.078C113.179 434.78 113.186 440.757 116.871 444.445C117.276 444.849 117.711 445.203 118.168 445.521Z" fill="#0046DC"/>
<path d="M90.403 449.323C90.4168 449.323 90.4329 449.325 90.4468 449.325C95.0041 449.325 98.8057 446.096 99.7019 441.795C100.598 446.094 104.402 449.325 108.957 449.325C108.973 449.325 108.987 449.323 109.001 449.323C109.098 448.776 109.158 448.217 109.158 447.642C109.158 442.423 104.946 438.192 99.7434 438.169C99.7273 438.169 99.7134 438.167 99.6996 438.167C99.6858 438.167 99.6697 438.169 99.6558 438.169C94.4534 438.194 90.2417 442.423 90.2417 447.642C90.2463 448.217 90.3062 448.776 90.403 449.323Z" fill="#0046DC"/>
<path d="M81.056 429.836C77.3857 427.403 72.3953 427.804 69.1604 431.043C68.7549 431.449 68.4024 431.888 68.0845 432.343C68.096 432.354 68.1029 432.366 68.1144 432.375C71.3377 435.604 76.3051 436.013 79.9731 433.61C77.5723 437.285 77.9825 442.262 81.2058 445.491C81.2173 445.503 81.2288 445.51 81.238 445.521C81.6919 445.205 82.1297 444.849 82.5352 444.443C85.7677 441.205 86.1686 436.205 83.7402 432.525C89.1384 433.017 94.7072 431.198 98.8406 427.056C103.571 422.317 105.269 415.692 103.939 409.596C97.8545 408.266 91.242 409.965 86.5119 414.704C82.3808 418.848 80.5652 424.425 81.056 429.836ZM97.7323 413.843C98.8221 413.843 99.7046 414.727 99.7046 415.819C99.7046 416.911 98.8221 417.795 97.7323 417.795C96.6426 417.795 95.7601 416.911 95.7601 415.819C95.7601 414.727 96.6426 413.843 97.7323 413.843Z" fill="#FFB900"/>
<path d="M64.2914 404.524C64.2914 404.538 64.2891 404.554 64.2891 404.568C64.2891 409.134 67.5124 412.943 71.8047 413.841C67.5147 414.739 64.2891 418.55 64.2891 423.113C64.2891 423.13 64.2914 423.143 64.2914 423.157C64.8374 423.254 65.395 423.314 65.9687 423.314C71.178 423.314 75.4012 419.095 75.4243 413.882C75.4243 413.866 75.4266 413.852 75.4266 413.838C75.4266 413.824 75.4243 413.808 75.4243 413.794C75.3989 408.582 71.178 404.362 65.9687 404.362C65.395 404.367 64.8351 404.427 64.2914 404.524Z" fill="#0046DC"/>
<path d="M81.2396 382.165C81.2281 382.177 81.2166 382.184 81.2073 382.195C77.9841 385.424 77.5762 390.401 79.977 394.076C76.309 391.671 71.3416 392.082 68.1183 395.309C68.1068 395.321 68.0999 395.332 68.0884 395.341C68.404 395.796 68.7588 396.235 69.1643 396.641C72.8484 400.332 78.8112 400.339 82.5068 396.671C82.5183 396.659 82.5298 396.653 82.5391 396.641C82.5506 396.629 82.5575 396.618 82.569 396.609C86.2301 392.906 86.2232 386.93 82.5391 383.241C82.1313 382.837 81.6935 382.484 81.2396 382.165Z" fill="#0046DC"/>
<rect x="360.135" y="299.54" width="228.465" height="45.095" rx="22.5475" fill="white"/>
<path d="M558.296 316.998C558.158 317.188 557.847 317.724 557.691 318.07C557.104 319.418 556.136 321.267 554.978 322.822C556.689 324.308 558.78 326.52 559.799 327.764L557.829 329.475C556.706 327.919 555.099 326.157 553.475 324.584C551.643 326.52 549.345 328.317 546.978 329.44L545.198 327.574C547.98 326.537 550.658 324.429 552.283 322.614C553.423 321.318 554.477 319.608 554.857 318.381H548.999C548.274 318.381 547.323 318.484 546.96 318.502V316.048C547.427 316.117 548.481 316.169 548.999 316.169H555.099C555.842 316.169 556.533 316.065 556.879 315.944L558.296 316.998Z" fill="black"/>
<path d="M539.357 314.718C539.789 315.357 540.411 316.446 540.74 317.085L539.34 317.672C538.994 316.964 538.459 315.944 537.992 315.271L539.357 314.718ZM541.396 313.94C541.863 314.579 542.502 315.685 542.796 316.29L541.431 316.878C541.068 316.152 540.515 315.15 540.031 314.493L541.396 313.94ZM531.91 315.461C531.823 315.979 531.771 316.774 531.771 317.258V320.524C533.81 320.023 536.212 319.262 537.75 318.606C538.372 318.364 538.96 318.087 539.634 317.672L540.567 319.867C539.893 320.143 539.115 320.472 538.545 320.679C536.8 321.37 534.018 322.234 531.771 322.787V325.984C531.771 326.727 532.117 326.917 532.894 327.073C533.413 327.142 534.121 327.176 534.899 327.176C536.696 327.176 539.495 326.952 540.912 326.572V329.095C539.288 329.336 536.661 329.457 534.761 329.457C533.637 329.457 532.601 329.388 531.858 329.267C530.354 328.991 529.49 328.161 529.49 326.675V317.258C529.49 316.878 529.438 315.979 529.352 315.461H531.91Z" fill="black"/>
<path d="M510.914 320.714C511.536 320.765 512.798 320.817 513.696 320.817H522.976C523.788 320.817 524.548 320.748 524.997 320.714V323.427C524.583 323.409 523.701 323.34 522.976 323.34H513.696C512.711 323.34 511.553 323.375 510.914 323.427V320.714Z" fill="black"/>
<path d="M504.97 321.077C504.97 325.362 503.933 327.971 499.768 329.803L497.919 328.058C501.254 326.9 502.723 325.414 502.723 321.163V320.506H498.628V322.856C498.628 323.617 498.68 324.325 498.697 324.671H496.278C496.33 324.325 496.381 323.634 496.381 322.856V320.506H494.913C494.049 320.506 493.427 320.541 493.046 320.575V318.225C493.34 318.277 494.049 318.381 494.913 318.381H496.381V316.67C496.381 316.169 496.33 315.633 496.278 315.115H498.732C498.68 315.443 498.628 315.996 498.628 316.67V318.381H502.723V316.567C502.723 315.875 502.671 315.305 502.62 314.959H505.091C505.039 315.305 504.97 315.875 504.97 316.567V318.381H506.248C507.164 318.381 507.683 318.346 508.149 318.26V320.558C507.769 320.524 507.164 320.506 506.248 320.506H504.97V321.077Z" fill="black"/>
<path d="M488.208 314.977C488.156 315.357 488.139 315.772 488.122 316.152C488.122 316.515 488.122 317.413 488.122 318.364C489.089 318.295 490.005 318.191 490.714 318.053L490.697 320.299C490.005 320.385 489.107 320.455 488.139 320.506C488.139 320.8 488.139 321.059 488.139 321.232C488.139 325.31 487.828 327.816 484.372 330.01L482.385 328.438C483.041 328.144 483.905 327.591 484.389 327.056C485.72 325.673 485.996 324.135 485.996 321.215C485.996 321.042 485.996 320.835 485.996 320.593C485.34 320.61 484.7 320.627 484.061 320.627C483.318 320.627 482.247 320.576 481.4 320.541V318.346C482.247 318.467 483.093 318.536 484.009 318.536C484.631 318.536 485.305 318.519 485.962 318.502C485.945 317.534 485.927 316.636 485.893 316.169C485.858 315.737 485.772 315.253 485.703 314.977H488.208ZM479.62 315.271C479.465 315.685 479.292 316.307 479.205 316.67C478.773 318.588 478.169 322.217 478.635 324.36C478.86 323.824 479.171 322.995 479.465 322.355L480.536 323.047C480.035 324.533 479.568 326.278 479.361 327.263C479.292 327.522 479.257 327.902 479.257 328.11C479.257 328.282 479.274 328.576 479.292 328.818L477.374 329.008C476.993 327.971 476.389 325.552 476.389 323.409C476.389 320.576 476.734 317.914 476.942 316.515C477.028 316.031 477.045 315.443 477.063 315.011L479.62 315.271Z" fill="black"/>
<path d="M467.61 322.442H464.604V324.74H467.61V322.442ZM469.494 326.537H464.604V327.747H462.755V320.645H469.494V326.537ZM473.295 316.964V327.816C473.295 328.939 473.054 329.526 472.328 329.855C471.602 330.183 470.496 330.218 468.941 330.218C468.872 329.63 468.561 328.697 468.267 328.144C469.286 328.213 470.444 328.196 470.79 328.179C471.118 328.179 471.222 328.092 471.222 327.781V318.968H461.061V330.2H459.005V316.964H463.774C464.137 316.031 464.483 314.942 464.69 314.078L467.299 314.441C466.936 315.305 466.504 316.204 466.09 316.964H473.295Z" fill="black"/>
<path d="M452.283 324.965H445.457V327.781H452.283V324.965ZM443.435 330.235V323.15H454.391V330.235H452.283V329.596H445.457V330.235H443.435ZM445.354 319.625H452.335C450.9 318.502 449.622 317.258 448.792 316.117C447.98 317.275 446.771 318.502 445.354 319.625ZM447.635 314.095H449.76C451.609 316.739 454.408 318.934 457.156 320.04C456.655 320.575 456.188 321.249 455.825 321.889C454.944 321.439 454.045 320.869 453.181 320.247V321.439H444.576V320.23C443.729 320.852 442.813 321.422 441.898 321.923C441.621 321.422 441.051 320.679 440.602 320.247C443.574 318.813 446.339 316.204 447.635 314.095Z" fill="black"/>
<path d="M424.151 324.187L425.845 324.481C425.672 326.105 425.309 327.833 424.808 328.939C424.445 328.714 423.685 328.351 423.235 328.196C423.736 327.176 424.013 325.638 424.151 324.187ZM428.955 323.064L427.97 323.133V330.235H426.156V323.271L423.598 323.444L423.425 321.647L424.704 321.595C424.963 321.267 425.24 320.904 425.499 320.524C424.998 319.781 424.151 318.847 423.425 318.156L424.393 316.739C424.531 316.86 424.67 316.981 424.808 317.102C425.292 316.152 425.776 314.994 426.069 314.095L427.884 314.735C427.262 315.927 426.553 317.258 425.931 318.225C426.156 318.467 426.363 318.726 426.536 318.951C427.158 317.983 427.711 316.981 428.126 316.117L429.871 316.843C428.903 318.364 427.694 320.126 426.57 321.526L428.316 321.457C428.126 321.042 427.918 320.627 427.711 320.264L429.162 319.625C429.854 320.783 430.545 322.286 430.752 323.271L429.197 323.997C429.145 323.72 429.059 323.409 428.955 323.064ZM428.005 324.567L429.525 324.083C429.992 325.103 430.441 326.451 430.648 327.332L429.024 327.902C428.886 327.021 428.437 325.621 428.005 324.567ZM433.154 325.345V327.902H436.455V325.345H433.154ZM436.455 316.791H433.154V319.193H436.455V316.791ZM436.455 323.496V321.025H433.154V323.496H436.455ZM438.528 327.902H439.686V329.751H429.577V327.902H431.167V314.942H438.528V327.902Z" fill="black"/>
<path d="M416.41 318.571H412.28C412.522 319.02 412.746 319.539 412.867 319.901L412.574 319.953H415.805C416.012 319.539 416.22 319.037 416.41 318.571ZM421.991 326.278H416.98C418.449 327.176 420.453 327.85 422.458 328.161C421.991 328.611 421.386 329.475 421.075 330.028C418.95 329.492 416.859 328.455 415.269 327.107V330.218H413.248V327.211C411.641 328.472 409.515 329.475 407.459 330.01C407.165 329.509 406.578 328.714 406.146 328.3C408.081 327.902 410.12 327.176 411.606 326.278H406.647V324.584H413.248V323.824H408.271V322.338H413.248V321.56H407.407V319.953H410.69C410.552 319.521 410.327 319.003 410.103 318.605L410.31 318.571H406.698V316.895H409.014C408.772 316.238 408.323 315.409 407.943 314.752L409.705 314.147C410.206 314.89 410.777 315.91 411.018 316.584L410.172 316.895H411.744V314.078H413.662V316.895H414.941V314.078H416.876V316.895H418.414L417.792 316.705C418.207 315.996 418.639 314.959 418.881 314.199L421.041 314.717C420.557 315.512 420.09 316.29 419.693 316.895H421.939V318.571H418.691C418.414 319.072 418.138 319.539 417.879 319.953H421.266V321.56H415.269V322.338H420.453V323.824H415.269V324.584H421.991V326.278Z" fill="black"/>
<path d="M399.424 317.465H397.264C397.022 317.828 396.762 318.191 396.503 318.536H398.853C399.043 318.208 399.251 317.845 399.424 317.465ZM402.223 321.301V320.144H400.201V321.301H402.223ZM402.223 323.997V322.805H400.201V323.997H402.223ZM396.434 322.805V323.997H398.352V322.805H396.434ZM398.352 321.301V320.144H396.434V321.301H398.352ZM394.602 325.604V320.696C394.464 320.835 394.326 320.956 394.188 321.077C393.877 320.679 393.116 319.832 392.684 319.452C394.326 318.208 395.864 316.169 396.745 314.113L398.767 314.752C398.611 315.08 398.456 315.409 398.283 315.737H400.478L400.892 315.616L402.206 316.567C401.86 317.189 401.463 317.88 401.031 318.536H404.141V325.604H394.602ZM393.946 315.824L392.736 317.517C392.149 316.929 390.835 316.152 389.816 315.703L390.956 314.147C391.959 314.562 393.289 315.253 393.946 315.824ZM393.03 320.316L391.838 322.027C391.233 321.457 389.954 320.731 388.935 320.299L390.04 318.744C391.043 319.107 392.373 319.763 393.03 320.316ZM392.131 323.271L393.756 324.481C392.978 326.347 392.08 328.334 391.181 330.028L389.332 328.818C390.144 327.488 391.267 325.31 392.131 323.271ZM394.395 330.235L392.892 329.095C393.773 328.369 394.395 327.176 394.672 326.001L396.313 326.589C395.968 327.902 395.415 329.319 394.395 330.235ZM396.728 326.468L398.369 326.192C398.68 327.315 398.888 328.749 398.888 329.699L397.108 329.993C397.16 329.06 396.987 327.591 396.728 326.468ZM398.992 326.52L400.581 326.071C401.169 327.142 401.67 328.559 401.86 329.509L400.167 330.01C400.028 329.077 399.527 327.608 398.992 326.52ZM401.48 326.658L403.07 325.846C403.951 326.865 404.815 328.265 405.212 329.233L403.519 330.183C403.173 329.216 402.327 327.729 401.48 326.658Z" fill="black"/>
<path d="M579.569 414.405H582.538V419.992H589.065V414.405H592.034V428.419H589.065V422.389H582.538V428.419H579.569V414.405Z" fill="black"/>
<path d="M562.085 414.405H566.768C567.85 414.405 568.778 414.59 569.553 414.958C570.339 415.327 570.942 415.856 571.36 416.544C571.79 417.22 572.005 418.032 572.005 418.978C572.005 419.826 571.79 420.576 571.36 421.228C570.942 421.867 570.407 422.383 569.755 422.776L573.388 428.419H570.087L567.211 423.514C567.149 423.514 567.082 423.514 567.008 423.514H564.906V428.419H562.085V414.405ZM566.307 421.301C568.176 421.301 569.11 420.521 569.11 418.96C569.11 417.411 568.2 416.636 566.381 416.636H564.906V421.301H566.307Z" fill="black"/>
<path d="M549.678 414.405H559.008V416.71H552.444V420.14H558.271V422.445H552.444V426.114H559.285V428.419H549.678V414.405Z" fill="black"/>
<path d="M546.78 427.57C545.968 427.915 545.102 428.179 544.18 428.363C543.27 428.535 542.342 428.621 541.396 428.621C539.847 428.621 538.495 428.333 537.339 427.755C536.196 427.165 535.305 426.341 534.665 425.284C534.039 424.227 533.725 422.985 533.725 421.559C533.725 420.097 534.057 418.812 534.721 417.706C535.397 416.599 536.331 415.739 537.523 415.124C538.716 414.51 540.105 414.202 541.691 414.202C542.527 414.202 543.369 414.301 544.217 414.497C545.065 414.682 545.827 414.952 546.503 415.309L546.024 417.706C545.335 417.386 544.61 417.146 543.848 416.987C543.098 416.815 542.348 416.728 541.598 416.728C540.615 416.728 539.755 416.925 539.017 417.319C538.292 417.712 537.726 418.265 537.321 418.978C536.915 419.679 536.712 420.502 536.712 421.449C536.712 422.899 537.142 424.043 538.003 424.878C538.863 425.714 540.056 426.132 541.58 426.132C542.416 426.132 543.239 426.022 544.051 425.8V422.832H541.34V420.619H546.78V427.57Z" fill="black"/>
<path d="M524.643 414.405H527.759L533.327 428.419H530.193L528.921 424.805H523.315L522.043 428.419H519.093L524.643 414.405ZM528.109 422.518L526.118 416.895L524.127 422.518H528.109Z" fill="black"/>
<path d="M504.608 414.405H507.208L514.344 424.086V414.405H517.036V428.419H514.436L507.318 418.775V428.419H504.608V414.405Z" fill="black"/>
<path d="M493.852 414.405H496.968L502.536 428.419H499.402L498.13 424.805H492.524L491.252 428.419H488.302L493.852 414.405ZM497.318 422.518L495.327 416.895L493.336 422.518H497.318Z" fill="black"/>
<path d="M471.278 414.405H474.468L478.801 422.813L483.134 414.405H486.232V428.419H483.466V418.536L479.926 425.358H477.565L474.044 418.517V428.419H471.278V414.405Z" fill="black"/>
<path d="M540.027 392.405H549.357V394.71H542.793V398.14H548.619V400.445H542.793V404.114H549.633V406.419H540.027V392.405Z" fill="black"/>
<path d="M524.325 392.405H526.925L534.061 402.086V392.405H536.753V406.419H534.153L527.036 396.775V406.419H524.325V392.405Z" fill="black"/>
<path d="M518.077 392.405H521.045V406.419H518.077V392.405Z" fill="black"/>
<path d="M504.608 392.405H509.291C510.373 392.405 511.301 392.59 512.076 392.958C512.862 393.327 513.465 393.856 513.883 394.544C514.313 395.22 514.528 396.032 514.528 396.978C514.528 397.826 514.313 398.576 513.883 399.228C513.465 399.867 512.93 400.383 512.278 400.776L515.911 406.419H512.61L509.734 401.514C509.672 401.514 509.605 401.514 509.531 401.514H507.429V406.419H504.608V392.405ZM508.83 399.301C510.699 399.301 511.633 398.521 511.633 396.96C511.633 395.411 510.723 394.636 508.904 394.636H507.429V399.301H508.83Z" fill="black"/>
<path d="M493.852 392.405H496.968L502.536 406.419H499.402L498.13 402.805H492.524L491.252 406.419H488.302L493.852 392.405ZM497.318 400.518L495.327 394.895L493.336 400.518H497.318Z" fill="black"/>
<path d="M471.278 392.405H474.468L478.801 400.813L483.134 392.405H486.232V406.419H483.466V396.536L479.926 403.358H477.565L474.044 396.517V406.419H471.278V392.405Z" fill="black"/>
<g clip-path="url(#clip1_3756_11875)">
<path d="M373.45 435.338C382.576 435.338 389.974 427.953 389.974 418.843C389.974 409.732 382.576 402.347 373.45 402.347C364.324 402.347 356.926 409.732 356.926 418.843C356.926 427.953 364.324 435.338 373.45 435.338Z" fill="#A7B1F2"/>
<path d="M394.374 432.934C409.177 432.934 421.177 420.954 421.177 406.176C421.177 391.398 409.177 379.418 394.374 379.418C379.57 379.418 367.57 391.398 367.57 406.176C367.57 420.954 379.57 432.934 394.374 432.934Z" fill="#0016E5"/>
<path d="M373.45 451.694C376.933 451.694 379.757 448.875 379.757 445.398C379.757 441.921 376.933 439.102 373.45 439.102C369.967 439.102 367.143 441.921 367.143 445.398C367.143 448.875 369.967 451.694 373.45 451.694Z" fill="#A7B1F2"/>
<path d="M384.454 388.307C390.132 388.307 394.734 383.713 394.734 378.045C394.734 372.377 390.132 367.782 384.454 367.782C378.777 367.782 374.174 372.377 374.174 378.045C374.174 383.713 378.777 388.307 384.454 388.307Z" fill="#A7B1F2"/>
<path d="M421.737 420.149C430.863 420.149 438.261 412.764 438.261 403.653C438.261 394.543 430.863 387.158 421.737 387.158C412.611 387.158 405.213 394.543 405.213 403.653C405.213 412.764 412.611 420.149 421.737 420.149Z" fill="#5770EA"/>
<path d="M438.972 390.773C441.146 390.773 442.908 389.014 442.908 386.844C442.908 384.674 441.146 382.915 438.972 382.915C436.799 382.915 435.037 384.674 435.037 386.844C435.037 389.014 436.799 390.773 438.972 390.773Z" fill="#5770EA"/>
<path d="M365.602 448.328C367.775 448.328 369.537 446.569 369.537 444.399C369.537 442.229 367.775 440.47 365.602 440.47C363.428 440.47 361.667 442.229 361.667 444.399C361.667 446.569 363.428 448.328 365.602 448.328Z" fill="#5770EA"/>
</g>
<path d="M322 137.9V158.6" stroke="#001450" stroke-width="1.8"/>
<path d="M1.6001 210.8V210.8C1.6001 182.468 24.5679 159.5 52.9001 159.5H591.1C619.432 159.5 642.4 182.468 642.4 210.8V210.8" stroke="#001450" stroke-width="1.8"/>
<defs>
<linearGradient id="paint0_linear_3756_11875" x1="175.264" y1="204.5" x2="175.264" y2="548.628" gradientUnits="userSpaceOnUse">
<stop stop-color="#FFF1CC"/>
<stop offset="1" stop-color="#FFF1CC" stop-opacity="0"/>
</linearGradient>
<linearGradient id="paint1_linear_3756_11875" x1="468.716" y1="204.5" x2="468.716" y2="548.628" gradientUnits="userSpaceOnUse">
<stop stop-color="#CCDCFF" stop-opacity="0"/>
<stop offset="1" stop-color="#CCDCFF"/>
</linearGradient>
<clipPath id="clip0_3756_11875">
<rect width="403.2" height="63.3298" fill="white" transform="translate(120.22 56.7678)"/>
</clipPath>
<clipPath id="clip1_3756_11875">
<rect width="86.4315" height="84.1266" fill="white" transform="translate(356.7 367.675)"/>
</clipPath>
</defs>
</svg>
