<svg fill="none" viewBox="0 0 278 24" xmlns="http://www.w3.org/2000/svg"><path d="m70.4156 22.4016.4143-20.60352-18.5728 8.11654c-.384-.65423-.9093-1.20954-1.5355-1.62329-7.7066-4.97361-16.7466-7.332987-25.8362-6.74301-7.9151.33806-15.55232 3.08561-21.93635 7.89179-.58853.51696-1.04324 1.17489-1.32372 1.91539s-.37799 1.5405-.28392 2.3289.3768 1.5408.82312 2.1902 1.04238 1.1758 1.73513 1.5322c8.37384 3.4905 17.33224 5.272 26.37244 5.2446 7.2331-.3734 14.2614-2.5879 20.4495-6.4433.7001-.4684 1.2709-1.1134 1.6574-1.8731 5.7963 3.1697 11.8271 5.8669 18.0366 8.0666z" fill="#001450"/><path d="m174.416 22.4016.414-20.60352-18.573 8.11654c-.384-.65423-.909-1.20954-1.535-1.62329-7.707-4.97361-16.747-7.332987-25.837-6.74301-7.915.33806-15.552 3.08561-21.936 7.89179-.588.51696-1.043 1.17489-1.324 1.91539-.28.7405-.378 1.5405-.284 2.3289s.377 1.5408.824 2.1902c.446.6494 1.042 1.1758 1.735 1.5322 8.373 3.4905 17.332 5.272 26.372 5.2446 7.233-.3734 14.261-2.5879 20.45-6.4433.7-.4684 1.27-1.1134 1.657-1.8731 5.796 3.1697 11.827 5.8669 18.037 8.0666z" fill="#0441ad"/><path d="m277.109 20.9421.414-20.603493-18.573 8.116543c-.384-.65424-.909-1.20955-1.535-1.62329-7.707-4.97361-16.747-7.33299-25.836-6.7430079-7.915.3380539-15.553 3.0856079-21.937 7.8917879-.588.51696-1.043 1.17492-1.323 1.91538-.281.74048-.378 1.54048-.284 2.32888s.377 1.5408.823 2.1902 1.042 1.1758 1.735 1.5322c8.374 3.4905 17.332 5.272 26.372 5.2446 7.234-.3734 14.262-2.5879 20.45-6.4433.7-.4684 1.271-1.1134 1.657-1.873 5.797 3.1696 11.827 5.8668 18.037 8.0665z" fill="#ffb900"/></svg>